<svg xmlns="http://www.w3.org/2000/svg" xmlns:xlink="http://www.w3.org/1999/xlink" viewBox="0 0 50 50"><defs><style>.a{fill:none;}.b{clip-path:url(#a);}.c{fill:url(#b);}.d{fill:#fff;}.e{fill:#7c2a6c;}</style><clipPath id="a"><path class="a" d="M42.31,2.35,7,5.21A4.6,4.6,0,0,0,2.73,9.79V43.07a4.58,4.58,0,0,0,4.59,4.59H40.51a4.6,4.6,0,0,0,4.59-4.32L47.27,7.21a4.59,4.59,0,0,0-4.58-4.87h-.38"/></clipPath><linearGradient id="b" x1="-952.2" y1="236.57" x2="-951.2" y2="236.57" gradientTransform="matrix(44.55, 0, 0, -44.55, 42423.35, 10564.15)" gradientUnits="userSpaceOnUse"><stop offset="0" stop-color="#232451"/><stop offset="1" stop-color="#2a307a"/></linearGradient></defs><title>compte</title><g class="b"><rect class="c" x="2.73" y="2.34" width="44.7" height="45.33"/></g><path class="d" d="M16.53,33.68a.19.19,0,0,0,.21.06L18.89,33a10.11,10.11,0,0,0,2.84,1.53l.53,2.22a.18.18,0,0,0,.16.15l2.73.28a.2.2,0,0,0,.19-.11l1-2.08A9.89,9.89,0,0,0,29.39,34l1.95,1.21a.18.18,0,0,0,.21,0l2.13-1.73a.19.19,0,0,0,.06-.21L33,31.11a10.11,10.11,0,0,0,1.53-2.84l2.22-.53a.19.19,0,0,0,.15-.16l.28-2.73a.2.2,0,0,0-.11-.19l-2.08-1A9.89,9.89,0,0,0,34,20.61l1.21-1.95a.2.2,0,0,0,0-.22l-1.73-2.12a.19.19,0,0,0-.21-.06l-2.15.79a10.11,10.11,0,0,0-2.84-1.53l-.53-2.23a.18.18,0,0,0-.16-.14l-2.73-.28a.2.2,0,0,0-.19.11l-1,2.08a9.89,9.89,0,0,0-3.09.93l-1.95-1.21a.2.2,0,0,0-.22,0l-2.12,1.73a.19.19,0,0,0-.06.21l.79,2.15a10.11,10.11,0,0,0-1.53,2.84l-2.23.53a.19.19,0,0,0-.14.16l-.28,2.73a.2.2,0,0,0,.11.19l2.08,1A9.89,9.89,0,0,0,16,29.39l-1.21,1.95a.2.2,0,0,0,0,.22Z"/><path class="e" d="M25,27.76a2.76,2.76,0,1,1,.4,0,2.69,2.69,0,0,1-.4,0m0-4.88-.31,0a2,2,0,1,0,.31,0"/><path class="e" d="M25,31.78q-.35,0-.69,0l-.22,0A6.58,6.58,0,0,1,23,31.49H23l-.08,0a.16.16,0,0,1-.11-.15.09.09,0,0,1,0-.05.15.15,0,0,1,.2-.1,6.89,6.89,0,0,0,1.35.28,6.45,6.45,0,0,0,7.08-5.78q0-.33,0-.66A6.38,6.38,0,0,0,30,20.92a6.46,6.46,0,0,0-11.44,3.43c0,.22,0,.44,0,.65a6.45,6.45,0,0,0,.61,2.74.17.17,0,0,1,0,.07.16.16,0,0,1-.3.07A6.65,6.65,0,0,1,18.22,25c0-.22,0-.45,0-.68a6.8,6.8,0,0,1,7.43-6.07A6.79,6.79,0,0,1,31.78,25q0,.35,0,.69A6.77,6.77,0,0,1,25,31.78"/><path class="d" d="M30.84,26.75a.09.09,0,0,0,0-.11L30,25.87a5.18,5.18,0,0,0,0-1.62l.87-.76a.08.08,0,0,0,0-.1l-.51-1.28s-.05-.07-.09-.06l-1.15.05A5,5,0,0,0,28,20.94l.09-1.15A.1.1,0,0,0,28,19.7l-1.27-.54a.09.09,0,0,0-.11,0l-.77.85a5.18,5.18,0,0,0-1.62,0l-.76-.87a.08.08,0,0,0-.1,0l-1.28.51s-.07.05-.06.09l.05,1.15A5,5,0,0,0,20.94,22l-1.15-.09a.1.1,0,0,0-.09.06l-.54,1.27a.09.09,0,0,0,0,.11l.85.77a5.18,5.18,0,0,0,0,1.62l-.87.76a.08.08,0,0,0,0,.1l.51,1.28s.05.07.09.06l1.15-.05A5.23,5.23,0,0,0,22,29.06l-.09,1.15a.1.1,0,0,0,.06.09l1.27.54a.09.09,0,0,0,.11,0l.77-.85a5.18,5.18,0,0,0,1.62,0l.76.87a.08.08,0,0,0,.1,0l1.28-.51s.07-.05.06-.09l-.05-1.15A5,5,0,0,0,29.06,28l1.15.09A.1.1,0,0,0,30.3,28Z"/><path class="e" d="M26.25,24.35a1.38,1.38,0,0,1,.14.87,1.41,1.41,0,1,1-2.22-1.36,1.4,1.4,0,0,1,1-.25,1.38,1.38,0,0,1,.92.56,1.74,1.74,0,0,1,.11.18m-2.17,1.13a.57.57,0,0,0,.08.13,1,1,0,0,0,1.45.23,1,1,0,1,0-1.22-1.68,1,1,0,0,0-.31,1.32"/><path class="e" d="M28.14,23.37l.15.32a4.18,4.18,0,0,1,.2.69v0a.18.18,0,0,1-.09.2l-.06,0a.2.2,0,0,1-.22-.16,2.45,2.45,0,0,0-.18-.64v0A3.15,3.15,0,0,0,27,22.56a3.31,3.31,0,0,0-.72-.44h0a3.15,3.15,0,0,0-2.41,0l-.29.14a3.14,3.14,0,0,0,2.63,5.7l.29-.14a3.07,3.07,0,0,0,1.05-.88.1.1,0,0,1,.06,0,.18.18,0,0,1,.2,0,.19.19,0,0,1,0,.26,3.42,3.42,0,0,1-1.16,1,2.41,2.41,0,0,1-.33.15,3.51,3.51,0,0,1-4.54-4.64,3.42,3.42,0,0,1,1.6-1.73,2.53,2.53,0,0,1,.33-.16,3.53,3.53,0,0,1,4.42,1.64"/></svg>