<svg xmlns="http://www.w3.org/2000/svg" xmlns:xlink="http://www.w3.org/1999/xlink" viewBox="0 0 50 50"><defs><style>.a,.e{fill:none;}.b{clip-path:url(#a);}.c{fill:url(#b);}.d{fill:#fff;}.e{stroke:#fff;stroke-linecap:round;stroke-linejoin:round;stroke-width:0.75px;}</style><clipPath id="a"><path class="a" d="M42.31,2.35,7,5.21A4.6,4.6,0,0,0,2.73,9.79V43.07a4.58,4.58,0,0,0,4.59,4.59H40.51a4.6,4.6,0,0,0,4.59-4.32L47.27,7.21a4.59,4.59,0,0,0-4.58-4.87h-.38"/></clipPath><linearGradient id="b" x1="-1089.06" y1="237.9" x2="-1088.06" y2="237.9" gradientTransform="matrix(44.55, 0, 0, -44.55, 48520.35, 10623.23)" gradientUnits="userSpaceOnUse"><stop offset="0" stop-color="#232451"/><stop offset="1" stop-color="#2a307a"/></linearGradient></defs><title>compte</title><g class="b"><rect class="c" x="2.73" y="2.34" width="44.7" height="45.33"/></g><path class="d" d="M35.5,18.94a9.57,9.57,0,0,0-7.27-3.37c-4.13,0-7.06,2.09-8.76,6.27H34.14l-1,2.08H19A7.63,7.63,0,0,0,18.9,25,5.86,5.86,0,0,0,19,26H32.19l-1,2.08H19.47q2.54,6.35,8.76,6.35A9.28,9.28,0,0,0,35.5,31v3a11.85,11.85,0,0,1-7.27,2.54q-8.52,0-11.12-8.42H13.55l1-2.08h2.2c0-.31,0-.65,0-1s0-.73,0-1.06H13.55l1-2.08h2.58Q20,13.5,28.23,13.5a11.41,11.41,0,0,1,8.22,3.43Z"/><path class="e" d="M35.5,18.94a9.57,9.57,0,0,0-7.27-3.37c-4.13,0-7.06,2.09-8.76,6.27H34.14l-1,2.08H19A7.63,7.63,0,0,0,18.9,25,5.86,5.86,0,0,0,19,26H32.19l-1,2.08H19.47q2.54,6.35,8.76,6.35A9.28,9.28,0,0,0,35.5,31v3a11.85,11.85,0,0,1-7.27,2.54q-8.52,0-11.12-8.42H13.55l1-2.08h2.2c0-.31,0-.65,0-1s0-.73,0-1.06H13.55l1-2.08h2.58Q20,13.5,28.23,13.5a11.41,11.41,0,0,1,8.22,3.43Z"/></svg>