<svg xmlns="http://www.w3.org/2000/svg" xmlns:xlink="http://www.w3.org/1999/xlink" viewBox="0 0 243 350"><defs><style>.a{fill:none;}.b{clip-path:url(#a);}.c{fill:#3f3764;}.d{font-size:24px;}.d,.e{fill:#f7f7f2;font-family:Arial-BoldMT, Arial;font-weight:700;}.e{font-size:36px;}.f{opacity:0.5;}.g{clip-path:url(#e);}.h{fill:#1cb5ba;}.i{fill:#beceeb;}.j{opacity:0.43;}.k{clip-path:url(#f);}.l{fill:#fff;}.m{fill:#95b0dd;}.n{clip-path:url(#g);}.o{clip-path:url(#h);}.p{fill:url(#i);}.q{clip-path:url(#k);}.r{fill:url(#l);}.s{clip-path:url(#n);}.t{fill:url(#o);}.u{opacity:0.6;}.v{clip-path:url(#q);}.w{clip-path:url(#r);}.x{clip-path:url(#s);}.y{clip-path:url(#t);}.z{clip-path:url(#u);}.aa{clip-path:url(#v);}.ab{clip-path:url(#w);}.ac{clip-path:url(#x);}.ad{clip-path:url(#y);}.ae{clip-path:url(#z);}.af{clip-path:url(#aa);}.ag{clip-path:url(#ab);}.ah{clip-path:url(#ac);}.ai{clip-path:url(#ad);}.aj{fill:url(#ae);}.ak{clip-path:url(#ag);}.al{fill:url(#ah);}.am{clip-path:url(#aj);}.an{fill:url(#ak);}.ao{clip-path:url(#al);}.ap{fill:url(#am);}.aq{clip-path:url(#an);}.ar{fill:url(#ao);}.as{clip-path:url(#aq);}.at{fill:url(#ar);}.au{clip-path:url(#as);}.av{fill:url(#at);}.aw{clip-path:url(#au);}.ax{fill:url(#av);}.ay{clip-path:url(#aw);}.az{fill:url(#ax);}.ba{clip-path:url(#ay);}.bb{fill:url(#az);}.bc{clip-path:url(#ba);}.bd{fill:url(#bb);}.be{clip-path:url(#bc);}.bf{fill:url(#bd);}.bg{clip-path:url(#be);}.bh{fill:url(#bf);}.bi{clip-path:url(#bg);}.bj{fill:url(#bh);}.bk{clip-path:url(#bi);}.bl{fill:url(#bj);}.bm{clip-path:url(#bk);}.bn{fill:url(#bl);}.bo{clip-path:url(#bm);}.bp{fill:url(#bn);}.bq{clip-path:url(#bp);}.br{fill:url(#bq);}.bs{clip-path:url(#bs);}.bt{fill:url(#bt);}.bu{clip-path:url(#bu);}.bv{fill:url(#bv);}.bw{clip-path:url(#bw);}.bx{fill:url(#bx);}.by{clip-path:url(#by);}.bz{fill:url(#bz);}.ca{clip-path:url(#ca);}.cb{fill:url(#cb);}.cc{clip-path:url(#cc);}.cd{fill:url(#cd);}.ce{clip-path:url(#ce);}.cf{fill:url(#cf);}.cg{clip-path:url(#cg);}.ch{fill:url(#ch);}.ci{clip-path:url(#ci);}.cj{fill:url(#cj);}.ck{clip-path:url(#ck);}.cl{fill:url(#cl);}.cm{clip-path:url(#cm);}.cn{fill:url(#cn);}.co{clip-path:url(#co);}.cp{fill:url(#cp);}.cq{opacity:0.62;}.cr{clip-path:url(#cr);}.cs{clip-path:url(#cs);}.ct{clip-path:url(#ct);}.cu{clip-path:url(#cu);}.cv{clip-path:url(#cv);}.cw{fill:url(#cw);}.cx{clip-path:url(#cx);}.cy{fill:url(#cy);}.cz{clip-path:url(#cz);}.da{fill:url(#da);}.db{clip-path:url(#db);}.dc{fill:url(#dc);}.dd{clip-path:url(#dd);}.de{fill:url(#de);}.df{clip-path:url(#df);}.dg{fill:url(#dg);}.dh{clip-path:url(#dh);}.di{fill:url(#di);}.dj{clip-path:url(#dj);}.dk{fill:url(#dk);}.dl{clip-path:url(#dl);}.dm{fill:url(#dm);}.dn{clip-path:url(#dn);}.do{fill:url(#do);}.dp{fill:#e61a73;}.dq{clip-path:url(#dq);}.dr{fill:url(#dr);}.ds{clip-path:url(#ds);}.dt{fill:url(#dt);}.du{clip-path:url(#du);}.dv{fill:url(#dv);}.dw{clip-path:url(#dw);}.dx{fill:url(#dx);}.dy{clip-path:url(#dy);}.dz{fill:url(#dz);}.ea{clip-path:url(#ea);}.eb{fill:url(#eb);}.ec{clip-path:url(#ec);}.ed{fill:url(#ed);}.ee{clip-path:url(#ee);}.ef{fill:url(#ef);}.eg{clip-path:url(#eg);}.eh{fill:url(#eh);}.ei{clip-path:url(#ei);}.ej{fill:url(#ej);}.ek{clip-path:url(#ek);}.el{fill:url(#el);}.em{clip-path:url(#em);}.en{fill:url(#en);}.eo{clip-path:url(#eo);}.ep{fill:url(#ep);}.eq{clip-path:url(#er);}.er{fill:url(#es);}.es{clip-path:url(#et);}.et{fill:url(#eu);}.eu{clip-path:url(#ew);}.ev{fill:url(#ex);}.ew{clip-path:url(#ez);}.ex{fill:url(#fa);}.ey{clip-path:url(#fb);}.ez{fill:url(#fc);}.fa{clip-path:url(#fd);}.fb{fill:url(#fe);}.fc{clip-path:url(#ff);}.fd{fill:url(#fg);}.fe{clip-path:url(#fh);}.ff{fill:url(#fi);}.fg{clip-path:url(#fj);}.fh{fill:url(#fk);}.fi{clip-path:url(#fl);}.fj{fill:url(#fm);}.fk{clip-path:url(#fn);}.fl{fill:url(#fo);}.fm{clip-path:url(#fp);}.fn{fill:url(#fq);}.fo{clip-path:url(#fr);}.fp{fill:url(#fs);}.fq{clip-path:url(#ft);}.fr{fill:url(#fu);}.fs{clip-path:url(#fv);}.ft{fill:url(#fw);}</style><clipPath id="a"><rect class="a" width="243" height="621"/></clipPath><clipPath id="e"><rect class="a" x="13.9" y="127.38" width="215.2" height="217.23"/></clipPath><clipPath id="f"><rect class="a" x="22.58" y="226.24" width="34.23" height="100.37"/></clipPath><clipPath id="g"><rect class="a" x="38.63" y="201.26" width="34.87" height="107.62"/></clipPath><clipPath id="h"><path class="a" d="M58.63,149.92A13.62,13.62,0,0,0,45,163.54V332.6a8.41,8.41,0,0,0,8.55,8.4l132.79-2.42a8.84,8.84,0,0,0,8.68-9.29l-8.55-168a12,12,0,0,0-12-11.39Z"/></clipPath><linearGradient id="i" y1="620.99" x2="1" y2="620.99" gradientTransform="matrix(0, -315.6, -315.6, 0, 196103.27, 329.67)" gradientUnits="userSpaceOnUse"><stop offset="0" stop-color="#232451"/><stop offset="1" stop-color="#2a307a"/></linearGradient><clipPath id="k"><path class="a" d="M54.5,152.5l1,177.22a3.34,3.34,0,0,0,3,3.3c27.79,2.91,105.71-1.41,124.62-2.53a4.22,4.22,0,0,0,4-4.43l-9-168.73a3.65,3.65,0,0,0-3.94-3.44c-45,3.45-99.39-3.19-115.21-5.33a3.27,3.27,0,0,0-.54,0,4,4,0,0,0-4,4"/></clipPath><linearGradient id="l" y1="620.98" x2="1" y2="620.98" gradientTransform="matrix(0, -196.43, -196.43, 0, 122102.64, 354.19)" gradientUnits="userSpaceOnUse"><stop offset="0" stop-color="#40509e"/><stop offset="1" stop-color="#4857a3"/></linearGradient><clipPath id="n"><path class="a" d="M70.46,169.25l1.62,34.81a2.21,2.21,0,0,0,2.15,2.11c6.44.18,26.53.67,37.87.08a2.46,2.46,0,0,0,2.34-2.39c.22-6.53.69-25.53-.79-33.47a2.8,2.8,0,0,0-2.65-2.27l-38.11-1.33h-.08a2.35,2.35,0,0,0-2.35,2.46"/></clipPath><linearGradient id="o" y1="621" x2="1" y2="621" gradientTransform="matrix(44.23, 0, 0, -44.23, 70.46, 27655.26)" gradientUnits="userSpaceOnUse"><stop offset="0" stop-color="#dae1f3"/><stop offset="1" stop-color="#e9effa"/></linearGradient><clipPath id="q"><rect class="a" x="122.93" y="169.17" width="44.19" height="3.11"/></clipPath><clipPath id="r"><rect class="a" x="122.93" y="180.02" width="44.19" height="3.11"/></clipPath><clipPath id="s"><rect class="a" x="122.93" y="191.89" width="44.19" height="3.11"/></clipPath><clipPath id="t"><rect class="a" x="71" y="213.98" width="100.14" height="3.12"/></clipPath><clipPath id="u"><rect class="a" x="72.11" y="252.45" width="10.24" height="8.53"/></clipPath><clipPath id="v"><rect class="a" x="89.09" y="255.1" width="80.05" height="4.1"/></clipPath><clipPath id="w"><rect class="a" x="71.57" y="234.3" width="10.24" height="8.53"/></clipPath><clipPath id="x"><rect class="a" x="88.55" y="236.96" width="80.05" height="4.1"/></clipPath><clipPath id="y"><rect class="a" x="72.11" y="270.15" width="10.24" height="8.53"/></clipPath><clipPath id="z"><rect class="a" x="89.09" y="272.81" width="80.05" height="4.1"/></clipPath><clipPath id="aa"><rect class="a" x="72.11" y="287.86" width="10.24" height="8.53"/></clipPath><clipPath id="ab"><rect class="a" x="89.09" y="290.52" width="80.05" height="4.1"/></clipPath><clipPath id="ac"><rect class="a" x="121.18" y="308.85" width="51.45" height="4.1"/></clipPath><clipPath id="ad"><path class="a" d="M114.69,133.47a3.28,3.28,0,1,1,3.28,3.27,3.28,3.28,0,0,1-3.28-3.27m-1.33-8.55a5.1,5.1,0,0,0-3.62,5.37l1.1,12.06L124,143.51s8-10.78-.24-16.49a12.74,12.74,0,0,0-7.36-2.54,10.44,10.44,0,0,0-3,.44"/></clipPath><linearGradient id="ae" y1="621.02" y2="621.02" gradientTransform="matrix(-88.06, 0, 0, 88.06, 149.7, -54552.85)" xlink:href="#i"/><clipPath id="ag"><path class="a" d="M92.9,144.08v6.06l49.44.88-.35-5.83a3.6,3.6,0,0,0-3.47-3.38l-41.8-1.43H96.6a3.7,3.7,0,0,0-3.7,3.7"/></clipPath><linearGradient id="ah" y1="620.99" y2="620.99" gradientTransform="matrix(-88.06, 0, 0, 88.06, 157.8, -54538.47)" xlink:href="#i"/><clipPath id="aj"><path class="a" d="M79.8,147.92a3.94,3.94,0,0,0-3.93,3.75L75.71,155a3,3,0,0,0,3,3.16h75a4.64,4.64,0,0,0,4.57-5.43l-.07-.36a5.39,5.39,0,0,0-5.32-4.48Z"/></clipPath><linearGradient id="ak" y1="621" y2="621" gradientTransform="matrix(-51.34, 0, 0, 51.34, 176.04, -31726.81)" xlink:href="#l"/><clipPath id="al"><path class="a" d="M132.58,291.34a37,37,0,0,1,2.56-10.88,8.18,8.18,0,0,1,2.48-3.38,3.86,3.86,0,0,1,2.19-.71,2.75,2.75,0,0,1,1.54.44c.89.6,1.42,1.73,1.65,3.57,1,7.65-2,14.7-4.71,19.26a64.59,64.59,0,0,1-6.55,8.95,129,129,0,0,1,.84-17.25m4.58-14.92a8.94,8.94,0,0,0-2.75,3.71,37.78,37.78,0,0,0-2.63,11.11,131,131,0,0,0-.83,18.25c-1.78,2-3.63,4-5.45,5.95l.58.55c1.64-1.74,3.3-3.51,4.91-5.33.2,4.52,1,9.34,4.34,12.42a3.68,3.68,0,0,0,2.47,1.18h.09c1.36-.05,2.31-1.15,3.06-2.23a50.81,50.81,0,0,0,5.74-10.79,12.12,12.12,0,0,0,.23,1.71c.44,2.23,1.62,3.73,3.15,4,2.22.43,3.89-1.68,5-3.3l3.05-4.63c-.1,1.91.49,3.24,1.72,3.75s2.58-.15,3.79-.83a5.91,5.91,0,0,1,2.46-1c-.24,1.94.12,4,1.85,4.37,1.27.28,2.19-.58,3.09-1.41a5.14,5.14,0,0,1,2-1.33l-.19-.78a5.65,5.65,0,0,0-2.32,1.52c-.82.75-1.52,1.41-2.38,1.22-1.31-.29-1.45-2.29-1.17-3.91l.08-.41-.42-.05a5.53,5.53,0,0,0-3.37,1.05c-1.08.61-2.11,1.19-3.08.79-1.7-.7-1.25-3.49-1-4.66l.51-2.19-5.28,8c-1.49,2.27-2.81,3.2-4.14,2.95-1.77-.34-2.37-2.68-2.52-3.39a12.59,12.59,0,0,1-.15-4c.42-1.27.79-2.56,1.1-3.86l-.75-.27a13.34,13.34,0,0,0-1.13,3.95,49.76,49.76,0,0,1-6.48,12.93c-.64.91-1.42,1.85-2.43,1.89a2.89,2.89,0,0,1-2-1c-3.35-3.07-4-8.12-4.11-12.7a67.45,67.45,0,0,0,7.22-9.74c2.76-4.67,5.83-11.9,4.82-19.77-.17-1.31-.56-3.17-2-4.14a3.56,3.56,0,0,0-2-.57,4.71,4.71,0,0,0-2.65.85"/></clipPath><linearGradient id="am" y1="621" y2="621" gradientTransform="matrix(47.46, 0, 0, -47.46, 125.5, 29769.93)" xlink:href="#i"/><clipPath id="an"><path class="a" d="M152.46,141.1v33a16.76,16.76,0,0,0,16.76,16.75H194.3a16.75,16.75,0,0,0,16.75-16.75v-33Z"/></clipPath><linearGradient id="ao" y1="621.01" y2="621.01" gradientTransform="matrix(-76.32, 0, 0, 76.32, 202.26, -47226.6)" xlink:href="#l"/><clipPath id="aq"><rect class="a" x="155.84" y="142.88" width="2.02" height="3.43"/></clipPath><linearGradient id="ar" y1="621" y2="621" gradientTransform="matrix(23.01, 0, 0, -23.01, 154.57, 14435.91)" xlink:href="#l"/><clipPath id="as"><rect class="a" x="160.38" y="142.88" width="2.02" height="3.43"/></clipPath><linearGradient id="at" y1="621" y2="621" gradientTransform="matrix(23.01, 0, 0, -23.01, 157.26, 14435.95)" xlink:href="#l"/><clipPath id="au"><rect class="a" x="164.39" y="142.88" width="2.02" height="3.43"/></clipPath><linearGradient id="av" y1="621" y2="621" gradientTransform="matrix(23.01, 0, 0, -23.01, 159.63, 14435.91)" xlink:href="#l"/><clipPath id="aw"><rect class="a" x="168.93" y="142.88" width="2.02" height="3.43"/></clipPath><linearGradient id="ax" y1="621" y2="621" gradientTransform="matrix(23.01, 0, 0, -23.01, 162.37, 14435.91)" xlink:href="#l"/><clipPath id="ay"><rect class="a" x="172.93" y="142.88" width="2.02" height="3.43"/></clipPath><linearGradient id="az" y1="621" y2="621" gradientTransform="matrix(23.01, 0, 0, -23.01, 164.7, 14435.95)" xlink:href="#l"/><clipPath id="ba"><rect class="a" x="177.47" y="142.88" width="2.02" height="3.43"/></clipPath><linearGradient id="bb" y1="621" y2="621" gradientTransform="matrix(23.01, 0, 0, -23.01, 167.39, 14435.95)" xlink:href="#l"/><clipPath id="bc"><rect class="a" x="181.48" y="142.88" width="2.02" height="3.43"/></clipPath><linearGradient id="bd" y1="621" y2="621" gradientTransform="matrix(23.01, 0, 0, -23.01, 169.74, 14435.91)" xlink:href="#l"/><clipPath id="be"><rect class="a" x="186.02" y="142.88" width="2.02" height="3.43"/></clipPath><linearGradient id="bf" y1="621" y2="621" gradientTransform="matrix(23.01, 0, 0, -23.01, 172.41, 14435.91)" xlink:href="#l"/><clipPath id="bg"><rect class="a" x="190.03" y="142.88" width="2.02" height="3.43"/></clipPath><linearGradient id="bh" y1="621" y2="621" gradientTransform="matrix(23.01, 0, 0, -23.01, 174.84, 14435.95)" xlink:href="#l"/><clipPath id="bi"><rect class="a" x="194.57" y="142.88" width="2.02" height="3.43"/></clipPath><linearGradient id="bj" y1="621" y2="621" gradientTransform="matrix(23.01, 0, 0, -23.01, 177.53, 14435.95)" xlink:href="#l"/><clipPath id="bk"><rect class="a" x="198.58" y="142.88" width="2.02" height="3.43"/></clipPath><linearGradient id="bl" y1="621" y2="621" gradientTransform="matrix(23.01, 0, 0, -23.01, 179.92, 14435.91)" xlink:href="#l"/><clipPath id="bm"><rect class="a" x="203.12" y="142.88" width="2.02" height="3.43"/></clipPath><linearGradient id="bn" y1="621" y2="621" gradientTransform="matrix(23.01, 0, 0, -23.01, 182.61, 14435.91)" xlink:href="#l"/><clipPath id="bp"><rect class="a" x="171.33" y="163.03" width="6.09" height="6.09"/></clipPath><linearGradient id="bq" y1="621" x2="1" y2="621" gradientTransform="matrix(0, 93.09, 93.09, 0, -57635.18, 73.68)" gradientUnits="userSpaceOnUse"><stop offset="0" stop-color="#ee7065"/><stop offset="1" stop-color="#f2908f"/></linearGradient><clipPath id="bs"><path class="a" d="M157.23,140.14a1.08,1.08,0,0,0-1.08,1.09v2.41h.78v-1.57A1.09,1.09,0,0,1,158,141h2.59a.92.92,0,0,1,.29,0,1.1,1.1,0,0,0-1.07-.89Z"/></clipPath><linearGradient id="bt" y1="621" y2="621" gradientTransform="matrix(-101.51, 0, 0, 101.51, 218.31, -62893.78)" xlink:href="#bq"/><clipPath id="bu"><path class="a" d="M162.26,140.14a1.09,1.09,0,0,0-1.08,1.09v2.41H162v-1.57a1.09,1.09,0,0,1,1.09-1.08h2.58a.92.92,0,0,1,.29,0,1.1,1.1,0,0,0-1.07-.89Z"/></clipPath><linearGradient id="bv" y1="621" y2="621" gradientTransform="matrix(-101.51, 0, 0, 101.51, 218.56, -62893.44)" xlink:href="#bq"/><clipPath id="bw"><path class="a" d="M166.44,140.14a1.09,1.09,0,0,0-1.08,1.09v2.41h.78v-1.57a1.09,1.09,0,0,1,1.09-1.08h2.59a.9.9,0,0,1,.28,0,1.1,1.1,0,0,0-1.07-.89Z"/></clipPath><linearGradient id="bx" y1="621" y2="621" gradientTransform="matrix(-101.51, 0, 0, 101.51, 218.45, -62893.44)" xlink:href="#bq"/><clipPath id="by"><path class="a" d="M170.75,140.14a1.09,1.09,0,0,0-1.08,1.09v2.41h.78v-1.57a1.09,1.09,0,0,1,1.09-1.08h2.59a.9.9,0,0,1,.28,0,1.1,1.1,0,0,0-1.07-.89Z"/></clipPath><linearGradient id="bz" y1="621" y2="621" gradientTransform="matrix(-101.51, 0, 0, 101.51, 218.46, -62893.78)" xlink:href="#bq"/><clipPath id="ca"><path class="a" d="M174.74,140.14a1.09,1.09,0,0,0-1.09,1.09v2.41h.78v-1.57a1.09,1.09,0,0,1,1.09-1.08h2.59a.86.86,0,0,1,.28,0,1.1,1.1,0,0,0-1.07-.89Z"/></clipPath><linearGradient id="cb" y1="621" y2="621" gradientTransform="matrix(-101.51, 0, 0, 101.51, 218.63, -62893.44)" xlink:href="#bq"/><clipPath id="cc"><path class="a" d="M179,140.14a1.09,1.09,0,0,0-1.08,1.09v2.41h.78v-1.57a1.09,1.09,0,0,1,1.09-1.08h2.59a.9.9,0,0,1,.28,0,1.1,1.1,0,0,0-1.07-.89Z"/></clipPath><linearGradient id="cd" y1="621" y2="621" gradientTransform="matrix(-101.51, 0, 0, 101.51, 218.5, -62893.44)" xlink:href="#bq"/><clipPath id="ce"><path class="a" d="M183.23,140.14a1.09,1.09,0,0,0-1.09,1.09v2.41h.78v-1.57A1.09,1.09,0,0,1,184,141h2.59a.86.86,0,0,1,.28,0,1.1,1.1,0,0,0-1.06-.89Z"/></clipPath><linearGradient id="cf" y1="621" y2="621" gradientTransform="matrix(-101.51, 0, 0, 101.51, 218.64, -62893.44)" xlink:href="#bq"/><clipPath id="cg"><path class="a" d="M187.9,140.14a1.09,1.09,0,0,0-1.09,1.09v2.41h.78v-1.57a1.09,1.09,0,0,1,1.09-1.08h2.59a.86.86,0,0,1,.28,0,1.1,1.1,0,0,0-1.06-.89Z"/></clipPath><linearGradient id="ch" y1="621" y2="621" gradientTransform="matrix(-101.51, 0, 0, 101.51, 218.69, -62893.78)" xlink:href="#bq"/><clipPath id="ci"><path class="a" d="M191.92,140.11a1.08,1.08,0,0,0-1.08,1.08v2.41h.78V142a1.09,1.09,0,0,1,1.09-1.08h2.59a.9.9,0,0,1,.28,0,1.09,1.09,0,0,0-1.07-.88Z"/></clipPath><linearGradient id="cj" y1="621" y2="621" gradientTransform="matrix(-101.51, 0, 0, 101.51, 218.56, -62893.82)" xlink:href="#bq"/><clipPath id="ck"><path class="a" d="M196.1,140.11a1.08,1.08,0,0,0-1.08,1.08v2.41h.78V142a1.09,1.09,0,0,1,1.09-1.08h2.59a.9.9,0,0,1,.28,0,1.09,1.09,0,0,0-1.07-.88Z"/></clipPath><linearGradient id="cl" y1="621" y2="621" gradientTransform="matrix(-101.51, 0, 0, 101.51, 218.37, -62893.48)" xlink:href="#bq"/><clipPath id="cm"><path class="a" d="M204.39,140.2a1.09,1.09,0,0,0-1.09,1.09v2.41h.79v-1.57a1.08,1.08,0,0,1,1.08-1.08h2.59a.86.86,0,0,1,.28,0,1.09,1.09,0,0,0-1.06-.89Z"/></clipPath><linearGradient id="cn" y1="621" y2="621" gradientTransform="matrix(-101.51, 0, 0, 101.51, 218.56, -62893.72)" xlink:href="#bq"/><clipPath id="co"><path class="a" d="M200.77,140.11a1.08,1.08,0,0,0-1.08,1.08v2.41h.78V142a1.09,1.09,0,0,1,1.09-1.08h2.59a.9.9,0,0,1,.28,0,1.09,1.09,0,0,0-1.07-.88Z"/></clipPath><linearGradient id="cp" y1="621" y2="621" gradientTransform="matrix(-101.51, 0, 0, 101.51, 218.37, -62893.48)" xlink:href="#bq"/><clipPath id="cr"><rect class="a" x="81.77" y="170.53" width="8.44" height="7.56"/></clipPath><clipPath id="cs"><rect class="a" x="99.22" y="145.66" width="14.22" height="12.7"/></clipPath><clipPath id="ct"><rect class="a" x="120.03" y="178.77" width="14.61" height="13.05"/></clipPath><clipPath id="cu"><rect class="a" x="139.52" y="154.08" width="10.88" height="9.73"/></clipPath><clipPath id="cv"><path class="a" d="M222.17,221.15c-1.34-.42-1.43-2.72-.54-5.46s2.21-4.64,3.58-4.21,1.33,2.74.47,5.45-1.9,4.29-3.1,4.29a1.14,1.14,0,0,1-.41-.07M219.06,215c-1.47,4.66-.24,7.9,2.22,8.67s5.43-1.14,7-6.18c1.36-4.33.6-7.71-2.21-8.59a3.4,3.4,0,0,0-1.09-.17c-2.36,0-4.7,2.35-5.93,6.27m-10,5,1.91.6,18.12-21.66-1.91-.6Zm4-12.66c-1.34-.42-1.44-2.69-.54-5.46s2.21-4.64,3.58-4.21,1.31,2.77.47,5.44-1.93,4.29-3.11,4.29a1.34,1.34,0,0,1-.4-.06m-3.15-6.12c-1.43,4.64-.22,7.87,2.26,8.65s5.42-1.11,7-6.19c1.37-4.33.59-7.67-2.22-8.55a3.63,3.63,0,0,0-1.11-.18c-2.37,0-4.7,2.33-5.94,6.27"/></clipPath><linearGradient id="cw" y1="621" y2="621" gradientTransform="matrix(-121.17, 0, 0, 121.17, 27.27, -75037.88)" xlink:href="#bq"/><clipPath id="cx"><polygon class="a" points="200.41 202.98 200.41 207.42 197.39 207.42 197.39 209.88 200.41 209.88 200.41 214.26 202.75 214.26 202.75 209.88 205.77 209.88 205.77 207.42 202.75 207.42 202.75 202.98 200.41 202.98"/></clipPath><linearGradient id="cy" y1="621" y2="621" gradientTransform="matrix(0, 121.17, 121.17, 0, -75047.12, 198.03)" xlink:href="#bq"/><clipPath id="cz"><path class="a" d="M87.94,338.14c-1.27,3.92-1.11,6.32-.9,7.4a.24.24,0,0,0,0,.08,51.82,51.82,0,0,0,9.8-.21.9.9,0,0,0,0-.23c-1.12-4.44-6.69-7.22-6.69-7.22Z"/></clipPath><linearGradient id="da" y1="620.98" y2="620.98" gradientTransform="matrix(-34.65, 0, 0, 34.65, 216.38, -21178.04)" xlink:href="#l"/><clipPath id="db"><path class="a" d="M87.06,345.62a1,1,0,0,0,.7.71c2.59.55,6.71.11,8.43-.12a.79.79,0,0,0,.67-.8,51.82,51.82,0,0,1-9.8.21"/></clipPath><linearGradient id="dc" y1="621" y2="621" gradientTransform="matrix(35.74, 0, 0, -35.74, 90.73, 22538.43)" xlink:href="#i"/><clipPath id="dd"><path class="a" d="M87.05,334.85l.94,4.5a.71.71,0,0,0,.62.6,5.93,5.93,0,0,0,1.45,0,.93.93,0,0,0,.74-1.08l-.65-4Z"/></clipPath><linearGradient id="de" y1="621.01" x2="1" y2="621.01" gradientTransform="matrix(-16.72, 0, 0, 16.72, 95.91, -10046.42)" gradientUnits="userSpaceOnUse"><stop offset="0" stop-color="#f2908f"/><stop offset="1" stop-color="#f6b2b2"/></linearGradient><clipPath id="df"><path class="a" d="M102.08,345.69a.49.49,0,0,0,.46.49l13.38-.09a.62.62,0,0,0,.5-.89c-1.76.15-6.23.47-10,.37a13,13,0,0,1-4.35-.63c0,.25,0,.49,0,.75"/></clipPath><linearGradient id="dg" y1="621" y2="621" gradientTransform="matrix(35.74, 0, 0, -35.74, 107.19, 22537.59)" xlink:href="#i"/><clipPath id="dh"><path class="a" d="M102.07,344.94a13,13,0,0,0,4.35.63c3.77.1,8.24-.22,10-.37a.53.53,0,0,0-.06-.1,17.06,17.06,0,0,0-10.14-6.37l-2.86-.09a13.68,13.68,0,0,0-1.29,6.3"/></clipPath><linearGradient id="di" y1="620.99" y2="620.99" gradientTransform="matrix(-34.65, 0, 0, 34.65, 228.92, -21177.89)" xlink:href="#l"/><clipPath id="dj"><path class="a" d="M102.71,334.45c0,.21.64,3.41.87,4.66a.61.61,0,0,0,.56.52,6.54,6.54,0,0,0,2-.15.85.85,0,0,0,.59-.89l-.32-5.06Z"/></clipPath><linearGradient id="dk" y1="621" y2="621" gradientTransform="matrix(-16.72, 0, 0, 16.72, 109.04, -10047.07)" xlink:href="#de"/><clipPath id="dl"><path class="a" d="M82.42,281.52c-.17,20.54,3.79,49.05,4.47,53.84a1,1,0,0,0,.84.8,12,12,0,0,0,2.56,0,.71.71,0,0,0,.61-.73c-.66-14.74,1.42-43.14,1.42-43.14C94.12,299,101,329.37,102,335a1.18,1.18,0,0,0,1.12,1,14.86,14.86,0,0,0,3.19-.37,1.24,1.24,0,0,0,1-1.25c-2.84-32.1-6.76-59.08-6.76-59.08l-16.77-4.48s-1.35,9.52-1.36,10.68"/></clipPath><linearGradient id="dm" y1="620.99" y2="620.99" gradientTransform="matrix(-60.9, 0, 0, 60.9, 123.1, -37514.7)" xlink:href="#i"/><clipPath id="dn"><path class="a" d="M134.2,249.53s-1.1-2.89-2.38-2.63a8.6,8.6,0,0,0-2.69,1.25l-2.06,2.79s5.79,2.28,7.82,1a44.3,44.3,0,0,0,13.38-.2,29.4,29.4,0,0,1-2.1-6.34,31.21,31.21,0,0,1-12,4.16"/></clipPath><linearGradient id="do" y1="620.98" y2="620.98" gradientTransform="matrix(21.21, 0, 0, -21.21, 127.07, 13418.48)" xlink:href="#de"/><clipPath id="dq"><path class="a" d="M102.59,244.07a40.73,40.73,0,0,0,4.27,1.21,42.62,42.62,0,0,1,4.24-8.56,20.89,20.89,0,0,1-9-6.77Z"/></clipPath><linearGradient id="dr" y1="621.03" y2="621.03" gradientTransform="matrix(-65.64, 0, 0, 65.64, 99.06, -40525.89)" xlink:href="#l"/><clipPath id="ds"><path class="a" d="M111.1,236.72a42.62,42.62,0,0,0-4.24,8.56c20.55,4.53,25.39-14.36,25.39-14.36l-2.18-1.21c-7.69,8.31-13.92,8.8-19,7"/></clipPath><linearGradient id="dt" y1="621.02" y2="621.02" gradientTransform="matrix(-37.16, 0, 0, 37.16, 143.06, -22836.94)" xlink:href="#de"/><clipPath id="du"><path class="a" d="M138.28,228.18c-1,.87-2.48.3-4.12,0a2.83,2.83,0,0,0-2.53.65l5,2,3.06-2.33s-.19-.61-.69-.61a1.09,1.09,0,0,0-.69.32"/></clipPath><linearGradient id="dv" y1="621.07" y2="621.07" gradientTransform="matrix(-7.1, 0, 0, 7.1, 142.06, -4177.29)" xlink:href="#de"/><clipPath id="dw"><path class="a" d="M129.8,230.46c2.09,2,9.83,2.74,9.83,2.74l5.3-3c-.55-1.13-3.73.7-3.73.7l1.23-1.53c-.7-.35-2.07.64-3.14,1.06s-5.22-1.85-7-2.19a1.37,1.37,0,0,0-.34,0c-1.57,0-2.1,2.23-2.1,2.23"/></clipPath><linearGradient id="dx" y1="621.02" y2="621.02" gradientTransform="matrix(-37.16, 0, 0, 37.16, 141.12, -22845.85)" xlink:href="#de"/><clipPath id="dy"><path class="a" d="M95.37,226.55c-16,12.92-13.44,44.33-12.91,49.39a1.11,1.11,0,0,0,.72.94,24.9,24.9,0,0,0,17.47-.17.88.88,0,0,0,.54-1c-1.69-6.34,2.13-14.76,4.31-25.05,1.8-8.51,5.83-14.68-1.7-20.57-4.14-3.24-6.28-4-7.37-4-.88,0-1.06.48-1.06.48"/></clipPath><linearGradient id="dz" y1="620.98" y2="620.98" gradientTransform="matrix(-65.64, 0, 0, 65.64, 106.49, -40508.09)" xlink:href="#l"/><clipPath id="ea"><path class="a" d="M95.21,226.64s1.15,2.25,6.61,4.08l4.71-9.69-4.94-3.89c0,.45-6.38,9.5-6.38,9.5"/></clipPath><linearGradient id="eb" y1="621" y2="621" gradientTransform="matrix(12.86, 0, 0, -12.86, 90.46, 8207.66)" xlink:href="#de"/><clipPath id="ec"><path class="a" d="M99.08,248.22s12.1,10.12,25.15,5.7a3.12,3.12,0,0,1,2.45.19l3.76,2a3.35,3.35,0,0,0,4.44-1.24,7.07,7.07,0,0,0,1.05-2.83l-7.34-3,.54-.9s-3.59-.3-4.52,2.27c0,0-6.83,2.84-18.35-9.83,0,0-5.23,4.44-7.18,7.63"/></clipPath><linearGradient id="ed" y1="620.99" y2="620.99" gradientTransform="matrix(-65.89, 0, 0, 65.89, 119.85, -40668.95)" xlink:href="#de"/><clipPath id="ee"><path class="a" d="M90.92,238.76a.2.2,0,0,0-.11.27,23.28,23.28,0,0,0,7.51,9.05.2.2,0,0,0,.11,0,.21.21,0,0,0,.18-.09.22.22,0,0,0-.06-.29,22.79,22.79,0,0,1-7.36-8.86.21.21,0,0,0-.19-.13l-.08,0"/></clipPath><linearGradient id="ef" y1="621" y2="621" gradientTransform="matrix(-37.01, 0, 0, 37.01, 157.4, -22738.9)" xlink:href="#i"/><clipPath id="eg"><path class="a" d="M92.81,229.77a.21.21,0,0,0-.08.28.2.2,0,0,0,.28.08,7,7,0,0,1,4.74-.63,6,6,0,0,1,3.56,3.07c3,5.31,4.52,7.73,4.53,7.75a.22.22,0,0,0,.18.1.15.15,0,0,0,.11,0,.21.21,0,0,0,.06-.28s-1.56-2.44-4.52-7.73a6.37,6.37,0,0,0-3.81-3.27,6,6,0,0,0-1.59-.21,7.7,7.7,0,0,0-3.46.88"/></clipPath><linearGradient id="eh" y1="620.99" y2="620.99" gradientTransform="matrix(-37.01, 0, 0, 37.01, 152.15, -22747.54)" xlink:href="#i"/><clipPath id="ei"><path class="a" d="M97.59,215.29c-.51,1.72,1.75,5.92,1.75,5.92a6.73,6.73,0,0,0,7.27,3.74c3.16-.55,2.57-2.32,2.42-5.06s-2.42-7.94-2.42-7.94-8.51,1.62-9,3.34"/></clipPath><linearGradient id="ej" y1="620.99" y2="620.99" gradientTransform="matrix(-33.67, 0, 0, 33.67, 109.07, -20692.36)" xlink:href="#de"/><clipPath id="ek"><path class="a" d="M107.3,206.38l-.13.25a.21.21,0,0,1-.39,0,.22.22,0,0,0-.39-.06c-.38.61-1.41,1.6-4.15,2.1-3.9.72-6.48,2.3-6.54,5a.22.22,0,0,1-.34.17c-.28-.17-.75-.25-1.36.26-1.07.9-.63,3.24,1.71,5.16a.22.22,0,0,1,0,.35c-.42.27-1.06.93.59,1.81a5.56,5.56,0,0,0,3.46.76.21.21,0,0,0,.17-.26l-.52-2.37a.21.21,0,0,1,.21-.26h.81l.18-.08a.43.43,0,0,0,.21-.6c-.44-.86-1.31-2.83-.19-3.29,1.45-.6,7.18-1.77,8.42-3.8a3.79,3.79,0,0,0-1.45-5.19.16.16,0,0,0-.1,0,.23.23,0,0,0-.19.11"/></clipPath><linearGradient id="el" y1="620.97" y2="620.97" gradientTransform="matrix(0, 19.68, 19.68, 0, -12120.2, 207.64)" xlink:href="#i"/><clipPath id="em"><path class="a" d="M98.16,217.35c-1.49.94.78,3.73,2,3.86l.38-1.46s-.66-2.56-1.84-2.56a1,1,0,0,0-.52.16"/></clipPath><linearGradient id="en" y1="620.98" y2="620.98" gradientTransform="matrix(-16.32, 0, 0, 16.32, 106.98, -9916.43)" xlink:href="#de"/><clipPath id="eo"><path class="a" d="M127.85,252.2a3.81,3.81,0,0,0-1.17,1.91s3.08,3,3.67,2.57a11.49,11.49,0,0,0,1.26-1.35,1.34,1.34,0,0,0,.09-1.56l-.73-1.12a2.11,2.11,0,0,0-1.77-1,2,2,0,0,0-1.35.51"/></clipPath><linearGradient id="ep" y1="621" y2="621" gradientTransform="matrix(-27.4, 0, 0, 27.4, 154.64, -16759.38)" xlink:href="#de"/><clipPath id="er"><path class="a" d="M167.36,221.45l2.79,6.71a1.35,1.35,0,0,0,1,.81c1.61.27,5.51.71,8.07-1a.65.65,0,0,0,.17-.91l-5.16-7.41Z"/></clipPath><linearGradient id="es" y1="621" y2="621" gradientTransform="matrix(0, -10.75, -10.75, 0, 6851.72, 227.81)" xlink:href="#de"/><clipPath id="et"><path class="a" d="M204.22,245.09l-30,7.9a.63.63,0,0,0-.39.89l8.08,15.5a.63.63,0,0,0,.72.31l26.44-7.63a.63.63,0,0,0,.43-.77L205,245.52a.62.62,0,0,0-.59-.45l-.16,0"/></clipPath><linearGradient id="eu" y1="621" y2="621" gradientTransform="matrix(35.76, 0, 0, -35.76, 173.79, 22466.11)" xlink:href="#o"/><clipPath id="ew"><path class="a" d="M204.61,245.39l-26.36,4a.8.8,0,0,0-.66,1l4.39,19a.81.81,0,0,0,1,.59l26-7.5a.79.79,0,0,0,.55-1l-4-15.49a.8.8,0,0,0-.77-.6h-.13"/></clipPath><linearGradient id="ex" y1="620.99" y2="620.99" gradientTransform="matrix(0, 33.33, 33.33, 0, -20505.35, 253.73)" xlink:href="#l"/><clipPath id="ez"><path class="a" d="M182.3,237.51a.44.44,0,0,0-.06.61,44.59,44.59,0,0,1,8.88,17.24.44.44,0,0,0,.42.33h.1a.44.44,0,0,0,.32-.53,45.32,45.32,0,0,0-9.05-17.57.43.43,0,0,0-.34-.16.46.46,0,0,0-.27.09"/></clipPath><linearGradient id="fa" y1="621" x2="1" y2="621" gradientTransform="matrix(-49.9, 0, 0, 49.9, 224.42, -30742.83)" gradientUnits="userSpaceOnUse"><stop offset="0" stop-color="#e2473d"/><stop offset="1" stop-color="#e9615b"/></linearGradient><clipPath id="fb"><path class="a" d="M191.54,255.26a28,28,0,0,1,.8,9.28,1.23,1.23,0,0,1-1.14,1.1l-2.42.16a4.5,4.5,0,0,1-2.57-1,.41.41,0,0,0-.6.51,7.07,7.07,0,0,0,2.65,2.36.42.42,0,0,1-.1.77l-3.74,1.06c6.15,5.8,10.21-.69,10.21-.69a29.43,29.43,0,0,0,4.64-12.17,6.53,6.53,0,0,0-4.76-1.82,10.67,10.67,0,0,0-3,.44"/></clipPath><linearGradient id="fc" y1="621.03" y2="621.03" gradientTransform="matrix(-23.96, 0, 0, 23.96, 200.22, -14612.23)" xlink:href="#de"/><clipPath id="fd"><path class="a" d="M170.25,211.18c-.12.11-4.95,9.61-4.95,9.61l5.48,2.64,5.92-8.32s-3.34-4.29-5.51-4.29a1.34,1.34,0,0,0-.94.36"/></clipPath><linearGradient id="fe" y1="621.01" y2="621.01" gradientTransform="translate(175.22 12804.59) rotate(-180) scale(20.27)" xlink:href="#de"/><clipPath id="ff"><path class="a" d="M168.33,209.9c-.53,1.78,2.12,3,3.78,3.26,1.22.16,1.89,1.49,2.16,2.19a.85.85,0,0,1-.06.76l-2.74,4.56a.9.9,0,0,1-.15.19,1.44,1.44,0,0,1-2.3,0,7.71,7.71,0,0,0-2.15-2.33.86.86,0,0,0-1.18.38,32.42,32.42,0,0,0-1.87,4.44.87.87,0,0,0,.5,1.07,24.26,24.26,0,0,0,5.25,1.53.89.89,0,0,0,.83-.35c.83-1.15,3.19-4.35,4-5.16s2.13-.46,2.75-.28a.94.94,0,0,0,.7-.09,1.93,1.93,0,0,0,.72-2.94.87.87,0,0,1,.27-1.18,2,2,0,0,0,.75-2.75,2.74,2.74,0,0,0-3-1.44.91.91,0,0,1-.95-.53.57.57,0,0,0-.45-.36.84.84,0,0,1-.69-1,2.24,2.24,0,0,0-1.25-2.57,3,3,0,0,0-1.47-.4c-1.71,0-3.08,1.6-3.49,3"/></clipPath><linearGradient id="fg" y1="621.11" y2="621.11" gradientTransform="translate(-8896.33 223.15) rotate(-90) scale(14.6)" xlink:href="#i"/><clipPath id="fh"><path class="a" d="M173.37,222.1s1.06,1.87,3.14,0c1.66-1.5.61-2.85-.74-3h-.07c-1.31,0-2.33,3-2.33,3"/></clipPath><linearGradient id="fi" y1="621.03" y2="621.03" gradientTransform="translate(162.53 -8501.17) scale(14.05)" xlink:href="#de"/><clipPath id="fj"><path class="a" d="M174.67,345.62a.53.53,0,0,0,.43.79,125.9,125.9,0,0,0,14,0,.74.74,0,0,0,.7-.69,1.85,1.85,0,0,1,0-.23,10.29,10.29,0,0,1-4.09.4c-3.56-.16-8.07-.52-10.68-.75a5.05,5.05,0,0,0-.35.5"/></clipPath><linearGradient id="fk" y1="621" y2="621" gradientTransform="translate(19326.42 318.21) rotate(90) scale(30.83)" xlink:href="#l"/><clipPath id="fl"><path class="a" d="M185.7,339.87S177.58,342,175,345.12c2.61.23,7.12.59,10.68.75a10.29,10.29,0,0,0,4.09-.4,9.73,9.73,0,0,0-1.79-5.6Z"/></clipPath><linearGradient id="fm" y1="621" y2="621" gradientTransform="translate(189.79 9510.18) rotate(180) scale(14.76)" xlink:href="#i"/><clipPath id="fn"><path class="a" d="M184.1,336.12l.75,4.14a1.13,1.13,0,0,0,.77.88,3.65,3.65,0,0,0,1.72.14,1,1,0,0,0,.83-.91l.21-4.25Z"/></clipPath><linearGradient id="fo" y1="621" y2="621" gradientTransform="translate(188.38 2995.86) rotate(180) scale(4.28)" xlink:href="#de"/><clipPath id="fp"><path class="a" d="M218.17,345.84a6.89,6.89,0,0,1-3.92-.21h0a2.71,2.71,0,0,0,2.05.94,6.4,6.4,0,0,0,2.74-.42,1.47,1.47,0,0,0,1-1.68h0a2.09,2.09,0,0,1-1.86,1.37"/></clipPath><linearGradient id="fq" y1="621" y2="621" gradientTransform="translate(19361.27 318.21) rotate(90) scale(30.83)" xlink:href="#l"/><clipPath id="fr"><path class="a" d="M214.74,336.1h-1.89a2.38,2.38,0,0,0-1.3,2.73,18,18,0,0,0,2.7,6.8,6.89,6.89,0,0,0,3.92.21,2.09,2.09,0,0,0,1.86-1.37c-.59-2.34-2.39-8.37-5.24-8.37h0"/></clipPath><linearGradient id="fs" y1="620.99" y2="620.99" gradientTransform="translate(220.03 5647.04) rotate(180) scale(8.54)" xlink:href="#i"/><clipPath id="ft"><path class="a" d="M210.47,333.12l1.54,4.39a.94.94,0,0,0,.78.63,4,4,0,0,0,2.17-.52,1.15,1.15,0,0,0,.59-1.29l-1.05-4.18Z"/></clipPath><linearGradient id="fu" y1="620.99" y2="620.99" gradientTransform="translate(215.58 3510.69) rotate(180) scale(5.11)" xlink:href="#de"/><clipPath id="fv"><path class="a" d="M175.67,274.57c4.12,15.61,7.32,40,7.53,62.71,0,0,3.25,1.12,5.78,0,0,0,1.73-35.6-.48-49.47,0,0,6.39,10.12,21.7,46.86,0,0,4.25-.15,5.55-1.31,0,0-13.69-48.8-22.31-62.7-1.8,1.42-7.42,3.67-17.77,3.91"/></clipPath><linearGradient id="fw" y1="621" y2="621" gradientTransform="matrix(47.39, 0, 0, -47.39, 202.92, 29736.08)" xlink:href="#l"/></defs><title>etape</title><g class="b"><g class="b"><g class="b"><path class="c" d="M160.92,68.45a36.83,36.83,0,1,1-36.83-36.82,36.83,36.83,0,0,1,36.83,36.82"/></g><text class="d" transform="translate(107.74 83.5)">#</text><text class="e" transform="translate(121.09 83.5)">2</text><g class="b"><g class="f"><g class="g"><path class="h" d="M220.08,274.14c-20.88,49.16-76.5,76.7-124.73,69.27-7.85-1.2-29.36-4.81-48.41-21.79C10.27,288.91,2.42,224.15,32,178.52c21.53-33.22,60.12-52.05,96.8-51.11,7.9.21,38.17,1.46,64.78,23.4a100.07,100.07,0,0,1,20.29,23c18.24,28.53,19.81,68.27,6.2,100.31"/></g></g><path class="i" d="M21.06,212.47a.92.92,0,0,1,1.81,0c2.34,9.82,9.24,35.34,20.33,49.06,18,22.32,29.67,58.18,17.49,76.35,0,0-64-14.22-39.63-125.38"/><g class="j"><g class="k"><path class="l" d="M22.58,226.43c0,.32.05.58.08.87l.1.83L23,229.8c.15,1.1.32,2.21.49,3.32q.53,3.31,1.11,6.61c.78,4.41,1.68,8.79,2.64,13.15s2,8.7,3.17,13,2.36,8.6,3.7,12.85a224.79,224.79,0,0,0,9.38,24.92c1.85,4,3.8,8,6,11.83a115.47,115.47,0,0,0,7.09,11.06.16.16,0,0,0,.23,0,.2.2,0,0,0,0-.25h0A131,131,0,0,1,50,315.11c-2.09-3.85-4-7.83-5.75-11.86s-3.41-8.14-4.95-12.28-2.93-8.36-4.29-12.58c-2.69-8.45-5-17.06-7-25.72-1-4.34-1.95-8.7-2.82-13.07-.43-2.19-.85-4.38-1.24-6.58l-.56-3.3-.27-1.65-.12-.83c0-.27-.09-.56-.11-.8v0a.17.17,0,0,0-.18-.15.16.16,0,0,0-.14.18"/></g></g><path class="m" d="M37.18,186.53a1,1,0,0,1,1.9,0c2.35,10.51,9.32,37.86,20.8,52.64,18.69,24.06,30.51,62.5,17.56,81.76,0,0-66.87-15.95-40.26-134.39"/><g class="j"><g class="n"><path class="l" d="M38.63,201.46c0,.34,0,.62.07.92l.1.9.22,1.78c.14,1.19.31,2.37.48,3.55q.51,3.55,1.09,7.08c.78,4.72,1.67,9.4,2.63,14.08s2,9.31,3.19,13.93,2.39,9.22,3.75,13.77a243.53,243.53,0,0,0,9.58,26.74c1.9,4.31,3.9,8.57,6.12,12.7a127.1,127.1,0,0,0,7.32,11.89.17.17,0,0,0,.25,0,.21.21,0,0,0,0-.27h0q-3.76-5.83-7-12.06c-2.15-4.14-4.08-8.42-5.91-12.74s-3.49-8.73-5.06-13.18-3-9-4.36-13.48c-2.73-9.07-5-18.29-7.09-27.57-1-4.64-2-9.3-2.82-14-.43-2.34-.84-4.68-1.23-7L39.46,205l-.26-1.76-.12-.89c0-.29-.08-.6-.11-.86v0a.17.17,0,1,0-.34,0"/></g></g></g><g class="o"><rect class="p" x="41.83" y="147.44" width="156.64" height="196.13" transform="translate(-8.22 4.2) rotate(-1.93)"/></g><g class="b"><path class="m" d="M73,338.14h0L58.11,338a9.16,9.16,0,0,1-9-9.13V306.39a.32.32,0,1,1,.63,0v22.43a8.54,8.54,0,0,0,8.39,8.5l14.86.19a.32.32,0,1,1,0,.63"/><path class="m" d="M49.42,299.76a.32.32,0,0,1-.32-.32v-3.63a.32.32,0,1,1,.63,0v3.63a.31.31,0,0,1-.31.32"/></g><g class="q"><rect class="r" x="16.95" y="127.99" width="207.82" height="228.48" transform="translate(-103.6 90.91) rotate(-29.5)"/></g><g class="b"><path class="i" d="M56.37,156.73a3.8,3.8,0,0,1,4.32-3.8c15.22,2.07,67.58,8.45,110.87,5.13a3.53,3.53,0,0,1,3.79,3.32L184,323.75a4,4,0,0,1-3.81,4.26C162,329.09,87,333.26,60.24,330.46a3.22,3.22,0,0,1-2.87-3.18Z"/></g><g class="s"><rect class="t" x="70.4" y="166.79" width="44.74" height="40.06"/></g><g class="b"><g class="u"><g class="v"><path class="l" d="M165.93,172.28a1.16,1.16,0,0,0,1.19-1.17,1.28,1.28,0,0,0-1.26-1.19l-42.05-.75a.8.8,0,0,0-.82,1.14l.29.81a1.85,1.85,0,0,0,1.63,1.16Z"/></g></g><g class="u"><g class="w"><path class="l" d="M123.81,180a.8.8,0,0,0-.82,1.13l.29.82a1.87,1.87,0,0,0,1.63,1.16h41a1.16,1.16,0,0,0,1.19-1.17,1.28,1.28,0,0,0-1.26-1.19Z"/></g></g><g class="u"><g class="x"><path class="l" d="M123.81,191.89A.8.8,0,0,0,123,193l.29.81a1.85,1.85,0,0,0,1.63,1.16h41a1.16,1.16,0,0,0,1.19-1.17,1.28,1.28,0,0,0-1.26-1.19Z"/></g></g><g class="u"><g class="y"><path class="l" d="M170,217.1a1.11,1.11,0,0,0,1.16-1.16,1.31,1.31,0,0,0-1.31-1.18L71.68,214c-.68,0-.89.43-.47,1l1,1.2a2.87,2.87,0,0,0,2,1Z"/></g></g><path class="l" d="M81.9,262.28h0l-8.27-.08a2.21,2.21,0,0,1-2.26-1.89l-.73-6.93a1.47,1.47,0,0,1,.36-1.13,1.83,1.83,0,0,1,1.26-.63c.7,0,1.68-.13,2.71-.22,2.19-.18,4.91-.41,6.44-.43a2.3,2.3,0,0,1,2.31,1.62c.43,1.59.4,4.6.31,7.81a2,2,0,0,1-2.11,1.88m-9.62-10a1.16,1.16,0,0,0-.82.4.88.88,0,0,0-.21.65l.73,6.94a1.59,1.59,0,0,0,1.64,1.32l8.26.08h0a1.41,1.41,0,0,0,1.48-1.27c.08-3.16.12-6.12-.29-7.63a1.7,1.7,0,0,0-1.69-1.15c-1.51,0-4.22.25-6.39.44l-2.73.22"/><g class="u"><g class="z"><path class="l" d="M73.17,253c1.74-.12,5.51-.5,7.3-.52a1.6,1.6,0,0,1,1.6,1.1,27.82,27.82,0,0,1,.24,6.17A1.37,1.37,0,0,1,80.86,261l-6.61-.06a1.53,1.53,0,0,1-1.56-1.28l-.58-5.54A1.08,1.08,0,0,1,73.17,253"/></g></g><g class="u"><g class="aa"><path class="l" d="M89.15,257.68a2.08,2.08,0,0,0,2,1.53l76.44-.66a1.55,1.55,0,0,0,1.54-1.58,1.57,1.57,0,0,0-1.55-1.52l-76.44-.35a2.06,2.06,0,0,0-2,2.58"/></g></g><path class="l" d="M81.36,244.13h0l-8.27-.08a2.21,2.21,0,0,1-2.26-1.88l-.73-6.94a1.49,1.49,0,0,1,.36-1.13,1.78,1.78,0,0,1,1.26-.62l2.71-.22c2.19-.19,4.91-.42,6.44-.44a2.3,2.3,0,0,1,2.31,1.62c.43,1.59.4,4.6.31,7.81a2,2,0,0,1-2.11,1.88m-9.62-10a1.19,1.19,0,0,0-.82.4.89.89,0,0,0-.21.66l.73,6.93a1.59,1.59,0,0,0,1.64,1.32l8.26.08h0a1.41,1.41,0,0,0,1.48-1.27c.08-3.16.12-6.12-.29-7.63a1.72,1.72,0,0,0-1.69-1.15c-1.51,0-4.22.25-6.39.44l-2.73.22"/><g class="u"><g class="ab"><path class="l" d="M72.63,234.82c1.74-.11,5.51-.5,7.3-.52a1.6,1.6,0,0,1,1.6,1.11,28.38,28.38,0,0,1,.24,6.17,1.37,1.37,0,0,1-1.45,1.25l-6.61-.06a1.53,1.53,0,0,1-1.56-1.28L71.57,236a1.08,1.08,0,0,1,1.06-1.13"/></g></g><g class="u"><g class="ac"><path class="l" d="M88.61,239.53a2.06,2.06,0,0,0,2,1.53l76.44-.65a1.56,1.56,0,0,0,0-3.11L90.61,237a2.05,2.05,0,0,0-2,2.57"/></g></g><path class="l" d="M81.9,280h0l-8.27-.08A2.22,2.22,0,0,1,71.35,278l-.73-6.93A1.51,1.51,0,0,1,71,270a1.78,1.78,0,0,1,1.26-.62l2.71-.22c2.19-.19,4.91-.42,6.44-.44h0a2.31,2.31,0,0,1,2.28,1.62c.43,1.59.4,4.61.31,7.82A2,2,0,0,1,81.9,280m-9.62-10a1.24,1.24,0,0,0-.82.4.9.9,0,0,0-.21.66L72,278a1.58,1.58,0,0,0,1.64,1.32l8.26.08h0a1.4,1.4,0,0,0,1.48-1.26c.08-3.16.12-6.12-.29-7.63a1.69,1.69,0,0,0-1.69-1.15c-1.51,0-4.22.25-6.39.43-1,.09-2,.18-2.73.22"/><g class="u"><g class="ad"><path class="l" d="M73.17,270.68c1.74-.12,5.51-.5,7.3-.52a1.59,1.59,0,0,1,1.6,1.1,27.79,27.79,0,0,1,.24,6.17,1.37,1.37,0,0,1-1.45,1.26l-6.61-.06a1.54,1.54,0,0,1-1.56-1.29l-.58-5.54a1.07,1.07,0,0,1,1.06-1.12"/></g></g><g class="u"><g class="ae"><path class="l" d="M89.15,275.39a2.06,2.06,0,0,0,2,1.52l76.44-.65a1.55,1.55,0,0,0,0-3.1l-76.44-.35a2.06,2.06,0,0,0-2,2.58"/></g></g><path class="l" d="M81.9,297.7h0l-8.27-.08a2.22,2.22,0,0,1-2.26-1.89l-.73-6.93a1.51,1.51,0,0,1,.36-1.14,1.78,1.78,0,0,1,1.26-.62l2.71-.22c2.19-.19,4.91-.42,6.44-.44h0A2.3,2.3,0,0,1,83.7,288c.43,1.59.4,4.6.31,7.81a2,2,0,0,1-2.11,1.89m-9.62-10a1.19,1.19,0,0,0-.82.4.89.89,0,0,0-.21.66l.73,6.93A1.58,1.58,0,0,0,73.62,297l8.26.08h0a1.4,1.4,0,0,0,1.48-1.26c.08-3.16.12-6.12-.29-7.63A1.68,1.68,0,0,0,81.4,287c-1.51,0-4.22.25-6.39.43l-2.73.22"/><g class="u"><g class="af"><path class="l" d="M73.17,288.39c1.74-.12,5.51-.5,7.3-.53a1.6,1.6,0,0,1,1.6,1.11,27.79,27.79,0,0,1,.24,6.17,1.38,1.38,0,0,1-1.45,1.26l-6.61-.07a1.52,1.52,0,0,1-1.56-1.28l-.58-5.54a1.07,1.07,0,0,1,1.06-1.12"/></g></g><g class="u"><g class="ag"><path class="l" d="M89.15,293.09a2.06,2.06,0,0,0,2,1.53L167.6,294a1.55,1.55,0,0,0,0-3.1l-76.44-.35a2.05,2.05,0,0,0-2,2.57"/></g></g><g class="u"><g class="ah"><path class="l" d="M121.22,311.43h0c.16.91.69,1.53,1.29,1.53l49.13-.66c.55,0,1-.72,1-1.58s-.45-1.51-1-1.52l-49.14-.35c-.86,0-1.5,1.27-1.28,2.58"/></g></g></g><g class="ai"><rect class="aj" x="106.37" y="119.3" width="28.74" height="29.39" transform="translate(-59 149.02) rotate(-52.76)"/></g><g class="b"><path class="m" d="M112.15,137.27a.31.31,0,0,1-.31-.28l-.18-1.92a.32.32,0,0,1,.29-.35.3.3,0,0,1,.34.29l.18,1.92a.31.31,0,0,1-.29.34h0m-.34-3.76a.32.32,0,0,1-.32-.29l-.13-1.45a4.87,4.87,0,0,1,3.46-5.12,9.75,9.75,0,0,1,4.8-.2.33.33,0,0,1,.25.38.31.31,0,0,1-.38.24,9.1,9.1,0,0,0-4.49.19,4.24,4.24,0,0,0-3,4.45l.13,1.46a.31.31,0,0,1-.28.34h0"/></g><g class="ak"><rect class="al" x="98.42" y="122.8" width="38.39" height="45.8" transform="translate(-69.55 151.16) rotate(-52.76)"/></g><g class="b"><path class="m" d="M108.48,142.66h-1.79a.32.32,0,1,1,0-.63h1.79a.32.32,0,1,1,0,.63"/><path class="m" d="M95.16,148.24a.33.33,0,0,1-.32-.32v-2.45A3.44,3.44,0,0,1,98.28,142h6.61a.32.32,0,1,1,0,.63H98.28a2.8,2.8,0,0,0-2.8,2.81v2.45a.32.32,0,0,1-.32.32"/></g><g class="am"><rect class="an" x="94.17" y="113.51" width="46.04" height="79.09" transform="translate(-71.94 190.31) rotate(-63.7)"/></g><g class="ao"><rect class="ap" x="125.5" y="275.57" width="47.46" height="48.69"/></g><g class="aq"><rect class="ar" x="154.05" y="134.31" width="55.42" height="63.32" transform="translate(-1.73 330.03) rotate(-84.2)"/></g><g class="b"><path class="m" d="M206.57,184.7H157a4.47,4.47,0,0,1-4.48-4.48V141h58.59v39.26a4.48,4.48,0,0,1-4.49,4.48"/></g><g class="as"><rect class="at" x="154.87" y="142.97" width="3.95" height="3.24" transform="translate(-39.08 228.97) rotate(-65.97)"/></g><g class="au"><rect class="av" x="159.41" y="142.97" width="3.95" height="3.24" transform="translate(-36.39 233.11) rotate(-65.97)"/></g><g class="aw"><rect class="ax" x="163.42" y="142.97" width="3.95" height="3.24" transform="translate(-34.01 236.77) rotate(-65.97)"/></g><g class="ay"><rect class="az" x="167.96" y="142.97" width="3.95" height="3.24" transform="translate(-31.32 240.92) rotate(-65.97)"/></g><g class="ba"><rect class="bb" x="171.97" y="142.97" width="3.95" height="3.24" transform="translate(-28.95 244.58) rotate(-65.97)"/></g><g class="bc"><rect class="bd" x="176.5" y="142.97" width="3.95" height="3.24" transform="translate(-26.26 248.73) rotate(-65.97)"/></g><g class="be"><rect class="bf" x="180.51" y="142.97" width="3.95" height="3.24" transform="translate(-23.88 252.39) rotate(-65.97)"/></g><g class="bg"><rect class="bh" x="185.05" y="142.97" width="3.95" height="3.24" transform="translate(-21.19 256.53) rotate(-65.97)"/></g><g class="bi"><rect class="bj" x="189.06" y="142.97" width="3.95" height="3.24" transform="translate(-18.81 260.2) rotate(-65.97)"/></g><g class="bk"><rect class="bl" x="193.6" y="142.97" width="3.95" height="3.24" transform="translate(-16.12 264.34) rotate(-65.97)"/></g><g class="bm"><rect class="bn" x="197.61" y="142.97" width="3.95" height="3.24" transform="translate(-13.74 268) rotate(-65.97)"/></g><g class="bo"><rect class="bp" x="202.15" y="142.97" width="3.95" height="3.24" transform="translate(-11.05 272.15) rotate(-65.97)"/></g><g class="b"><rect class="l" x="178.54" y="148.08" width="6.09" height="6.09"/><rect class="l" x="185.94" y="148.08" width="6.09" height="6.09"/><rect class="l" x="193.27" y="148.08" width="6.09" height="6.09"/><rect class="l" x="200.53" y="148.08" width="6.09" height="6.09"/><rect class="l" x="156.56" y="155.73" width="6.09" height="6.09"/><rect class="l" x="163.89" y="155.73" width="6.09" height="6.09"/><rect class="l" x="171.15" y="155.73" width="6.09" height="6.09"/><rect class="l" x="178.53" y="155.73" width="6.09" height="6.09"/><rect class="l" x="185.93" y="155.73" width="6.09" height="6.09"/><rect class="l" x="193.26" y="155.73" width="6.09" height="6.09"/><rect class="l" x="200.52" y="155.73" width="6.09" height="6.09"/><rect class="l" x="156.74" y="163.03" width="6.09" height="6.09"/><rect class="l" x="164.07" y="163.03" width="6.09" height="6.09"/></g><g class="bq"><rect class="br" x="170.12" y="161.81" width="8.51" height="8.51" transform="translate(-62.81 207.65) rotate(-53.55)"/></g><g class="b"><rect class="l" x="178.71" y="163.03" width="6.09" height="6.09"/><rect class="l" x="186.12" y="163.03" width="6.09" height="6.09"/><rect class="l" x="193.44" y="163.03" width="6.09" height="6.09"/><rect class="l" x="200.7" y="163.03" width="6.09" height="6.09"/><rect class="l" x="156.92" y="170.23" width="6.09" height="6.09"/><rect class="l" x="164.25" y="170.23" width="6.09" height="6.09"/><rect class="l" x="171.51" y="170.23" width="6.09" height="6.09"/><rect class="l" x="178.9" y="170.23" width="6.09" height="6.09"/><rect class="l" x="186.3" y="170.23" width="6.09" height="6.09"/><rect class="l" x="193.62" y="170.23" width="6.09" height="6.09"/><rect class="l" x="200.88" y="170.23" width="6.09" height="6.09"/><rect class="l" x="156.92" y="177.42" width="6.09" height="6.09"/><rect class="l" x="164.25" y="177.42" width="6.09" height="6.09"/><rect class="l" x="171.51" y="177.42" width="6.09" height="6.09"/></g><g class="bs"><rect class="bt" x="156.01" y="139.96" width="5" height="3.86" transform="translate(-10.81 13.09) rotate(-4.57)"/></g><g class="bu"><rect class="bv" x="161.05" y="139.96" width="5" height="3.86" transform="translate(-10.79 13.49) rotate(-4.57)"/></g><g class="bw"><rect class="bx" x="165.23" y="139.96" width="5" height="3.86" transform="translate(-10.78 13.83) rotate(-4.57)"/></g><g class="by"><rect class="bz" x="169.54" y="139.96" width="5" height="3.86" transform="translate(-10.77 14.17) rotate(-4.57)"/></g><g class="ca"><rect class="cb" x="173.52" y="139.96" width="5" height="3.86" transform="matrix(1, -0.08, 0.08, 1, -10.75, 14.49)"/></g><g class="cc"><rect class="cd" x="177.83" y="139.96" width="5" height="3.86" transform="translate(-10.74 14.83) rotate(-4.57)"/></g><g class="ce"><rect class="cf" x="182.01" y="139.96" width="5" height="3.86" transform="translate(-10.73 15.17) rotate(-4.57)"/></g><g class="cg"><rect class="ch" x="186.68" y="139.96" width="5" height="3.86" transform="translate(-10.71 15.54) rotate(-4.57)"/></g><g class="ci"><rect class="cj" x="190.71" y="139.92" width="5" height="3.86" transform="matrix(1, -0.08, 0.08, 1, -10.7, 15.86)"/></g><g class="ck"><rect class="cl" x="194.89" y="139.92" width="5" height="3.86" transform="matrix(1, -0.08, 0.08, 1, -10.68, 16.19)"/></g><g class="cm"><rect class="cn" x="203.17" y="140.02" width="5" height="3.86" transform="translate(-10.66 16.85) rotate(-4.57)"/></g><g class="co"><rect class="cp" x="199.56" y="139.92" width="5" height="3.86" transform="translate(-10.67 16.56) rotate(-4.57)"/></g><g class="b"><g class="cq"><g class="cr"><path class="l" d="M82.17,178.08H82a.32.32,0,0,1-.25-.37,9,9,0,0,1,6.48-6.9,8.9,8.9,0,0,1,1.61-.28.3.3,0,0,1,.34.29.31.31,0,0,1-.28.34,8.37,8.37,0,0,0-7.53,6.68.3.3,0,0,1-.22.24"/></g></g><g class="cq"><g class="cs"><path class="l" d="M99.62,158.35a.38.38,0,0,1-.15,0,.3.3,0,0,1-.24-.37,15.4,15.4,0,0,1,11.11-11.83,15.21,15.21,0,0,1,2.76-.49.32.32,0,0,1,.34.29.31.31,0,0,1-.29.34,14.16,14.16,0,0,0-2.65.47,14.75,14.75,0,0,0-10.65,11.35.33.33,0,0,1-.23.24"/></g></g><g class="cq"><g class="ct"><path class="l" d="M120.43,191.81h-.15a.32.32,0,0,1-.25-.37,15.86,15.86,0,0,1,11.43-12.17,16.25,16.25,0,0,1,2.84-.5.31.31,0,0,1,.34.29.32.32,0,0,1-.29.34,15.82,15.82,0,0,0-2.72.48,15.23,15.23,0,0,0-11,11.69.3.3,0,0,1-.22.24"/></g></g><g class="cq"><g class="cu"><path class="l" d="M139.92,163.8h-.15a.32.32,0,0,1-.25-.37,11.7,11.7,0,0,1,8.44-9,11.44,11.44,0,0,1,2.09-.37.31.31,0,0,1,.34.28.32.32,0,0,1-.29.35,10.41,10.41,0,0,0-2,.35,11.06,11.06,0,0,0-8,8.49.31.31,0,0,1-.22.25"/></g></g></g><g class="cv"><rect class="cw" x="201.62" y="194.76" width="34.93" height="29.85" transform="translate(-52.14 345.35) rotate(-70.32)"/></g><g class="cx"><rect class="cy" x="197.39" y="202.98" width="8.38" height="11.28"/></g><g class="cz"><rect class="da" x="86.47" y="335.89" width="10.59" height="12.08" transform="translate(-262.01 328.49) rotate(-72.8)"/></g><g class="db"><rect class="dc" x="91.16" y="341.23" width="1.61" height="9.82" transform="translate(-255.5 433) rotate(-89.16)"/></g><g class="dd"><rect class="de" x="86.18" y="335.23" width="5.56" height="4.39" transform="translate(-256.4 387.41) rotate(-83.46)"/></g><g class="df"><rect class="dg" x="108.61" y="338.29" width="1.45" height="14.55" transform="translate(-237.8 449.8) rotate(-89.16)"/></g><g class="dh"><rect class="di" x="103.77" y="334.27" width="10.96" height="15.78" transform="translate(-249.92 345.35) rotate(-72.8)"/></g><g class="dj"><rect class="dk" x="101.54" y="334.44" width="6.33" height="4.3" transform="translate(-236.8 423.96) rotate(-87.07)"/></g><g class="dl"><rect class="dm" x="61.26" y="288.67" width="67.08" height="29.79" transform="translate(-214.83 376.11) rotate(-85.84)"/></g><g class="dn"><rect class="do" x="127.07" y="245.37" width="21.21" height="7.85"/></g><g class="b"><path class="dp" d="M165.53,228.54s-8.47,10.67-19.36,16.83a29.4,29.4,0,0,0,2.1,6.34A35,35,0,0,0,166,243.66Z"/></g><g class="dq"><rect class="dr" x="97.73" y="229.46" width="17.71" height="16.32" transform="translate(-148.26 183.98) rotate(-53.96)"/></g><g class="ds"><rect class="dt" x="103.71" y="225.11" width="31.68" height="29.3" transform="translate(-94.27 78.34) rotate(-26.45)"/></g><g class="du"><rect class="dv" x="131.8" y="225.41" width="7.68" height="7.84" transform="translate(-123.81 168.71) rotate(-46.25)"/></g><g class="dw"><rect class="dx" x="129.48" y="225.12" width="15.76" height="11.19" transform="translate(-88.38 85.33) rotate(-26.45)"/></g><g class="dy"><rect class="dz" x="64.6" y="224.04" width="61.53" height="56.92" transform="translate(-164.91 181.04) rotate(-53.96)"/></g><g class="ea"><rect class="eb" x="92.55" y="216.28" width="16.64" height="15.3" transform="translate(-144.09 241.65) rotate(-69.89)"/></g><g class="ec"><rect class="ed" x="100.62" y="229.07" width="33.77" height="40.79" transform="translate(-157.32 226.88) rotate(-60.08)"/></g><g class="ee"><rect class="ef" x="88.7" y="237.7" width="12.03" height="11.46" transform="translate(-164.12 208.37) rotate(-61.03)"/></g><g class="eg"><rect class="eh" x="91.11" y="225.88" width="16.71" height="17.49" transform="translate(-153.98 207.98) rotate(-61.03)"/></g><g class="ei"><rect class="ej" x="94.24" y="209.48" width="18.37" height="18.51" transform="translate(-113.74 112.07) rotate(-38.54)"/></g><g class="ek"><rect class="el" x="89.83" y="202.64" width="23.49" height="23.27" transform="translate(-110.09 107.36) rotate(-37.84)"/></g><g class="em"><rect class="en" x="95.85" y="216.43" width="5.5" height="5.53" transform="translate(-112.91 105.03) rotate(-37.42)"/></g><g class="eo"><rect class="ep" x="126.13" y="251.22" width="6.44" height="6.37" transform="translate(-146.91 326.07) rotate(-77.59)"/></g><g class="b"><path class="dp" d="M176.08,275.81c-1.65-7.87-3.31-12.42-8.85-27.33-1.75-4.69-3.33-9.44-2.56-14.38l.86-5.56a41.62,41.62,0,0,1,22.71-.15s16.3,7.08,5.23,42c-5,5.58-10.83,7.17-17.39,5.38"/></g><g class="eq"><rect class="er" x="166.09" y="217.99" width="14.79" height="13.37" transform="translate(-62.14 66.39) rotate(-18.43)"/></g><g class="es"><rect class="et" x="173.68" y="245.07" width="35.95" height="24.7"/></g><g class="b"><path class="m" d="M176,251.17a.65.65,0,0,0-.46.86L182,269.61a.65.65,0,0,0,.79.4l26.36-7.62a.65.65,0,0,0,.45-.76l-3.65-16.91a.66.66,0,0,0-.79-.5Z"/></g><g class="eu"><rect class="ev" x="175.18" y="242.18" width="36.73" height="31.08" transform="translate(-51.45 48.3) rotate(-12.57)"/></g><g class="b"><path class="dp" d="M199.27,256.64c2-15.22-9.72-26.93-9.72-26.93l-7,8.14a44.65,44.65,0,0,1,9,17.41c1.53-.45,5.2-1.15,7.73,1.38"/></g><g class="ew"><rect class="ex" x="176.91" y="236.8" width="20.29" height="19.5" transform="translate(-121.68 225.12) rotate(-48.84)"/></g><g class="ey"><rect class="ez" x="179.33" y="253.75" width="25.02" height="22.62" transform="translate(-131.83 312.98) rotate(-62.53)"/></g><g class="fa"><rect class="fb" x="163.82" y="210.45" width="14.35" height="13.35" transform="translate(-71.71 349.33) rotate(-80.36)"/></g><g class="fc"><rect class="fd" x="159.4" y="203.78" width="25.19" height="25.3" transform="translate(-101.59 176.73) rotate(-43.27)"/></g><g class="fe"><rect class="ff" x="173.25" y="219.05" width="5.04" height="5.01" transform="translate(-53.13 387.63) rotate(-87.54)"/></g><g class="fg"><rect class="fh" x="174.47" y="345.12" width="15.32" height="1.64"/></g><g class="fi"><rect class="fj" x="175.02" y="339.87" width="14.78" height="6.1"/></g><g class="fk"><rect class="fl" x="184.1" y="336.12" width="4.28" height="5.23"/></g><g class="fm"><rect class="fn" x="214.25" y="344.47" width="5.95" height="2.15"/></g><g class="fo"><rect class="fp" x="211.13" y="336.1" width="8.9" height="10"/></g><g class="fq"><rect class="fr" x="210.47" y="332.15" width="5.21" height="6.08"/></g><g class="fs"><rect class="ft" x="159.44" y="280.08" width="72.55" height="48.89" transform="translate(-132.52 457.17) rotate(-82.21)"/></g></g></g></svg>