<svg xmlns="http://www.w3.org/2000/svg" xmlns:xlink="http://www.w3.org/1999/xlink" viewBox="0 0 243 350"><defs><style>.a{fill:none;}.b{clip-path:url(#a);}.c{fill:#3f3764;}.d{font-size:24px;}.d,.e{fill:#f7f7f2;font-family:Arial-BoldMT, Arial;font-weight:700;}.e{font-size:36px;}.f{opacity:0.5;}.g{clip-path:url(#d);}.h{fill:#1eb5bb;}.i{fill:#95b0dd;}.j{fill:#beceeb;}.k{fill:#e61a73;}.l{clip-path:url(#e);}.m{fill:url(#f);}.n{clip-path:url(#g);}.o{fill:url(#h);}.p{clip-path:url(#i);}.q{fill:url(#j);}.r{clip-path:url(#k);}.s{fill:url(#l);}.t{clip-path:url(#m);}.u{fill:url(#n);}.v{clip-path:url(#o);}.w{fill:url(#p);}.x{clip-path:url(#q);}.y{fill:url(#r);}.z{clip-path:url(#s);}.aa{fill:url(#t);}.ab{clip-path:url(#u);}.ac{fill:url(#v);}.ad{clip-path:url(#w);}.ae{fill:url(#x);}.af{clip-path:url(#y);}.ag{fill:url(#z);}.ah{clip-path:url(#aa);}.ai{fill:url(#ab);}.aj{clip-path:url(#ac);}.ak{fill:url(#ad);}.al{clip-path:url(#ae);}.am{fill:url(#af);}.an{clip-path:url(#ag);}.ao{fill:url(#ah);}.ap{clip-path:url(#ai);}.aq{fill:url(#aj);}.ar{fill:#7f93ca;}.as{opacity:0.6;}.at{clip-path:url(#al);}.au{fill:#fff;}.av{clip-path:url(#am);}.aw{clip-path:url(#an);}.ax{clip-path:url(#ao);}.ay{fill:url(#ap);}</style><clipPath id="a"><rect class="a" width="243" height="621"/></clipPath><clipPath id="d"><rect class="a" x="22.21" y="143.37" width="198.48" height="198.67"/></clipPath><clipPath id="e"><path class="a" d="M113,334.86a14.94,14.94,0,0,1-6-.59c0,.12,0,.23,0,.34a1.07,1.07,0,0,0,1,1,183.61,183.61,0,0,0,20.51,0,.78.78,0,0,0,.63-1.16,6.87,6.87,0,0,0-.52-.72c-3.82.33-10.44.86-15.67,1.09"/></clipPath><linearGradient id="f" y1="620.99" x2="1" y2="620.99" gradientTransform="matrix(22.28, 0, 0, -22.28, 107.06, 14170.84)" gradientUnits="userSpaceOnUse"><stop offset="0" stop-color="#4857a3"/><stop offset="1" stop-color="#40509e"/></linearGradient><clipPath id="g"><path class="a" d="M109.68,326.06a14.08,14.08,0,0,0-2.62,8.21,14.94,14.94,0,0,0,6,.59c5.23-.23,11.85-.76,15.67-1.09C125,329.16,113,326.06,113,326.06Z"/></clipPath><linearGradient id="h" y1="621" x2="1" y2="621" gradientTransform="matrix(21.65, 0, 0, -21.65, 107.06, 13776.57)" gradientUnits="userSpaceOnUse"><stop offset="0" stop-color="#232451"/><stop offset="1" stop-color="#2a307a"/></linearGradient><clipPath id="i"><path class="a" d="M109.11,320.57l.32,6.23a1.43,1.43,0,0,0,1.21,1.34,5.61,5.61,0,0,0,2.53-.22,1.67,1.67,0,0,0,1.13-1.29l1.09-6.06Z"/></clipPath><linearGradient id="j" y1="621" x2="1" y2="621" gradientTransform="matrix(6.28, 0, 0, -6.28, 109.11, 4221.7)" gradientUnits="userSpaceOnUse"><stop offset="0" stop-color="#f7baba"/><stop offset="1" stop-color="#f2908f"/></linearGradient><clipPath id="k"><path class="a" d="M67.35,338.39a3,3,0,0,0,1.45,3.17,7.6,7.6,0,0,0,4,.81,3.72,3.72,0,0,0,3-1.8h0c-1.25.8-3,.89-5.76.39a3.3,3.3,0,0,1-2.72-2.6v0"/></clipPath><linearGradient id="l" x1="0" y1="621" x2="1" y2="621" gradientTransform="matrix(8.54, 0, 0, -8.54, 67.29, 5642.55)" xlink:href="#f"/><clipPath id="m"><path class="a" d="M67.35,338.35a3.3,3.3,0,0,0,2.72,2.6c2.76.5,4.51.41,5.76-.39,2.28-3.88,3.41-9.57,4-12.89.62-3.77-1.91-5.18-1.91-5.18H75c-4.19,0-6.82,11.44-7.69,15.87"/></clipPath><linearGradient id="n" y1="620.99" y2="620.99" gradientTransform="matrix(12.53, 0, 0, -12.53, 67.35, 8114.44)" xlink:href="#h"/><clipPath id="o"><path class="a" d="M73.92,322.83a1.67,1.67,0,0,0,.86,1.89,6,6,0,0,0,3.19.77,1.41,1.41,0,0,0,1.14-.93l2.26-6.45-5.91-1.41Z"/></clipPath><linearGradient id="p" x1="0" y1="620.99" x2="1" y2="620.99" gradientTransform="matrix(7.5, 0, 0, -7.5, 73.87, 4978.8)" xlink:href="#j"/><clipPath id="q"><path class="a" d="M74.25,318.13a18.78,18.78,0,0,0,7.12,2.59c7.46-20.49,30.95-61.61,30.95-61.61-2.91,17.64-4.16,63.64-4.16,63.64a11.44,11.44,0,0,0,8-.22c-.23-.47,13.54-86.52,13.54-86.52l-23.35-1.74c-6.75,9.86-32,83.86-32,83.86"/></clipPath><linearGradient id="r" y1="620.94" y2="620.94" gradientTransform="matrix(-122.9, 0, 0, 122.9, 152.3, -76032.64)" xlink:href="#h"/><clipPath id="s"><path class="a" d="M121.74,248.94l-3.79.76a.36.36,0,0,0-.22.16l-5.15,8.22a.34.34,0,0,0,.11.47.41.41,0,0,0,.18.05.32.32,0,0,0,.29-.16l5.07-8.09,3.64-.73a.34.34,0,0,0-.06-.68h-.07"/></clipPath><linearGradient id="t" x1="0" y1="621" x2="1" y2="621" gradientTransform="matrix(-139.76, 0, 0, 139.76, 251.74, -86536.97)" xlink:href="#f"/><clipPath id="u"><path class="a" d="M94.1,179.87a11.37,11.37,0,0,0-6.86,6.25c-4,9.09-10.38,29.8,7.43,40.25A44,44,0,0,1,99,218.24c-2.86-4.84-3.71-11.45,1.38-20.05,3.71,10,5.45,24.64,5.81,31.11a13.84,13.84,0,0,1-1.09,6.22l-.09.22a.73.73,0,0,0,.52,1,84.35,84.35,0,0,0,23.56,1.38,1.28,1.28,0,0,0,1.15-1c4.87-20.54,4.89-34.55,3.69-43.4,4.56,1,12.45,14.38,23.54,6.13-1-6.55,1.87-8.65.46-10.52-6.09,2.75-13.1-9.37-23.19-12.86a10.9,10.9,0,0,0-2.88-.57c-1.53-.09-4.08-.2-7.27-.2-8,0-20,.69-30.45,4.15"/></clipPath><linearGradient id="v" x1="0" y1="620.97" x2="1" y2="620.97" gradientTransform="matrix(55.63, 0, 0, -55.63, 267.51, 34751.76)" xlink:href="#f"/><clipPath id="w"><path class="a" d="M133.91,193.88c-1.17-8.86-3.56-12.62-3.56-12.62Z"/></clipPath><linearGradient id="x" x1="0" y1="621" x2="1" y2="621" gradientTransform="matrix(-30.26, 0, 0, 30.26, 184.62, -18600.89)" xlink:href="#f"/><clipPath id="y"><path class="a" d="M107.27,177.85a1.08,1.08,0,0,0,.51,1.24c1.51.86,5.15,2.28,10.12-.16a2.25,2.25,0,0,0,1.25-2.12l-.44-10.36L109.17,164s-1,10.72-1.9,13.89"/></clipPath><linearGradient id="z" x1="0" y1="621.03" x2="1" y2="621.03" gradientTransform="matrix(17.37, 0, 0, -17.37, 97.56, 10958.96)" xlink:href="#j"/><clipPath id="aa"><path class="a" d="M106,155c-.73,2.46,2.51,8.47,2.51,8.47a9.62,9.62,0,0,0,10.39,5.36c4.52-.79,3.68-3.33,3.46-7.24s-3.46-11.36-3.46-11.36S106.75,152.56,106,155"/></clipPath><linearGradient id="ab" x1="0" y1="620.97" x2="1" y2="620.97" gradientTransform="matrix(-23.35, 0, 0, 23.35, 120.45, -14338.12)" xlink:href="#j"/><clipPath id="ac"><path class="a" d="M119.93,142.27l-.19.35a.31.31,0,0,1-.57-.05.3.3,0,0,0-.55-.08c-.55.87-2,2.28-5.94,3-5.58,1-9.27,3.29-9.36,7.14a.3.3,0,0,1-.47.26c-.42-.25-1.07-.37-2,.37-1.53,1.29-.9,4.63,2.46,7.38a.3.3,0,0,1,0,.49c-.61.4-1.51,1.34.84,2.6a7.86,7.86,0,0,0,5,1.07.3.3,0,0,0,.24-.37l-.74-3.38a.31.31,0,0,1,.3-.38h1.16l.26-.11a.61.61,0,0,0,.3-.85c-.64-1.23-1.88-4.06-.27-4.72,2.07-.84,10.26-2.52,12-5.42a5.42,5.42,0,0,0-2.07-7.44.3.3,0,0,0-.13,0,.29.29,0,0,0-.27.16"/></clipPath><linearGradient id="ad" y1="620.97" y2="620.97" gradientTransform="matrix(0, 28.15, 28.15, 0, -17370.27, 144.07)" xlink:href="#h"/><clipPath id="ae"><path class="a" d="M106.85,158c-2.13,1.34,1.11,5.34,2.82,5.52l.55-2.09s-1-3.66-2.62-3.66a1.42,1.42,0,0,0-.75.23"/></clipPath><linearGradient id="af" x1="0" y1="620.98" x2="1" y2="620.98" gradientTransform="matrix(-23.35, 0, 0, 23.35, 119.44, -14337.62)" xlink:href="#j"/><clipPath id="ag"><path class="a" d="M94.67,226.37c3.89,2.28,9,6.24,15.46,7.32l14.64-.32s-12.77-3.6-13.56-2.62c0,0-7.91-5.2-12.25-12.51a44,44,0,0,0-4.29,8.13"/></clipPath><linearGradient id="ah" x1="0" y1="620.91" x2="1" y2="620.91" gradientTransform="matrix(-19.18, 0, 0, 19.18, 134.12, -11684.06)" xlink:href="#j"/><clipPath id="ai"><path class="a" d="M117.07,236.14c4.16-.46,10.88-4.34,10.88-4.34s-17.51,0-18.23-.64c0,0-.3,5.83,7.35,5"/></clipPath><linearGradient id="aj" x1="0" y1="621.06" x2="1" y2="621.06" gradientTransform="matrix(0, 18.8, -18.8, 0, 11791.77, 204.9)" xlink:href="#j"/><clipPath id="al"><rect class="a" x="140.13" y="192.09" width="72.29" height="101.56"/></clipPath><clipPath id="am"><rect class="a" x="150.27" y="235.54" width="51.75" height="4.4"/></clipPath><clipPath id="an"><rect class="a" x="155.76" y="243.72" width="45.57" height="4.92"/></clipPath><clipPath id="ao"><path class="a" d="M166.14,183.4a1.6,1.6,0,0,0-.69.37c-1.07,1.13,2.22,3.27,3.07,3.57a5.37,5.37,0,0,0,4.45-.68c.86-.52,2.74-1.52,2.5-2.75-.18-.94-1.29-.86-2-.89-1.26,0-2.47-.14-3.68-.14a11.24,11.24,0,0,0-3.65.52"/></clipPath><linearGradient id="ap" x1="0" y1="620.99" x2="1" y2="620.99" gradientTransform="translate(175.49 6552.31) rotate(180) scale(10.25)" xlink:href="#j"/></defs><title>etape-1</title><g class="b"><g class="b"><path class="c" d="M162.79,68.45A36.83,36.83,0,1,1,126,31.63a36.83,36.83,0,0,1,36.83,36.82"/></g><text class="d" transform="translate(109.78 83.5)">#</text><text class="e" transform="translate(123.13 83.5)">1</text><g class="b"><g class="f"><g class="g"><path class="h" d="M196.81,314.23a76.3,76.3,0,0,1-13.32,10.9c-34.52,23.22-74,16.52-86.18,14.24-19.68-3.69-36.3-6.3-50.57-19.29C14.3,290.56,15.88,229,40.67,190.83c2.93-4.53,27.68-41.48,67.23-46.69,1-.13,1.68-.2,2.32-.27,6.11-.65,44-4.09,74.93,22a92.64,92.64,0,0,1,18.15,20.74c24.14,37.56,24.22,95.74-6.49,127.62"/></g></g><path class="i" d="M24,206.38a.25.25,0,0,1-.22-.15c-.13-.29-.25-.59-.37-.9a.24.24,0,1,1,.45-.17l.36.88a.24.24,0,0,1-.13.32l-.09,0"/><path class="i" d="M22.63,202.58a.25.25,0,0,1-.23-.17c-.18-.61-.34-1.23-.48-1.84a.24.24,0,0,1,.18-.29.23.23,0,0,1,.29.18c.14.6.3,1.21.47,1.81a.24.24,0,0,1-.16.3h-.07m-1-4.85a.25.25,0,0,1-.24-.21c-.09-.62-.16-1.26-.21-1.89a.24.24,0,0,1,.48,0c.05.62.12,1.25.21,1.87a.24.24,0,0,1-.21.27h0m-.34-4.95h0a.24.24,0,0,1-.24-.24c0-.63,0-1.27.06-1.9a.24.24,0,1,1,.48,0c0,.62-.05,1.25-.05,1.87a.25.25,0,0,1-.25.24m.38-4.94h0a.25.25,0,0,1-.2-.28c.09-.62.21-1.25.33-1.87a.25.25,0,0,1,.29-.19.25.25,0,0,1,.19.29c-.13.6-.24,1.23-.33,1.84a.25.25,0,0,1-.24.21M22.72,183h-.07a.24.24,0,0,1-.16-.3c.18-.6.38-1.21.6-1.81a.23.23,0,0,1,.31-.14.24.24,0,0,1,.14.31c-.21.58-.41,1.18-.59,1.78a.25.25,0,0,1-.23.17m1.78-4.63-.1,0a.24.24,0,0,1-.12-.33c.27-.57.56-1.14.86-1.7a.25.25,0,0,1,.33-.1.24.24,0,0,1,.09.33c-.29.55-.58,1.11-.84,1.68a.24.24,0,0,1-.22.14M26.93,174a.2.2,0,0,1-.13,0,.23.23,0,0,1-.07-.33c.35-.53.72-1,1.09-1.56a.24.24,0,1,1,.39.29c-.37.5-.74,1-1.08,1.54a.23.23,0,0,1-.2.1m3-3.93a.23.23,0,0,1-.16-.06.24.24,0,0,1,0-.34c.42-.47.86-.93,1.3-1.38a.23.23,0,0,1,.34,0,.24.24,0,0,1,0,.34c-.45.44-.88.9-1.29,1.36a.23.23,0,0,1-.18.08m3.56-3.45a.27.27,0,0,1-.19-.08.25.25,0,0,1,0-.34c.49-.41,1-.81,1.49-1.19a.24.24,0,1,1,.29.39c-.49.37-1,.76-1.47,1.16a.22.22,0,0,1-.15.06m4-2.9a.23.23,0,0,1-.2-.12.23.23,0,0,1,.08-.33c.53-.33,1.09-.65,1.64-.95a.24.24,0,0,1,.33.09.24.24,0,0,1-.1.33c-.54.3-1.09.61-1.62.94a.2.2,0,0,1-.13,0m4.4-2.3a.23.23,0,0,1-.22-.14.24.24,0,0,1,.12-.32c.58-.25,1.18-.49,1.77-.71a.25.25,0,0,1,.17.46c-.59.21-1.18.45-1.75.69a.15.15,0,0,1-.09,0M68,161h-.09c-.58-.23-1.18-.44-1.77-.64a.24.24,0,0,1,.15-.46c.6.2,1.2.42,1.79.65a.23.23,0,0,1,.14.31A.25.25,0,0,1,68,161m-21.36-1.15a.23.23,0,0,1-.23-.18.23.23,0,0,1,.17-.29c.61-.17,1.23-.31,1.85-.44a.24.24,0,0,1,.29.18.26.26,0,0,1-.19.29c-.61.13-1.22.27-1.83.43h-.06m16.62-.31h-.06c-.61-.14-1.23-.27-1.84-.37a.24.24,0,0,1,.08-.48c.62.11,1.25.23,1.87.38a.24.24,0,0,1,.18.28.23.23,0,0,1-.23.19m-11.75-.62a.24.24,0,0,1-.24-.22.23.23,0,0,1,.21-.26c.63-.08,1.27-.14,1.9-.18a.25.25,0,0,1,.25.23.24.24,0,0,1-.22.26c-.62,0-1.25.09-1.87.17h0m6.84-.13h0c-.62-.05-1.25-.09-1.87-.1a.26.26,0,0,1-.24-.25.24.24,0,0,1,.25-.23c.63,0,1.27.05,1.9.1a.23.23,0,0,1,.22.26.24.24,0,0,1-.24.22"/><path class="i" d="M71.65,162.68l-.11,0c-.28-.15-.56-.3-.85-.44a.24.24,0,0,1,.21-.43l.87.44a.26.26,0,0,1,.1.33.26.26,0,0,1-.22.13"/><path class="i" d="M88.39,183.13a.25.25,0,0,1-.23-.17c-.09-.31-.19-.61-.28-.91a.23.23,0,0,1,.15-.31.24.24,0,0,1,.3.15c.1.31.2.62.29.93a.24.24,0,0,1-.16.3h-.07"/><path class="i" d="M57,227.19a.23.23,0,0,1-.24-.23.23.23,0,0,1,.23-.25h.22c.58,0,1.16-.07,1.74-.13a.24.24,0,0,1,.26.21.24.24,0,0,1-.21.27c-.59.06-1.18.1-1.77.13H57m-3.22,0h0c-.67,0-1.34-.08-2-.15a.24.24,0,0,1-.21-.27.23.23,0,0,1,.26-.21c.65.07,1.31.12,2,.15A.25.25,0,0,1,54,227a.24.24,0,0,1-.24.22m8.37-.59a.23.23,0,0,1-.23-.19.23.23,0,0,1,.19-.28c.64-.13,1.28-.27,1.91-.43a.24.24,0,1,1,.12.46c-.64.17-1.29.31-1.94.44h-.05m-13.52-.06h-.05c-.65-.13-1.3-.29-1.94-.46a.24.24,0,1,1,.12-.46c.63.17,1.28.32,1.92.45a.23.23,0,0,1,.18.28.23.23,0,0,1-.23.2m18.53-1.31a.24.24,0,0,1-.08-.47c.61-.22,1.23-.46,1.83-.72a.24.24,0,0,1,.19.45c-.61.26-1.24.5-1.86.72l-.08,0m-23.52-.13h-.09c-.62-.23-1.24-.48-1.85-.75a.24.24,0,1,1,.2-.44c.59.26,1.21.51,1.82.74a.24.24,0,0,1-.08.46m28.26-2a.23.23,0,0,1-.21-.13.24.24,0,0,1,.09-.33c.57-.31,1.15-.64,1.7-1a.24.24,0,1,1,.25.41c-.56.35-1.14.68-1.72,1a.2.2,0,0,1-.11,0m4.36-2.82a.23.23,0,0,1-.19-.09.25.25,0,0,1,0-.34c.52-.39,1-.81,1.53-1.23a.23.23,0,0,1,.34,0,.24.24,0,0,1,0,.34c-.51.42-1,.84-1.56,1.24a.19.19,0,0,1-.14.05m3.89-3.44a.27.27,0,0,1-.17-.06.25.25,0,0,1,0-.35c.46-.47.91-.95,1.33-1.44a.23.23,0,0,1,.34,0,.25.25,0,0,1,0,.34c-.43.5-.89,1-1.35,1.47a.23.23,0,0,1-.17.07m3.32-4a.3.3,0,0,1-.14,0,.24.24,0,0,1,0-.33c.38-.53.75-1.08,1.09-1.64a.25.25,0,0,1,.34-.07.24.24,0,0,1,.07.33c-.35.56-.73,1.12-1.11,1.66a.26.26,0,0,1-.2.1m2.7-4.44a.2.2,0,0,1-.11,0,.24.24,0,0,1-.11-.32c.3-.59.58-1.18.84-1.78a.24.24,0,0,1,.32-.13.25.25,0,0,1,.12.32c-.26.61-.55,1.21-.85,1.8a.24.24,0,0,1-.21.14m2-4.8h-.07a.25.25,0,0,1-.16-.31c.21-.62.4-1.25.56-1.89a.24.24,0,1,1,.47.13c-.17.64-.36,1.28-.57,1.91a.24.24,0,0,1-.23.17m1.24-5.05h0a.25.25,0,0,1-.2-.28c.11-.64.2-1.3.27-1.95a.23.23,0,0,1,.26-.21.24.24,0,0,1,.22.26c-.07.66-.16,1.33-.27,2a.24.24,0,0,1-.24.2m.45-5.17h0a.24.24,0,0,1-.24-.24c0-.14,0-.28,0-.43,0-.51,0-1,0-1.54a.24.24,0,0,1,.23-.25.23.23,0,0,1,.25.23c0,.52,0,1.05,0,1.56v.43a.25.25,0,0,1-.25.24m-.32-5.18a.25.25,0,0,1-.24-.21c-.09-.65-.2-1.3-.32-1.94a.23.23,0,0,1,.19-.28.24.24,0,0,1,.28.19c.13.64.24,1.31.33,2a.23.23,0,0,1-.21.27h0"/><path class="i" d="M38.87,222.9l-.12,0-.84-.48a.25.25,0,0,1-.08-.34.24.24,0,0,1,.33-.08l.83.48a.24.24,0,0,1,.09.33.22.22,0,0,1-.21.12"/><path class="i" d="M39.35,213.47a.41.41,0,0,0,.47.07l4.46-2.27a21.8,21.8,0,0,0,6.58,2.6l1.7,4.7a.42.42,0,0,0,.4.28l6-.1a.43.43,0,0,0,.39-.29l1.55-4.75a21.62,21.62,0,0,0,6.48-2.82L71.92,213a.4.4,0,0,0,.47-.09l4.18-4.31a.41.41,0,0,0,.07-.47l-2.27-4.47A21.85,21.85,0,0,0,77,197.1l4.71-1.71A.42.42,0,0,0,82,195l-.1-6a.4.4,0,0,0-.29-.38l-4.75-1.56A21.84,21.84,0,0,0,74,180.57L76.11,176a.41.41,0,0,0-.08-.47l-4.32-4.17a.4.4,0,0,0-.47-.08l-4.47,2.27A21.85,21.85,0,0,0,60.2,171l-1.71-4.7a.4.4,0,0,0-.39-.27l-6,.1a.4.4,0,0,0-.38.28l-1.56,4.76A21.57,21.57,0,0,0,43.67,174l-4.54-2.12a.42.42,0,0,0-.47.09l-4.17,4.31a.41.41,0,0,0-.07.48l2.26,4.46a21.85,21.85,0,0,0-2.6,6.57l-4.7,1.71a.41.41,0,0,0-.27.4l.1,6a.41.41,0,0,0,.28.39l4.76,1.55a22,22,0,0,0,2.81,6.48l-2.12,4.54a.41.41,0,0,0,.09.47Z"/><path class="j" d="M55.53,198.12a5.71,5.71,0,1,1,1.48-.2,5.38,5.38,0,0,1-1.48.2m0-10.67a4.85,4.85,0,0,0-1.3.18,4.94,4.94,0,1,0,1.3-.18"/><path class="j" d="M55.61,207.18h0a14.87,14.87,0,0,1-2.91-.28l.14-.71a14.32,14.32,0,0,0,3,.27,14.64,14.64,0,0,0,2.11-.19h0a14.15,14.15,0,0,0,11.78-13.93v-.24a14.15,14.15,0,0,0-14.13-13.9h-.23a14.13,14.13,0,0,0-13.9,14.13v.23a14,14,0,0,0,2.12,7.22l-.61.38a14.84,14.84,0,0,1-2.24-7.59v-.24a14.86,14.86,0,0,1,29.71-.25v.25a14.85,14.85,0,0,1-14.61,14.85h-.24"/><path class="i" d="M80.32,173.62l2.39-1.46a12.28,12.28,0,0,0,3.79,1.16l1.16,2.55a.23.23,0,0,0,.23.13l3.36-.32a.25.25,0,0,0,.2-.17l.65-2.73a12.24,12.24,0,0,0,3.5-1.86l2.63,1a.22.22,0,0,0,.26-.07l2.14-2.59a.24.24,0,0,0,0-.27l-1.47-2.39a12.28,12.28,0,0,0,1.16-3.79l2.55-1.16a.24.24,0,0,0,.14-.23l-.32-3.35a.25.25,0,0,0-.18-.21l-2.73-.65a12,12,0,0,0-1.86-3.5l1-2.63a.26.26,0,0,0-.07-.26l-2.6-2.14a.24.24,0,0,0-.27,0l-2.39,1.47A12.2,12.2,0,0,0,89.81,149l-1.16-2.55a.23.23,0,0,0-.23-.14l-3.35.32a.25.25,0,0,0-.2.18l-.66,2.73a12.13,12.13,0,0,0-3.5,1.86l-2.62-1a.25.25,0,0,0-.26.07L75.69,153a.23.23,0,0,0,0,.27l1.46,2.39A12.2,12.2,0,0,0,76,159.48l-2.55,1.16a.22.22,0,0,0-.13.23l.32,3.35a.22.22,0,0,0,.17.2l2.73.66a12.38,12.38,0,0,0,1.86,3.5l-1,2.62a.21.21,0,0,0,.07.26l2.59,2.14a.23.23,0,0,0,.27,0"/><path class="j" d="M88.16,164.48a3.34,3.34,0,0,1-3-4.78,3.35,3.35,0,0,1,6.18.31,3.34,3.34,0,0,1-3.15,4.47m1-.53Zm-1-5.44a2.73,2.73,0,0,0-.89.15A2.6,2.6,0,0,0,85.78,160a2.63,2.63,0,1,0,4.85.24,2.62,2.62,0,0,0-2.47-1.74"/><path class="i" d="M74.33,173a.27.27,0,0,1-.19-.08c-.21-.25-.41-.51-.61-.77a.25.25,0,0,1,0-.34.24.24,0,0,1,.34,0l.59.75a.24.24,0,0,1,0,.34.27.27,0,0,1-.15.05"/><path class="i" d="M72.11,169.62a.23.23,0,0,1-.21-.13,17.06,17.06,0,0,1-.78-1.74.24.24,0,0,1,.14-.31.24.24,0,0,1,.31.14,16.1,16.1,0,0,0,.76,1.69.24.24,0,0,1-.11.32.2.2,0,0,1-.11,0M70.48,165a.26.26,0,0,1-.24-.19c-.12-.62-.22-1.25-.28-1.88a.25.25,0,0,1,.21-.27.25.25,0,0,1,.27.22,16.17,16.17,0,0,0,.28,1.83.26.26,0,0,1-.19.29h0m-.32-4.9h0a.24.24,0,0,1-.22-.26,17.11,17.11,0,0,1,.23-1.89.25.25,0,0,1,.28-.2.24.24,0,0,1,.2.28,16.51,16.51,0,0,0-.23,1.84.25.25,0,0,1-.24.23m1-4.81-.08,0a.24.24,0,0,1-.15-.31c.22-.59.47-1.18.74-1.75a.24.24,0,0,1,.43.21c-.26.55-.5,1.13-.71,1.71a.25.25,0,0,1-.23.16m2.28-4.36a.23.23,0,0,1-.14,0,.24.24,0,0,1-.06-.34A18.82,18.82,0,0,1,74.44,149a.24.24,0,0,1,.36.32c-.4.46-.79.95-1.15,1.45a.22.22,0,0,1-.19.1m3.36-3.58a.25.25,0,0,1-.19-.09.25.25,0,0,1,0-.34,16.68,16.68,0,0,1,1.54-1.11.24.24,0,1,1,.26.4,17.33,17.33,0,0,0-1.5,1.09.27.27,0,0,1-.15.05M81,144.8a.25.25,0,0,1-.22-.15.25.25,0,0,1,.13-.32c.35-.15.71-.29,1.07-.42l.71-.24a.24.24,0,0,1,.3.16.24.24,0,0,1-.15.3c-.24.08-.47.15-.7.24s-.7.26-1,.41l-.1,0m4.74-1.32a.24.24,0,0,1-.24-.2.26.26,0,0,1,.21-.28c.63-.08,1.26-.13,1.9-.15a.23.23,0,0,1,.24.23.23.23,0,0,1-.23.25c-.61,0-1.24.07-1.85.15h0"/><path class="i" d="M91.65,143.67H91.6l-.94-.16a.24.24,0,1,1,.07-.47c.33,0,.65.1,1,.16a.23.23,0,0,1,.18.28.23.23,0,0,1-.23.2"/><path class="i" d="M103.45,151.79a.23.23,0,0,1-.2-.11c-.17-.27-.35-.54-.53-.79a.24.24,0,1,1,.4-.28c.18.26.36.54.54.82a.24.24,0,0,1-.08.33.28.28,0,0,1-.13,0"/><path class="i" d="M88.16,179.42h-.38a.23.23,0,0,1-.23-.24.24.24,0,0,1,.24-.24c.61,0,1.22,0,1.82-.05a.23.23,0,0,1,.26.22.24.24,0,0,1-.22.26c-.49,0-1,.06-1.49.06m4.43-.56a.24.24,0,0,1-.06-.47c.54-.14,1.09-.31,1.62-.5l.12,0a.24.24,0,0,1,.31.14.24.24,0,0,1-.14.31l-.13,0c-.55.19-1.1.36-1.66.5h-.06m4.49-1.8a.24.24,0,0,1-.21-.13.24.24,0,0,1,.09-.33,16.55,16.55,0,0,0,1.54-1,.23.23,0,0,1,.33.05.24.24,0,0,1,0,.34,17.47,17.47,0,0,1-1.58,1,.19.19,0,0,1-.12,0m3.85-2.94a.21.21,0,0,1-.17-.07.23.23,0,0,1,0-.34c.42-.43.83-.88,1.21-1.35a.25.25,0,0,1,.34,0,.24.24,0,0,1,0,.34,16.51,16.51,0,0,1-1.25,1.39.23.23,0,0,1-.17.07m2.92-3.85-.12,0a.25.25,0,0,1-.09-.33,17.73,17.73,0,0,0,.82-1.63.24.24,0,0,1,.32-.12.25.25,0,0,1,.12.32,17.38,17.38,0,0,1-.84,1.67.24.24,0,0,1-.21.12m1.8-4.48h-.06a.25.25,0,0,1-.17-.29c.15-.59.27-1.19.36-1.79a.24.24,0,0,1,.27-.21.25.25,0,0,1,.2.28c-.09.61-.21,1.23-.36,1.83a.26.26,0,0,1-.24.19m.55-4.81a.24.24,0,0,1-.24-.24c0-.6-.06-1.21-.13-1.81a.23.23,0,0,1,.21-.27.22.22,0,0,1,.26.21,16.45,16.45,0,0,1,.14,1.86.24.24,0,0,1-.23.25Zm-.76-4.78a.23.23,0,0,1-.23-.17c-.09-.3-.18-.59-.29-.89s-.21-.56-.32-.83a.24.24,0,0,1,.45-.18l.33.85.3.91a.25.25,0,0,1-.17.3h-.07"/><path class="i" d="M84.79,179.1h0l-1-.21a.25.25,0,0,1-.17-.3.24.24,0,0,1,.29-.17l.93.2a.24.24,0,0,1,0,.48"/><path class="j" d="M88.19,169.56h-.38l-.61-.05.09-.72a7.58,7.58,0,0,0,1.65,0H89a7.72,7.72,0,0,0,5-2.5l.23-.28A7.69,7.69,0,0,0,96,161.09a6.56,6.56,0,0,0,0-.76,7.76,7.76,0,0,0-15.48.74q0,.38,0,.75A7.83,7.83,0,0,0,82,165.68l-.58.43a8.49,8.49,0,0,1-1.62-4.22c0-.28,0-.55,0-.82a8.48,8.48,0,0,1,16.93-.81,7.81,7.81,0,0,1,0,.83A8.49,8.49,0,0,1,89,169.52c-.27,0-.55,0-.82,0"/><path class="k" d="M58.51,288.68a1.32,1.32,0,0,0,.31,2.08c3.52,1.93,12.35,5.44,19.8-2.79,9.54-10.54,32.77-59.71,35.64-72.34s13.7-32.08,19.65-34.37-12.62-1-17.79-.9-8.89-2.48-5.82-3.65c0,0-15.72-6.14-27.52,12.12-7.12,11-30.07,62-49.09,67.61-.7.21,3.29,2.92,3.6,3.58,1.83,4,8.56,15.6,26.21,21.71a36.93,36.93,0,0,1-5,6.95"/></g><g class="l"><rect class="m" x="107.06" y="333.77" width="22.47" height="2.41"/></g><g class="n"><rect class="o" x="107.03" y="326.06" width="21.68" height="8.94"/></g><g class="p"><rect class="q" x="109.11" y="320.57" width="6.28" height="7.68"/></g><g class="r"><rect class="s" x="67.1" y="338.35" width="8.73" height="4.08"/></g><g class="t"><rect class="u" x="67.35" y="322.48" width="13.05" height="18.96"/></g><g class="v"><rect class="w" x="73.73" y="316.7" width="7.64" height="8.92"/></g><g class="x"><rect class="y" x="49.11" y="232.18" width="105.67" height="94.17" transform="translate(-189.53 220.77) rotate(-58.6)"/></g><g class="z"><rect class="aa" x="110.9" y="247.33" width="12.86" height="12.88" transform="translate(-162.25 252.59) rotate(-64.94)"/></g><g class="ab"><rect class="ac" x="73.05" y="157.15" width="90.06" height="100.4" transform="translate(-118.71 236.84) rotate(-67.44)"/></g><g class="ad"><rect class="ae" x="126.64" y="181.65" width="10.98" height="11.85" transform="translate(-90.76 133.17) rotate(-41.12)"/></g><g class="af"><rect class="ag" x="103.48" y="165.11" width="19.36" height="15.1" transform="translate(-77.63 251.51) rotate(-79.22)"/></g><g class="ah"><rect class="ai" x="101.28" y="146.72" width="26.19" height="26.42" transform="translate(-73.65 102.42) rotate(-37.42)"/></g><g class="aj"><rect class="ak" x="94.93" y="136.93" width="33.6" height="33.28" transform="matrix(0.79, -0.61, 0.61, 0.79, -70.71, 100.82)"/></g><g class="al"><rect class="am" x="103.54" y="156.65" width="7.86" height="7.91" transform="translate(-75.47 98.36) rotate(-37.42)"/></g><g class="an"><rect class="ao" x="94.94" y="209.16" width="29.56" height="33.62" transform="translate(-139.16 191.91) rotate(-56.31)"/></g><g class="ap"><rect class="aq" x="109.35" y="226.51" width="18.66" height="15.13" transform="translate(-109.91 105.15) rotate(-33.69)"/></g><g class="b"><path class="ar" d="M140.85,300h71.47c2.28,0,4.13-2.76,4.13-6.16V190.65c0-3.4-1.84-6.16-4.11-6.16l-72.05-.29c-2.3,0-4.15,2.77-4.14,6.2l.57,103.44c0,3.39,1.86,6.13,4.13,6.13"/><g class="as"><g class="at"><path class="au" d="M144.35,192.09l63.91.59c2.31,0,4.17,2.83,4.16,6.29L212,285.72c0,3.4-1.84,6.17-4.11,6.23l-62.1,1.7c-2.32.06-4.23-2.71-4.27-6.17l-1.36-89c0-3.51,1.86-6.37,4.21-6.35"/></g></g><g class="as"><g class="av"><path class="au" d="M150.27,237.41v.66c0,1,.56,1.87,1.26,1.87h49.24c.69,0,1.25-.84,1.25-1.87v-.66c0-1-.56-1.87-1.25-1.87H151.53c-.7,0-1.26.83-1.26,1.87"/></g></g><g class="as"><g class="aw"><path class="au" d="M155.77,245.69h0c0,1,.57,1.75,1.22,1.77l43.07,1.17c.7,0,1.28-.82,1.28-1.87v-.15c0-1-.55-1.86-1.24-1.87l-43.06-1c-.73,0-1.31.89-1.27,2"/></g></g><path class="au" d="M148.05,288.33a2.79,2.79,0,0,1-2-.85,5.71,5.71,0,0,1-1.5-4l-1.4-60.6h0c0-2.76,1.46-5,3.39-5l58.15-1.7a2.79,2.79,0,0,1,2,.84,5.75,5.75,0,0,1,1.52,4l1.49,61.24c0,2.74-1.49,5-3.41,5l-58.25,1h0m-3.89-65.46,1.39,60.6a4.79,4.79,0,0,0,1.21,3.32,1.88,1.88,0,0,0,1.29.58h0l58.25-1.05c1.37,0,2.5-1.87,2.47-4L207.29,221a4.76,4.76,0,0,0-1.22-3.33,1.89,1.89,0,0,0-1.32-.56l-58.14,1.69c-1.36,0-2.48,1.89-2.45,4"/><path class="au" d="M207.87,229H144.43a.49.49,0,0,1,0-1h63.44a.49.49,0,0,1,0,1"/></g><g class="ax"><rect class="ay" x="164.38" y="182.88" width="11.33" height="4.97"/></g><g class="b"><path class="k" d="M149.49,153.28a.57.57,0,0,0-.29,0q-2.65.35-5.27.79a2.79,2.79,0,0,1-1.15-.06,2.68,2.68,0,0,1-1-.51q-2-1.68-4.12-3.28a.68.68,0,0,0-.26-.12.67.67,0,0,0-.5.09.5.5,0,0,0-.23.39c-.06,1.6-.14,3.2-.22,4.8a2.09,2.09,0,0,1-1.11,1.7c-1.48.83-2.94,1.69-4.37,2.56a.52.52,0,0,0-.26.51.54.54,0,0,0,.37.43q2.4.8,4.74,1.68a2.11,2.11,0,0,1,1.34,1.52c.34,1.56.66,3.12.95,4.69a.49.49,0,0,0,.38.4.52.52,0,0,0,.54-.16c1.09-1.2,2.2-2.38,3.33-3.56a2.24,2.24,0,0,1,2-.64c1.65.25,3.29.55,4.93.87a.55.55,0,0,0,.55-.19.51.51,0,0,0,.05-.56q-1.11-2.18-2.34-4.33a2,2,0,0,1,0-2c.78-1.42,1.58-2.83,2.38-4.23a.48.48,0,0,0,0-.45.61.61,0,0,0-.38-.32"/><path class="k" d="M173.63,146.18a.78.78,0,0,0-.34,0q-3.15.48-6.25,1.09a3.29,3.29,0,0,1-1.36,0,3.2,3.2,0,0,1-1.21-.6q-2.44-2-5-3.86a1,1,0,0,0-.32-.14.78.78,0,0,0-.59.13.56.56,0,0,0-.25.47q0,2.91-.12,5.82a2.51,2.51,0,0,1-1.25,2.08c-1.73,1-3.42,2.11-5.09,3.21a.61.61,0,0,0-.28.61.64.64,0,0,0,.45.52c1.91.6,3.79,1.24,5.66,1.91a2.58,2.58,0,0,1,1.63,1.8c.46,1.89.88,3.77,1.28,5.65a.62.62,0,0,0,1.09.27c1.26-1.47,2.54-2.94,3.84-4.38a2.61,2.61,0,0,1,2.3-.84c2,.27,3.93.59,5.9.94a.64.64,0,0,0,.64-.25.61.61,0,0,0,.05-.67q-1.41-2.61-2.94-5.18a2.51,2.51,0,0,1-.1-2.42c.89-1.74,1.78-3.46,2.69-5.18a.57.57,0,0,0,0-.54.79.79,0,0,0-.46-.38"/><path class="k" d="M193,144.77a1.06,1.06,0,0,0-.31.21c-1.61,1.69-3.18,3.39-4.71,5.12a3.47,3.47,0,0,1-1.21.88,3.54,3.54,0,0,1-1.47.29q-3.48-.09-7,0a.74.74,0,0,0-.36.09.87.87,0,0,0-.44.5.63.63,0,0,0,.11.58c1.3,1.71,2.6,3.42,3.88,5.14a2.75,2.75,0,0,1,.33,2.65q-1.19,3.08-2.23,6.17a.67.67,0,0,0,.18.73.69.69,0,0,0,.74.15q3.1-1.12,6.24-2.11a2.91,2.91,0,0,1,2.66.48q2.52,2,5,4.06a.65.65,0,0,0,.73.11.66.66,0,0,0,.41-.6c.08-2.12.2-4.25.34-6.38a2.83,2.83,0,0,1,1.45-2.26c1.9-1.08,3.84-2.12,5.8-3.13a.69.69,0,0,0,.39-.64.67.67,0,0,0-.42-.62q-3-1.32-6.12-2.54a2.79,2.79,0,0,1-1.75-2q-.61-3.15-1.2-6.3a.63.63,0,0,0-.36-.47.86.86,0,0,0-.67,0"/><path class="k" d="M221.48,175.25a1.08,1.08,0,0,0-.46-.18q-4.52-.69-9-1.18a4.63,4.63,0,0,1-1.85-.63,4.8,4.8,0,0,1-1.44-1.36q-2.58-3.78-5.34-7.48a1.28,1.28,0,0,0-.37-.33,1.13,1.13,0,0,0-.86-.08.81.81,0,0,0-.53.55c-.78,2.68-1.57,5.35-2.39,8a3.48,3.48,0,0,1-2.51,2.36c-2.76.71-5.48,1.47-8.18,2.28a.88.88,0,0,0-.62.74.93.93,0,0,0,.42.9q3.55,2.47,7,5.07a3.87,3.87,0,0,1,1.55,3.2c-.1,2.8-.24,5.6-.42,8.38a.92.92,0,0,0,.45.87.88.88,0,0,0,.95,0c2.28-1.52,4.6-3,6.94-4.44a3.64,3.64,0,0,1,3.48-.16q3.9,1.83,7.76,3.86a.91.91,0,0,0,1-.06.87.87,0,0,0,.32-.92c-.63-2.82-1.31-5.65-2.06-8.48a3.62,3.62,0,0,1,.78-3.41q2.82-3,5.68-6A.81.81,0,0,0,222,176a1.16,1.16,0,0,0-.49-.73"/></g></g></svg>