<svg xmlns="http://www.w3.org/2000/svg" xmlns:xlink="http://www.w3.org/1999/xlink" viewBox="0 0 243 350"><defs><style>.a{fill:none;}.b{clip-path:url(#a);}.c{fill:#3f3764;}.d{font-size:24px;}.d,.e{fill:#f7f7f2;font-family:Arial-BoldMT, Arial;font-weight:700;}.e{font-size:36px;}.f{clip-path:url(#d);}.g{fill:url(#e);}.h{fill:#95b0dd;}.i{fill:#beceeb;}.j{clip-path:url(#g);}.k{fill:url(#h);}.l{fill:#1ab4b8;}.m{fill:#8dcfd5;}.n{opacity:0.5;}.o{clip-path:url(#j);}.p{fill:#fff;}.q{clip-path:url(#k);}.r{fill:#3c2e58;}.s{fill:#7c2a6c;}.t{opacity:0.72;}.u{clip-path:url(#l);}.v{clip-path:url(#m);}.w{fill:#1fb4b7;}.x{fill:#e61a73;}.y{clip-path:url(#n);}.z{clip-path:url(#o);}.aa{clip-path:url(#p);}.ab{clip-path:url(#q);}.ac{clip-path:url(#r);}.ad{clip-path:url(#s);}.ae{clip-path:url(#t);}.af{clip-path:url(#u);}.ag{clip-path:url(#v);}.ah{clip-path:url(#w);}.ai{clip-path:url(#x);}.aj{clip-path:url(#y);}.ak{clip-path:url(#z);}.al{clip-path:url(#aa);}.am{clip-path:url(#ab);}.an{fill:url(#ac);}.ao{clip-path:url(#ad);}.ap{fill:url(#ae);}.aq{clip-path:url(#af);}.ar{fill:url(#ag);}.as{clip-path:url(#ah);}.at{fill:url(#ai);}.au{clip-path:url(#aj);}.av{fill:url(#ak);}.aw{clip-path:url(#al);}.ax{fill:url(#am);}.ay{clip-path:url(#an);}.az{fill:url(#ao);}.ba{clip-path:url(#ap);}.bb{fill:url(#aq);}.bc{clip-path:url(#ar);}.bd{fill:url(#as);}.be{clip-path:url(#at);}.bf{fill:url(#au);}.bg{clip-path:url(#av);}.bh{fill:url(#aw);}.bi{clip-path:url(#ax);}.bj{fill:url(#ay);}.bk{clip-path:url(#ba);}.bl{fill:url(#bb);}.bm{clip-path:url(#bd);}.bn{fill:url(#be);}.bo{clip-path:url(#bf);}.bp{fill:url(#bg);}.bq{clip-path:url(#bh);}.br{fill:url(#bi);}.bs{clip-path:url(#bj);}.bt{fill:url(#bk);}.bu{clip-path:url(#bl);}.bv{fill:url(#bm);}.bw{clip-path:url(#bn);}.bx{fill:url(#bo);}</style><clipPath id="a"><rect class="a" width="243" height="621"/></clipPath><clipPath id="d"><path class="a" d="M51.83,169.4C16.26,202.75,3.08,265.54,31.22,300.05c14.66,18,35.18,28,45.7,30.3,38.53,8.29,91.35-9.68,115.9-51.25,15.34-26,18.42-60.5,5.89-87.14a86.71,86.71,0,0,0-14.91-22.12c-2.38-2.55-22-23-53.21-27.42a84.05,84.05,0,0,0-11.68-.81c-36.61,0-62.93,23.9-67.08,27.79"/></clipPath><linearGradient id="e" y1="621.02" x2="1" y2="621.02" gradientTransform="matrix(0, -204.32, -204.32, 0, 126994.98, 398.14)" gradientUnits="userSpaceOnUse"><stop offset="0" stop-color="#dae1f3"/><stop offset="1" stop-color="#e9effa"/></linearGradient><clipPath id="g"><path class="a" d="M107.85,218.73a.2.2,0,0,0-.17.22s.93,6.16,1.95,15.47c.26,2.32.51,4.84.77,7.51s.51,5.48.74,8.39.44,5.93.63,9c.09,1.53.17,3.08.26,4.63s.15,3.11.2,4.66.12,3.12.15,4.67l.06,2.32c0,.77,0,1.55,0,2.31l0,2.29v2.27c0,1.5,0,3,0,4.45,0,2.92-.15,5.74-.3,8.41s-.33,5.19-.56,7.52c-.1,1.16-.24,2.27-.36,3.32-.07.53-.13,1-.19,1.55s-.14,1-.21,1.45c-.14.93-.26,1.81-.4,2.62s-.28,1.54-.4,2.21c-.06.34-.12.65-.18.95s-.13.57-.18.83c-.12.51-.21,1-.29,1.31l-.24,1.08v0h0a.45.45,0,0,0,.88.2s.09-.39.24-1.11c.08-.35.18-.8.29-1.32q.09-.39.18-.84c.06-.3.11-.62.17-.95.12-.68.25-1.43.4-2.24s.25-1.7.39-2.64c.06-.48.14-1,.2-1.47s.12-1,.18-1.55c.12-1.06.26-2.18.35-3.35.22-2.33.39-4.87.52-7.55s.22-5.51.26-8.44c0-1.47,0-2.95,0-4.46,0-.75,0-1.51,0-2.27s0-1.53,0-2.3,0-1.54,0-2.31-.05-1.55-.07-2.33c0-1.55-.11-3.11-.18-4.67s-.15-3.12-.23-4.67-.18-3.1-.28-4.63c-.21-3.07-.43-6.09-.68-9s-.51-5.73-.78-8.4-.54-5.19-.81-7.52c-1.07-9.3-2-15.47-2-15.47a.19.19,0,0,0-.19-.16h0"/></clipPath><linearGradient id="h" y1="621" y2="621" gradientTransform="matrix(5.53, 0, 0, -5.53, 107.68, 3705.18)" xlink:href="#e"/><clipPath id="j"><rect class="a" x="153.33" y="312.12" width="34.84" height="19.26"/></clipPath><clipPath id="k"><rect class="a" x="151.65" y="273.91" width="45.01" height="48.54"/></clipPath><clipPath id="l"><rect class="a" x="110.12" y="240.8" width="11.96" height="13.67"/></clipPath><clipPath id="m"><rect class="a" x="110.12" y="258.2" width="0.69" height="3.45"/></clipPath><clipPath id="n"><rect class="a" x="163.35" y="171.08" width="4.47" height="5.29"/></clipPath><clipPath id="o"><rect class="a" x="172.35" y="182.27" width="6.91" height="1.71"/></clipPath><clipPath id="p"><rect class="a" x="162.48" y="158.19" width="28.32" height="27.66"/></clipPath><clipPath id="q"><rect class="a" x="121.04" y="212.86" width="3.87" height="4.58"/></clipPath><clipPath id="r"><rect class="a" x="128.85" y="222.56" width="5.99" height="1.48"/></clipPath><clipPath id="s"><rect class="a" x="120.29" y="201.69" width="24.55" height="23.98"/></clipPath><clipPath id="t"><rect class="a" x="70.31" y="249.61" width="3.28" height="3.88"/></clipPath><clipPath id="u"><rect class="a" x="76.92" y="257.83" width="5.07" height="1.26"/></clipPath><clipPath id="v"><rect class="a" x="69.68" y="240.15" width="20.79" height="20.3"/></clipPath><clipPath id="w"><rect class="a" x="25.26" y="280.24" width="2.69" height="3.18"/></clipPath><clipPath id="x"><rect class="a" x="30.67" y="286.97" width="4.15" height="1.03"/></clipPath><clipPath id="y"><rect class="a" x="24.74" y="272.5" width="17.02" height="16.63"/></clipPath><clipPath id="z"><rect class="a" x="18.09" y="302.37" width="13.99" height="15.36"/></clipPath><clipPath id="aa"><rect class="a" x="18.09" y="322.03" width="0.69" height="3.81"/></clipPath><clipPath id="ab"><path class="a" d="M65.81,232.47c-.47,1.85-1.53,6.86-1.78,8a2.36,2.36,0,0,0,.44,2.13c.11.14.3.11.54,0a3.77,3.77,0,0,1-.5-1.72c0-.78,1.28-5.93,1.79-8.38a4.43,4.43,0,0,1,1.11-2.22c-.83.15-1.2.7-1.6,2.25"/></clipPath><linearGradient id="ac" y1="620.96" x2="1" y2="620.96" gradientTransform="matrix(0, 2.02, 2.02, 0, -1190.49, 235.42)" gradientUnits="userSpaceOnUse"><stop offset="0" stop-color="#4857a3"/><stop offset="1" stop-color="#40509e"/></linearGradient><clipPath id="ad"><path class="a" d="M67.93,230.17a2.62,2.62,0,0,0-.52.05,4.43,4.43,0,0,0-1.11,2.22c-.51,2.45-1.83,7.6-1.79,8.38a3.77,3.77,0,0,0,.5,1.72,7.25,7.25,0,0,0,1.74-1.84c.82-1.19,3.56-4.69,4.27-6a6.89,6.89,0,0,0,.66-3l-1.14-2a10.92,10.92,0,0,1-2.61.49"/></clipPath><linearGradient id="ae" y1="621.01" x2="1" y2="621.01" gradientTransform="matrix(0, 5.99, 5.99, 0, -3651.88, 233.14)" gradientUnits="userSpaceOnUse"><stop offset="0" stop-color="#232451"/><stop offset="1" stop-color="#2a307a"/></linearGradient><clipPath id="af"><path class="a" d="M92.06,217.88c-.77,1.74-2.65,6.51-3.08,7.56a2.34,2.34,0,0,0,.09,2.18c.07.15.27.15.53,0a3.77,3.77,0,0,1-.21-1.78c.09-.77,2.25-5.63,3.16-8a4.5,4.5,0,0,1,1.45-2c-.84,0-1.3.49-1.94,2"/></clipPath><linearGradient id="ag" y1="620.98" y2="620.98" gradientTransform="matrix(0, 3.84, 3.84, 0, -2290.9, 219.93)" xlink:href="#ac"/><clipPath id="ah"><path class="a" d="M94.52,216l-.52,0a4.5,4.5,0,0,0-1.45,2c-.91,2.34-3.07,7.2-3.16,8a3.77,3.77,0,0,0,.21,1.78,7.28,7.28,0,0,0,2-1.53c1-1,4.29-4,5.21-5.25A6.8,6.8,0,0,0,98,218l-.8-2.13a11.16,11.16,0,0,1-2.66,0"/></clipPath><linearGradient id="ai" y1="621" y2="621" gradientTransform="matrix(0, 7.48, 7.48, 0, -4550.15, 218.11)" xlink:href="#ae"/><clipPath id="aj"><path class="a" d="M154.09,150.86l-.81.33a.38.38,0,0,0-.22.21L151.4,155a.38.38,0,0,1-.16.19l-12,7.07a.42.42,0,0,0-.12.62l2.08,2.63a.41.41,0,0,0,.6.06L153,156.23a.55.55,0,0,1,.15-.08,8.4,8.4,0,0,0,3.18-1.66.42.42,0,0,0,.12-.47.4.4,0,0,1,.08-.43l.37-.41a.41.41,0,0,0,.11-.3l0-1.11a.42.42,0,0,0-.33-.39l-2.29-.54h-.1a.37.37,0,0,0-.15,0"/></clipPath><linearGradient id="ak" y1="621" x2="1" y2="621" gradientTransform="matrix(0, 16.57, 16.57, 0, -10138.95, 149.96)" gradientUnits="userSpaceOnUse"><stop offset="0" stop-color="#f7baba"/><stop offset="1" stop-color="#f2908f"/></linearGradient><clipPath id="al"><path class="a" d="M138.71,162.21l-17.23,10.95,1.8,6.35,18.08-13.25a.89.89,0,0,0,.31-1,11.33,11.33,0,0,0-1.91-2.86.81.81,0,0,0-.61-.28.8.8,0,0,0-.44.13"/></clipPath><linearGradient id="am" y1="621.02" y2="621.02" gradientTransform="matrix(-36.49, 0, 0, 36.49, 141.26, -22492.87)" xlink:href="#ac"/><clipPath id="an"><path class="a" d="M69.31,231.2a1.49,1.49,0,0,0-.17.36,1.59,1.59,0,0,0,.55,1.65,1.06,1.06,0,0,0,1.45-.05l3.75-3.79-2.64-2.06c-.28.28-2.46,3.25-2.94,3.89"/></clipPath><linearGradient id="ao" y1="621.01" y2="621.01" gradientTransform="matrix(0, 5.43, 5.43, 0, -3298.51, 227.8)" xlink:href="#ak"/><clipPath id="ap"><path class="a" d="M95.72,217.2a1.5,1.5,0,0,0-.23.33,1.58,1.58,0,0,0,.27,1.71,1.05,1.05,0,0,0,1.44.19l4-3.51-1.9-2.07c-.32.23-3,2.8-3.54,3.35"/></clipPath><linearGradient id="aq" y1="621" y2="621" gradientTransform="matrix(0, 5.48, 5.48, 0, -3303.85, 214.17)" xlink:href="#ak"/><clipPath id="ar"><path class="a" d="M91,203.87c-.89,2-16.41,20-19.26,23.34a1.05,1.05,0,0,0-.1,1.25,9.33,9.33,0,0,0,1.81,1.93,1.14,1.14,0,0,0,1.5,0l25-23.78,5.89-.88-7.39,8a1,1,0,0,0,0,1.33,6.44,6.44,0,0,0,1.85,1.29,1.08,1.08,0,0,0,1.13-.13L116.8,204a2.54,2.54,0,0,0-1.53-4.53c-4.53-.07-9.59-1.06-9.7-.17,0,0-6-1.14-8.29-1.29h-.14c-2.32,0-5.24,3.7-6.19,5.83"/></clipPath><linearGradient id="as" y1="621.07" y2="621.07" gradientTransform="matrix(-49.32, 0, 0, 49.32, 141.42, -30414.37)" xlink:href="#ae"/><clipPath id="at"><path class="a" d="M111.47,204.64l-5.28.68a.15.15,0,0,0-.13.16.15.15,0,0,0,.13.13h0l5.29-.68a.14.14,0,0,0,.12-.17.14.14,0,0,0-.14-.12h0"/></clipPath><linearGradient id="au" y1="621" y2="621" gradientTransform="matrix(-7.55, 0, 0, 7.55, 108.55, -4485.66)" xlink:href="#ac"/><clipPath id="av"><path class="a" d="M101.88,204.79,100.43,206a.14.14,0,0,0,0,.21.13.13,0,0,0,.09,0,.2.2,0,0,0,.11,0l1.46-1.22a.14.14,0,0,0,0-.2.13.13,0,0,0-.11-.05.17.17,0,0,0-.1,0"/></clipPath><linearGradient id="aw" y1="621" y2="621" gradientTransform="matrix(-5.36, 0, 0, 5.36, 102.28, -3120.59)" xlink:href="#ac"/><clipPath id="ax"><path class="a" d="M118.68,170.38,110,178.11,94.78,198.24A.51.51,0,0,0,95,199c3.6,1.75,9,2,11,2a1.91,1.91,0,0,0,1.38-.56l15.94-15.76a7.54,7.54,0,0,0,2-3.63,9.88,9.88,0,0,0-1.24-7.79,4.87,4.87,0,0,0-4.6-2.93,5.12,5.12,0,0,0-.83.06"/></clipPath><linearGradient id="ay" y1="620.97" y2="620.97" gradientTransform="matrix(-42, 0, 0, 42, 127.94, -25892.54)" xlink:href="#ac"/><clipPath id="ba"><path class="a" d="M95.39,198.61a14.18,14.18,0,0,0-1.72.93c-1.07.63-1.08,2.62-1,3.48a1.74,1.74,0,0,0-.7-.82l-.15,1.1c-.48-1.05-.89-.56-.89-.56a8.35,8.35,0,0,0,.44,2.24c.41,1.11,2.54,1,3.35.45s2.27-5,2.27-5l6.67-6.35a12.13,12.13,0,0,1-4-2.18Z"/></clipPath><linearGradient id="bb" y1="621" y2="621" gradientTransform="matrix(0, 11.47, 11.47, 0, -7028.07, 193.18)" xlink:href="#ak"/><clipPath id="bd"><path class="a" d="M89.21,184.38c-1.22.77-6.82,2.92-6.87,2.94a.22.22,0,0,0-.13.29.23.23,0,0,0,.21.15l.08,0c.23-.09,5.69-2.18,7-3a.22.22,0,0,0-.13-.41l-.12,0"/></clipPath><linearGradient id="be" y1="621" x2="1" y2="621" gradientTransform="matrix(-80.23, 0, 0, 80.23, 183.38, -49637.29)" gradientUnits="userSpaceOnUse"><stop offset="0" stop-color="#f2908f"/><stop offset="1" stop-color="#ee7065"/></linearGradient><clipPath id="bf"><path class="a" d="M125.85,165.14,121,170.35a1,1,0,0,0-.08,1.22,5.15,5.15,0,0,0,2.26,1.93.78.78,0,0,0,.84-.23l2.6-3s1.09-5.09-.76-5.09h0"/></clipPath><linearGradient id="bg" y1="621.02" y2="621.02" gradientTransform="matrix(9.78, 0, 0, -9.78, 118.36, 6240.33)" xlink:href="#ak"/><clipPath id="bh"><path class="a" d="M122.75,162.65l3.37,6.38,4.09-1.34s-2.51-7.1-2.58-7.19a1,1,0,0,0-.8-.36c-1.54,0-4.08,2.51-4.08,2.51"/></clipPath><linearGradient id="bi" y1="621" y2="621" gradientTransform="matrix(0, 14.33, 14.33, 0, -8770.47, 161.62)" xlink:href="#ak"/><clipPath id="bj"><path class="a" d="M125.86,157.49a1.59,1.59,0,0,0-1.12,1.68.59.59,0,0,1-.57.63.42.42,0,0,0-.35.21.62.62,0,0,1-.72.28,1.93,1.93,0,0,0-2.2.74,1.36,1.36,0,0,0,.27,2,.63.63,0,0,1,.08.86,1.35,1.35,0,0,0,.23,2.12.6.6,0,0,0,.48.13c.45-.07,1.45-.14,1.9.46s1.85,3.1,2.33,4a.62.62,0,0,0,.55.32,16.85,16.85,0,0,0,3.82-.58.61.61,0,0,0,.45-.7,23.13,23.13,0,0,0-.9-3.29.63.63,0,0,0-.79-.38,5.48,5.48,0,0,0-1.73,1.44c-.71.76-1.41,0-1.61-.2a.6.6,0,0,1-.09-.15l-1.49-3.45a.6.6,0,0,1,0-.54c.26-.46.85-1.33,1.72-1.33,1.18,0,3.15-.63,3-1.94a2.76,2.76,0,0,0-2.42-2.44,2.24,2.24,0,0,0-.81.16"/></clipPath><linearGradient id="bk" y1="621.12" y2="621.12" gradientTransform="matrix(10.32, 0, 0, -10.32, 121.18, 6573.85)" xlink:href="#ae"/><clipPath id="bl"><path class="a" d="M122.23,167.56c1.28,1.51,2.2.29,2.2.29s-.45-2.25-1.41-2.29H123c-.92,0-1.72.83-.72,2"/></clipPath><linearGradient id="bm" y1="621.03" y2="621.03" gradientTransform="matrix(9.93, 0, 0, -9.93, 113.5, 6332.65)" xlink:href="#ak"/><clipPath id="bn"><path class="a" d="M154.09,154a.09.09,0,0,0,0,.13l0,0a.1.1,0,0,0,.09,0s.62-.82,1.14-.58.79.21.84.19a.11.11,0,0,0,.05-.13.1.1,0,0,0-.13,0s-.16,0-.68-.19a.71.71,0,0,0-.28-.06c-.56,0-1.07.67-1.09.71"/></clipPath><linearGradient id="bo" y1="621.03" x2="1" y2="621.03" gradientTransform="matrix(0, 2.13, 2.13, 0, -1169.83, 152.67)" gradientUnits="userSpaceOnUse"><stop offset="0" stop-color="#e2473d"/><stop offset="1" stop-color="#e9615b"/></linearGradient></defs><title>etape</title><g class="b"><g class="b"><g class="b"><path class="c" d="M160.92,70.22a36.83,36.83,0,1,1-36.83-36.83,36.82,36.82,0,0,1,36.83,36.83"/></g><text class="d" transform="translate(107.74 84)">#</text><text class="e" transform="translate(121.09 84)">4</text><g class="f"><rect class="g" x="-34.75" y="99.52" width="283.83" height="281.2" transform="translate(-119.31 106.5) rotate(-35.41)"/></g><g class="b"><path class="h" d="M24.61,187c12.29,9.46,81.55,67.4,38.85,142.16,0,0-55.42-26.41-40.95-141.28a1.31,1.31,0,0,1,2.1-.88"/><path class="i" d="M28.83,202s3.68,6.45,8.81,16.35c.63,1.24,1.3,2.53,2,3.86l2.1,4.16c.71,1.43,1.45,2.89,2.18,4.4L45,233c.37.77.74,1.55,1.12,2.33,1.51,3.14,3,6.4,4.57,9.72l2.27,5c.74,1.7,1.5,3.39,2.23,5.1s1.47,3.41,2.17,5.13c.36.85.71,1.71,1.07,2.56s.68,1.7,1,2.55l1,2.54,1,2.52c.66,1.67,1.26,3.34,1.86,5,1.21,3.27,2.3,6.46,3.29,9.5s1.87,5.93,2.61,8.62c.39,1.34.72,2.64,1,3.87l.46,1.8q.21.88.39,1.71c.25,1.11.5,2.14.69,3.11l.5,2.65c.08.4.15.78.22,1.14s.1.69.15,1c.09.62.17,1.16.24,1.59l.2,1.32a.45.45,0,1,1-.89.14h0v0l-.2-1.32c-.06-.42-.14-.95-.23-1.57,0-.31-.09-.65-.15-1s-.13-.73-.2-1.12c-.15-.8-.32-1.68-.49-2.64s-.43-2-.67-3.09c-.13-.55-.24-1.12-.38-1.7s-.3-1.18-.45-1.79c-.31-1.23-.63-2.52-1-3.86-.73-2.68-1.59-5.57-2.56-8.6s-2.06-6.22-3.24-9.49c-.59-1.63-1.19-3.3-1.84-5-.31-.84-.63-1.68-1-2.53s-.66-1.68-1-2.53-.67-1.71-1-2.56l-1-2.56c-.69-1.71-1.43-3.41-2.15-5.12s-1.47-3.41-2.21-5.11l-2.24-5c-1.52-3.33-3-6.59-4.52-9.73l-1.12-2.34L43.43,231c-.73-1.51-1.46-3-2.16-4.41s-1.41-2.81-2.08-4.16l-2-3.87c-1.27-2.47-2.45-4.74-3.5-6.74s-2-3.74-2.76-5.16c-1.55-2.86-2.46-4.48-2.46-4.48a.2.2,0,0,1,.07-.26.19.19,0,0,1,.26.08"/><path class="i" d="M109.21,205.86c6.81,11.09,43.86,77.3-12,123.22,0,0-35.61-37.31,10.1-123.17a1.11,1.11,0,0,1,1.92,0"/></g><g class="j"><rect class="k" x="107.67" y="218.73" width="5.56" height="100.05"/></g><g class="b"><path class="l" d="M207.33,332.05H169.65V220.32a18.84,18.84,0,0,1,37.68,0Z"/><path class="m" d="M198,332.05H160.36V220.32a18.84,18.84,0,0,1,37.68,0Z"/><path class="h" d="M163.06,220.44a.34.34,0,0,1-.34-.34v-8c0-4.25,2.4-7.71,5.35-7.71h8.29a.35.35,0,1,1,0,.69h-8.29c-2.57,0-4.66,3.15-4.66,7v8a.34.34,0,0,1-.35.34"/><path class="h" d="M163.06,229a.34.34,0,0,1-.34-.34v-3.28a.35.35,0,0,1,.69,0v3.28a.34.34,0,0,1-.35.34"/><path class="i" d="M151.4,331.57s2.1-6.52,10.13-9.8c7.44-3,25.47-9.63,31-15.78.25-.27.69.1.58.48-1.2,4.14-4.95,14.11-14.48,20.73-12.29,8.54-27.25,4.37-27.25,4.37"/><g class="n"><g class="o"><path class="p" d="M188.16,312.14a4,4,0,0,1-.18.42c-.13.27-.32.66-.61,1.14a16.8,16.8,0,0,1-1.12,1.68c-.11.16-.24.32-.37.48l-.4.5c-.28.33-.6.67-.92,1l-1.08,1.05c-.39.34-.79.7-1.21,1.05s-.88.7-1.36,1l-.73.49a6.45,6.45,0,0,1-.75.49l-.78.47c-.27.15-.53.32-.81.45-.55.28-1.11.57-1.68.84l-1.76.75c-.6.24-1.19.45-1.79.68-1.19.43-2.4.86-3.59,1.25s-2.37.77-3.51,1.12l-3.29,1c-1.05.3-2,.58-2.95.86s-1.73.55-2.45.81c-.36.13-.69.28-1,.4l-.82.38a11.76,11.76,0,0,0-1.11.63l-.38.24h0a.11.11,0,0,1-.16,0,.12.12,0,0,1,0-.16l.37-.28a9.7,9.7,0,0,1,1.08-.73l.83-.44c.3-.14.63-.31,1-.46.72-.3,1.53-.64,2.44-.95s1.88-.64,2.92-1l3.27-1.06c1.13-.36,2.29-.75,3.47-1.15s2.37-.83,3.56-1.27c.59-.22,1.19-.44,1.77-.67l1.73-.71,1.65-.79c.54-.28,1.05-.58,1.57-.86.26-.14.5-.31.74-.46l.73-.46c.24-.14.46-.32.69-.48l.66-.47c.44-.32.84-.66,1.24-1l1.1-1c.33-.33.66-.64,1-.95s.58-.6.82-.9.49-.56.69-.83.39-.5.55-.73.3-.43.42-.61.21-.33.29-.46a3.87,3.87,0,0,0,.23-.4h0a0,0,0,0,1,0,0"/></g></g><path class="h" d="M200.91,266.49a.63.63,0,0,0-1.12-.48c-3.78,5-14.12,17.78-24.24,22.74-16.47,8.08-32.19,25.54-29,39.05,0,0,42.9,8.39,54.36-61.31"/><g class="n"><g class="q"><path class="p" d="M196.64,274.08l-.08.17c-.07.11-.16.28-.28.49-.25.42-.61,1-1.09,1.81-1,1.55-2.35,3.74-4.11,6.32-.88,1.28-1.84,2.67-2.89,4.12s-2.17,3-3.35,4.52-2.44,3.12-3.74,4.7c-.33.4-.65.8-1,1.19l-1,1.19c-.67.8-1.36,1.57-2,2.36s-1.39,1.55-2.08,2.32l-2.12,2.25c-.72.73-1.42,1.47-2.14,2.17l-1.07,1.05c-.35.35-.7.69-1.06,1-1.42,1.35-2.81,2.62-4.18,3.77s-2.68,2.22-3.92,3.18l-1.79,1.34c-.58.42-1.14.79-1.66,1.15l-.76.52-.73.46-1.27.81c-.78.48-1.41.82-1.83,1.07l-.64.37a.12.12,0,0,1-.16,0,.12.12,0,0,1,0-.16h0l.63-.39c.41-.27,1-.63,1.78-1.13l1.25-.84.7-.47.74-.54,1.62-1.19,1.77-1.37c1.21-1,2.51-2,3.84-3.22s2.72-2.44,4.12-3.79l1.05-1,1.06-1c.7-.71,1.4-1.45,2.11-2.17l2.1-2.26c.69-.77,1.4-1.52,2.08-2.3s1.37-1.55,2-2.34c.33-.4.67-.79,1-1.18l1-1.18c1.31-1.57,2.56-3.14,3.76-4.67s2.34-3,3.39-4.46,2.05-2.8,3-4.07,1.72-2.44,2.43-3.48,1.32-2,1.81-2.73l1.14-1.77.28-.47a1.21,1.21,0,0,1,.1-.16h0a.12.12,0,0,1,.16-.05.12.12,0,0,1,0,.16"/></g></g><path class="r" d="M153.87,332.05H117.31V254.92a18.28,18.28,0,0,1,36.56,0Z"/><path class="s" d="M144.58,332.05H108V254.92a18.28,18.28,0,0,1,36.56,0Z"/><g class="t"><g class="u"><path class="p" d="M110.47,254.48a.35.35,0,0,1-.35-.35v-6.77c0-3.62,2.06-6.56,4.6-6.56h7a.35.35,0,0,1,.34.35.34.34,0,0,1-.34.34h-7c-2.15,0-3.9,2.64-3.9,5.87v6.77a.35.35,0,0,1-.35.35"/></g></g><g class="t"><g class="v"><path class="p" d="M110.47,261.65a.35.35,0,0,1-.35-.34v-2.76a.35.35,0,1,1,.7,0v2.76a.35.35,0,0,1-.35.34"/></g></g><path class="l" d="M102.82,331.92H71.31V283.14a15.76,15.76,0,1,1,31.51,0Z"/><path class="w" d="M93.53,331.92H62V283.14a15.76,15.76,0,1,1,31.51,0Z"/><path class="h" d="M64.62,285.79a.35.35,0,0,1-.35-.34V277.8c0-4.06,2.41-7.37,5.36-7.37h8.28a.35.35,0,0,1,0,.7H69.63c-2.57,0-4.66,3-4.66,6.67v7.65a.35.35,0,0,1-.35.34"/><path class="h" d="M64.62,293.9a.35.35,0,0,1-.35-.34v-3.12a.35.35,0,1,1,.7,0v3.12a.35.35,0,0,1-.35.34"/><path class="p" d="M178.69,153.94l4.14,8.38a2.55,2.55,0,0,0,1.95,1.42l9.25,1.35a2.6,2.6,0,0,1,1.44,4.43L188.78,176a2.57,2.57,0,0,0-.75,2.3l1.58,9.21a2.6,2.6,0,0,1-3.77,2.74l-8.27-4.35a2.59,2.59,0,0,0-2.42,0l-8.27,4.35a2.6,2.6,0,0,1-3.77-2.74l1.58-9.21a2.57,2.57,0,0,0-.75-2.3l-6.69-6.52a2.6,2.6,0,0,1,1.44-4.43l9.25-1.35a2.55,2.55,0,0,0,1.95-1.42l4.14-8.38a2.6,2.6,0,0,1,4.66,0"/><path class="x" d="M187.05,189a1.08,1.08,0,0,1-.48-.13l-8.27-4.35a4.16,4.16,0,0,0-3.88,0l-8.27,4.35a1,1,0,0,1-1.28-.25,1,1,0,0,1-.22-.83l1.59-9.22a4.17,4.17,0,0,0-1.2-3.68l-6.7-6.53a1,1,0,0,1,.57-1.75l9.25-1.34A4.18,4.18,0,0,0,171.3,163l4.14-8.39a1,1,0,0,1,1.84,0l4.14,8.39a4.16,4.16,0,0,0,3.13,2.28l9.26,1.34a1,1,0,0,1,.56,1.75l-6.69,6.53a4.17,4.17,0,0,0-1.2,3.68l1.58,9.22a1,1,0,0,1-.21.83,1.09,1.09,0,0,1-.8.38"/><g class="t"><g class="y"><path class="p" d="M167.58,176.36a.22.22,0,0,1-.22-.16A5.57,5.57,0,0,0,166,174l-2.55-2.48a.24.24,0,0,1,.33-.34l2.55,2.49a6,6,0,0,1,1.51,2.43.23.23,0,0,1-.15.29h-.08"/></g></g><g class="t"><g class="z"><path class="p" d="M172.58,184a.22.22,0,0,1-.2-.12.24.24,0,0,1,.09-.32l1.11-.58a5.95,5.95,0,0,1,5.56,0,.23.23,0,0,1,.09.31.22.22,0,0,1-.31.1,5.52,5.52,0,0,0-5.12,0l-1.11.58a.2.2,0,0,1-.11,0"/></g></g><g class="t"><g class="aa"><path class="p" d="M184.1,185.85a2.09,2.09,0,0,1-.55-.08.23.23,0,0,1-.16-.29.24.24,0,0,1,.3-.16,1.44,1.44,0,0,0,1.37-.31,1.41,1.41,0,0,0,.46-1.33l-.81-4.77a5.92,5.92,0,0,1,1.71-5.28l3.47-3.38a1.45,1.45,0,0,0,.37-1.49,1.43,1.43,0,0,0-1.17-1l-4.8-.7a6,6,0,0,1-4.49-3.26l-2.14-4.35a1.46,1.46,0,0,0-2.6,0l-2.14,4.35a6,6,0,0,1-4.5,3.26l-4.79.7a1.4,1.4,0,0,0-.75.34.24.24,0,0,1-.34,0,.25.25,0,0,1,0-.33,2,2,0,0,1,1-.46l4.8-.69a5.51,5.51,0,0,0,4.13-3l2.15-4.35a1.9,1.9,0,0,1,1.72-1.07,1.92,1.92,0,0,1,1.72,1.07l2.14,4.35a5.53,5.53,0,0,0,4.14,3l4.8.69a1.91,1.91,0,0,1,1.54,1.31,1.88,1.88,0,0,1-.48,2L186.75,174a5.46,5.46,0,0,0-1.58,4.86l.82,4.78a1.92,1.92,0,0,1-.62,1.76,2,2,0,0,1-1.27.48"/></g></g><path class="p" d="M134.34,198l3.59,7.27a2.27,2.27,0,0,0,1.69,1.23l8,1.17a2.24,2.24,0,0,1,1.24,3.83l-5.8,5.66a2.27,2.27,0,0,0-.65,2l1.37,8a2.25,2.25,0,0,1-3.26,2.38l-7.18-3.78a2.27,2.27,0,0,0-2.09,0l-7.18,3.78a2.25,2.25,0,0,1-3.26-2.38l1.37-8a2.27,2.27,0,0,0-.65-2l-5.81-5.66a2.25,2.25,0,0,1,1.25-3.83l8-1.17a2.27,2.27,0,0,0,1.7-1.23l3.59-7.27a2.25,2.25,0,0,1,4,0"/><path class="x" d="M141.59,228.42a.87.87,0,0,1-.41-.11L134,224.54a3.6,3.6,0,0,0-1.68-.41,3.66,3.66,0,0,0-1.68.41l-7.17,3.77a.94.94,0,0,1-.42.11.93.93,0,0,1-.69-.33.88.88,0,0,1-.18-.72l1.37-8a3.61,3.61,0,0,0-1-3.19l-5.81-5.66a.88.88,0,0,1-.22-.91.86.86,0,0,1,.72-.61l8-1.16a3.65,3.65,0,0,0,2.72-2l3.58-7.27a.88.88,0,0,1,.8-.5.87.87,0,0,1,.8.5l3.59,7.27a3.63,3.63,0,0,0,2.72,2l8,1.16a.89.89,0,0,1,.49,1.52l-5.8,5.66a3.61,3.61,0,0,0-1,3.19l1.37,8a.85.85,0,0,1-.19.72.9.9,0,0,1-.69.33"/><g class="t"><g class="ab"><path class="p" d="M124.71,217.44a.2.2,0,0,1-.19-.14,4.75,4.75,0,0,0-1.21-1.94l-2.2-2.15a.2.2,0,1,1,.28-.29l2.21,2.15a5.18,5.18,0,0,1,1.31,2.1.21.21,0,0,1-.13.26h-.07"/></g></g><g class="t"><g class="ac"><path class="p" d="M129.05,224.05a.21.21,0,0,1-.09-.39l1-.5a5.12,5.12,0,0,1,4.81,0,.2.2,0,0,1,.09.27.21.21,0,0,1-.28.09,4.74,4.74,0,0,0-4.43,0l-1,.5a.19.19,0,0,1-.1,0"/></g></g><g class="t"><g class="ad"><path class="p" d="M139,225.67a1.92,1.92,0,0,1-.48-.07.22.22,0,0,1-.14-.26.2.2,0,0,1,.26-.13,1.27,1.27,0,0,0,1.19-.27,1.21,1.21,0,0,0,.4-1.15l-.71-4.14a5.17,5.17,0,0,1,1.49-4.58l3-2.93a1.26,1.26,0,0,0-.7-2.14l-4.16-.61a5.15,5.15,0,0,1-3.89-2.83l-1.86-3.76a1.24,1.24,0,0,0-1.13-.7,1.21,1.21,0,0,0-1.12.7l-1.86,3.76a5.15,5.15,0,0,1-3.9,2.83l-4.15.61a1.22,1.22,0,0,0-.66.3.21.21,0,1,1-.27-.31,1.7,1.7,0,0,1,.87-.4l4.15-.6a4.75,4.75,0,0,0,3.59-2.61l1.86-3.76a1.66,1.66,0,0,1,3,0l1.86,3.76a4.79,4.79,0,0,0,3.59,2.61l4.16.6a1.67,1.67,0,0,1,.92,2.84l-3,2.93a4.79,4.79,0,0,0-1.37,4.22l.71,4.14a1.65,1.65,0,0,1-.54,1.53,1.67,1.67,0,0,1-1.09.42"/></g></g><path class="p" d="M81.57,237l3,6.15a1.89,1.89,0,0,0,1.43,1l6.8,1a1.91,1.91,0,0,1,1,3.25L89,253.25a1.9,1.9,0,0,0-.55,1.69l1.16,6.76a1.91,1.91,0,0,1-2.77,2l-6.07-3.19a1.91,1.91,0,0,0-1.77,0l-6.08,3.19a1.9,1.9,0,0,1-2.76-2l1.16-6.76a1.93,1.93,0,0,0-.55-1.69l-4.92-4.79a1.91,1.91,0,0,1,1.06-3.25l6.79-1a1.91,1.91,0,0,0,1.44-1l3-6.15a1.91,1.91,0,0,1,3.42,0"/><path class="x" d="M87.71,262.78a.73.73,0,0,1-.35-.09l-6.08-3.19a3,3,0,0,0-1.42-.35,3.07,3.07,0,0,0-1.42.35l-6.07,3.19a.76.76,0,0,1-.94-.18.73.73,0,0,1-.16-.61l1.16-6.77a3,3,0,0,0-.88-2.7l-4.91-4.79a.7.7,0,0,1-.19-.77.73.73,0,0,1,.61-.52l6.79-1a3,3,0,0,0,2.3-1.67l3-6.15a.72.72,0,0,1,.67-.42.74.74,0,0,1,.68.42l3,6.15a3,3,0,0,0,2.3,1.67l6.79,1a.76.76,0,0,1,.42,1.29l-4.92,4.79a3,3,0,0,0-.88,2.7l1.16,6.77a.73.73,0,0,1-.16.61.76.76,0,0,1-.58.27"/><g class="t"><g class="ae"><path class="p" d="M73.42,253.49a.17.17,0,0,1-.16-.12,4.06,4.06,0,0,0-1-1.64l-1.87-1.82a.18.18,0,0,1,0-.25.18.18,0,0,1,.25,0l1.87,1.82a4.41,4.41,0,0,1,1.1,1.78.17.17,0,0,1-.11.22h0"/></g></g><g class="t"><g class="af"><path class="p" d="M77.09,259.08a.17.17,0,0,1-.08-.32l.81-.43a4.41,4.41,0,0,1,4.08,0,.17.17,0,0,1,.07.23.16.16,0,0,1-.23.07,4.07,4.07,0,0,0-3.76,0l-.81.43a.11.11,0,0,1-.08,0"/></g></g><g class="t"><g class="ag"><path class="p" d="M85.55,260.45a1.4,1.4,0,0,1-.41-.06.16.16,0,0,1-.11-.21.17.17,0,0,1,.21-.12,1,1,0,0,0,1-.22,1.05,1.05,0,0,0,.34-1l-.6-3.5a4.41,4.41,0,0,1,1.26-3.88L89.8,249a1.05,1.05,0,0,0,.26-1.09,1,1,0,0,0-.85-.72l-3.52-.51a4.4,4.4,0,0,1-3.3-2.4l-1.57-3.19a1.05,1.05,0,0,0-1-.59,1,1,0,0,0-1,.59l-1.57,3.19a4.42,4.42,0,0,1-3.3,2.4l-3.52.51a1.14,1.14,0,0,0-.56.25.17.17,0,0,1-.24,0,.18.18,0,0,1,0-.25,1.43,1.43,0,0,1,.74-.33l3.52-.52a4,4,0,0,0,3-2.2l1.57-3.19a1.39,1.39,0,0,1,1.26-.79,1.41,1.41,0,0,1,1.27.79l1.57,3.19a4,4,0,0,0,3,2.2l3.52.52a1.37,1.37,0,0,1,1.13,1,1.41,1.41,0,0,1-.35,1.45l-2.55,2.48a4,4,0,0,0-1.16,3.57l.6,3.51a1.4,1.4,0,0,1-1.38,1.64"/></g></g><path class="p" d="M34.48,269.94,37,275a1.59,1.59,0,0,0,1.18.86l5.56.8a1.56,1.56,0,0,1,.87,2.66l-4,3.93a1.57,1.57,0,0,0-.45,1.38l.95,5.54a1.56,1.56,0,0,1-2.26,1.64l-5-2.61a1.55,1.55,0,0,0-1.45,0l-5,2.61a1.56,1.56,0,0,1-2.27-1.64l.95-5.54a1.56,1.56,0,0,0-.44-1.38l-4-3.93a1.56,1.56,0,0,1,.87-2.66l5.56-.8a1.58,1.58,0,0,0,1.17-.86l2.49-5a1.56,1.56,0,0,1,2.8,0"/><path class="x" d="M39.51,291a.59.59,0,0,1-.29-.07l-5-2.62a2.45,2.45,0,0,0-1.16-.28,2.49,2.49,0,0,0-1.17.28l-5,2.62a.59.59,0,0,1-.29.07.62.62,0,0,1-.48-.23.58.58,0,0,1-.13-.49l.95-5.54a2.52,2.52,0,0,0-.72-2.22l-4-3.92a.61.61,0,0,1-.16-.63.62.62,0,0,1,.5-.42l5.56-.81A2.51,2.51,0,0,0,30,275.4l2.48-5a.61.61,0,0,1,.56-.34.59.59,0,0,1,.55.34l2.49,5A2.5,2.5,0,0,0,38,276.77l5.57.81a.62.62,0,0,1,.34,1.05l-4,3.92a2.52,2.52,0,0,0-.72,2.22l1,5.54a.55.55,0,0,1-.13.49.61.61,0,0,1-.47.23"/><g class="t"><g class="ah"><path class="p" d="M27.8,283.42a.14.14,0,0,1-.13-.1,3.31,3.31,0,0,0-.84-1.34l-1.53-1.49a.15.15,0,0,1,.2-.21l1.53,1.5a3.54,3.54,0,0,1,.91,1.46.14.14,0,0,1-.09.17H27.8"/></g></g><g class="t"><g class="ai"><path class="p" d="M30.81,288a.16.16,0,0,1-.13-.08.15.15,0,0,1,.06-.19l.67-.35a3.61,3.61,0,0,1,3.34,0,.15.15,0,0,1,.06.19.14.14,0,0,1-.19.06,3.34,3.34,0,0,0-1.54-.38,3.28,3.28,0,0,0-1.54.38l-.66.35-.07,0"/></g></g><g class="t"><g class="aj"><path class="x" d="M37.73,289.12a1,1,0,0,1-.33-.05.13.13,0,0,1-.09-.17.14.14,0,0,1,.17-.1.87.87,0,0,0,.83-.18.85.85,0,0,0,.28-.8L38.1,285a3.56,3.56,0,0,1,1-3.17l2.08-2a.82.82,0,0,0,.22-.89.84.84,0,0,0-.7-.59l-2.88-.42a3.57,3.57,0,0,1-2.7-2l-1.29-2.61a.87.87,0,0,0-1.56,0L31,275.88a3.57,3.57,0,0,1-2.7,2l-2.88.42a.88.88,0,0,0-.46.21.15.15,0,0,1-.2,0,.14.14,0,0,1,0-.2,1.08,1.08,0,0,1,.6-.28l2.88-.42a3.3,3.3,0,0,0,2.49-1.81l1.29-2.61a1.15,1.15,0,0,1,2.06,0l1.29,2.61a3.3,3.3,0,0,0,2.49,1.81l2.88.42a1.12,1.12,0,0,1,.93.78,1.15,1.15,0,0,1-.29,1.19l-2.09,2a3.33,3.33,0,0,0-1,2.92l.5,2.87a1.16,1.16,0,0,1-1.14,1.35"/></g></g><path class="m" d="M57,331.92H25.49V315.6a15.75,15.75,0,0,1,31.5,0Z"/><path class="s" d="M47.71,331.92H16.2V315.6a15.76,15.76,0,0,1,31.51,0Z"/><g class="t"><g class="ak"><path class="p" d="M18.44,317.73a.35.35,0,0,1-.35-.35v-7.64c0-4.07,2.4-7.37,5.36-7.37h8.28a.35.35,0,0,1,.35.35.35.35,0,0,1-.35.34H23.45c-2.57,0-4.67,3-4.67,6.68v7.64a.35.35,0,0,1-.34.35"/></g></g><g class="t"><g class="al"><path class="p" d="M18.44,325.84a.35.35,0,0,1-.35-.35v-3.11a.35.35,0,0,1,.35-.35.35.35,0,0,1,.34.35v3.11a.35.35,0,0,1-.34.35"/></g></g></g><g class="am"><rect class="an" x="59.16" y="233.85" width="12.86" height="5.24" transform="translate(-177.43 270.47) rotate(-82.46)"/></g><g class="ao"><rect class="ap" x="61.25" y="231.67" width="13.69" height="8.88" transform="translate(-174.9 272.65) rotate(-82.46)"/></g><g class="aq"><rect class="ar" x="85.04" y="218.36" width="12.46" height="6.96" transform="translate(-140.62 283.22) rotate(-82.46)"/></g><g class="as"><rect class="at" x="87.26" y="216.73" width="12.79" height="10.11" transform="translate(-138.5 285.54) rotate(-82.46)"/></g><g class="au"><rect class="av" x="139.39" y="148.35" width="17.15" height="19.86" transform="translate(-28.36 284.2) rotate(-82.46)"/></g><g class="aw"><rect class="ax" x="118.5" y="157.41" width="26.3" height="26.76" transform="translate(-83.97 167.39) rotate(-51.47)"/></g><g class="ay"><rect class="az" x="68.45" y="227.11" width="6.99" height="6.67" transform="translate(-165.95 271.53) rotate(-82.46)"/></g><g class="ba"><rect class="bb" x="94.85" y="213.45" width="6.65" height="6.71" transform="translate(-129.64 285.68) rotate(-82.46)"/></g><g class="bc"><rect class="bd" x="66.25" y="187.17" width="57.5" height="54.45" transform="translate(-108.91 98.59) rotate(-36.51)"/></g><g class="be"><rect class="bf" x="106.24" y="203.18" width="5.2" height="3.88" transform="translate(-94.75 93.45) rotate(-33.3)"/></g><g class="bg"><rect class="bh" x="100.09" y="204.34" width="2.32" height="2.33" transform="translate(-118.7 141.42) rotate(-47.53)"/></g><g class="bi"><rect class="bj" x="88.83" y="164.14" width="43.38" height="43.02" transform="matrix(0.84, -0.54, 0.54, 0.84, -82.77, 89.09)"/></g><g class="b"><path class="h" d="M104.1,193.92a.27.27,0,0,1-.16-.06.24.24,0,0,1,0-.33c.14-.14,14-14.39,15-16.21s-.57-3.29-.64-3.36a.23.23,0,0,1,.33-.33s1.86,1.92.71,3.92-14.51,15.71-15.08,16.3a.23.23,0,0,1-.17.07"/></g><g class="bk"><rect class="bl" x="89.39" y="191.75" width="15.76" height="14.48" transform="translate(-112.75 269.31) rotate(-82.46)"/></g><g class="b"><path class="x" d="M78.58,188.37a.49.49,0,0,0-.44.65,5.73,5.73,0,0,0,6.17,4.21c5.28-.5,22.49-10.26,26.46-13s9.19-6.17,11.41-5.3,1-.65-.43-1.92-1.83-2.93-.69-2.48c0,0-2.73-1.3-7.41.52s-26.43,7.06-33.09,3.82a.44.44,0,0,0-.62.27c-.49,1.55-1.57,6.46,1.76,12.58a13.65,13.65,0,0,1-3.12.67"/></g><g class="bm"><rect class="bn" x="83.67" y="182.14" width="4.42" height="7.83" transform="translate(-110.4 244.91) rotate(-81.92)"/></g><g class="bo"><rect class="bp" x="119.32" y="164.11" width="9.76" height="10.51" transform="translate(-55.45 60.58) rotate(-22.55)"/></g><g class="bq"><rect class="br" x="122.59" y="160.01" width="7.78" height="9.16" transform="translate(-5.96 4.76) rotate(-2.11)"/></g><g class="bs"><rect class="bt" x="117.19" y="155.44" width="16.95" height="17.34" transform="translate(-75.44 116.33) rotate(-39.19)"/></g><g class="bu"><rect class="bv" x="120.94" y="165.56" width="3.78" height="3.5" transform="translate(-54.69 274.86) rotate(-84.93)"/></g><g class="bw"><rect class="bx" x="154.6" y="152.57" width="1.15" height="2.33" transform="translate(-17.59 287.39) rotate(-82.46)"/></g></g></g></svg>