<svg xmlns="http://www.w3.org/2000/svg" xmlns:xlink="http://www.w3.org/1999/xlink" viewBox="0 0 300 120"><defs><style>.a{isolation:isolate;}.b{clip-path:url(#a);}.c{fill:none;}.d{fill:url(#b);}.e{clip-path:url(#c);}.f{fill:url(#d);}.g{clip-path:url(#e);}.h{fill:url(#f);}.i{fill:url(#g);}.j{fill:url(#h);}.k{clip-path:url(#i);}.l{fill:url(#j);}.m{fill:url(#k);}.n{clip-path:url(#l);}.o{fill:url(#m);}.p{clip-path:url(#n);}.q{fill:url(#o);}.r{clip-path:url(#p);}.s{fill:url(#q);}.t{clip-path:url(#r);}.u{fill:url(#s);}.v{clip-path:url(#t);}.w{fill:url(#u);}.x{clip-path:url(#v);}.y{fill:url(#w);}.z{clip-path:url(#x);}.aa{fill:url(#y);}.ab{clip-path:url(#z);}.ac{fill:url(#aa);}.ad{fill:url(#ab);}.ae{clip-path:url(#ac);}.af{fill:url(#ad);}.ag{fill:url(#ae);}.ah{clip-path:url(#af);}.ai{fill:url(#ag);}.aj{fill:url(#ah);}.ak{clip-path:url(#ai);}.al{fill:url(#aj);}.am{clip-path:url(#ak);}.an{fill:url(#al);}.ao{clip-path:url(#am);}.ap{fill:url(#an);}.aq{clip-path:url(#ao);}.ar{fill:url(#ap);}.as{clip-path:url(#aq);}.at{fill:url(#ar);}.au{fill:#a54392;}.av{mask:url(#as);}.aw{clip-path:url(#at);}.ax{fill:#301f4e;}.ax,.ba,.bd,.bj,.bo,.br,.ca,.cd,.cg,.cp,.cu,.cx{fill-rule:evenodd;}.ay{mask:url(#au);}.az{clip-path:url(#av);}.ba{fill:#ea5467;}.bb{mask:url(#aw);}.bc{clip-path:url(#ax);}.bd{fill:#741610;}.be{mask:url(#ay);}.bf{clip-path:url(#az);}.bg,.cp{fill:#19b4ba;}.bh{mask:url(#ba);}.bi{clip-path:url(#bb);}.bj{fill:#f9d930;}.bk{mask:url(#bc);}.bl{clip-path:url(#bd);}.bm{mask:url(#be);}.bn{clip-path:url(#bf);}.bo,.dd{fill:#1cb5ba;}.bp{mask:url(#bg);}.bq{clip-path:url(#bh);}.br{fill:#f6f3bc;}.bs{mask:url(#bi);}.bt{clip-path:url(#bj);}.bu{mask:url(#bk);}.bv{clip-path:url(#bl);}.bw{mask:url(#bm);}.bx{clip-path:url(#bn);}.by{mask:url(#bo);}.bz{clip-path:url(#bp);}.ca{fill:#d6398d;}.cb{mask:url(#bq);}.cc{clip-path:url(#br);}.cd{fill:#efdbec;}.ce{mask:url(#bs);}.cf{clip-path:url(#bt);}.cg{fill:#ca92c0;}.ch{mask:url(#bu);}.ci{clip-path:url(#bv);}.cj{mask:url(#bw);}.ck{clip-path:url(#bx);}.cl{mask:url(#by);}.cm{clip-path:url(#bz);}.cn{mask:url(#ca);}.co{clip-path:url(#cb);}.cq{mask:url(#cc);}.cr{clip-path:url(#cd);}.cs{mask:url(#ce);}.ct{clip-path:url(#cf);}.cu{fill:#fbf3a4;}.cv{mask:url(#cg);}.cw{clip-path:url(#ch);}.cx{fill:#e83a79;}.cy{mask:url(#ci);}.cz{clip-path:url(#cj);}.da{mask:url(#cm);}.db{clip-path:url(#cn);}.dc{mask:url(#co);}.dd,.de{font-size:26.54px;}.dd,.df{font-family:MyriadPro-Bold, Myriad Pro;font-weight:700;}.de,.df{fill:#1d1d1b;}.de{font-family:MyriadPro-Regular, Myriad Pro;}.df{font-size:9.48px;}</style><clipPath id="a"><rect class="c" x="74.09" y="72.44" width="13.33" height="47.24"/></clipPath><linearGradient id="b" x1="-364.86" y1="134.83" x2="-364.06" y2="134.83" gradientTransform="matrix(0, 394.98, 394.98, 0, -53172.59, 143955.59)" gradientUnits="userSpaceOnUse"><stop offset="0" stop-color="#fff"/><stop offset="1" stop-color="#1d1d1b"/></linearGradient><clipPath id="c"><rect class="c" x="74.09" y="72.44" width="13.33" height="11.24"/></clipPath><linearGradient id="d" x1="-366.78" y1="138.81" x2="-365.98" y2="138.81" gradientTransform="matrix(-72.46, 0, 0, 72.46, -26455.73, -9979.71)" xlink:href="#b"/><clipPath id="e"><rect class="c" x="67.13" y="28.49" width="19.67" height="28.44"/></clipPath><linearGradient id="f" x1="-365.92" y1="135.99" x2="-365.12" y2="135.99" gradientTransform="matrix(-188.14, 0, 0, 188.14, -68656.8, -25541.92)" xlink:href="#b"/><linearGradient id="g" x1="-365.46" y1="136.29" x2="-364.66" y2="136.29" gradientTransform="matrix(0, 167.02, 167.02, 0, -22691.71, 60991.51)" xlink:href="#b"/><linearGradient id="h" x1="-354.64" y1="134.26" x2="-353.84" y2="134.26" gradientTransform="matrix(31.71, 0, 0, -31.71, 11322.87, 4328.89)" xlink:href="#b"/><clipPath id="i"><rect class="c" x="93.38" y="29.09" width="19.67" height="37.06"/></clipPath><linearGradient id="j" x1="-365.98" y1="132.28" x2="-365.19" y2="132.28" gradientTransform="matrix(0, -172.54, -172.54, 0, 22926.99, -62984.43)" xlink:href="#b"/><linearGradient id="k" x1="-365.46" y1="135.6" x2="-364.66" y2="135.6" gradientTransform="matrix(0, 244.63, 244.63, 0, -33076.74, 89305.57)" xlink:href="#b"/><clipPath id="l"><rect class="c" x="86.8" y="21.52" width="26.25" height="8.6"/></clipPath><linearGradient id="m" x1="-363.14" y1="134.74" x2="-362.34" y2="134.74" gradientTransform="matrix(0, 145.01, 145.01, 0, -19439.04, 52580.79)" xlink:href="#b"/><clipPath id="n"><rect class="c" x="86.8" y="28.01" width="26.25" height="2.1"/></clipPath><linearGradient id="o" x1="-363.1" y1="124.09" x2="-362.31" y2="124.09" gradientTransform="matrix(33.02, 0, 0, -33.02, 12078.75, 4126.61)" xlink:href="#b"/><clipPath id="p"><rect class="c" x="97.7" y="12.62" width="15.36" height="16.47"/></clipPath><linearGradient id="q" x1="-368.59" y1="133.46" x2="-367.79" y2="133.46" gradientTransform="matrix(0, -106.8, -106.8, 0, 14358.05, -39278.81)" xlink:href="#b"/><clipPath id="r"><rect class="c" x="99.68" y="12.26" width="13.37" height="16.83"/></clipPath><linearGradient id="s" x1="-366.28" y1="137.49" x2="-365.49" y2="137.49" gradientTransform="matrix(-100.76, 0, 0, 100.76, -36757.76, -13833.24)" xlink:href="#b"/><clipPath id="t"><rect class="c" x="110.34" y="7.93" width="8.11" height="21.15"/></clipPath><linearGradient id="u" x1="-367.49" y1="137.97" x2="-366.69" y2="137.97" gradientTransform="matrix(-79.21, 0, 0, 79.21, -28945.37, -10909.3)" xlink:href="#b"/><clipPath id="v"><rect class="c" x="112.89" y="15.76" width="43.72" height="3.36"/></clipPath><linearGradient id="w" x1="-364.81" y1="132.98" x2="-364.01" y2="132.98" gradientTransform="matrix(243.22, 0, 0, -243.22, 88700.3, 32359.5)" xlink:href="#b"/><clipPath id="x"><rect class="c" x="113.05" y="12.17" width="5.4" height="16.91"/></clipPath><linearGradient id="y" x1="-367.59" y1="142.96" x2="-366.79" y2="142.96" gradientTransform="matrix(-37.63, 0, 0, 37.63, -13701.34, -5358.36)" xlink:href="#b"/><clipPath id="z"><rect class="c" x="74.09" y="29.06" width="38.96" height="49.68"/></clipPath><linearGradient id="aa" x1="-366.05" y1="129.62" x2="-365.26" y2="129.62" gradientTransform="matrix(0, -74.93, -74.93, 0, 9805.51, -27352.48)" xlink:href="#b"/><linearGradient id="ab" x1="-365.43" y1="135.67" x2="-364.64" y2="135.67" gradientTransform="matrix(0, 231.96, 231.96, 0, -31376.95, 84653.27)" xlink:href="#b"/><clipPath id="ac"><rect class="c" x="85.84" y="28.49" width="27.21" height="3.77"/></clipPath><linearGradient id="ad" x1="-367.9" y1="135.66" x2="-367.1" y2="135.66" gradientTransform="matrix(-121.13, 0, 0, 121.13, -44396.46, -16402.75)" xlink:href="#b"/><linearGradient id="ae" x1="-365.47" y1="136.1" x2="-364.67" y2="136.1" gradientTransform="matrix(0, 182.3, 182.3, 0, -24730.19, 66576.59)" xlink:href="#b"/><clipPath id="af"><rect class="c" x="114.68" y="12.54" width="3.78" height="6.58"/></clipPath><linearGradient id="ag" x1="-371.27" y1="137.82" x2="-370.47" y2="137.82" gradientTransform="matrix(-49.46, 0, 0, 49.46, -18214.6, -6800.58)" xlink:href="#b"/><linearGradient id="ah" x1="-365.37" y1="136.94" x2="-364.57" y2="136.94" gradientTransform="matrix(0, 127.98, 127.98, 0, -17460.5, 46691.91)" xlink:href="#b"/><clipPath id="ai"><rect class="c" x="50.55" y="18.35" width="36.24" height="10.53"/></clipPath><linearGradient id="aj" x1="-367.14" y1="132.61" x2="-366.35" y2="132.61" gradientTransform="matrix(0, -152.68, -152.68, 0, 20316.04, -55941.96)" xlink:href="#b"/><clipPath id="ak"><rect class="c" x="2" y="13.58" width="89.58" height="30.18"/></clipPath><linearGradient id="al" x1="-364.54" y1="135.74" x2="-363.74" y2="135.74" gradientTransform="matrix(0, 196.44, 196.44, 0, -26617.64, 71533.19)" xlink:href="#b"/><clipPath id="am"><rect class="c" x="2" y="13.58" width="89.58" height="42.87"/></clipPath><linearGradient id="an" x1="-368.34" y1="137.16" x2="-367.54" y2="137.16" gradientTransform="matrix(-86.53, 0, 0, 86.53, -31779.36, -11833.46)" xlink:href="#b"/><clipPath id="ao"><rect class="c" x="52.51" y="22.46" width="39.07" height="33.98"/></clipPath><linearGradient id="ap" x1="-365.67" y1="133.4" x2="-364.87" y2="133.4" gradientTransform="matrix(0, -429.22, -429.22, 0, 57331.63, -156613.68)" xlink:href="#b"/><clipPath id="aq"><rect class="c" x="74.09" y="28.49" width="12.71" height="50.24"/></clipPath><linearGradient id="ar" x1="-367.76" y1="135.53" x2="-366.96" y2="135.53" gradientTransform="matrix(-131.05, 0, 0, 131.05, -48037, -17708.18)" xlink:href="#b"/><mask id="as" x="50.47" y="65.78" width="60.57" height="60.57" maskUnits="userSpaceOnUse"><rect x="74.09" y="72.44" width="13.33" height="47.24"/><g class="a"><g class="b"><rect class="d" x="59.34" y="74.65" width="42.83" height="42.83" transform="translate(-44.28 85.24) rotate(-45)"/></g></g></mask><clipPath id="at"><rect class="c" x="74.09" y="72.44" width="13.33" height="47.24"/></clipPath><mask id="au" x="71.28" y="69.11" width="18.95" height="17.91" maskUnits="userSpaceOnUse"><rect x="74.09" y="72.44" width="13.33" height="11.24"/><g class="a"><g class="e"><rect class="f" x="73.6" y="70.17" width="14.31" height="15.78" transform="translate(-15.55 135.87) rotate(-75)"/></g></g></mask><clipPath id="av"><rect class="c" x="74.09" y="72.44" width="13.33" height="11.24"/></clipPath><mask id="aw" x="111.43" y="-3.17" width="46.63" height="41.22" maskUnits="userSpaceOnUse"><rect x="112.89" y="15.76" width="43.72" height="3.36"/><g class="a"><g class="x"><rect class="y" x="122.36" y="-2.33" width="24.77" height="39.54" transform="translate(52.27 125.42) rotate(-60)"/></g></g></mask><clipPath id="ax"><rect class="c" x="112.89" y="15.76" width="43.72" height="3.36"/></clipPath><mask id="ay" x="111.83" y="10.91" width="9.48" height="9.85" maskUnits="userSpaceOnUse"><rect x="114.68" y="12.54" width="3.78" height="6.58"/><g class="a"><g class="ah"><rect class="ai" x="113.28" y="12.04" width="6.56" height="7.59" transform="translate(7.7 60.4) rotate(-30)"/></g></g></mask><clipPath id="az"><rect class="c" x="114.68" y="12.54" width="3.78" height="6.58"/></clipPath><mask id="ba" x="42.42" y="1.31" width="44.38" height="27.43" maskUnits="userSpaceOnUse"><rect x="42.42" y="1.31" width="44.38" height="27.43"/><g class="a"><rect class="aj" x="42.42" y="1.31" width="44.38" height="27.43"/></g></mask><clipPath id="bb"><rect class="c" x="42.42" y="1.31" width="44.38" height="27.43"/></clipPath><mask id="bc" x="45.29" y="0.23" width="46.78" height="46.78" maskUnits="userSpaceOnUse"><rect x="50.55" y="18.35" width="36.24" height="10.53"/><g class="a"><g class="ak"><rect class="al" x="52.14" y="7.08" width="33.07" height="33.08" transform="translate(3.41 55.48) rotate(-45)"/></g></g></mask><clipPath id="bd"><rect class="c" x="50.55" y="18.35" width="36.24" height="10.53"/></clipPath><mask id="be" x="-11.07" y="-25.21" width="115.71" height="107.76" maskUnits="userSpaceOnUse"><rect x="2" y="13.58" width="89.58" height="30.18"/><g class="a"><g class="am"><rect class="an" x="0.46" y="-6.8" width="92.67" height="70.92" transform="translate(-8.06 27.23) rotate(-30)"/></g></g></mask><clipPath id="bf"><rect class="c" x="2" y="13.58" width="89.58" height="30.18"/></clipPath><mask id="bg" x="-19.44" y="-31.21" width="132.45" height="132.45" maskUnits="userSpaceOnUse"><rect x="2" y="13.58" width="89.58" height="42.87"/><g class="a"><g class="ao"><rect class="ap" x="-0.04" y="-11.82" width="93.66" height="93.66" transform="translate(-11.05 43.34) rotate(-45)"/></g></g></mask><clipPath id="bh"><rect class="c" x="2" y="13.58" width="89.58" height="42.87"/></clipPath><mask id="bi" x="44.02" y="12.7" width="56.06" height="53.52" maskUnits="userSpaceOnUse"><rect x="52.51" y="22.46" width="39.07" height="33.98"/><g class="a"><g class="aq"><rect class="ar" x="48.78" y="17.99" width="46.53" height="42.94" transform="translate(-7.76 19.99) rotate(-15)"/></g></g></mask><clipPath id="bj"><rect class="c" x="52.51" y="22.46" width="39.07" height="33.98"/></clipPath><mask id="bk" x="52.34" y="22.99" width="56.21" height="61.25" maskUnits="userSpaceOnUse"><rect x="74.09" y="28.49" width="12.71" height="50.24"/><g class="a"><g class="as"><rect class="at" x="62.38" y="28.68" width="36.12" height="49.86" transform="translate(-16.03 47.4) rotate(-30)"/></g></g></mask><clipPath id="bl"><rect class="c" x="74.09" y="28.49" width="12.71" height="50.24"/></clipPath><mask id="bm" x="60.15" y="23.67" width="33.62" height="38.09" maskUnits="userSpaceOnUse"><rect x="67.13" y="28.49" width="19.67" height="28.44"/><g class="a"><g class="g"><rect class="h" x="60.71" y="29.6" width="32.5" height="26.24" transform="translate(16.13 106.33) rotate(-75.31)"/></g></g></mask><clipPath id="bn"><rect class="c" x="67.13" y="28.49" width="19.67" height="28.44"/></clipPath><mask id="bo" x="67.13" y="43.75" width="7.28" height="34.98" maskUnits="userSpaceOnUse"><rect x="67.13" y="43.75" width="7.28" height="34.98"/><g class="a"><rect class="i" x="67.13" y="43.75" width="7.28" height="34.98"/></g></mask><clipPath id="bp"><rect class="c" x="67.13" y="43.75" width="7.28" height="34.98"/></clipPath><mask id="bq" x="74.09" y="64.6" width="27.18" height="14.14" maskUnits="userSpaceOnUse"><rect x="74.09" y="64.6" width="27.18" height="14.14"/><g class="a"><rect class="j" x="74.09" y="64.6" width="27.18" height="14.14"/></g></mask><clipPath id="br"><rect class="c" x="74.09" y="64.6" width="27.18" height="14.14"/></clipPath><mask id="bs" x="84.2" y="24.21" width="38.03" height="46.81" maskUnits="userSpaceOnUse"><rect x="93.38" y="29.09" width="19.67" height="37.06"/><g class="a"><g class="k"><rect class="l" x="88.96" y="27.19" width="28.51" height="40.87" transform="translate(-8.76 28.04) rotate(-14.85)"/></g></g></mask><clipPath id="bt"><rect class="c" x="93.38" y="29.09" width="19.67" height="37.06"/></clipPath><mask id="bu" x="74.09" y="29.09" width="38.96" height="49.65" maskUnits="userSpaceOnUse"><rect x="74.09" y="29.09" width="38.96" height="49.65"/><g class="a"><rect class="m" x="74.09" y="29.09" width="38.96" height="49.65"/></g></mask><clipPath id="bv"><rect class="c" x="74.09" y="29.09" width="38.96" height="49.65"/></clipPath><mask id="bw" x="84.65" y="14.96" width="30.55" height="21.72" maskUnits="userSpaceOnUse"><rect x="86.8" y="21.52" width="26.25" height="8.6"/><g class="a"><g class="n"><rect class="o" x="92.37" y="12.03" width="15.1" height="27.58" transform="translate(49.12 115.66) rotate(-75)"/></g></g></mask><clipPath id="bx"><rect class="c" x="86.8" y="21.52" width="26.25" height="8.6"/></clipPath><mask id="by" x="86.27" y="21.45" width="27.31" height="15.22" maskUnits="userSpaceOnUse"><rect x="86.8" y="28.01" width="26.25" height="2.1"/><g class="a"><g class="p"><rect class="q" x="95.51" y="16.11" width="8.82" height="25.9" transform="translate(46 118.07) rotate(-75.01)"/></g></g></mask><clipPath id="bz"><rect class="c" x="86.8" y="28.01" width="26.25" height="2.1"/></clipPath><mask id="ca" x="93.58" y="8.78" width="23.59" height="24.15" maskUnits="userSpaceOnUse"><rect x="97.7" y="12.62" width="15.36" height="16.47"/><g class="a"><g class="r"><rect class="s" x="95.43" y="11.3" width="19.88" height="19.1" transform="translate(57.95 117.24) rotate(-75)"/></g></g></mask><clipPath id="cb"><rect class="c" x="97.7" y="12.62" width="15.36" height="16.47"/></clipPath><mask id="cc" x="95.5" y="8.94" width="21.73" height="23.47" maskUnits="userSpaceOnUse"><rect x="99.68" y="12.26" width="13.37" height="16.83"/><g class="a"><g class="t"><rect class="u" x="96.52" y="12.05" width="19.7" height="17.24" transform="translate(59.03 118.14) rotate(-75.1)"/></g></g></mask><clipPath id="cd"><rect class="c" x="99.68" y="12.26" width="13.37" height="16.83"/></clipPath><mask id="ce" x="101.18" y="4.42" width="26.43" height="28.18" maskUnits="userSpaceOnUse"><rect x="110.34" y="7.93" width="8.11" height="21.15"/><g class="a"><g class="v"><rect class="w" x="103.21" y="9.71" width="22.37" height="17.6" transform="translate(41.17 108.33) rotate(-60)"/></g></g></mask><clipPath id="cf"><rect class="c" x="110.34" y="7.93" width="8.11" height="21.15"/></clipPath><mask id="cg" x="108.82" y="10.82" width="13.86" height="19.61" maskUnits="userSpaceOnUse"><rect x="113.05" y="12.17" width="5.4" height="16.91"/><g class="a"><g class="z"><rect class="aa" x="106.88" y="15.83" width="17.73" height="9.6" transform="translate(65.86 127.1) rotate(-75)"/></g></g></mask><clipPath id="ch"><rect class="c" x="113.05" y="12.17" width="5.4" height="16.91"/></clipPath><mask id="ci" x="69.02" y="25.08" width="49.1" height="57.63" maskUnits="userSpaceOnUse"><rect x="74.09" y="29.06" width="38.96" height="49.68"/><g class="a"><g class="ab"><rect class="ac" x="71.64" y="27.19" width="43.85" height="53.41" transform="translate(-5.04 9.88) rotate(-5.89)"/></g></g></mask><clipPath id="cj"><rect class="c" x="74.09" y="29.06" width="38.96" height="49.68"/></clipPath><mask id="cm" x="84.21" y="16.71" width="30.47" height="27.33" maskUnits="userSpaceOnUse"><rect x="85.84" y="28.49" width="27.21" height="3.77"/><g class="a"><g class="ae"><rect class="af" x="86.72" y="21.94" width="25.45" height="16.87" transform="translate(-1.87 53.79) rotate(-30)"/></g></g></mask><clipPath id="cn"><rect class="c" x="85.84" y="28.49" width="27.21" height="3.77"/></clipPath><mask id="co" x="74.09" y="28.49" width="12.71" height="50.24" maskUnits="userSpaceOnUse"><rect x="74.09" y="28.49" width="12.71" height="50.24"/><g class="a"><rect class="ag" x="74.09" y="28.49" width="12.71" height="50.24"/></g></mask></defs><title>header</title><polygon class="au" points="80.59 73.92 74.09 78.74 85.06 119.69 102.49 91.5 87.42 72.44 80.59 73.92"/><g class="av"><g class="aw"><polygon class="ax" points="87.42 72.44 80.59 73.92 74.09 78.74 85.06 119.69 87.42 72.44"/></g></g><g class="ay"><g class="az"><polygon class="ax" points="87.42 72.44 80.59 73.92 74.09 78.74 75.42 83.69 87.42 72.44"/></g></g><polygon class="ba" points="118.45 12.54 112.68 15.56 116.3 19.12 156.6 17.28 118.45 12.54"/><g class="bb"><g class="bc"><polygon class="bd" points="112.89 15.76 116.3 19.12 156.6 17.28 112.89 15.76"/></g></g><g class="be"><g class="bf"><polygon class="bd" points="114.68 17.53 116.3 19.12 118.31 19.03 118.45 12.54 114.68 17.53"/></g></g><polygon class="bg" points="42.42 1.31 55.58 28.89 86.8 28.49 42.42 1.31"/><g class="bh"><g class="bi"><polygon class="bj" points="67.09 28.74 86.8 28.49 42.42 1.31 67.09 28.74"/></g></g><g class="bk"><g class="bl"><polygon class="bd" points="50.55 18.36 55.58 28.89 86.8 28.49 50.55 18.36"/></g></g><polygon class="bg" points="67.13 52.72 73.24 56.45 91.58 29.15 86.8 28.49 2 13.58 67.13 52.72"/><g class="bm"><g class="bn"><polygon class="bo" points="2 13.58 86.8 28.49 91.58 29.15 82.61 42.5 74.41 43.75 2 13.58"/></g></g><g class="bp"><g class="bq"><polygon class="br" points="73.24 56.45 67.13 52.72 84.95 29.24 2 13.58 86.8 28.49 91.58 29.15 73.24 56.45"/></g></g><g class="bs"><g class="bt"><polygon class="bd" points="73.24 56.45 67.13 52.72 52.51 22.46 86.8 28.49 91.58 29.15 73.24 56.45"/></g></g><polygon class="ba" points="67.13 52.72 74.09 78.74 86.08 46.59 86.8 28.49 67.13 52.72"/><g class="bu"><g class="bv"><polygon class="br" points="74.09 78.74 86.08 46.59 86.8 28.49 85.17 30.5 74.09 78.74"/></g></g><g class="bw"><g class="bx"><polygon class="bd" points="67.13 52.72 68.26 56.94 86.8 28.49 67.13 52.72"/></g></g><g class="by"><g class="bz"><polygon class="bd" points="67.13 52.72 74.09 78.74 74.41 43.76 67.13 52.72"/></g></g><polygon class="ca" points="113.05 29.09 93.37 47.01 74.09 78.74 100.75 66.15 113.05 29.09"/><g class="cb"><g class="cc"><polygon class="cd" points="74.09 78.74 100.75 66.15 101.27 64.6 101.27 64.6 74.09 78.74"/></g></g><g class="ce"><g class="cf"><polygon class="cg" points="113.05 29.09 93.38 47.02 100.75 66.15 113.05 29.09"/></g></g><g class="ch"><g class="ci"><polygon class="ax" points="113.05 29.09 93.37 47.01 74.09 78.74 81.67 75.16 113.05 29.09"/></g></g><polygon class="ba" points="86.8 28.49 98.33 30.12 113.05 29.09 107.78 19.79 99.68 12.62 86.8 28.49"/><g class="cj"><g class="ck"><polygon class="bd" points="86.8 28.49 98.33 30.12 113.05 29.09 108.76 21.52 86.8 28.49"/></g></g><g class="cl"><g class="cm"><polygon class="br" points="86.8 28.49 98.33 30.12 113.05 29.09 112.5 28.12 112.18 28.01 86.8 28.49"/></g></g><g class="cn"><g class="co"><polygon class="bd" points="107.64 19.67 99.69 12.62 97.69 15.07 113.05 29.09 107.64 19.67"/></g></g><polygon class="cp" points="99.69 12.62 113.05 29.09 118.45 12.54 110.34 7.93 99.69 12.62"/><g class="cq"><g class="cr"><polygon class="br" points="99.69 12.62 113.05 29.09 100.5 12.26 99.69 12.62"/></g></g><g class="cs"><g class="ct"><polygon class="cu" points="113.05 29.09 118.45 12.54 110.34 7.93 113.05 29.09"/></g></g><g class="cv"><g class="cw"><polygon class="br" points="113.05 29.09 118.45 12.54 117.81 12.17 113.05 29.09"/></g></g><polygon class="cx" points="86.8 28.49 74.09 78.74 113.05 29.09 86.8 28.49"/><g class="cy"><g class="cz"><polygon class="cd" points="74.09 78.74 113.05 29.09 111.72 29.06 74.09 78.74"/></g></g><g class="ch"><g class="ci"><polygon class="cd" points="80.78 52.29 74.09 78.74 113.05 29.09 80.78 52.29"/></g></g><g class="da"><g class="db"><polygon class="bd" points="86.8 28.49 85.84 32.27 113.05 29.09 86.8 28.49"/></g></g><g class="dc"><g class="bv"><polygon class="bd" points="86.8 28.49 74.09 78.74 79.63 71.67 86.8 28.49"/></g></g><text class="dd" transform="translate(116.02 63.8)">MEDIA</text><text class="de" transform="translate(196.08 63.8)">GRAPHIC</text><text class="df" transform="translate(140.95 78.18)"><tspan xml:space="preserve">CREEZ   IMPRIMEZ   PARTAGEZ</tspan></text></svg>