<?xml version="1.0" encoding="utf-8"?>
<!-- Generator: Adobe Illustrator 23.0.1, SVG Export Plug-In . SVG Version: 6.00 Build 0)  -->
<svg version="1.1" id="kt-business-logo" xmlns="http://www.w3.org/2000/svg" xmlns:xlink="http://www.w3.org/1999/xlink" x="0px"
	 y="0px" viewBox="0 0 169.8 59" style="enable-background:new 0 0 169.8 59;" xml:space="preserve">
<style type="text/css">
	.st0{fill:url(#SVGID_1_);}
	.st1{clip-path:url(#Ellipse_606_1_);}
	.st2{fill:#FFFFFF;}
	.st3{fill:#333436;}
	.st4{font-family:'AkiraExpanded-SuperBold';}
	.st5{font-size:26.5533px;}
	.st6{fill:#8F8F8F;}
</style>
<linearGradient id="SVGID_1_" gradientUnits="userSpaceOnUse" x1="60.1058" y1="29.2162" x2="15.5608" y2="29.6292">
	<stop  offset="0" style="stop-color:#0019FE"/>
	<stop  offset="1" style="stop-color:#403CF2"/>
</linearGradient>
<circle class="st0" cx="29.5" cy="29.5" r="29.5"/>
<g>
	<defs>
		<path id="Ellipse_606_3_" d="M29.5,0C45.8,0,59,13.2,59,29.5S45.8,59,29.5,59S0,45.8,0,29.5S13.2,0,29.5,0z"/>
	</defs>
	<clipPath id="Ellipse_606_1_">
		<use xlink:href="#Ellipse_606_3_"  style="overflow:visible;"/>
	</clipPath>
	<g class="st1">
		<g>
			<polygon class="st2" points="8.3,32.5 -2.2,35.9 18.3,12.9 35,30.3 31,34.1 18.4,21.1 			"/>
		</g>
		<g>
			<polygon class="st2" points="35.7,33.7 20.3,42.3 46.5,12.9 63.2,30.3 53.6,28.5 46.6,21.1 			"/>
		</g>
	</g>
</g>
<text transform="matrix(0.5971 0 0 1 69.6265 30.1855)" class="st3 st4 st5">MAT SITE</text>
<g>
	<g>
		<path class="st6" d="M71.2,36.1v10.6h-1.4V36.1H71.2z"/>
		<path class="st6" d="M76.8,41.2c0-0.8,0-1.4-0.1-2.1h1.2l0.1,1.2h0c0.4-0.7,1.1-1.4,2.4-1.4c1,0,1.8,0.6,2.1,1.5h0
			c0.2-0.4,0.5-0.8,0.9-1c0.5-0.3,1-0.5,1.7-0.5c1,0,2.5,0.7,2.5,3.3v4.5h-1.4v-4.3c0-1.5-0.5-2.3-1.7-2.3c-0.8,0-1.4,0.6-1.6,1.2
			c-0.1,0.2-0.1,0.4-0.1,0.7v4.7h-1.4v-4.6c0-1.2-0.5-2.1-1.6-2.1c-0.9,0-1.5,0.7-1.7,1.4c-0.1,0.2-0.1,0.4-0.1,0.7v4.6h-1.4V41.2z"
			/>
		<path class="st6" d="M93.2,41.6c0-1,0-1.8-0.1-2.5h1.2l0.1,1.3h0c0.6-0.9,1.5-1.5,2.7-1.5c1.8,0,3.2,1.6,3.2,3.9
			c0,2.7-1.7,4.1-3.5,4.1c-1,0-1.9-0.4-2.3-1.2h0v4.1h-1.4V41.6z M94.5,43.6c0,0.2,0,0.4,0.1,0.6c0.2,1,1.1,1.6,2.1,1.6
			c1.5,0,2.3-1.2,2.3-2.9c0-1.5-0.8-2.8-2.3-2.8c-0.9,0-1.8,0.7-2.1,1.7c0,0.2-0.1,0.4-0.1,0.6V43.6z"/>
		<path class="st6" d="M105.4,41.5c0-0.9,0-1.7-0.1-2.4h1.2l0.1,1.5h0c0.4-1,1.2-1.7,2.1-1.7c0.1,0,0.3,0,0.4,0v1.3
			c-0.1,0-0.3,0-0.5,0c-1,0-1.7,0.7-1.9,1.8c0,0.2-0.1,0.4-0.1,0.6v4.1h-1.4V41.5z"/>
		<path class="st6" d="M114.5,43.2c0,1.9,1.2,2.6,2.6,2.6c1,0,1.6-0.2,2.1-0.4l0.2,1c-0.5,0.2-1.3,0.5-2.5,0.5
			c-2.3,0-3.7-1.6-3.7-3.8c0-2.3,1.4-4.1,3.6-4.1c2.5,0,3.1,2.2,3.1,3.6c0,0.3,0,0.5,0,0.6H114.5z M118.6,42.2
			c0-0.9-0.4-2.2-1.9-2.2c-1.4,0-2,1.3-2.1,2.2H118.6z"/>
		<path class="st6" d="M124.7,45.3c0.4,0.3,1.1,0.5,1.8,0.5c1,0,1.5-0.5,1.5-1.1c0-0.7-0.4-1-1.4-1.4c-1.4-0.5-2-1.2-2-2.2
			c0-1.2,1-2.2,2.6-2.2c0.8,0,1.4,0.2,1.9,0.5l-0.3,1c-0.3-0.2-0.9-0.4-1.6-0.4c-0.8,0-1.3,0.5-1.3,1c0,0.6,0.4,0.9,1.4,1.3
			c1.3,0.5,2,1.1,2,2.3c0,1.3-1,2.3-2.8,2.3c-0.8,0-1.6-0.2-2.1-0.5L124.7,45.3z"/>
		<path class="st6" d="M134.2,45.3c0.4,0.3,1.1,0.5,1.8,0.5c1,0,1.5-0.5,1.5-1.1c0-0.7-0.4-1-1.4-1.4c-1.4-0.5-2-1.2-2-2.2
			c0-1.2,1-2.2,2.6-2.2c0.8,0,1.4,0.2,1.9,0.5l-0.3,1c-0.3-0.2-0.9-0.4-1.6-0.4c-0.8,0-1.3,0.5-1.3,1c0,0.6,0.4,0.9,1.4,1.3
			c1.3,0.5,2,1.1,2,2.3c0,1.3-1,2.3-2.8,2.3c-0.8,0-1.6-0.2-2.1-0.5L134.2,45.3z"/>
		<path class="st6" d="M145.4,37c0,0.5-0.3,0.9-0.9,0.9c-0.5,0-0.8-0.4-0.8-0.9c0-0.5,0.4-0.9,0.9-0.9
			C145.1,36.1,145.4,36.5,145.4,37z M143.9,46.7v-7.6h1.4v7.6H143.9z"/>
		<path class="st6" d="M157.7,42.9c0,2.8-2,4-3.8,4c-2.1,0-3.7-1.5-3.7-3.9c0-2.5,1.7-4,3.8-4C156.2,39,157.7,40.5,157.7,42.9z
			 M151.7,42.9c0,1.7,1,2.9,2.3,2.9c1.3,0,2.3-1.2,2.3-3c0-1.3-0.6-2.9-2.3-2.9C152.4,40,151.7,41.5,151.7,42.9z"/>
		<path class="st6" d="M162.7,41.2c0-0.8,0-1.4-0.1-2.1h1.2l0.1,1.3h0c0.4-0.7,1.3-1.4,2.5-1.4c1,0,2.7,0.6,2.7,3.2v4.5h-1.4v-4.4
			c0-1.2-0.5-2.3-1.8-2.3c-0.9,0-1.6,0.6-1.9,1.4c-0.1,0.2-0.1,0.4-0.1,0.6v4.6h-1.4V41.2z"/>
	</g>
</g>
</svg>
