<?xml version="1.0" encoding="utf-8"?>
<!-- Generator: Adobe Illustrator 23.0.1, SVG Export Plug-In . SVG Version: 6.00 Build 0)  -->
<svg version="1.1" id="Calque_1" xmlns="http://www.w3.org/2000/svg" xmlns:xlink="http://www.w3.org/1999/xlink" x="0px" y="0px"
	 viewBox="0 0 85 5" style="enable-background:new 0 0 85 5;" xml:space="preserve">
<style type="text/css">
	.st0{fill:#FFFFFF;}
	.st1{opacity:0.2;fill:#FFFFFF;}
</style>
<g id="line" transform="translate(-219.083 -251.833)">
	<path id="right_line" class="st0" d="M245.1,256.8h-23.5c-1.4,0-2.5-1.1-2.5-2.5c0,0,0-0.1,0-0.1c0-1.4,1.1-2.5,2.5-2.5h21.1
		L245.1,256.8z"/>
	<path id="left" class="st1" d="M247.1,251.8h54.4c1.4,0,2.5,1.1,2.5,2.5c0,0,0,0,0,0l0,0c0,1.4-1.1,2.5-2.5,2.5c0,0,0,0,0,0h-51.9
		L247.1,251.8z"/>
</g>
</svg>
