<svg xmlns="http://www.w3.org/2000/svg" xmlns:xlink="http://www.w3.org/1999/xlink" viewBox="0 0 140 57"><defs><style>.a{isolation:isolate;}.b{clip-path:url(#a);}.c{fill:none;}.d{fill:url(#b);}.e{clip-path:url(#c);}.f{fill:url(#d);}.g{clip-path:url(#e);}.h{fill:url(#f);}.i{fill:url(#g);}.j{fill:url(#h);}.k{clip-path:url(#i);}.l{fill:url(#j);}.m{fill:url(#k);}.n{clip-path:url(#l);}.o{fill:url(#m);}.p{clip-path:url(#n);}.q{fill:url(#o);}.r{clip-path:url(#p);}.s{fill:url(#q);}.t{clip-path:url(#r);}.u{fill:url(#s);}.v{clip-path:url(#t);}.w{fill:url(#u);}.x{clip-path:url(#v);}.y{fill:url(#w);}.z{clip-path:url(#x);}.aa{fill:url(#y);}.ab{clip-path:url(#z);}.ac{fill:url(#aa);}.ad{fill:url(#ab);}.ae{clip-path:url(#ac);}.af{fill:url(#ad);}.ag{fill:url(#ae);}.ah{clip-path:url(#af);}.ai{fill:url(#ag);}.aj{fill:url(#ah);}.ak{clip-path:url(#ai);}.al{fill:url(#aj);}.am{clip-path:url(#ak);}.an{fill:url(#al);}.ao{clip-path:url(#am);}.ap{fill:url(#an);}.aq{clip-path:url(#ao);}.ar{fill:url(#ap);}.as{clip-path:url(#aq);}.at{fill:url(#ar);}.au{fill:#a54392;}.av{mask:url(#as);}.aw{clip-path:url(#at);}.ax{fill:#301f4e;}.ax,.ba,.bd,.bj,.bo,.br,.ca,.cd,.cg,.cp,.cu,.cx{fill-rule:evenodd;}.ay{mask:url(#au);}.az{clip-path:url(#av);}.ba{fill:#ea5467;}.bb{mask:url(#aw);}.bc{clip-path:url(#ax);}.bd{fill:#741610;}.be{mask:url(#ay);}.bf{clip-path:url(#az);}.bg,.cp{fill:#19b4ba;}.bh{mask:url(#ba);}.bi{clip-path:url(#bb);}.bj{fill:#f9d930;}.bk{mask:url(#bc);}.bl{clip-path:url(#bd);}.bm{mask:url(#be);}.bn{clip-path:url(#bf);}.bo,.dd{fill:#1cb5ba;}.bp{mask:url(#bg);}.bq{clip-path:url(#bh);}.br{fill:#f6f3bc;}.bs{mask:url(#bi);}.bt{clip-path:url(#bj);}.bu{mask:url(#bk);}.bv{clip-path:url(#bl);}.bw{mask:url(#bm);}.bx{clip-path:url(#bn);}.by{mask:url(#bo);}.bz{clip-path:url(#bp);}.ca{fill:#d6398d;}.cb{mask:url(#bq);}.cc{clip-path:url(#br);}.cd{fill:#efdbec;}.ce{mask:url(#bs);}.cf{clip-path:url(#bt);}.cg{fill:#ca92c0;}.ch{mask:url(#bu);}.ci{clip-path:url(#bv);}.cj{mask:url(#bw);}.ck{clip-path:url(#bx);}.cl{mask:url(#by);}.cm{clip-path:url(#bz);}.cn{mask:url(#ca);}.co{clip-path:url(#cb);}.cq{mask:url(#cc);}.cr{clip-path:url(#cd);}.cs{mask:url(#ce);}.ct{clip-path:url(#cf);}.cu{fill:#fbf3a4;}.cv{mask:url(#cg);}.cw{clip-path:url(#ch);}.cx{fill:#e83a79;}.cy{mask:url(#ci);}.cz{clip-path:url(#cj);}.da{mask:url(#cm);}.db{clip-path:url(#cn);}.dc{mask:url(#co);}.dd,.de{font-size:12.32px;}.dd,.df{font-family:MyriadPro-Bold, Myriad Pro;font-weight:700;}.de,.df{opacity:0.8;fill:#fff;}.de{font-family:MyriadPro-Regular, Myriad Pro;}.df{font-size:4.4px;}</style><clipPath id="a"><rect class="c" x="35.48" y="34.05" width="6.19" height="21.94"/></clipPath><linearGradient id="b" x1="-364.34" y1="-55.62" x2="-363.97" y2="-55.62" gradientTransform="matrix(0, 394.98, 394.98, 0, 22008.61, 143836.01)" gradientUnits="userSpaceOnUse"><stop offset="0" stop-color="#fff"/><stop offset="1" stop-color="#1d1d1b"/></linearGradient><clipPath id="c"><rect class="c" x="35.48" y="34.05" width="6.19" height="5.22"/></clipPath><linearGradient id="d" x1="-364.36" y1="-51.35" x2="-363.98" y2="-51.35" gradientTransform="matrix(-72.46, 0, 0, 72.46, -26343.34, 3757.14)" xlink:href="#b"/><clipPath id="e"><rect class="c" x="32.25" y="13.64" width="9.13" height="13.21"/></clipPath><linearGradient id="f" x1="-364.69" y1="-54.12" x2="-364.32" y2="-54.12" gradientTransform="matrix(-188.14, 0, 0, 188.14, -68524.6, 10201.91)" xlink:href="#b"/><linearGradient id="g" x1="-364.16" y1="-54.06" x2="-363.79" y2="-54.06" gradientTransform="matrix(0, 167.02, 167.02, 0, 9063.14, 60801.39)" xlink:href="#b"/><linearGradient id="h" x1="-355.92" y1="-60.66" x2="-355.55" y2="-60.66" gradientTransform="matrix(31.71, 0, 0, -31.71, 11322.87, -1889.78)" xlink:href="#b"/><clipPath id="i"><rect class="c" x="44.44" y="13.91" width="9.14" height="17.21"/></clipPath><linearGradient id="j" x1="-366.47" y1="-57.3" x2="-366.1" y2="-57.3" gradientTransform="matrix(0, -172.54, -172.54, 0, -9837.38, -63155.15)" xlink:href="#b"/><linearGradient id="k" x1="-364.47" y1="-54.73" x2="-364.1" y2="-54.73" gradientTransform="matrix(0, 244.63, 244.63, 0, 13432.63, 89115.44)" xlink:href="#b"/><clipPath id="l"><rect class="c" x="41.38" y="10.4" width="12.19" height="3.99"/></clipPath><linearGradient id="m" x1="-362.78" y1="-56.66" x2="-362.41" y2="-56.66" gradientTransform="matrix(0, 145.01, 145.01, 0, 8263.56, 52572.3)" xlink:href="#b"/><clipPath id="n"><rect class="c" x="41.38" y="13.41" width="12.19" height="0.98"/></clipPath><linearGradient id="o" x1="-368.46" y1="-65.87" x2="-368.09" y2="-65.87" gradientTransform="matrix(33.02, 0, 0, -33.02, 12208.88, -2161.03)" xlink:href="#b"/><clipPath id="p"><rect class="c" x="46.44" y="6.26" width="7.13" height="7.65"/></clipPath><linearGradient id="q" x1="-368.2" y1="-54.91" x2="-367.83" y2="-54.91" gradientTransform="matrix(0, -106.8, -106.8, 0, -5814.44, -39282.53)" xlink:href="#b"/><clipPath id="r"><rect class="c" x="47.36" y="6.1" width="6.21" height="7.82"/></clipPath><linearGradient id="s" x1="-364.18" y1="-52.72" x2="-363.81" y2="-52.72" gradientTransform="matrix(-100.76, 0, 0, 100.76, -36625.87, 5321.87)" xlink:href="#b"/><clipPath id="t"><rect class="c" x="52.31" y="4.09" width="3.77" height="9.82"/></clipPath><linearGradient id="u" x1="-364.81" y1="-51.68" x2="-364.44" y2="-51.68" gradientTransform="matrix(-79.21, 0, 0, 79.21, -28819.06, 4102.06)" xlink:href="#b"/><clipPath id="v"><rect class="c" x="53.5" y="7.72" width="20.3" height="1.56"/></clipPath><linearGradient id="w" x1="-365.24" y1="-57.27" x2="-364.87" y2="-57.27" gradientTransform="matrix(243.22, 0, 0, -243.22, 88821.64, -13920.24)" xlink:href="#b"/><clipPath id="x"><rect class="c" x="53.57" y="6.06" width="2.51" height="7.85"/></clipPath><linearGradient id="y" x1="-362.37" y1="-47.5" x2="-361.99" y2="-47.5" gradientTransform="matrix(-37.63, 0, 0, 37.63, -13573.13, 1797.06)" xlink:href="#b"/><clipPath id="z"><rect class="c" x="35.48" y="13.9" width="18.09" height="23.07"/></clipPath><linearGradient id="aa" x1="-367.98" y1="-59.63" x2="-367.61" y2="-59.63" gradientTransform="matrix(0, -74.93, -74.93, 0, -4423.62, -27536.72)" xlink:href="#b"/><linearGradient id="ab" x1="-364.35" y1="-54.66" x2="-363.98" y2="-54.66" gradientTransform="matrix(0, 231.96, 231.96, 0, 12724.07, 84463.14)" xlink:href="#b"/><clipPath id="ac"><rect class="c" x="40.94" y="13.64" width="12.64" height="1.75"/></clipPath><linearGradient id="ad" x1="-366.5" y1="-53.43" x2="-366.13" y2="-53.43" gradientTransform="matrix(-121.13, 0, 0, 121.13, -44316.33, 6486.95)" xlink:href="#b"/><linearGradient id="ae" x1="-364.28" y1="-54.26" x2="-363.91" y2="-54.26" gradientTransform="matrix(0, 182.3, 182.3, 0, 9930.06, 66386.47)" xlink:href="#b"/><clipPath id="af"><rect class="c" x="54.33" y="6.23" width="1.75" height="3.06"/></clipPath><linearGradient id="ag" x1="-368.01" y1="-49.74" x2="-367.64" y2="-49.74" gradientTransform="matrix(-49.46, 0, 0, 49.46, -18131.8, 2467.82)" xlink:href="#b"/><linearGradient id="ah" x1="-363.6" y1="-53.45" x2="-363.23" y2="-53.45" gradientTransform="matrix(0, 127.98, 127.98, 0, 6871.57, 46501.78)" xlink:href="#b"/><clipPath id="ai"><rect class="c" x="24.55" y="8.93" width="16.83" height="4.89"/></clipPath><linearGradient id="aj" x1="-367.48" y1="-56.53" x2="-367.11" y2="-56.53" gradientTransform="matrix(0, -152.68, -152.68, 0, -8597.61, -56054.73)" xlink:href="#b"/><clipPath id="ak"><rect class="c" x="2" y="6.71" width="41.6" height="14.01"/></clipPath><linearGradient id="al" x1="-363.54" y1="-54.94" x2="-363.17" y2="-54.94" gradientTransform="matrix(0, 196.44, 196.44, 0, 10815.16, 71378.53)" xlink:href="#b"/><clipPath id="am"><rect class="c" x="2" y="6.71" width="41.6" height="19.91"/></clipPath><linearGradient id="an" x1="-366.45" y1="-51.76" x2="-366.08" y2="-51.76" gradientTransform="matrix(-86.53, 0, 0, 86.53, -31664.92, 4495.62)" xlink:href="#b"/><clipPath id="ao"><rect class="c" x="25.46" y="10.84" width="18.14" height="15.78"/></clipPath><linearGradient id="ap" x1="-365.66" y1="-56.53" x2="-365.29" y2="-56.53" gradientTransform="matrix(0, -429.22, -429.22, 0, -24230.72, -156788.34)" xlink:href="#b"/><clipPath id="aq"><rect class="c" x="35.48" y="13.64" width="5.9" height="23.33"/></clipPath><linearGradient id="ar" x1="-366.54" y1="-53.69" x2="-366.17" y2="-53.69" gradientTransform="matrix(-131.05, 0, 0, 131.05, -47961.73, 7061.09)" xlink:href="#b"/><mask id="as" x="24.51" y="30.95" width="28.13" height="28.13" maskUnits="userSpaceOnUse"><rect x="35.48" y="34.05" width="6.19" height="21.94"/><g class="a"><g class="b"><rect class="d" x="28.63" y="35.07" width="19.89" height="19.89" transform="translate(-20.53 40.46) rotate(-45)"/></g></g></mask><clipPath id="at"><rect class="c" x="35.48" y="34.05" width="6.19" height="21.94"/></clipPath><mask id="au" x="34.17" y="32.5" width="8.8" height="8.32" maskUnits="userSpaceOnUse"><rect x="35.48" y="34.05" width="6.19" height="5.22"/><g class="a"><g class="e"><rect class="f" x="35.25" y="32.99" width="6.65" height="7.33" transform="translate(-6.82 64.43) rotate(-75)"/></g></g></mask><clipPath id="av"><rect class="c" x="35.48" y="34.05" width="6.19" height="5.22"/></clipPath><mask id="aw" x="52.82" y="-1.07" width="21.65" height="19.14" maskUnits="userSpaceOnUse"><rect x="53.5" y="7.72" width="20.3" height="1.56"/><g class="a"><g class="x"><rect class="y" x="57.9" y="-0.68" width="11.5" height="18.36" transform="translate(24.46 59.37) rotate(-60)"/></g></g></mask><clipPath id="ax"><rect class="c" x="53.5" y="7.72" width="20.3" height="1.56"/></clipPath><mask id="ay" x="53" y="5.47" width="4.4" height="4.58" maskUnits="userSpaceOnUse"><rect x="54.33" y="6.23" width="1.75" height="3.06"/><g class="a"><g class="ah"><rect class="ai" x="53.68" y="5.99" width="3.05" height="3.52" transform="translate(3.52 28.64) rotate(-30)"/></g></g></mask><clipPath id="az"><rect class="c" x="54.33" y="6.23" width="1.75" height="3.06"/></clipPath><mask id="ba" x="20.77" y="1.01" width="20.61" height="12.74" maskUnits="userSpaceOnUse"><rect x="20.77" y="1.01" width="20.61" height="12.74"/><g class="a"><rect class="aj" x="20.77" y="1.01" width="20.61" height="12.74"/></g></mask><clipPath id="bb"><rect class="c" x="20.77" y="1.01" width="20.61" height="12.74"/></clipPath><mask id="bc" x="22.1" y="0.51" width="21.72" height="21.72" maskUnits="userSpaceOnUse"><rect x="24.55" y="8.93" width="16.83" height="4.89"/><g class="a"><g class="ak"><rect class="al" x="25.28" y="3.69" width="15.36" height="15.36" transform="translate(1.61 26.64) rotate(-45)"/></g></g></mask><clipPath id="bd"><rect class="c" x="24.55" y="8.93" width="16.83" height="4.89"/></clipPath><mask id="be" x="-4.07" y="-11.3" width="53.74" height="50.04" maskUnits="userSpaceOnUse"><rect x="2" y="6.71" width="41.6" height="14.01"/><g class="a"><g class="am"><rect class="an" x="1.28" y="-2.75" width="43.04" height="32.94" transform="translate(-3.8 13.24) rotate(-30)"/></g></g></mask><clipPath id="bf"><rect class="c" x="2" y="6.71" width="41.6" height="14.01"/></clipPath><mask id="bg" x="-7.95" y="-14.09" width="61.51" height="61.51" maskUnits="userSpaceOnUse"><rect x="2" y="6.71" width="41.6" height="19.91"/><g class="a"><g class="ao"><rect class="ap" x="1.05" y="-5.08" width="43.49" height="43.49" transform="translate(-5.1 21) rotate(-45)"/></g></g></mask><clipPath id="bh"><rect class="c" x="2" y="6.71" width="41.6" height="19.91"/></clipPath><mask id="bi" x="21.51" y="6.3" width="26.03" height="24.85" maskUnits="userSpaceOnUse"><rect x="25.46" y="10.84" width="18.14" height="15.78"/><g class="a"><g class="aq"><rect class="ar" x="23.73" y="8.76" width="21.61" height="19.94" transform="matrix(0.97, -0.26, 0.26, 0.97, -3.67, 9.57)"/></g></g></mask><clipPath id="bj"><rect class="c" x="25.46" y="10.84" width="18.14" height="15.78"/></clipPath><mask id="bk" x="25.38" y="11.08" width="26.11" height="28.44" maskUnits="userSpaceOnUse"><rect x="35.48" y="13.64" width="5.9" height="23.33"/><g class="a"><g class="as"><rect class="at" x="30.04" y="13.72" width="16.78" height="23.16" transform="translate(-7.5 22.6) rotate(-30)"/></g></g></mask><clipPath id="bl"><rect class="c" x="35.48" y="13.64" width="5.9" height="23.33"/></clipPath><mask id="bm" x="29.01" y="11.4" width="15.61" height="17.69" maskUnits="userSpaceOnUse"><rect x="32.25" y="13.64" width="9.13" height="13.21"/><g class="a"><g class="g"><rect class="h" x="29.27" y="14.15" width="15.09" height="12.18" transform="translate(7.9 50.72) rotate(-75.31)"/></g></g></mask><clipPath id="bn"><rect class="c" x="32.25" y="13.64" width="9.13" height="13.21"/></clipPath><mask id="bo" x="32.25" y="20.72" width="3.38" height="16.25" maskUnits="userSpaceOnUse"><rect x="32.25" y="20.72" width="3.38" height="16.25"/><g class="a"><rect class="i" x="32.25" y="20.72" width="3.38" height="16.25"/></g></mask><clipPath id="bp"><rect class="c" x="32.25" y="20.72" width="3.38" height="16.25"/></clipPath><mask id="bq" x="35.48" y="30.4" width="12.62" height="6.57" maskUnits="userSpaceOnUse"><rect x="35.48" y="30.4" width="12.62" height="6.57"/><g class="a"><rect class="j" x="35.48" y="30.4" width="12.62" height="6.57"/></g></mask><clipPath id="br"><rect class="c" x="35.48" y="30.4" width="12.62" height="6.57"/></clipPath><mask id="bs" x="40.17" y="11.65" width="17.66" height="21.74" maskUnits="userSpaceOnUse"><rect x="44.44" y="13.91" width="9.14" height="17.21"/><g class="a"><g class="k"><rect class="l" x="42.38" y="13.03" width="13.24" height="18.98" transform="translate(-4.13 13.31) rotate(-14.85)"/></g></g></mask><clipPath id="bt"><rect class="c" x="44.44" y="13.91" width="9.14" height="17.21"/></clipPath><mask id="bu" x="35.48" y="13.91" width="18.09" height="23.06" maskUnits="userSpaceOnUse"><rect x="35.48" y="13.91" width="18.09" height="23.06"/><g class="a"><rect class="m" x="35.48" y="13.91" width="18.09" height="23.06"/></g></mask><clipPath id="bv"><rect class="c" x="35.48" y="13.91" width="18.09" height="23.06"/></clipPath><mask id="bw" x="40.38" y="7.35" width="14.19" height="10.09" maskUnits="userSpaceOnUse"><rect x="41.38" y="10.4" width="12.19" height="3.99"/><g class="a"><g class="n"><rect class="o" x="43.97" y="5.99" width="7.01" height="12.81" transform="translate(23.22 55.04) rotate(-75)"/></g></g></mask><clipPath id="bx"><rect class="c" x="41.38" y="10.4" width="12.19" height="3.99"/></clipPath><mask id="by" x="41.14" y="10.37" width="12.68" height="7.07" maskUnits="userSpaceOnUse"><rect x="41.38" y="13.41" width="12.19" height="0.98"/><g class="a"><g class="p"><rect class="q" x="45.43" y="7.89" width="4.1" height="12.03" transform="matrix(0.26, -0.97, 0.97, 0.26, 21.77, 56.17)"/></g></g></mask><clipPath id="bz"><rect class="c" x="41.38" y="13.41" width="12.19" height="0.98"/></clipPath><mask id="ca" x="44.53" y="4.48" width="10.96" height="11.22" maskUnits="userSpaceOnUse"><rect x="46.44" y="6.26" width="7.13" height="7.65"/><g class="a"><g class="r"><rect class="s" x="45.39" y="5.65" width="9.23" height="8.87" transform="matrix(0.26, -0.97, 0.97, 0.26, 27.32, 55.78)"/></g></g></mask><clipPath id="cb"><rect class="c" x="46.44" y="6.26" width="7.13" height="7.65"/></clipPath><mask id="cc" x="45.42" y="4.55" width="10.09" height="10.9" maskUnits="userSpaceOnUse"><rect x="47.36" y="6.1" width="6.21" height="7.82"/><g class="a"><g class="t"><rect class="u" x="45.89" y="6" width="9.15" height="8.01" transform="translate(27.82 56.2) rotate(-75.1)"/></g></g></mask><clipPath id="cd"><rect class="c" x="47.36" y="6.1" width="6.21" height="7.82"/></clipPath><mask id="ce" x="48.06" y="2.46" width="12.27" height="13.09" maskUnits="userSpaceOnUse"><rect x="52.31" y="4.09" width="3.77" height="9.82"/><g class="a"><g class="v"><rect class="w" x="49" y="4.91" width="10.39" height="8.17" transform="translate(19.3 51.44) rotate(-60)"/></g></g></mask><clipPath id="cf"><rect class="c" x="52.31" y="4.09" width="3.77" height="9.82"/></clipPath><mask id="cg" x="51.61" y="5.43" width="6.44" height="9.11" maskUnits="userSpaceOnUse"><rect x="53.57" y="6.06" width="2.51" height="7.85"/><g class="a"><g class="z"><rect class="aa" x="50.71" y="7.76" width="8.24" height="4.46" transform="translate(30.99 60.36) rotate(-75)"/></g></g></mask><clipPath id="ch"><rect class="c" x="53.57" y="6.06" width="2.51" height="7.85"/></clipPath><mask id="ci" x="33.12" y="12.05" width="22.8" height="26.76" maskUnits="userSpaceOnUse"><rect x="35.48" y="13.9" width="18.09" height="23.07"/><g class="a"><g class="ab"><rect class="ac" x="34.34" y="13.03" width="20.36" height="24.81" transform="translate(-2.37 4.7) rotate(-5.89)"/></g></g></mask><clipPath id="cj"><rect class="c" x="35.48" y="13.9" width="18.09" height="23.07"/></clipPath><mask id="cm" x="40.18" y="8.17" width="14.15" height="12.69" maskUnits="userSpaceOnUse"><rect x="40.94" y="13.64" width="12.64" height="1.75"/><g class="a"><g class="ae"><rect class="af" x="41.35" y="10.59" width="11.82" height="7.83" transform="translate(-0.93 25.57) rotate(-30)"/></g></g></mask><clipPath id="cn"><rect class="c" x="40.94" y="13.64" width="12.64" height="1.75"/></clipPath><mask id="co" x="35.48" y="13.64" width="5.9" height="23.33" maskUnits="userSpaceOnUse"><rect x="35.48" y="13.64" width="5.9" height="23.33"/><g class="a"><rect class="ag" x="35.48" y="13.64" width="5.9" height="23.33"/></g></mask></defs><title>logo</title><polygon class="au" points="38.5 34.73 35.48 36.97 40.58 55.99 48.67 42.9 41.67 34.05 38.5 34.73"/><g class="av"><g class="aw"><polygon class="ax" points="41.67 34.05 38.5 34.73 35.48 36.97 40.58 55.99 41.67 34.05"/></g></g><g class="ay"><g class="az"><polygon class="ax" points="41.67 34.05 38.5 34.73 35.48 36.97 36.09 39.27 41.67 34.05"/></g></g><polygon class="ba" points="56.08 6.23 53.4 7.63 55.08 9.29 73.8 8.43 56.08 6.23"/><g class="bb"><g class="bc"><polygon class="bd" points="53.5 7.72 55.08 9.29 73.8 8.43 53.5 7.72"/></g></g><g class="be"><g class="bf"><polygon class="bd" points="54.33 8.54 55.08 9.29 56.01 9.24 56.08 6.23 54.33 8.54"/></g></g><polygon class="bg" points="20.77 1.01 26.88 13.82 41.38 13.64 20.77 1.01"/><g class="bh"><g class="bi"><polygon class="bj" points="32.23 13.75 41.38 13.64 20.77 1.01 32.23 13.75"/></g></g><g class="bk"><g class="bl"><polygon class="bd" points="24.55 8.93 26.88 13.82 41.38 13.64 24.55 8.93"/></g></g><polygon class="bg" points="32.25 24.89 35.08 26.62 43.6 13.94 41.38 13.64 2 6.71 32.25 24.89"/><g class="bm"><g class="bn"><polygon class="bo" points="2 6.71 41.38 13.64 43.6 13.94 39.44 20.14 35.63 20.72 2 6.71"/></g></g><g class="bp"><g class="bq"><polygon class="br" points="35.08 26.62 32.25 24.89 40.52 13.98 2 6.71 41.38 13.64 43.6 13.94 35.08 26.62"/></g></g><g class="bs"><g class="bt"><polygon class="bd" points="35.08 26.62 32.25 24.89 25.46 10.84 41.38 13.64 43.6 13.94 35.08 26.62"/></g></g><polygon class="ba" points="32.25 24.89 35.48 36.97 41.05 22.04 41.38 13.64 32.25 24.89"/><g class="bu"><g class="bv"><polygon class="br" points="35.48 36.97 41.05 22.04 41.38 13.64 40.62 14.57 35.48 36.97"/></g></g><g class="bw"><g class="bx"><polygon class="bd" points="32.25 24.89 32.77 26.85 41.38 13.64 32.25 24.89"/></g></g><g class="by"><g class="bz"><polygon class="bd" points="32.25 24.89 35.48 36.97 35.63 20.72 32.25 24.89"/></g></g><polygon class="ca" points="53.57 13.91 44.43 22.23 35.48 36.97 47.86 31.13 53.57 13.91"/><g class="cb"><g class="cc"><polygon class="cd" points="35.48 36.97 47.86 31.13 48.1 30.4 48.1 30.4 35.48 36.97"/></g></g><g class="ce"><g class="cf"><polygon class="cg" points="53.57 13.91 44.44 22.24 47.86 31.13 53.57 13.91"/></g></g><g class="ch"><g class="ci"><polygon class="ax" points="53.57 13.91 44.43 22.23 35.48 36.97 39 35.31 53.57 13.91"/></g></g><polygon class="ba" points="41.38 13.64 46.73 14.39 53.57 13.91 51.12 9.6 47.37 6.26 41.38 13.64"/><g class="cj"><g class="ck"><polygon class="bd" points="41.38 13.64 46.73 14.39 53.57 13.91 51.58 10.4 41.38 13.64"/></g></g><g class="cl"><g class="cm"><polygon class="br" points="41.38 13.64 46.73 14.39 53.57 13.91 53.32 13.46 53.17 13.41 41.38 13.64"/></g></g><g class="cn"><g class="co"><polygon class="bd" points="51.06 9.54 47.37 6.26 46.44 7.4 53.57 13.91 51.06 9.54"/></g></g><polygon class="cp" points="47.37 6.26 53.57 13.91 56.08 6.23 52.31 4.09 47.37 6.26"/><g class="cq"><g class="cr"><polygon class="br" points="47.37 6.26 53.57 13.91 47.74 6.1 47.37 6.26"/></g></g><g class="cs"><g class="ct"><polygon class="cu" points="53.57 13.91 56.08 6.23 52.31 4.09 53.57 13.91"/></g></g><g class="cv"><g class="cw"><polygon class="br" points="53.57 13.91 56.08 6.23 55.78 6.06 53.57 13.91"/></g></g><polygon class="cx" points="41.38 13.64 35.48 36.97 53.57 13.91 41.38 13.64"/><g class="cy"><g class="cz"><polygon class="cd" points="35.48 36.97 53.57 13.91 52.95 13.9 35.48 36.97"/></g></g><g class="ch"><g class="ci"><polygon class="cd" points="38.59 24.69 35.48 36.97 53.57 13.91 38.59 24.69"/></g></g><g class="da"><g class="db"><polygon class="bd" points="41.38 13.64 40.94 15.39 53.57 13.91 41.38 13.64"/></g></g><g class="dc"><g class="bv"><polygon class="bd" points="41.38 13.64 35.48 36.97 38.05 33.69 41.38 13.64"/></g></g><text class="dd" transform="translate(54.95 30.03)">MEDIA</text><text class="de" transform="translate(92.13 30.03)">GRAPHIC</text><text class="df" transform="translate(66.53 36.71)"><tspan xml:space="preserve">CREEZ   IMPRIMEZ   PARTAGEZ</tspan></text></svg>