<svg xmlns="http://www.w3.org/2000/svg" xmlns:xlink="http://www.w3.org/1999/xlink" viewBox="0 0 200 200"><defs><style>.a{fill:none;}.b{clip-path:url(#a);}.c{fill:url(#b);}.d{clip-path:url(#c);}.e{fill:#e61a73;}.f{clip-path:url(#d);}.g{fill:url(#e);}.h{clip-path:url(#f);}.i{fill:url(#g);}.j{fill:#7c2a6c;}.k{clip-path:url(#i);}.l{fill:url(#j);}.m{clip-path:url(#k);}.n{fill:url(#l);}.o{clip-path:url(#m);}.p{fill:url(#n);}.q{clip-path:url(#o);}.r{fill:url(#p);}.s{clip-path:url(#q);}.t{fill:url(#r);}.u{clip-path:url(#s);}.v{fill:url(#t);}.w{clip-path:url(#u);}.x{fill:url(#v);}</style><clipPath id="a"><path class="a" d="M97.64,12.43c-6.44.17-31.12,1.19-52.81,19.07A81.17,81.17,0,0,0,28.28,50.28c-14.87,23.25-16.15,55.65-5.06,81.77,17,40.09,62.37,62.54,101.69,56.48,6.4-1,23.94-3.92,39.47-17.77,29.9-26.66,36.3-79.46,12.18-116.66C159.43,27.66,129,12.4,99.79,12.4c-.72,0-1.43,0-2.15,0"/></clipPath><linearGradient id="b" y1="243.52" x2="1" y2="243.52" gradientTransform="translate(-31.26 -42515.85) scale(175.02)" gradientUnits="userSpaceOnUse"><stop offset="0" stop-color="#dae1f3"/><stop offset="1" stop-color="#e9effa"/></linearGradient><clipPath id="c"><rect class="a" y="0.5" width="728" height="243"/></clipPath><clipPath id="d"><path class="a" d="M66.91,112a3.27,3.27,0,0,0,.86,3.51c4.37,4,11.56,3.59,15.89,2.87a4.67,4.67,0,0,0,3.87-4c.92-6.93,4.55-15.74,4.55-15.74L83.17,82.71c-5.1,3.22-14.46,24.21-16.26,29.25"/></clipPath><linearGradient id="e" y1="243.54" x2="1" y2="243.54" gradientTransform="translate(107.09 15063.84) rotate(180) scale(61.44)" gradientUnits="userSpaceOnUse"><stop offset="0" stop-color="#f7baba"/><stop offset="1" stop-color="#f2908f"/></linearGradient><clipPath id="f"><path class="a" d="M41.7,176.23c15.78,16.41,38.8,2.6,38.8,2.6l12.07-1.94s-7.54-8.86-13-8.63-9.68,7.28-9.68,7.28-14.82-1-14.75-12a.49.49,0,0,1,0-.12c-4,.37-10.67,2.6-13.46,12.82"/></clipPath><linearGradient id="g" y1="243.49" y2="243.49" gradientTransform="translate(-21983.84 192.48) rotate(-90) scale(90.56)" xlink:href="#e"/><clipPath id="i"><path class="a" d="M88.62,71,83.17,98.23l15.47,5.92s9.8-27.29,9.8-27.73c0-4.83-8.61-5.66-14.48-5.66-3,0-5.34.22-5.34.22"/></clipPath><linearGradient id="j" y1="243.53" y2="243.53" gradientTransform="matrix(-55.17, 0, 0, 55.17, 108.14, -13347.49)" xlink:href="#e"/><clipPath id="k"><path class="a" d="M87.05,61.65c-4.31,1.23-4.46,4.58-4,6.86A2.05,2.05,0,0,1,81.39,71c-5.5,1-5.11,5.25-4.65,7.15a2,2,0,0,0,1,1.28c1.46.85,4.78,3.1,4.69,6.05-.09,3.15-2.1,14.14-2.78,17.75a2.06,2.06,0,0,0,.72,2A66.14,66.14,0,0,0,93.58,113a2,2,0,0,0,2.63-.84,88.74,88.74,0,0,0,5.57-12.58A2,2,0,0,0,100.72,97c-2.12-1-5.47-.61-9.14-.12-4,.53-4.32-3.43-4.32-4.58a2,2,0,0,1,.08-.55l4-14.12a2.05,2.05,0,0,1,1.16-1.33c1.8-.75,5.88-2.07,8.55.13,3.52,2.9,11,5.79,13.52,1.41s2.89-12.44-4.09-14.7a6.12,6.12,0,0,0-7.54,2.49,2,2,0,0,1-3,.45,1.6,1.6,0,0,0-1.82-.32,2.06,2.06,0,0,1-2.54-.68,7.82,7.82,0,0,0-6.35-3.74,8.25,8.25,0,0,0-2.21.32"/></clipPath><linearGradient id="l" y1="243.51" x2="1" y2="243.51" gradientTransform="translate(22627.03 53.18) rotate(90) scale(92.52)" gradientUnits="userSpaceOnUse"><stop offset="0" stop-color="#232451"/><stop offset="1" stop-color="#2a307a"/></linearGradient><clipPath id="m"><path class="a" d="M76,84.82c.15,7.6,5.8,5.87,5.8,5.87s3.36-7.92.62-10.38A4.52,4.52,0,0,0,79.43,79c-1.91,0-3.55,1.74-3.47,5.79"/></clipPath><linearGradient id="n" y1="243.47" y2="243.47" gradientTransform="matrix(37.08, 0, 0, -37.08, 44.28, 9112.76)" xlink:href="#e"/><clipPath id="o"><path class="a" d="M115.11,176.42l-39.41.07a2.87,2.87,0,0,0-.13,5.71h.14l39.4-.07a2.87,2.87,0,0,0,0-5.72h0"/></clipPath><linearGradient id="p" y1="243.5" y2="243.5" gradientTransform="translate(-23031.25 199.62) rotate(-90) scale(94.98)" xlink:href="#l"/><clipPath id="q"><path class="a" d="M119,124.2a9.35,9.35,0,0,0-8.49,5.81L87.78,182.17H149a5.73,5.73,0,0,0,5.3-3.9L171.9,130c1-2.79-.88-5.81-3.65-5.81Z"/></clipPath><linearGradient id="r" y1="243.52" y2="243.52" gradientTransform="translate(181.57 23036.52) rotate(-180) scale(93.97)" xlink:href="#l"/><clipPath id="s"><path class="a" d="M133.57,150.94c-1.07,3.58-.28,7.06,1.76,7.77s4.56-1.62,5.62-5.2.28-7.06-1.76-7.77a2.17,2.17,0,0,0-.76-.13c-1.86,0-3.92,2.18-4.86,5.33"/></clipPath><linearGradient id="t" y1="243.51" x2="1" y2="243.51" gradientTransform="translate(7392.38 139.57) rotate(90) scale(29.79)" gradientUnits="userSpaceOnUse"><stop offset="0" stop-color="#4857a3"/><stop offset="1" stop-color="#40509e"/></linearGradient><clipPath id="u"><path class="a" d="M19,182.1a3.39,3.39,0,0,0,0,6.77H175.34a3.39,3.39,0,0,0,0-6.77Z"/></clipPath><linearGradient id="v" y1="243.5" y2="243.5" gradientTransform="translate(178.72 39907.16) rotate(180) scale(163.13)" xlink:href="#t"/></defs><title>mon-compte</title><g class="b"><rect class="c" x="-24.53" y="-27.14" width="261.87" height="261.27" transform="translate(-41.83 95.67) rotate(-41.19)"/></g><g class="d"><path class="e" d="M131.61,171.33S127.69,118.94,105,112c0,0-35.31-4.18-55.61,3.52l4.28,66.36s57.39,13.05,77.94-10.56"/></g><g class="f"><rect class="g" x="57.52" y="82.53" width="43.5" height="37.12" transform="translate(-43.56 138.7) rotate(-68.92)"/></g><g class="h"><rect class="i" x="37.9" y="154" width="58.47" height="48.05" transform="translate(-69.21 45.33) rotate(-25.11)"/></g><g class="d"><path class="e" d="M49.39,115.53c15,5.31,12.79,17.05,12.79,17.05s-6.9,19.85-7,30.84c-4,.36-10.67,2.6-13.46,12.81-.38-.39-.75-.79-1.11-1.21-18.86-21.85,8.8-59.49,8.8-59.49"/><path class="j" d="M55.16,164a.59.59,0,0,0,.58-.58c.09-8.55,4.35-22.57,6.18-28.21a.58.58,0,0,0-.37-.73.59.59,0,0,0-.74.37c-1.84,5.69-6.14,19.85-6.24,28.56a.6.6,0,0,0,.58.59Z"/></g><g class="k"><rect class="l" x="74.87" y="67.31" width="41.87" height="40.29" transform="translate(-31.73 111.15) rotate(-52.91)"/></g><g class="m"><rect class="n" x="71.12" y="57.7" width="51.12" height="59.31" transform="translate(-15.5 21.07) rotate(-11.52)"/></g><g class="o"><rect class="p" x="72.48" y="77.74" width="16.04" height="15.97" transform="translate(-37.08 83.54) rotate(-45.73)"/></g><g class="q"><rect class="r" x="73.17" y="170.11" width="44.48" height="18.41" transform="translate(-47.56 35.04) rotate(-16.72)"/></g><g class="s"><rect class="t" x="79.45" y="102.96" width="101.81" height="100.46" transform="translate(-69.44 129.96) rotate(-42.97)"/></g><g class="u"><rect class="v" x="129.48" y="144.13" width="15.57" height="16.77" transform="matrix(0.83, -0.55, 0.55, 0.83, -61.45, 101.39)"/></g><g class="w"><rect class="x" x="15.59" y="182.1" width="163.13" height="6.76"/></g></svg>