<?xml version="1.0" encoding="utf-8"?>
<!-- Generator: Adobe Illustrator 23.0.1, SVG Export Plug-In . SVG Version: 6.00 Build 0)  -->
<svg version="1.1" id="Calque_1" xmlns="http://www.w3.org/2000/svg" xmlns:xlink="http://www.w3.org/1999/xlink" x="0px" y="0px"
	 viewBox="0 0 141 5" style="enable-background:new 0 0 141 5;" xml:space="preserve">
<style type="text/css">
	.st0{fill:#1DB6BC;}
	.st1{opacity:0.25;fill:#1DB6BC;}
</style>
<g id="line" transform="translate(-219.083 -251.833)">
	<path id="right_line" class="st0" d="M304.1,256.8h-29l2.5-5h24L304.1,256.8z"/>
	<path id="left" class="st1" d="M306.1,251.8h51.5c1.4,0,2.5,1.1,2.5,2.5l0,0l0,0c0,1.4-1.1,2.5-2.5,2.5l0,0h-49L306.1,251.8z"/>
	<path id="left-2" class="st1" d="M273.1,251.8h-51.5c-1.4,0-2.5,1.1-2.5,2.5l0,0l0,0c0,1.4,1.1,2.5,2.5,2.5l0,0h49L273.1,251.8z"/>
</g>
</svg>
