<svg xmlns="http://www.w3.org/2000/svg" xmlns:xlink="http://www.w3.org/1999/xlink" viewBox="0 0 50 50"><defs><style>.a{fill:none;}.b{clip-path:url(#a);}.c{fill:url(#b);}.d{fill:#fff;}</style><clipPath id="a"><path class="a" d="M42.31,2.35,7,5.21A4.6,4.6,0,0,0,2.73,9.79V43.07a4.59,4.59,0,0,0,4.59,4.6H40.51a4.61,4.61,0,0,0,4.59-4.32L47.27,7.21a4.6,4.6,0,0,0-4.58-4.88l-.38,0"/></clipPath><linearGradient id="b" x1="-879.2" y1="239.45" x2="-878.2" y2="239.45" gradientTransform="matrix(44.55, 0, 0, -44.55, 39171.08, 10692.6)" gradientUnits="userSpaceOnUse"><stop offset="0" stop-color="#232451"/><stop offset="1" stop-color="#2a307a"/></linearGradient></defs><title>compte</title><g class="b"><rect class="c" x="2.73" y="2.33" width="44.7" height="45.33"/></g><path class="d" d="M12.36,39.74a3.53,3.53,0,0,1-3.52-3.51V14.89a1.09,1.09,0,0,1,2.18,0V36.23a1.33,1.33,0,0,0,.42,1,1.36,1.36,0,0,0,1,.36l25.28-1.51A1.33,1.33,0,0,0,39,34.72V13.77a1.32,1.32,0,0,0-1.47-1.32l-21,2.08a1.33,1.33,0,0,0-1,2.11l8,11.07a1.3,1.3,0,0,0,1.07.55h0a1.31,1.31,0,0,0,1.07-.53L34.54,16a1.09,1.09,0,1,1,1.74,1.31L27.44,29a3.39,3.39,0,0,1-2.84,1.4A3.47,3.47,0,0,1,21.79,29l-8-11.07a3.52,3.52,0,0,1,2.5-5.56l21-2.08a3.52,3.52,0,0,1,3.87,3.49v21a3.52,3.52,0,0,1-3.31,3.51l-25.28,1.5h-.21"/></svg>