<?xml version="1.0" encoding="utf-8"?>
<!-- Generator: Adobe Illustrator 23.0.1, SVG Export Plug-In . SVG Version: 6.00 Build 0)  -->
<svg version="1.1" id="Calque_1" xmlns="http://www.w3.org/2000/svg" xmlns:xlink="http://www.w3.org/1999/xlink" x="0px" y="0px"
	 viewBox="0 0 50 50" style="enable-background:new 0 0 50 50;" xml:space="preserve">
<style type="text/css">
	.st0{clip-path:url(#SVGID_2_);fill:url(#SVGID_3_);}
	.st1{fill:none;stroke:#FFFFFF;stroke-width:2;stroke-linecap:round;stroke-linejoin:round;stroke-miterlimit:10;}
</style>
<g>
	<g>
		<defs>
			<path id="SVGID_1_" d="M43.2,2.4L7.9,5.2C5.5,5.4,3.6,7.4,3.6,9.8v33.3c0,2.5,2.1,4.6,4.6,4.6h33.2c2.4,0,4.4-1.9,4.6-4.3
				l2.2-36.1c0.2-2.7-2-4.9-4.6-4.9C43.5,2.3,43.3,2.3,43.2,2.4"/>
		</defs>
		<clipPath id="SVGID_2_">
			<use xlink:href="#SVGID_1_"  style="overflow:visible;"/>
		</clipPath>
		
			<linearGradient id="SVGID_3_" gradientUnits="userSpaceOnUse" x1="-337.9816" y1="145.3997" x2="-336.9816" y2="145.3997" gradientTransform="matrix(44.55 0 0 -44.55 15060.708 6502.5571)">
			<stop  offset="0" style="stop-color:#232451"/>
			<stop  offset="1" style="stop-color:#2A307A"/>
		</linearGradient>
		<rect x="3.6" y="2.3" class="st0" width="44.7" height="45.3"/>
	</g>
	<polyline class="st1" points="12.4,15 17.3,15 22.5,33.4 37.2,33.4 	"/>
	<polyline class="st1" points="18.7,20.1 39.4,20.1 35.8,29.5 21.4,29.5 	"/>
	<g>
		<path class="st1" d="M26.7,37.8c0,1.2-0.9,2.1-2.1,2.1c-1.2,0-2.1-0.9-2.1-2.1c0-1.2,0.9-2.1,2.1-2.1
			C25.8,35.7,26.7,36.6,26.7,37.8z"/>
		<path class="st1" d="M36.1,37.7c0,1.2-0.9,2.1-2.1,2.1c-1.2,0-2.1-0.9-2.1-2.1c0-1.2,0.9-2.1,2.1-2.1
			C35.2,35.6,36.1,36.5,36.1,37.7z"/>
	</g>
</g>
</svg>
