<?xml version="1.0" encoding="utf-8"?>
<!-- Generator: Adobe Illustrator 23.0.1, SVG Export Plug-In . SVG Version: 6.00 Build 0)  -->
<svg version="1.1" id="Calque_1" xmlns="http://www.w3.org/2000/svg" xmlns:xlink="http://www.w3.org/1999/xlink" x="0px" y="0px"
	 viewBox="0 0 50 50" style="enable-background:new 0 0 50 50;" xml:space="preserve">
<style type="text/css">
	.st0{clip-path:url(#SVGID_2_);fill:url(#SVGID_3_);}
	.st1{fill:none;stroke:#FFFFFF;stroke-width:2;stroke-miterlimit:10;}
</style>
<g>
	<g>
		<defs>
			<path id="SVGID_1_" d="M42.3,2.4L7,5.2C4.6,5.4,2.7,7.4,2.7,9.8v33.3c0,2.5,2.1,4.6,4.6,4.6h33.2c2.4,0,4.4-1.9,4.6-4.3l2.2-36.1
				c0.2-2.7-2-4.9-4.6-4.9C42.6,2.3,42.4,2.3,42.3,2.4"/>
		</defs>
		<clipPath id="SVGID_2_">
			<use xlink:href="#SVGID_1_"  style="overflow:visible;"/>
		</clipPath>
		
			<linearGradient id="SVGID_3_" gradientUnits="userSpaceOnUse" x1="-338.0019" y1="146.8122" x2="-337.0019" y2="146.8122" gradientTransform="matrix(44.55 0 0 -44.55 15060.708 6565.4839)">
			<stop  offset="0" style="stop-color:#232451"/>
			<stop  offset="1" style="stop-color:#2A307A"/>
		</linearGradient>
		<rect x="2.7" y="2.3" class="st0" width="44.7" height="45.3"/>
	</g>
	<path class="st1" d="M22.2,39l-8-15.2c0,0-3.4-11.3,10.7-13.3c0,0,13.5,0.3,11.1,12.9L28.2,39c0,0-1.1,2.5-3.2,2.4
		C25,41.4,23.5,41.4,22.2,39z"/>
	<path class="st1" d="M20.6,16.9c1.2-1,2.7-1.7,4.4-1.7c3.7,0,6.6,3,6.6,6.6c0,3.7-3,6.6-6.6,6.6c-3.7,0-6.6-3-6.6-6.6"/>
</g>
</svg>
