<svg xmlns="http://www.w3.org/2000/svg" xmlns:xlink="http://www.w3.org/1999/xlink" viewBox="0 0 243 350"><defs><style>.a{fill:none;}.b{clip-path:url(#a);}.c{clip-path:url(#c);}.d{fill:url(#d);}.e{clip-path:url(#e);}.f{fill:#3f3764;}.g{font-size:24px;}.g,.h{fill:#f7f7f2;font-family:Arial-BoldMT, Arial;font-weight:700;}.h{font-size:36px;}.i{opacity:0.5;}.j{clip-path:url(#i);}.k{fill:#1cb5ba;}.l{fill:#beceeb;}.m{fill:#0c4e7d;}.n{fill:#fff;}.o{fill:#e61a73;}.p{clip-path:url(#j);}.q{fill:url(#k);}.r{clip-path:url(#l);}.s{fill:url(#m);}.t{fill:#95b0dd;}.u{opacity:0.3;}.v{clip-path:url(#o);}.w{clip-path:url(#p);}.x{clip-path:url(#q);}.y{clip-path:url(#r);}.z{clip-path:url(#s);}.aa{fill:url(#t);}.ab{clip-path:url(#u);}.ac{fill:url(#v);}.ad{clip-path:url(#w);}.ae{fill:url(#x);}.af{clip-path:url(#y);}.ag{fill:url(#z);}.ah{clip-path:url(#aa);}.ai{fill:url(#ab);}.aj{clip-path:url(#ac);}.ak{fill:url(#ad);}.al{clip-path:url(#af);}.am{fill:url(#ag);}.an{clip-path:url(#ah);}.ao{fill:url(#ai);}.ap{clip-path:url(#aj);}.aq{fill:url(#ak);}.ar{clip-path:url(#am);}.as{fill:url(#an);}.at{clip-path:url(#ao);}.au{fill:url(#ap);}.av{clip-path:url(#aq);}.aw{fill:url(#ar);}.ax{clip-path:url(#as);}.ay{fill:url(#at);}.az{clip-path:url(#au);}.ba{fill:url(#av);}.bb{clip-path:url(#aw);}.bc{fill:url(#ax);}.bd{clip-path:url(#ay);}.be{fill:url(#az);}.bf{fill:#7f93ca;}.bg{clip-path:url(#bb);}.bh{fill:url(#bc);}.bi{clip-path:url(#bd);}.bj{fill:url(#be);}.bk{clip-path:url(#bf);}.bl{fill:url(#bg);}.bm{clip-path:url(#bh);}.bn{fill:url(#bi);}.bo{clip-path:url(#bj);}.bp{fill:url(#bk);}.bq{clip-path:url(#bl);}.br{fill:url(#bm);}.bs{clip-path:url(#bn);}.bt{fill:url(#bo);}.bu{clip-path:url(#bp);}.bv{fill:url(#bq);}.bw{clip-path:url(#br);}.bx{fill:url(#bs);}.by{clip-path:url(#bt);}.bz{fill:url(#bu);}.ca{clip-path:url(#bv);}.cb{fill:url(#bw);}.cc{clip-path:url(#bx);}.cd{fill:url(#by);}.ce{clip-path:url(#bz);}.cf{fill:url(#ca);}.cg{clip-path:url(#cb);}.ch{fill:url(#cc);}.ci{clip-path:url(#cd);}.cj{fill:url(#ce);}.ck{clip-path:url(#cf);}.cl{fill:url(#cg);}.cm{clip-path:url(#ch);}.cn{fill:url(#ci);}.co{clip-path:url(#cj);}.cp{fill:url(#ck);}.cq{clip-path:url(#cm);}.cr{clip-path:url(#co);}.cs{fill:url(#cp);}</style><clipPath id="a"><rect class="a" x="-263" width="243" height="621"/></clipPath><clipPath id="c"><path class="a" d="M-208.5,152.5l1,177.22a3.34,3.34,0,0,0,3,3.3c27.79,2.91,105.71-1.41,124.62-2.53a4.22,4.22,0,0,0,4-4.43l-9-168.73a3.65,3.65,0,0,0-3.94-3.44c-45,3.45-99.39-3.19-115.21-5.33a3.27,3.27,0,0,0-.54,0,4,4,0,0,0-3.95,4"/></clipPath><linearGradient id="d" x1="-263" y1="620.98" x2="-262" y2="620.98" gradientTransform="matrix(0, -196.43, -196.43, 0, 121839.64, -51308.13)" gradientUnits="userSpaceOnUse"><stop offset="0" stop-color="#40509e"/><stop offset="1" stop-color="#4857a3"/></linearGradient><clipPath id="e"><rect class="a" width="243" height="621"/></clipPath><clipPath id="i"><rect class="a" x="18.85" y="130.55" width="207.53" height="208.5"/></clipPath><clipPath id="j"><rect class="a" x="108.67" y="188.5" width="91.37" height="2.41" transform="translate(-88.94 164.78) rotate(-45.02)"/></clipPath><linearGradient id="k" y1="621" x2="1" y2="621" gradientTransform="matrix(80.76, 0, 0, -80.76, 80.18, 50339.33)" gradientUnits="userSpaceOnUse"><stop offset="0" stop-color="#232451"/><stop offset="1" stop-color="#2a307a"/></linearGradient><clipPath id="l"><path class="a" d="M122.41,217,109,234.16a.68.68,0,0,0,1,1L127,221.66c.89-.89-2.81-4.76-4.24-4.75a.51.51,0,0,0-.37.13"/></clipPath><linearGradient id="m" y1="620.98" x2="1" y2="620.98" gradientTransform="matrix(63.55, 0, 0, -63.55, 113.91, 39687.27)" xlink:href="#k"/><clipPath id="o"><rect class="a" x="24.14" y="136.39" width="42.54" height="23.64"/></clipPath><clipPath id="p"><rect class="a" x="29.59" y="161.28" width="44.15" height="24.77"/></clipPath><clipPath id="q"><rect class="a" x="64.43" y="130.73" width="28.28" height="9.13"/></clipPath><clipPath id="r"><rect class="a" x="75.13" y="147.38" width="20.44" height="16.51"/></clipPath><clipPath id="s"><path class="a" d="M45.12,337.81a1.58,1.58,0,0,0,1.5,1.73c3.06.16,9.6.47,12,.39a.53.53,0,0,0,.46-.71,1.15,1.15,0,0,0-.59-.62l-10.77-5.08-1.91-.32s-.43,2.31-.65,4.61"/></clipPath><linearGradient id="t" y1="621" x2="1" y2="621" gradientTransform="matrix(-58.53, 0, 0, 58.53, 61.07, -36011.34)" xlink:href="#k"/><clipPath id="u"><path class="a" d="M45.45,331.83l.3,2.78s1.89.9,3.19-.08l-.75-3.11Z"/></clipPath><linearGradient id="v" y1="620.92" x2="1" y2="620.92" gradientTransform="matrix(0, 3.52, 3.52, 0, -2137.66, 331.71)" gradientUnits="userSpaceOnUse"><stop offset="0" stop-color="#f7baba"/><stop offset="1" stop-color="#f2908f"/></linearGradient><clipPath id="w"><path class="a" d="M37.83,291.72s-.58-19.07,0,.67c.51,17.66,5.53,36.19,6.58,39.89a.91.91,0,0,0,.91.67,9.47,9.47,0,0,0,3.1-.59.55.55,0,0,0,.32-.63c-3.64-15.93-2.68-51.4-2.53-52.13l-7.81-.07Z"/></clipPath><linearGradient id="x" y1="620.96" x2="1" y2="620.96" gradientTransform="matrix(-56.78, 0, 0, 56.78, 71.47, -34955)" xlink:href="#k"/><clipPath id="y"><path class="a" d="M32,338.56a1,1,0,0,0,.84,1.17c1,.11,2.57.25,3.81.25a1,1,0,0,0,1-1.06,8.14,8.14,0,0,0-1.86-4.48l-2.43-.15A16.35,16.35,0,0,0,32,338.56"/></clipPath><linearGradient id="z" y1="620.99" x2="1" y2="620.99" gradientTransform="matrix(-58.53, 0, 0, 58.53, 55.99, -36012.15)" xlink:href="#k"/><clipPath id="aa"><path class="a" d="M32.78,330.71l.73,4.21a2.75,2.75,0,0,0,2.27.18l-.33-4.53Z"/></clipPath><linearGradient id="ab" y1="620.96" y2="620.96" gradientTransform="matrix(0, 3.04, 3.04, 0, -1852.19, 331.51)" xlink:href="#v"/><clipPath id="ac"><path class="a" d="M31.18,280.55c-3.28,18.69.23,46.27,1.45,51.67a.83.83,0,0,0,.67.64,5.63,5.63,0,0,0,2.43-.07.76.76,0,0,0,.56-.7c.21-4.36.16-31.12,3.15-41.67a2.35,2.35,0,0,1,.94-1.31L46,285.17l.49-6.44Z"/></clipPath><linearGradient id="ad" y1="621.04" x2="1" y2="621.04" gradientTransform="matrix(-56.78, 0, 0, 56.78, 71.62, -34956.22)" xlink:href="#k"/><clipPath id="af"><path class="a" d="M76.8,231.24c-1.42,5.76-8.64,10.38-16,12.6a20,20,0,0,0,3.86,8.28c12.3-6.76,14.23-20.28,14.23-20.28a1.78,1.78,0,0,0-1.42-.72,1.73,1.73,0,0,0-.64.12"/></clipPath><linearGradient id="ag" y1="621" y2="621" gradientTransform="matrix(0, 17.98, 17.98, 0, -11094.27, 232.58)" xlink:href="#v"/><clipPath id="ah"><path class="a" d="M77,228c-.36.48,0,3,0,3.63.64,1.25,1.75.79,1.66.49A2.46,2.46,0,0,0,80.5,231a18.89,18.89,0,0,0,1.16-1.86,2.49,2.49,0,0,0,.27-1.83,8.68,8.68,0,0,0-1-2.07l1.8-1.84a.86.86,0,0,0-.1-1.21A47.32,47.32,0,0,0,77,228"/></clipPath><linearGradient id="ai" y1="621" y2="621" gradientTransform="translate(67.7 18845.28) rotate(-180) scale(29.98)" xlink:href="#v"/><clipPath id="aj"><path class="a" d="M78.48,227.84,78,229.21l1.43,1.62a18.34,18.34,0,0,1,.88-3.3c.37-.59.18-.88-.15-1.05Z"/></clipPath><linearGradient id="ak" y1="621.01" y2="621.01" gradientTransform="matrix(9.23, 0, 0, -9.23, 78.29, 5961.8)" xlink:href="#v"/><clipPath id="am"><path class="a" d="M22.52,267.89c5.66,10.59,21.44-.38,21.44-.38l-1.27-2.41s-9.8,5.41-13,.68A3.66,3.66,0,0,1,29,262.9a20.73,20.73,0,0,0-7.53-2.1,10.34,10.34,0,0,0,1.05,7.09"/></clipPath><linearGradient id="an" y1="620.87" y2="620.87" gradientTransform="matrix(0, 22.75, 22.75, 0, -14092.41, 258.36)" xlink:href="#v"/><clipPath id="ao"><path class="a" d="M38.9,246.16a.3.3,0,0,0,.13.37,7,7,0,0,0,7.22-.42,1.43,1.43,0,0,0,.68-1l1-7.39-6-.06Z"/></clipPath><linearGradient id="ap" y1="621.01" y2="621.01" gradientTransform="matrix(18.77, 0, 0, -18.77, 31.06, 11898.86)" xlink:href="#v"/><clipPath id="aq"><path class="a" d="M40.85,232l2.39,6.63c3.49,2,7.52,2.25,8-.21s-2.75-8.62-2.75-8.62Z"/></clipPath><linearGradient id="ar" y1="621.06" y2="621.06" gradientTransform="matrix(0, -11.58, -11.58, 0, 7240.69, 239.4)" xlink:href="#v"/><clipPath id="as"><path class="a" d="M46.32,226.6a.25.25,0,0,1-.4,0,2.6,2.6,0,0,0-3.15-1.06,2.38,2.38,0,0,0-1.65,2.29.25.25,0,0,1-.3.25,2.91,2.91,0,0,0-3.41,1.56c-.71,1.51-.26,2.38.14,2.8a.26.26,0,0,1-.11.42,1.49,1.49,0,0,0-1.08,1.71c.07,1.6,1.86,1.48,2.37,1.41a.27.27,0,0,1,.22.08c.43.49,2.38,2.55,4.5,2.82a.25.25,0,0,0,.27-.33l-.89-2.68a.25.25,0,0,1,.14-.32l.45-.19a.26.26,0,0,0,.12-.37,6.55,6.55,0,0,1-.89-1.93s-.58-.38,1.5-.86,5.16-1.21,5.83-3c.47-1.25-.26-3.9-1.75-3.9a2.68,2.68,0,0,0-1.91,1.27"/></clipPath><linearGradient id="at" y1="620.96" x2="1" y2="620.96" gradientTransform="matrix(0, 16.28, 16.28, 0, -10066.2, 220.67)" xlink:href="#k"/><clipPath id="au"><path class="a" d="M41.31,235.46c-.18,1.34,2.07,2,3.18,1.47l-.7-1.19a4.6,4.6,0,0,0-1.89-.81.54.54,0,0,0-.59.53"/></clipPath><linearGradient id="av" y1="621" y2="621" gradientTransform="matrix(0, -10.42, -10.42, 0, 6515.13, 241.67)" xlink:href="#v"/><clipPath id="aw"><path class="a" d="M53.49,253.92c-3.23.27-6,.59-7,.7A.55.55,0,0,0,46,255l-5.34,18.65a.54.54,0,0,0,.52.69l12.38.12a.53.53,0,0,0,.44-.22c3.17-4.14,9.5-16.8,11-19.92a.55.55,0,0,0-.45-.78c-.7-.06-1.52-.09-2.43-.09-2.58,0-5.81.21-8.7.46"/></clipPath><linearGradient id="ax" y1="621" x2="1" y2="621" gradientTransform="matrix(0, 53.79, 53.79, 0, -33350.19, 251.82)" xlink:href="#k"/><clipPath id="ay"><path class="a" d="M41.53,265c-.3,1.09.45,4.14.45,4.14a2.8,2.8,0,0,0,2.54-.88c.58-.58.93-1.15,1.41-.84a1,1,0,0,0,1.45-.34l-.85-.93c1.24.6,1.37-.53,1.37-.53l-.91-.71a1.11,1.11,0,0,0,1.59-.95,28.25,28.25,0,0,0-4.23-1.13,3.2,3.2,0,0,0-.52,0c-1.52,0-2,1.23-2.3,2.21"/></clipPath><linearGradient id="az" y1="620.99" y2="620.99" gradientTransform="matrix(7.11, 0, 0, -7.11, 41.46, 4682.67)" xlink:href="#v"/><clipPath id="bb"><path class="a" d="M148,325.54s-8.28,3.56-7.8,7.29c0,0,8.55-1.64,10.08-4.09s.69-3.85.69-3.85Z"/></clipPath><linearGradient id="bc" y1="620.98" x2="1" y2="620.98" gradientTransform="translate(6334.1 318.64) rotate(90) scale(9.97)" xlink:href="#k"/><clipPath id="bd"><path class="a" d="M146.45,322.57l.81,2.94a1.4,1.4,0,0,0,1.36,1,3.17,3.17,0,0,0,1-.16,1.2,1.2,0,0,0,.76-1.27l-.42-3.64Z"/></clipPath><linearGradient id="be" y1="620.96" y2="620.96" gradientTransform="matrix(0, -4.5, 4.5, 0, -2645.66, 326.21)" xlink:href="#v"/><clipPath id="bf"><path class="a" d="M145.3,297.33c-7.57,4.42.38,25.61.38,25.61a7.65,7.65,0,0,0,4.83-1.1s-4.07-15.51,3-18.21a40.69,40.69,0,0,1,16.15-2.29l-1.52-7.24,0-.48s-.89,0-2.34,0c-4.57,0-14.7.41-20.44,3.75"/></clipPath><linearGradient id="bg" y1="620.91" x2="1" y2="620.91" gradientTransform="translate(-20288.2 315.8) rotate(-90) scale(32.92)" xlink:href="#k"/><clipPath id="bh"><path class="a" d="M141.85,331.19a6.87,6.87,0,0,0-3.06,1.65,5.54,5.54,0,0,0,4.73,1.76,14.43,14.43,0,0,0,7.49-3.13,2.1,2.1,0,0,0,.36-1.56s-1.1-1.17-1.88-1.19h0c-.83,0-5.9,2.1-7.62,2.47"/></clipPath><linearGradient id="bi" y1="621" x2="1" y2="621" gradientTransform="matrix(0, 25.78, -25.78, 0, 16154.09, 328.02)" xlink:href="#k"/><clipPath id="bj"><path class="a" d="M143.52,334.6a5.54,5.54,0,0,1-4.73-1.76c-.81.78-1.08,1.6-.2,1.94,1.1.43,6.63.7,10-1.19a6.48,6.48,0,0,0,2.45-2.12,14.43,14.43,0,0,1-7.49,3.13"/></clipPath><linearGradient id="bk" y1="620.96" x2="1" y2="620.96" gradientTransform="matrix(0, -12.1, 12.1, 0, -7369.17, 339.52)" gradientUnits="userSpaceOnUse"><stop offset="0" stop-color="#4857a3"/><stop offset="1" stop-color="#40509e"/></linearGradient><clipPath id="bl"><path class="a" d="M148.62,329.29a.9.9,0,0,0,.34,1.22,3.36,3.36,0,0,0,.92.32,1.37,1.37,0,0,0,1.28-.38,12.33,12.33,0,0,0,2-2.44l-2.8-1.94Z"/></clipPath><linearGradient id="bm" y1="621.02" y2="621.02" gradientTransform="translate(-2471.91 330.74) rotate(-90) scale(4.22)" xlink:href="#v"/><clipPath id="bn"><path class="a" d="M167,293.32l.39,2.39c.21,1.31.12,2.59-1.09,3.15-4.22,1.94-7.2,6.43-9.23,9.54-2.35,3.6-8,18.39-8,18.39.8,1.33,3.5,2.21,3.5,2.21,4.74-2.75,10-12.35,12.86-17.23s11.32-6.15,15.16-8.07,2.51-11.35,2.51-11.35Z"/></clipPath><linearGradient id="bo" y1="621.01" x2="1" y2="621.01" gradientTransform="translate(148.56 -21952.06) scale(35.85)" xlink:href="#k"/><clipPath id="bp"><path class="a" d="M147.57,281.67a7.65,7.65,0,0,1-1.14,4.53,8.74,8.74,0,0,0,4.82.71c7.43-.92,12.35-9.57,12.35-9.57l-8.26-9.66c0,.37-2.39,15.52-7.77,14"/></clipPath><linearGradient id="bq" y1="621.01" x2="1" y2="621.01" gradientTransform="matrix(-51.35, 0, 0, 51.35, 182.18, -31611.07)" gradientUnits="userSpaceOnUse"><stop offset="0" stop-color="#f2908f"/><stop offset="1" stop-color="#ee7065"/></linearGradient><clipPath id="br"><path class="a" d="M137.6,276.71c-2.34,1-4.85,5.13-4.85,5.13a1.56,1.56,0,0,0,1.95.43c1.05-.66,3.74-2.39,3.74-2.39a14.35,14.35,0,0,0-.9,2.3c0,.37,1.17.31,1.23-.68,0-.49.55-.86,1-1.1a1,1,0,0,1,1.33.45,11.9,11.9,0,0,0,5.28,5.35,7.65,7.65,0,0,0,1.14-4.53c-1.46-.42-3.31-1.62-5.63-4a4.75,4.75,0,0,0-3-1.23,3.62,3.62,0,0,0-1.36.27"/></clipPath><linearGradient id="bs" y1="620.96" y2="620.96" gradientTransform="translate(-9007.58 288.88) rotate(-90) scale(14.73)" xlink:href="#v"/><clipPath id="bt"><path class="a" d="M156.38,265.44a5.69,5.69,0,0,0-1,4.85c.85,2.57,11.22,16.49,11.62,23,0,0,7.1,4.17,16.3,0,0,0,3.09-17.25-2.25-31.9,0,0-2-1.36-6.42-1.36-4,0-10,1.11-18.29,5.35"/></clipPath><linearGradient id="bu" y1="621" y2="621" gradientTransform="matrix(45.46, 0, 0, -45.46, 122.37, 28509.94)" xlink:href="#bq"/><clipPath id="bv"><path class="a" d="M160.32,255.88l1.49,6.26a2.48,2.48,0,0,0,1.67,1.78,4.56,4.56,0,0,0,5.24-1.46,1.62,1.62,0,0,0,.16-1.72l-2.86-5.6Z"/></clipPath><linearGradient id="bw" y1="620.96" y2="620.96" gradientTransform="matrix(0, -9.77, 9.77, 0, -5904.57, 264.53)" xlink:href="#v"/><clipPath id="bx"><path class="a" d="M177.93,271s9,6.6,8.51,10a11.18,11.18,0,0,1,6,5.92,7,7,0,0,0,2.23-3.22c3.61-10-13.56-22.26-13.56-22.26Z"/></clipPath><linearGradient id="by" y1="620.98" y2="620.98" gradientTransform="matrix(45.46, 0, 0, -45.46, 122.57, 28504.53)" xlink:href="#bq"/><clipPath id="bz"><path class="a" d="M186.18,281.7c-2.11,3.1-12.29.26-12.29.26-6.65-.7-7.63,7.16-7.63,7.16,1.19.64,2.15-.48,3-1.59.67-.9,1.26-1.81,1.83-1.78a12.16,12.16,0,0,0,3.33-.67,1.73,1.73,0,0,1,1.34.12c2.53,1.27,11.85,5.53,16.69,1.73a11.18,11.18,0,0,0-6-5.92,1.57,1.57,0,0,1-.26.69"/></clipPath><linearGradient id="ca" y1="620.98" y2="620.98" gradientTransform="translate(40676.71 283.25) rotate(90) scale(65.21)" xlink:href="#v"/><clipPath id="cb"><path class="a" d="M162.36,246c-.09.08-3.87,6.67-5.78,10a2,2,0,0,0,.93,2.79l.84.36c1.13.49,3.58.89,4.54.12l6.06-6.4s-3.75-7.13-6-7.13a.94.94,0,0,0-.62.23"/></clipPath><linearGradient id="cc" y1="621.02" y2="621.02" gradientTransform="translate(167.27 14533.97) rotate(-180) scale(23)" xlink:href="#v"/><clipPath id="cd"><path class="a" d="M160.49,244.62c-.59,1.77,2,3.14,3.64,3.42,1.26.21,1.87,1.66,2.1,2.34a.76.76,0,0,1-.09.64l-1.85,2.8c.51.64,1,1.32,1.4,2a5.74,5.74,0,0,1,.43-.43c.8-.74,2.22-.36,2.81-.16a.73.73,0,0,0,.58,0,2,2,0,0,0,.87-3,.76.76,0,0,1,.28-1.05,2,2,0,0,0,.94-2.76,2.76,2.76,0,0,0-3-1.55.77.77,0,0,1-.8-.55.58.58,0,0,0-.52-.42.75.75,0,0,1-.59-.93,2.23,2.23,0,0,0-1.12-2.69,3,3,0,0,0-1.57-.47,4.12,4.12,0,0,0-3.5,2.86"/></clipPath><linearGradient id="ce" y1="621.01" x2="1" y2="621.01" gradientTransform="translate(-8898.21 255.96) rotate(-90) scale(14.6)" xlink:href="#k"/><clipPath id="cf"><path class="a" d="M165,257s1,1.91,3.13.12c1.73-1.43.73-2.82-.61-3h-.11c-1.29,0-2.41,2.87-2.41,2.87"/></clipPath><linearGradient id="cg" y1="621.03" y2="621.03" gradientTransform="matrix(14.04, 0, 0, 14.04, 154.17, -8463.66)" xlink:href="#v"/><clipPath id="ch"><path class="a" d="M136,287.35a1.06,1.06,0,0,0,1.07,1.06l23.78,0h0a1.07,1.07,0,0,0,0-2.13l-23.78,0h0a1.06,1.06,0,0,0-1,1.06"/></clipPath><linearGradient id="ci" y1="621" x2="1" y2="621" gradientTransform="matrix(-19.87, 0, 0, 19.87, 165.76, -12050.67)" xlink:href="#k"/><clipPath id="cj"><path class="a" d="M115.68,266.85a1.58,1.58,0,0,0-1.47,2.16l7.1,18a2.29,2.29,0,0,0,2.13,1.45h24.61L138.9,269a3.79,3.79,0,0,0-3.42-2.16Z"/></clipPath><linearGradient id="ck" y1="620.98" x2="1" y2="620.98" gradientTransform="matrix(-19.78, 0, 0, 19.78, 142.2, -12006.54)" xlink:href="#k"/><clipPath id="cm"><rect class="a" x="263" width="243" height="621"/></clipPath><clipPath id="co"><path class="a" d="M314.83,169.4c-35.57,33.35-48.75,96.14-20.61,130.65,14.66,18,35.18,28,45.7,30.3,38.53,8.29,91.35-9.68,115.9-51.25,15.34-26,18.42-60.5,5.89-87.14a86.71,86.71,0,0,0-14.91-22.12c-2.38-2.55-22-23-53.21-27.42a84.05,84.05,0,0,0-11.68-.81c-36.61,0-62.93,23.9-67.08,27.79"/></clipPath><linearGradient id="cp" x1="263" y1="621.02" x2="264" y2="621.02" gradientTransform="matrix(0, -204.32, -204.32, 0, 127257.97, 54134.94)" gradientUnits="userSpaceOnUse"><stop offset="0" stop-color="#dae1f3"/><stop offset="1" stop-color="#e9effa"/></linearGradient></defs><title>etape</title><g class="b"><g class="b"><g class="c"><rect class="d" x="-246.05" y="127.99" width="207.82" height="228.48" transform="translate(-137.7 -38.59) rotate(-29.5)"/></g></g></g><g class="e"><g class="e"><g class="e"><path class="f" d="M162.79,70.22A36.83,36.83,0,1,1,126,33.39a36.82,36.82,0,0,1,36.83,36.83"/></g><text class="g" transform="translate(109.78 84)">#</text><text class="h" transform="translate(123.13 84)">3</text><g class="e"><g class="i"><g class="j"><path class="k" d="M202.33,309.73a75.67,75.67,0,0,1-11.48,9.66c-37.45,26.87-81.76,19-91.18,17.13-13.91-2.83-40.79-8.29-60.22-31.14-29.4-34.58-24.82-89-2-125,4.17-6.58,26.21-43.09,71-48.94,27.1-3.55,58.7,3.6,81.58,22.77,48,40.24,44.61,121.53,12.32,155.53"/></g></g><path class="l" d="M189.49,233a80.36,80.36,0,1,1-80.35-80.36A80.36,80.36,0,0,1,189.49,233"/><path class="m" d="M177.71,233a68.58,68.58,0,1,1-68.57-68.58A68.58,68.58,0,0,1,177.71,233"/><path class="n" d="M109.14,305a72,72,0,1,1,72-72,72.1,72.1,0,0,1-72,72m0-140.59A68.58,68.58,0,1,0,177.71,233a68.65,68.65,0,0,0-68.57-68.58"/><path class="m" d="M150.94,233a41.81,41.81,0,1,1-41.8-41.81A41.8,41.8,0,0,1,150.94,233"/><path class="n" d="M109.14,278.26A45.25,45.25,0,1,1,154.38,233a45.3,45.3,0,0,1-45.24,45.24m0-83.62A38.38,38.38,0,1,0,147.51,233a38.43,38.43,0,0,0-38.37-38.38"/><path class="o" d="M125.33,233a16.2,16.2,0,1,1-16.19-16.2A16.19,16.19,0,0,1,125.33,233"/><path class="n" d="M109.14,252.65A19.64,19.64,0,1,1,128.77,233a19.66,19.66,0,0,1-19.63,19.63m0-32.4A12.77,12.77,0,1,0,121.9,233a12.79,12.79,0,0,0-12.76-12.77"/></g><g class="p"><rect class="q" x="108.83" y="144.18" width="91.06" height="91.06" transform="translate(-75.91 107.28) rotate(-31.17)"/></g><g class="r"><rect class="s" x="104.73" y="212.85" width="26.91" height="26.81" transform="translate(-117.23 127.56) rotate(-39.67)"/></g><g class="e"><path class="t" d="M187.48,158.3l8.69.86-11.93,11.93a18.44,18.44,0,0,1-14.87,5.31Z"/><path class="t" d="M185.77,156.59l-.86-8.69L173,159.83a18.51,18.51,0,0,0-5.31,14.87Z"/><g class="u"><g class="v"><path class="t" d="M66.49,144.56a.63.63,0,0,1-.88,0c-.47-.47-1-.93-1.48-1.36a.63.63,0,0,1-.08-.87h0a.61.61,0,0,1,.87-.07,21.15,21.15,0,0,1,1.56,1.43.62.62,0,0,1,.05.83l-.05.05m-5-3.3c-.57-.35-1.15-.69-1.75-1a.62.62,0,1,1,.58-1.1c.62.32,1.24.68,1.83,1.05a.63.63,0,0,1,.2.86l0,.06a.63.63,0,0,1-.82.13M56.74,139c-.63-.22-1.27-.42-1.92-.59a.62.62,0,1,1,.31-1.2c.68.18,1.36.38,2,.62a.63.63,0,0,1,.38.79.72.72,0,0,1-.11.19.63.63,0,0,1-.69.19m-5.14-1.18c-.66-.08-1.34-.13-2-.15A.61.61,0,0,1,49,137a.62.62,0,0,1,.64-.61c.7,0,1.41.07,2.11.15a.63.63,0,0,1,.55.69.55.55,0,0,1-.14.32.62.62,0,0,1-.55.23m-5.28,0c-.66.07-1.33.18-2,.31a.63.63,0,0,1-.73-.49.62.62,0,0,1,.49-.73c.69-.14,1.4-.25,2.1-.33a.62.62,0,0,1,.68.55.62.62,0,0,1-.55.69m-5.15,1.16c-.63.22-1.26.47-1.87.74a.62.62,0,0,1-.5-1.14c.64-.28,1.3-.55,2-.78a.62.62,0,0,1,.68,1,.58.58,0,0,1-.28.2M25.32,155.71a.62.62,0,0,1-.45-.76c.18-.68.39-1.36.62-2a.63.63,0,0,1,1.18.42c-.23.63-.43,1.28-.6,1.92a.66.66,0,0,1-.11.24.64.64,0,0,1-.64.21m11.1-14.51c-.57.35-1.13.74-1.67,1.14a.62.62,0,0,1-.87-.13.63.63,0,0,1,.13-.87c.56-.42,1.15-.82,1.75-1.2a.62.62,0,0,1,.81.92.66.66,0,0,1-.15.14m-9.29,9.4a.62.62,0,0,1-.26-.84c.33-.62.68-1.24,1.06-1.83a.62.62,0,0,1,1.05.66c-.36.57-.7,1.16-1,1.75a.36.36,0,0,1-.07.1.61.61,0,0,1-.77.16m5.15-6.12c-.47.47-.93,1-1.36,1.48a.62.62,0,0,1-1-.8h0c.45-.53.94-1.06,1.43-1.55a.61.61,0,0,1,.88,0,.63.63,0,0,1,0,.83l0,0"/><path class="t" d="M25.24,159.8a.58.58,0,0,0,.14-.34c0-.32.05-.64.09-1a.62.62,0,0,0-1.24-.14c0,.34-.07.68-.09,1a.61.61,0,0,0,.57.66.59.59,0,0,0,.53-.23"/></g></g><g class="u"><g class="w"><path class="t" d="M31.34,177.75a.61.61,0,0,0,0-.8c-.21-.24-.43-.49-.63-.74a.63.63,0,0,0-.88-.08.62.62,0,0,0-.08.87l.66.78a.63.63,0,0,0,.88,0,.23.23,0,0,0,.07-.07"/><path class="t" d="M67.39,177.81a.64.64,0,0,1-.88.05.62.62,0,0,1-.05-.88q.66-.73,1.26-1.53a.61.61,0,0,1,.87-.12.62.62,0,0,1,.12.87c-.17.23-.35.45-.53.68s-.52.63-.79.93m2.33-4.21a.62.62,0,0,1-.23-.85c.32-.57.62-1.17.89-1.76a.62.62,0,0,1,.83-.31.61.61,0,0,1,.3.82c-.28.63-.6,1.26-.94,1.86l-.06.09a.63.63,0,0,1-.79.15M65,180.17c-.53.45-1.08.88-1.65,1.28a.61.61,0,0,1-.86-.14.62.62,0,0,1,.14-.87c.54-.38,1.06-.79,1.56-1.22a.62.62,0,0,1,.89.87l-.08.08m7-11.42a.64.64,0,0,1-.42-.78c.19-.63.36-1.27.49-1.92a.62.62,0,0,1,1.22.26c-.14.67-.32,1.36-.51,2a.72.72,0,0,1-.12.21.63.63,0,0,1-.66.21m-11.5,14.47c-.62.32-1.25.62-1.89.89a.62.62,0,0,1-.48-1.15c.61-.25,1.21-.54,1.79-.84a.62.62,0,0,1,.77.94.58.58,0,0,1-.19.16m-5.1,2c-.66.18-1.35.34-2,.46a.62.62,0,0,1-.22-1.23c.65-.11,1.3-.26,1.93-.43a.62.62,0,0,1,.65,1,.58.58,0,0,1-.33.21m-5.4.83c-.69,0-1.39,0-2.08,0a.63.63,0,0,1-.6-.65.62.62,0,0,1,.65-.59c.65,0,1.32,0,2,0a.62.62,0,0,1,.65.59.66.66,0,0,1-.14.42.64.64,0,0,1-.46.23m-5.45-.37c-.68-.13-1.37-.28-2-.46a.62.62,0,1,1,.32-1.2c.64.17,1.29.32,1.94.43a.62.62,0,0,1,.5.72.59.59,0,0,1-.13.29.62.62,0,0,1-.59.22m-5.24-1.57c-.64-.27-1.28-.57-1.89-.89a.62.62,0,1,1,.58-1.1c.58.31,1.19.59,1.79.85a.62.62,0,0,1,.33.81.38.38,0,0,1-.09.15.61.61,0,0,1-.72.18m-4.77-2.67c-.42-.3-.83-.61-1.22-.93l-.43-.35a.62.62,0,0,1-.07-.88.63.63,0,0,1,.88-.07l.4.34c.38.3.77.6,1.16.88a.63.63,0,0,1,.15.87l0,0a.62.62,0,0,1-.84.11"/><path class="t" d="M73.55,163.28a.64.64,0,0,0,.13-.35c0-.33,0-.67,0-1a.62.62,0,0,0-1.24,0c0,.32,0,.65,0,1a.63.63,0,0,0,1.11.43"/></g></g><path class="t" d="M66.55,155.24a.29.29,0,0,0-.25-.23l-3.5-.45A15.44,15.44,0,0,0,60,150.44l.87-3.43a.28.28,0,0,0-.13-.31l-3.54-2.33a.3.3,0,0,0-.34,0l-2.8,2.16a15.39,15.39,0,0,0-4.9-.92l-1.81-3a.3.3,0,0,0-.31-.14l-4.15.86a.3.3,0,0,0-.23.25l-.45,3.51a15.65,15.65,0,0,0-4.13,2.81L34.65,149a.31.31,0,0,0-.32.12L32,152.67a.3.3,0,0,0,0,.34l2.16,2.79a15.8,15.8,0,0,0-.93,4.91l-3,1.81a.28.28,0,0,0-.14.31l.86,4.15a.31.31,0,0,0,.25.23l3.51.45a15.6,15.6,0,0,0,2.81,4.12l-.87,3.43a.28.28,0,0,0,.12.31l3.55,2.33a.3.3,0,0,0,.34,0l2.79-2.17a15.2,15.2,0,0,0,4.91.93l1.81,3a.28.28,0,0,0,.3.14l4.16-.87a.29.29,0,0,0,.23-.24l.44-3.51a15.49,15.49,0,0,0,4.13-2.81l3.43.87a.29.29,0,0,0,.31-.12l2.33-3.55a.3.3,0,0,0,0-.34l-2.17-2.79a15.25,15.25,0,0,0,.93-4.91l3-1.81a.3.3,0,0,0,.14-.31Z"/><path class="l" d="M51.63,164.25a4.26,4.26,0,0,1-6-.26,4.26,4.26,0,0,1,.25-6,4.26,4.26,0,0,1,6.2,5.82,4.6,4.6,0,0,1-.43.46M45.48,161a3.24,3.24,0,0,0,.86,2.35,3.27,3.27,0,1,0,.2-4.62,3.73,3.73,0,0,0-.34.35,3.27,3.27,0,0,0-.72,1.92"/><path class="l" d="M56.79,167.74c.23-.28.44-.57.64-.87l.18-.29a10.55,10.55,0,0,0,.76-1.5v0l0-.06.05-.12a.25.25,0,0,0-.08-.28l-.07,0a.26.26,0,0,0-.32.14,9.95,9.95,0,0,1-9.47,6.4,9.91,9.91,0,0,1-5.33-1.63c-.29-.19-.56-.39-.83-.6a10,10,0,0,1,11.78-16.1,6.89,6.89,0,0,1,.82.6,10,10,0,0,1,2.7,3.39s0,.06.06.09a.26.26,0,0,0,.27,0,.25.25,0,0,0,.12-.33A10.48,10.48,0,0,0,55.27,153c-.28-.22-.56-.43-.86-.63a10.5,10.5,0,0,0-14.52,3A10.48,10.48,0,0,0,42,169.25c.28.23.57.44.87.64a10.51,10.51,0,0,0,13.88-2.15"/><g class="u"><g class="x"><path class="t" d="M92.63,138.35a.41.41,0,0,0,0-.46c-.19-.27-.39-.54-.59-.79a.38.38,0,0,0-.54-.07.39.39,0,0,0-.06.54c.19.25.38.5.55.76a.39.39,0,0,0,.54.09l.08-.07"/><path class="t" d="M90.71,136.11a.39.39,0,0,1-.55,0c-.38-.38-.78-.74-1.19-1.08l-.27-.21a.38.38,0,0,1-.07-.54.4.4,0,0,1,.54-.06l.28.22a16.69,16.69,0,0,1,1.26,1.13.37.37,0,0,1,0,.51l0,0m-3.62-2.39a16.62,16.62,0,0,0-1.73-.89.38.38,0,0,1-.2-.51.38.38,0,0,1,.51-.19,15.45,15.45,0,0,1,1.81.93.4.4,0,0,1,.14.53l0,0a.38.38,0,0,1-.49.08m-3.56-1.57a17.45,17.45,0,0,0-1.9-.44.39.39,0,0,1-.32-.44.4.4,0,0,1,.44-.32,16.62,16.62,0,0,1,2,.47.37.37,0,0,1,.25.48.31.31,0,0,1-.06.13.39.39,0,0,1-.41.12m-3.84-.64a15.83,15.83,0,0,0-2,0,.39.39,0,0,1-.42-.35.4.4,0,0,1,.36-.41,15.41,15.41,0,0,1,2,0,.39.39,0,0,1,.37.4.46.46,0,0,1-.09.23.4.4,0,0,1-.31.14m-3.88.31a14.89,14.89,0,0,0-1.88.51.39.39,0,0,1-.49-.25.38.38,0,0,1,.24-.48,15.08,15.08,0,0,1,2-.53.38.38,0,0,1,.38.61.4.4,0,0,1-.22.14m-3.69,1.24a15.7,15.7,0,0,0-1.7.95.37.37,0,0,1-.53-.11.38.38,0,0,1,.11-.53,14.89,14.89,0,0,1,1.79-1,.38.38,0,0,1,.46.59.32.32,0,0,1-.13.1m-3.27,2.11a14.92,14.92,0,0,0-1.42,1.34.39.39,0,0,1-.54,0,.4.4,0,0,1,0-.55,17.89,17.89,0,0,1,1.49-1.4.37.37,0,0,1,.54,0,.37.37,0,0,1,0,.48l-.05.06m-4.22,4.64a.37.37,0,0,1-.15-.52,15.8,15.8,0,0,1,.94-1.51l.15-.22a.38.38,0,0,1,.54-.08.37.37,0,0,1,.08.53c0,.07-.09.14-.14.21a15.65,15.65,0,0,0-.9,1.44l0,.05a.38.38,0,0,1-.48.1"/></g></g><g class="u"><g class="y"><path class="t" d="M91.73,157.94a17.27,17.27,0,0,1-1.38,1.46.37.37,0,0,1-.54,0,.38.38,0,0,1,0-.54,15.85,15.85,0,0,0,1.32-1.4.38.38,0,0,1,.59.49h0m.66-1.51a.38.38,0,0,1-.11-.53,18.28,18.28,0,0,0,.94-1.67.38.38,0,1,1,.69.33,16.73,16.73,0,0,1-1,1.75l0,0a.39.39,0,0,1-.51.08m-3.58,4.26a18.87,18.87,0,0,1-1.7,1.09.39.39,0,0,1-.52-.15.38.38,0,0,1,.15-.52,17,17,0,0,0,1.61-1,.38.38,0,0,1,.54.08.41.41,0,0,1,0,.47l-.07.07m5.38-7.75a.38.38,0,0,1-.24-.48,17.57,17.57,0,0,0,.52-1.85.38.38,0,0,1,.45-.3.39.39,0,0,1,.3.46,17,17,0,0,1-.54,1.94.41.41,0,0,1-.07.11.37.37,0,0,1-.42.12m-8.89,9.71a17,17,0,0,1-1.9.65.38.38,0,0,1-.47-.27.38.38,0,0,1,.27-.47,16.8,16.8,0,0,0,1.81-.62.38.38,0,0,1,.5.21.39.39,0,0,1-.05.39.5.5,0,0,1-.16.11m-3.86,1.07a19.46,19.46,0,0,1-2,.17.37.37,0,0,1-.39-.37.39.39,0,0,1,.37-.4,15.22,15.22,0,0,0,1.91-.16.38.38,0,0,1,.44.32.44.44,0,0,1-.08.3.45.45,0,0,1-.24.14m-4,.1a15,15,0,0,1-2-.31.39.39,0,0,1-.29-.45.39.39,0,0,1,.46-.3,15.16,15.16,0,0,0,1.89.3.39.39,0,0,1,.35.42.4.4,0,0,1-.08.2.37.37,0,0,1-.34.14"/><path class="t" d="M95.43,149a.4.4,0,0,0,.09-.21c0-.33,0-.66,0-1a.39.39,0,0,0-.37-.4.4.4,0,0,0-.4.38c0,.31,0,.62,0,.93a.39.39,0,0,0,.35.42.4.4,0,0,0,.33-.14"/></g></g><path class="t" d="M90.8,143.31a.19.19,0,0,0-.17-.15l-2.34-.3a10.46,10.46,0,0,0-1.88-2.76l.58-2.3a.2.2,0,0,0-.08-.21L84.53,136a.18.18,0,0,0-.22,0l-1.87,1.44a10.41,10.41,0,0,0-3.29-.62l-1.21-2a.18.18,0,0,0-.2-.09l-2.78.58a.2.2,0,0,0-.16.16l-.3,2.35a10.16,10.16,0,0,0-2.76,1.88l-2.29-.58a.2.2,0,0,0-.21.08l-1.56,2.37a.21.21,0,0,0,0,.23l1.45,1.87a10.4,10.4,0,0,0-.62,3.28l-2,1.21a.21.21,0,0,0-.09.21l.58,2.78a.2.2,0,0,0,.17.15l2.35.3a10.19,10.19,0,0,0,1.87,2.76l-.58,2.29a.21.21,0,0,0,.08.21l2.38,1.56a.18.18,0,0,0,.22,0L75.33,157a10.41,10.41,0,0,0,3.29.62l1.21,2a.18.18,0,0,0,.2.09l2.78-.58A.19.19,0,0,0,83,159l.3-2.35A10.63,10.63,0,0,0,86,154.76l2.29.58a.19.19,0,0,0,.21-.08l1.56-2.37a.21.21,0,0,0,0-.23l-1.45-1.87a10.13,10.13,0,0,0,.62-3.28l2-1.21a.22.22,0,0,0,.09-.21Z"/><path class="l" d="M80.85,149.38a2.91,2.91,0,0,1-2.09.76,2.86,2.86,0,0,1-2-.93,2.91,2.91,0,1,1,4.4-.15,2.27,2.27,0,0,1-.3.32m-3.54-.7a2.09,2.09,0,0,0,1.49.69,2.07,2.07,0,0,0,1.53-.56,2.09,2.09,0,0,0,.69-1.48,2.13,2.13,0,0,0-3.58-1.66,1.15,1.15,0,0,0-.21.23,2.13,2.13,0,0,0,.08,2.78"/><path class="l" d="M84.44,151.81c.15-.19.3-.39.44-.6a7.27,7.27,0,0,0,.67-1.3l0-.07a.37.37,0,0,0-.12-.43.21.21,0,0,0-.1-.06.38.38,0,0,0-.5.22,5.64,5.64,0,0,1-.63,1.22l0,.07A6.35,6.35,0,0,1,81.84,153a6.56,6.56,0,0,1-1.64.6h-.06a6.41,6.41,0,0,1-4.86-.93,5.3,5.3,0,0,1-.54-.39,6.48,6.48,0,0,1-1.32-8.56,6.47,6.47,0,0,1,9-1.86,6.55,6.55,0,0,1,.53.39,6.37,6.37,0,0,1,1.75,2.2.41.41,0,0,0,.1.13.39.39,0,0,0,.59-.47,7.29,7.29,0,0,0-2-2.46,6.51,6.51,0,0,0-.6-.43,7.23,7.23,0,0,0-8.53,11.66c.19.15.39.3.6.44a7.25,7.25,0,0,0,9.58-1.49"/></g><g class="z"><rect class="aa" x="44.78" y="329.12" width="14.63" height="14.97" transform="translate(-229.14 144.46) rotate(-46.86)"/></g><g class="ab"><rect class="ac" x="45.14" y="331.7" width="4.12" height="3.53" transform="translate(-286.7 377.49) rotate(-89.46)"/></g><g class="ad"><rect class="ae" x="15.46" y="280.07" width="55.13" height="45.48" transform="translate(-224.8 155.1) rotate(-53.04)"/></g><g class="af"><rect class="ag" x="30.71" y="333.07" width="8.12" height="8.13" transform="translate(-235.01 131.99) rotate(-46.86)"/></g><g class="ah"><rect class="ai" x="31.8" y="331.51" width="4.95" height="3.04" transform="translate(-299.06 364.14) rotate(-89.46)"/></g><g class="aj"><rect class="ak" x="9.91" y="282.12" width="54.6" height="47.54" transform="translate(-229.57 151.68) rotate(-53.04)"/></g><g class="e"><path class="o" d="M51.28,245.27a87.63,87.63,0,0,0-19.57,2.25c-2.93,16.14-.82,34.81-.82,34.81,7.18,2,15.32-1,15.32-1,1.26-6.74,7-25.71,7-25.71a30.68,30.68,0,0,0,11.4-3.49,20,20,0,0,1-3.86-8.28,31.32,31.32,0,0,1-9.49,1.43"/></g><g class="al"><rect class="am" x="59.24" y="232.47" width="21.16" height="18.29" transform="translate(-172.45 309.14) rotate(-89.46)"/></g><g class="an"><rect class="ao" x="73.72" y="222.36" width="12.42" height="10.39" transform="translate(-160.37 206.88) rotate(-65.73)"/></g><g class="ap"><rect class="aq" x="76.75" y="226.33" width="5.1" height="4.64" transform="translate(-155.05 168.23) rotate(-56.42)"/></g><g class="e"><path class="o" d="M35.18,256.56l-3.47-9S23,253.34,21.47,260.81A20.47,20.47,0,0,1,29,262.9c.67-3.53,6.18-6.34,6.18-6.34"/></g><g class="ar"><rect class="as" x="23.54" y="258.09" width="17.9" height="23.11" transform="translate(-237.45 299.57) rotate(-89.46)"/></g><g class="at"><rect class="au" x="36.57" y="236.48" width="13.65" height="12.98" transform="translate(-192.47 170.28) rotate(-62.74)"/></g><g class="av"><rect class="aw" x="38.69" y="227.8" width="15.11" height="15.02" transform="translate(-177.93 150.13) rotate(-58.08)"/></g><g class="ax"><rect class="ay" x="33.47" y="221.96" width="19.82" height="19.84" transform="translate(-164.42 120.22) rotate(-51.15)"/></g><g class="az"><rect class="ba" x="40.87" y="234.09" width="3.89" height="4.17" transform="translate(-180.28 147.62) rotate(-58.08)"/></g><g class="bb"><rect class="bc" x="38.48" y="250.88" width="28.87" height="26.18" transform="translate(-60.14 19.64) rotate(-13.5)"/></g><g class="bd"><rect class="be" x="41.23" y="262.8" width="7.34" height="6.53"/></g><g class="e"><path class="t" d="M53.14,259.48a1.57,1.57,0,1,0,1.56-1.56,1.56,1.56,0,0,0-1.56,1.56"/><path class="l" d="M46.63,260.52l1.09-3.69a1.26,1.26,0,0,1,1-.89c3.4-.71,12.73-.86,12.82-.86v-.42c-.39,0-9.46.16-12.91.88a1.65,1.65,0,0,0-1.26,1.17l-1.09,3.69Z"/><rect class="bf" x="169.39" y="306.27" width="2.56" height="27.67"/><path class="bf" d="M181.87,334.47H159.46a1.66,1.66,0,0,1,1.67-1.66h19.08a1.66,1.66,0,0,1,1.66,1.66"/><rect class="bf" x="156.17" y="299.68" width="29.95" height="8.49" rx="2.92"/></g><g class="bg"><rect class="bh" x="138.91" y="323.5" width="13.69" height="10.71" transform="translate(-77.56 46.86) rotate(-14.47)"/></g><g class="bi"><rect class="bj" x="145.56" y="321.48" width="5.82" height="5.04" transform="translate(-199.96 398.95) rotate(-77.52)"/></g><g class="bk"><rect class="bl" x="133.17" y="288.53" width="41.03" height="39.9" transform="translate(-108.42 84.7) rotate(-23.03)"/></g><g class="bm"><rect class="bn" x="138.11" y="326.3" width="14.13" height="10.86" transform="translate(-126.28 92.08) rotate(-24.93)"/></g><g class="bo"><rect class="bp" x="140.96" y="326.55" width="6.8" height="13.85" transform="translate(-212.43 402.36) rotate(-77.52)"/></g><g class="bq"><rect class="br" x="147.89" y="325.63" width="5.79" height="5.75" transform="translate(-202.54 404.74) rotate(-77.52)"/></g><g class="bs"><rect class="bt" x="145.5" y="289.88" width="42.63" height="41.59" transform="translate(-169.61 416.35) rotate(-79.2)"/></g><g class="bu"><rect class="bv" x="142.27" y="264.47" width="25.49" height="25.9" transform="translate(-137.5 153.23) rotate(-37.8)"/></g><g class="bw"><rect class="bx" x="133.82" y="272.99" width="12.75" height="16.65" transform="translate(-164.77 357.42) rotate(-77.52)"/></g><g class="by"><rect class="bz" x="147.13" y="254.51" width="46.75" height="48.56" transform="translate(-121.06 131.19) rotate(-31.7)"/></g><g class="ca"><rect class="cb" x="159.09" y="254.6" width="11.31" height="10.71" transform="translate(-124.67 364.63) rotate(-77.52)"/></g><g class="cc"><rect class="cd" x="172.76" y="258.01" width="30.68" height="32.36" transform="translate(-116.02 139.75) rotate(-31.7)"/></g><g class="ce"><rect class="cf" x="165.87" y="274.32" width="26.94" height="23.11" transform="translate(-132.74 157.45) rotate(-35.53)"/></g><g class="cg"><rect class="ch" x="154.12" y="245.07" width="16.69" height="15.66" transform="translate(-118.75 359.07) rotate(-77.97)"/></g><g class="ci"><rect class="cj" x="156.81" y="239.42" width="18.58" height="18.75" transform="translate(-122.31 169.39) rotate(-40.88)"/></g><g class="ck"><rect class="cl" x="164.86" y="253.92" width="5.17" height="5.25" transform="translate(-102.34 401.68) rotate(-85.15)"/></g><g class="cm"><rect class="cn" x="136.3" y="282.3" width="25.29" height="10.12" transform="translate(-82.14 60.73) rotate(-18.16)"/></g><g class="co"><rect class="cp" x="111.31" y="257.78" width="39.22" height="39.72" transform="matrix(0.69, -0.73, 0.73, 0.69, -160.73, 181.93)"/></g><g class="e"><path class="t" d="M129.63,276.8c.43,1.33.11,2.63-.71,2.89s-1.83-.6-2.26-1.93-.11-2.63.71-2.89,1.83.6,2.26,1.93"/><path class="t" d="M118.89,339.45a1.14,1.14,0,0,1-.4-.08,1,1,0,0,1-.52-1.27l21-47.17a1,1,0,0,1,1.31-.51,1,1,0,0,1,.53,1.27l-21,47.17a1,1,0,0,1-.92.59"/><path class="t" d="M142.5,339.45a1,1,0,0,1-.92-.59l-21-47.17a1,1,0,0,1,.52-1.27,1,1,0,0,1,1.32.51l21,47.17a1,1,0,0,1-.53,1.27,1,1,0,0,1-.39.08"/><path class="t" d="M183.77,339.45a1.1,1.1,0,0,1-.4-.08,1,1,0,0,1-.52-1.27l21-47.17a1,1,0,0,1,1.31-.51,1,1,0,0,1,.52,1.27l-21,47.17a1,1,0,0,1-.91.59"/><path class="t" d="M207.38,339.45a1,1,0,0,1-.92-.59l-21-47.17a1,1,0,0,1,.52-1.27,1,1,0,0,1,1.31.51l21,47.17a1,1,0,0,1-.52,1.27,1.09,1.09,0,0,1-.39.08"/><path class="t" d="M209.83,289.47a1.11,1.11,0,0,0-.19-.87.9.9,0,0,0-.73-.39H113.56a1,1,0,0,0-.91.56,1.37,1.37,0,0,0-.08,1.17l1,2.5a1.44,1.44,0,0,0,1.31.94h93.33a1.13,1.13,0,0,0,1.08-1Z"/></g></g></g><g class="cq"><g class="cq"><g class="cr"><rect class="cs" x="228.25" y="99.52" width="283.83" height="281.2" transform="translate(-70.66 258.88) rotate(-35.41)"/></g></g></g></svg>