<?xml version="1.0" encoding="utf-8"?>
<!-- Generator: Adobe Illustrator 23.0.1, SVG Export Plug-In . SVG Version: 6.00 Build 0)  -->
<svg version="1.1" id="Calque_1" xmlns="http://www.w3.org/2000/svg" xmlns:xlink="http://www.w3.org/1999/xlink" x="0px" y="0px"
	 viewBox="0 0 267.9 171.8" style="enable-background:new 0 0 267.9 171.8;" xml:space="preserve">
<style type="text/css">
	.st0{clip-path:url(#SVGID_2_);}
	.st1{fill:url(#SVGID_3_);}
	.st2{clip-path:url(#SVGID_5_);}
	.st3{fill:#B0C6E7;}
	.st4{fill:#86A9D9;}
	.st5{fill:#768EC8;}
	.st6{clip-path:url(#SVGID_7_);}
	.st7{fill:#FFFFFF;}
	.st8{clip-path:url(#SVGID_9_);}
	.st9{clip-path:url(#SVGID_11_);}
	.st10{fill:url(#SVGID_12_);}
	.st11{clip-path:url(#SVGID_14_);}
	.st12{fill:url(#SVGID_15_);}
	.st13{clip-path:url(#SVGID_17_);}
	.st14{clip-path:url(#SVGID_19_);}
	.st15{fill:url(#SVGID_20_);}
	.st16{clip-path:url(#SVGID_22_);}
	.st17{fill:url(#SVGID_23_);}
	.st18{clip-path:url(#SVGID_25_);}
	.st19{fill:url(#SVGID_26_);}
	.st20{clip-path:url(#SVGID_28_);}
	.st21{fill:url(#SVGID_29_);}
	.st22{clip-path:url(#SVGID_31_);}
	.st23{fill:url(#SVGID_32_);}
	.st24{clip-path:url(#SVGID_34_);}
	.st25{fill:url(#SVGID_35_);}
	.st26{clip-path:url(#SVGID_37_);}
	.st27{fill:url(#SVGID_38_);}
	.st28{clip-path:url(#SVGID_40_);}
	.st29{fill:url(#SVGID_41_);}
	.st30{clip-path:url(#SVGID_43_);}
	.st31{fill:url(#SVGID_44_);}
	.st32{clip-path:url(#SVGID_46_);}
	.st33{fill:url(#SVGID_47_);}
	.st34{clip-path:url(#SVGID_49_);}
	.st35{fill:url(#SVGID_50_);}
	.st36{clip-path:url(#SVGID_52_);}
	.st37{fill:url(#SVGID_53_);}
	.st38{clip-path:url(#SVGID_55_);}
	.st39{fill:#13170F;}
	.st40{clip-path:url(#SVGID_57_);}
	.st41{fill:url(#SVGID_58_);}
	.st42{clip-path:url(#SVGID_60_);}
	.st43{clip-path:url(#SVGID_62_);}
	.st44{fill:url(#SVGID_63_);}
	.st45{clip-path:url(#SVGID_65_);}
	.st46{fill:url(#SVGID_66_);}
	.st47{clip-path:url(#SVGID_68_);}
	.st48{fill:url(#SVGID_69_);}
	.st49{clip-path:url(#SVGID_71_);}
	.st50{fill:url(#SVGID_72_);}
	.st51{clip-path:url(#SVGID_74_);}
	.st52{clip-path:url(#SVGID_76_);}
	.st53{fill:url(#SVGID_77_);}
	.st54{clip-path:url(#SVGID_79_);}
	.st55{fill:url(#SVGID_80_);}
	.st56{clip-path:url(#SVGID_82_);}
	.st57{fill:url(#SVGID_83_);}
	.st58{clip-path:url(#SVGID_85_);}
	.st59{fill:url(#SVGID_86_);}
	.st60{clip-path:url(#SVGID_88_);}
	.st61{fill:url(#SVGID_89_);}
	.st62{clip-path:url(#SVGID_91_);}
	.st63{fill:url(#SVGID_92_);}
	.st64{clip-path:url(#SVGID_94_);}
	.st65{fill:url(#SVGID_95_);}
	.st66{clip-path:url(#SVGID_97_);}
	.st67{clip-path:url(#SVGID_99_);}
	.st68{fill:url(#SVGID_100_);}
	.st69{clip-path:url(#SVGID_102_);}
	.st70{fill:url(#SVGID_103_);}
	.st71{clip-path:url(#SVGID_105_);}
	.st72{fill:url(#SVGID_106_);}
	.st73{clip-path:url(#SVGID_108_);}
	.st74{fill:url(#SVGID_109_);}
	.st75{clip-path:url(#SVGID_111_);}
	.st76{clip-path:url(#SVGID_113_);}
	.st77{fill:url(#SVGID_114_);}
	.st78{clip-path:url(#SVGID_116_);}
	.st79{clip-path:url(#SVGID_118_);}
	.st80{fill:url(#SVGID_119_);}
	.st81{clip-path:url(#SVGID_121_);}
	.st82{fill:url(#SVGID_122_);}
	.st83{clip-path:url(#SVGID_124_);}
	.st84{clip-path:url(#SVGID_126_);}
	.st85{fill:url(#SVGID_127_);}
	.st86{clip-path:url(#SVGID_129_);}
	.st87{fill:url(#SVGID_130_);}
	.st88{clip-path:url(#SVGID_132_);}
	.st89{fill:url(#SVGID_133_);}
	.st90{clip-path:url(#SVGID_135_);}
	.st91{fill:url(#SVGID_136_);}
	.st92{clip-path:url(#SVGID_138_);}
	.st93{fill:url(#SVGID_139_);}
	.st94{clip-path:url(#SVGID_141_);}
	.st95{fill:url(#SVGID_142_);}
	.st96{clip-path:url(#SVGID_144_);}
	.st97{fill:url(#SVGID_145_);}
	.st98{clip-path:url(#SVGID_147_);}
	.st99{clip-path:url(#SVGID_149_);}
	.st100{clip-path:url(#SVGID_151_);}
	.st101{fill:url(#SVGID_152_);}
	.st102{clip-path:url(#SVGID_154_);}
	.st103{fill:url(#SVGID_155_);}
	.st104{clip-path:url(#SVGID_157_);}
	.st105{fill:url(#SVGID_158_);}
	.st106{clip-path:url(#SVGID_160_);}
	.st107{fill:url(#SVGID_161_);}
</style>
<title>home-banner</title>
<g>
	<defs>
		<path id="SVGID_1_" d="M172.7,8.9c-5.3,1.9-10.1,4.6-15.2,6.9c-8.1,3.7-16.5,6.6-25.2,8.5c-7.9,1.8-17.7,4-25.7,2.3
			c-6.2-1.4-12.3-3.3-18.2-5.6c-13.1-5-26.8-10.5-40.6-8.1c-15.3,2.6-28.2,16-30.2,31.3s15,27.5,0.5,45.8
			c-4.5,5.7-7.5,13.7-5.5,20.7c2,6.8,10.2,11.1,10.3,18.2c0,5.6-5.2,10-5.7,15.6c-0.4,4.8,3.1,9.2,7.3,11.5s9.2,2.8,14,3.3
			c0,0,46.9,3.2,71.1,2.7l114.3-2.3c3.9-0.1,7.9-0.2,11.6-1.6s6.9-4.5,7.5-8.3c0.9-6.6-6-12.3-5.3-18.9c0.8-8.5,12.8-11.7,15-19.9
			c1.6-5.8-2.3-11.6-6.5-15.9s-9-8.5-10.3-14.4c-2.3-10.4,7.8-18.5,8.8-28.5l0.6-5.5c0.8-7.7,1-15.2-3-22.3
			c-3.4-6-9.4-10.8-16.2-13.9c-8.7-4-18.6-5.3-28.4-5.4h-0.3C189.1,5.1,180.5,6.1,172.7,8.9"/>
	</defs>
	<clipPath id="SVGID_2_">
		<use xlink:href="#SVGID_1_"  style="overflow:visible;"/>
	</clipPath>
	<g class="st0">
		
			<linearGradient id="SVGID_3_" gradientUnits="userSpaceOnUse" x1="-687.2069" y1="-29.4771" x2="-686.2069" y2="-29.4771" gradientTransform="matrix(241.22 0 0 241.22 165777.0156 7194.272)">
			<stop  offset="0" style="stop-color:#CFDAEF"/>
			<stop  offset="1" style="stop-color:#E1E8F6"/>
		</linearGradient>
		<rect x="10.6" y="5.1" class="st1" width="243.8" height="157.4"/>
	</g>
</g>
<g>
	<defs>
		<rect id="SVGID_4_" x="-460.1" y="-5.4" width="728" height="243"/>
	</defs>
	<clipPath id="SVGID_5_">
		<use xlink:href="#SVGID_4_"  style="overflow:visible;"/>
	</clipPath>
	<g class="st2">
		<path class="st3" d="M14.4,75.3c0.5,11.4,5.3,77.4,54.5,77c0,0,5.5-45.5-53.4-78C15,74,14.3,74.6,14.4,75.3"/>
		<path class="st4" d="M20.4,83.4c0,0,0.4,1.2,1.2,3.3c0.4,1,0.9,2.3,1.5,3.8s1.3,3,2,4.8s1.6,3.7,2.5,5.6s1.9,4.1,3,6.2
			s2.2,4.3,3.4,6.5c0.6,1.1,1.2,2.2,1.9,3.3s1.3,2.2,2,3.3s1.3,2.2,2,3.2c0.3,0.5,0.7,1.1,1,1.6s0.7,1,1.1,1.6s0.7,1,1.1,1.5
			c0.4,0.5,0.7,1,1.1,1.5c0.7,1,1.5,2,2.2,2.9c1.5,1.9,3,3.6,4.4,5.3c0.3,0.4,0.7,0.8,1.1,1.2L53,140c0.3,0.4,0.7,0.7,1.1,1.1l1,1
			l0.5,0.5l0.5,0.4l1,0.9c0.3,0.3,0.6,0.6,1,0.8l0.9,0.7l0.9,0.7l0.4,0.3l0.4,0.3l1.5,1c0.4,0.3,0.8,0.5,1.3,0.8l0.9,0.5l0.8,0.5
			l0,0c0.3,0.1,0.5,0.5,0.3,0.8c-0.1,0.3-0.5,0.5-0.8,0.3c-0.1,0-0.1-0.1-0.2-0.1l0,0l-0.8-0.5l-1-0.6c-0.4-0.2-0.9-0.5-1.3-0.8
			l-1.5-1.1l-0.4-0.3l-0.4-0.3l-0.9-0.7l-1-0.8c-0.3-0.3-0.6-0.6-1-0.9l-1-0.9l-0.5-0.5l-0.5-0.5l-1.1-1c-0.4-0.4-0.7-0.7-1.1-1.1
			s-0.7-0.8-1.1-1.2s-0.8-0.8-1.1-1.2c-1.5-1.6-3-3.4-4.4-5.4c-0.7-1-1.5-1.9-2.2-2.9c-0.3-0.5-0.7-1-1.1-1.5s-0.7-1-1-1.6l-1.1-1.6
			l-1-1.6c-0.7-1.1-1.3-2.2-2-3.3s-1.3-2.2-1.9-3.3s-1.2-2.2-1.8-3.3c-1.2-2.2-2.3-4.4-3.4-6.6s-2-4.3-3-6.3s-1.7-3.9-2.5-5.7
			c-2.9-7-4.5-11.8-4.5-11.8c0-0.1,0-0.3,0.2-0.3C20.3,83.2,20.4,83.2,20.4,83.4"/>
		<path class="st4" d="M48.7,10.7c0.4-1.1,1.5-0.7,2.2,0.2c43,50.3,48.1,129.9,30.7,149C81.7,159.9,4.1,134.6,48.7,10.7"/>
		<path class="st3" d="M49.2,26.9v0.4c0,0.2,0,0.6,0,1c0,0.9,0.1,2.2,0.2,3.9s0.3,3.7,0.5,6.1s0.5,5,0.8,7.9s0.7,6,1.1,9.3
			s0.9,6.8,1.5,10.4c0.5,3.6,1.2,7.3,1.9,11c0.2,0.9,0.3,1.9,0.5,2.8s0.4,1.9,0.6,2.8c0.4,1.9,0.8,3.8,1.2,5.7s0.9,3.8,1.3,5.6
			s0.9,3.7,1.4,5.6s1,3.7,1.5,5.5c0.3,0.9,0.5,1.8,0.8,2.7c0.1,0.4,0.3,0.9,0.4,1.3s0.3,0.9,0.4,1.3c0.3,0.9,0.5,1.7,0.8,2.6
			c0.1,0.4,0.3,0.8,0.4,1.3l0.4,1.3c0.6,1.7,1.1,3.3,1.7,4.8c0.3,0.8,0.6,1.5,0.8,2.3c0.1,0.4,0.3,0.8,0.4,1.1s0.3,0.7,0.4,1.1
			c0.6,1.4,1.1,2.9,1.7,4.2s1.1,2.6,1.7,3.8s1.1,2.3,1.6,3.4l0.7,1.6l0.7,1.4l1.3,2.5c0.4,0.8,0.8,1.4,1.1,2l0.8,1.5l0.7,1.2l0,0
			c0,0.1,0,0.2-0.1,0.2c-0.1,0-0.1,0-0.2,0l-0.7-1.2c-0.5-0.8-1.2-1.9-2-3.4l-1.2-2.4l-0.8-1.4l-0.8-1.5c-0.5-1.1-1.1-2.2-1.6-3.4
			l-1.7-3.8c-0.6-1.3-1.1-2.8-1.7-4.2c-0.1-0.4-0.3-0.7-0.4-1.1s-0.3-0.8-0.4-1.1c-0.3-0.8-0.6-1.5-0.9-2.3
			c-1.2-3.1-2.3-6.5-3.4-9.9c-0.1-0.4-0.3-0.9-0.4-1.3l-0.4-1.3l-0.8-2.7c-0.5-1.8-1-3.6-1.5-5.5s-0.9-3.7-1.4-5.6l-0.7-2.8
			c-0.2-1-0.4-1.9-0.6-2.8c-0.4-1.9-0.8-3.8-1.2-5.7c-0.2-1-0.4-1.9-0.6-2.8s-0.3-1.9-0.5-2.8c-0.7-3.8-1.3-7.5-1.8-11.1
			s-1-7.1-1.4-10.4s-0.7-6.4-1-9.3c-0.5-5.8-0.8-10.6-1-14c-0.1-1.7-0.1-3-0.1-3.9c0-0.5,0-0.8,0-1s0-0.4,0-0.4
			c0-0.1,0.1-0.1,0.1-0.1c0,0,0,0,0,0C49.1,26.8,49.2,26.9,49.2,26.9L49.2,26.9z"/>
		<path class="st5" d="M233.9,154.4c0.1-0.6,0-1.1-0.4-1.6c-0.3-0.4-0.8-0.7-1.3-0.7H57.6c-0.7,0-1.3,0.4-1.7,1
			c-0.4,0.7-0.4,1.4-0.1,2.1l1.9,4.6c0.4,1,1.3,1.7,2.4,1.7h171c1,0,1.9-0.8,2-1.8L233.9,154.4z"/>
		<path class="st4" d="M128.1,114.9h0.8c0.2,0,0.3,0.2,0.2,0.3c0,0.1-0.1,0.2-0.2,0.2l0,0h-0.8l0,0c-0.1,0-0.3-0.1-0.3-0.2
			c0,0,0,0,0,0C127.8,115,127.9,114.9,128.1,114.9"/>
		<path class="st4" d="M130.7,114.8h0.8c0.2,0,0.3,0.1,0.3,0.3c0,0,0,0,0,0c0,0.2-0.2,0.3-0.3,0.3c0,0,0,0,0,0l0,0h-0.8l0,0
			c-0.2,0-0.3-0.1-0.4-0.2s0.1-0.3,0.2-0.4C130.6,114.8,130.7,114.8,130.7,114.8"/>
		<path class="st4" d="M133.4,115l0.8,0.1c0.2,0,0.4,0.1,0.4,0.3c0,0.2-0.1,0.4-0.3,0.4c0,0-0.1,0-0.1,0l0,0l-0.8-0.1l0,0
			c-0.2,0-0.3-0.2-0.3-0.4c0,0,0,0,0,0C133,115.1,133.2,115,133.4,115"/>
		<path class="st4" d="M136,115.3l0.8,0.2c0.2,0,0.3,0.2,0.3,0.4c0,0.2-0.2,0.3-0.4,0.3l0,0l-0.8-0.2l0,0c-0.2,0-0.3-0.2-0.3-0.4
			C135.6,115.5,135.8,115.3,136,115.3L136,115.3"/>
		<path class="st4" d="M138.6,115.9l0.8,0.2c0.2,0.1,0.3,0.3,0.3,0.5c-0.1,0.2-0.3,0.3-0.5,0.3l0,0l-0.8-0.2l0,0
			c-0.2-0.1-0.3-0.3-0.3-0.5C138.2,116,138.4,115.8,138.6,115.9"/>
		<path class="st4" d="M141.1,116.6l0.8,0.2c0.2,0.1,0.4,0.3,0.3,0.5c0,0,0,0,0,0c-0.1,0.2-0.3,0.4-0.6,0.3l0,0l-0.7-0.3l0,0
			c-0.2-0.1-0.3-0.4-0.2-0.6C140.8,116.7,141,116.6,141.1,116.6"/>
		<path class="st4" d="M143.6,117.5l0.7,0.3c0.2,0.1,0.4,0.4,0.3,0.6c0,0,0,0,0,0c-0.1,0.2-0.3,0.4-0.6,0.3c0,0,0,0,0,0l0,0
			l-0.7-0.3l0,0c-0.2-0.1-0.3-0.4-0.3-0.6C143.2,117.5,143.4,117.4,143.6,117.5C143.7,117.5,143.7,117.5,143.6,117.5"/>
		<path class="st4" d="M146.1,118.4l0.7,0.3c0.2,0.1,0.4,0.4,0.3,0.7c-0.1,0.2-0.4,0.4-0.6,0.3l0,0l-0.7-0.3l0,0
			c-0.2-0.1-0.4-0.4-0.3-0.6c0,0,0,0,0,0C145.6,118.4,145.9,118.3,146.1,118.4"/>
		<path class="st4" d="M148.5,119.5l0.7,0.3c0.2,0.1,0.3,0.5,0.2,0.7c-0.1,0.2-0.4,0.3-0.6,0.2l0,0l-0.7-0.3l0,0
			c-0.2-0.1-0.4-0.4-0.2-0.7c0,0,0,0,0,0C148,119.5,148.3,119.4,148.5,119.5"/>
		<path class="st4" d="M150.9,120.7l0.7,0.4c0.3,0.1,0.4,0.4,0.2,0.7c-0.1,0.3-0.4,0.4-0.7,0.2l0,0l-0.7-0.4l0,0
			c-0.2-0.1-0.3-0.5-0.2-0.7C150.4,120.7,150.7,120.6,150.9,120.7"/>
		<path class="st4" d="M153.2,121.9l0.7,0.4c0.3,0.1,0.4,0.5,0.2,0.8c-0.1,0.3-0.5,0.4-0.8,0.2l0,0l-0.7-0.4l0,0
			c-0.2-0.2-0.3-0.5-0.1-0.8C152.7,121.9,153,121.9,153.2,121.9"/>
		<path class="st4" d="M155.5,123.2l0.7,0.4c0.3,0.1,0.4,0.5,0.2,0.7c0,0,0,0,0,0c-0.1,0.3-0.5,0.4-0.8,0.2l0,0l-0.7-0.4l0,0
			c-0.3-0.1-0.4-0.5-0.2-0.7c0,0,0,0,0,0C154.9,123.1,155.3,123.1,155.5,123.2"/>
		<path class="st4" d="M157.8,124.5l0.7,0.4c0.3,0.1,0.4,0.5,0.3,0.8c-0.1,0.3-0.5,0.4-0.8,0.3c0,0-0.1,0-0.1,0l0,0l-0.7-0.4
			c-0.3-0.2-0.3-0.5-0.1-0.8C157.3,124.4,157.6,124.4,157.8,124.5"/>
		<path class="st4" d="M160.1,125.8l0.7,0.4c0.3,0.2,0.4,0.5,0.2,0.8c0,0,0,0,0,0c-0.2,0.3-0.5,0.4-0.8,0.2l0,0l-0.7-0.4
			c-0.3-0.2-0.4-0.5-0.2-0.8C159.5,125.7,159.8,125.7,160.1,125.8C160.1,125.8,160.1,125.8,160.1,125.8"/>
		<path class="st4" d="M162.4,127.2l0.7,0.4c0.3,0.2,0.4,0.5,0.2,0.8c0,0,0,0,0,0c-0.2,0.3-0.5,0.4-0.8,0.2c0,0,0,0,0,0l0,0
			l-0.7-0.4c-0.3-0.2-0.4-0.5-0.2-0.8C161.7,127.1,162.1,127,162.4,127.2"/>
		<path class="st4" d="M164.6,128.5l0.7,0.4c0.3,0.2,0.4,0.6,0.2,0.9s-0.6,0.4-0.9,0.2l0,0l-0.7-0.4c-0.3-0.2-0.4-0.5-0.2-0.8
			c0,0,0,0,0,0C164,128.4,164.3,128.3,164.6,128.5"/>
		<path class="st4" d="M166.9,129.8l0.7,0.4l0,0c0.3,0.2,0.4,0.5,0.2,0.8c0,0,0,0,0,0c-0.2,0.3-0.5,0.4-0.8,0.2c0,0,0,0,0,0l0,0
			l-0.7-0.4c-0.3-0.2-0.3-0.6-0.1-0.9C166.3,129.8,166.6,129.7,166.9,129.8"/>
		<path class="st4" d="M169.2,131.1l0.7,0.4l0,0c0.3,0.2,0.4,0.6,0.3,0.9s-0.6,0.4-0.9,0.3l0,0l0,0l-0.7-0.4
			c-0.3-0.2-0.4-0.5-0.3-0.8c0,0,0,0,0,0C168.5,131,168.9,130.9,169.2,131.1"/>
		<path class="st4" d="M171.5,132.3l0.7,0.4l0,0c0.3,0.2,0.4,0.5,0.3,0.8c0,0,0,0,0,0c-0.2,0.3-0.5,0.4-0.9,0.3l0,0l-0.7-0.4
			c-0.3-0.2-0.4-0.6-0.2-0.9C170.8,132.3,171.2,132.2,171.5,132.3L171.5,132.3z"/>
		<path class="st4" d="M173.8,133.5l0.7,0.3l0,0c0.3,0.1,0.6,0.4,0.5,0.8c-0.1,0.3-0.4,0.6-0.8,0.5c-0.1,0-0.1,0-0.2-0.1l0,0
			l-0.7-0.4c-0.3-0.2-0.5-0.5-0.3-0.9C173.1,133.5,173.5,133.3,173.8,133.5L173.8,133.5z"/>
		<path class="st4" d="M176.2,134.6l0.7,0.3l0,0c0.3,0.1,0.5,0.5,0.3,0.8c0,0,0,0,0,0c-0.1,0.3-0.5,0.5-0.9,0.3l0,0l-0.7-0.3
			c-0.3-0.2-0.5-0.5-0.3-0.9C175.5,134.6,175.8,134.5,176.2,134.6L176.2,134.6z"/>
		<path class="st4" d="M178.6,135.6l0.7,0.3l0,0c0.3,0.1,0.5,0.5,0.4,0.9c-0.1,0.3-0.5,0.5-0.8,0.4c0,0,0,0,0,0l0,0l-0.7-0.3
			c-0.4-0.1-0.6-0.5-0.5-0.8c0.1-0.4,0.5-0.6,0.8-0.5C178.4,135.6,178.5,135.6,178.6,135.6L178.6,135.6z"/>
		<path class="st4" d="M181,136.5l0.7,0.3l0,0c0.3,0.1,0.5,0.5,0.4,0.8c0,0,0,0,0,0c-0.1,0.3-0.5,0.5-0.8,0.4l0,0l-0.8-0.3
			c-0.3-0.1-0.5-0.5-0.4-0.9C180.3,136.6,180.7,136.4,181,136.5L181,136.5z"/>
		<path class="st4" d="M183.5,137.4l0.7,0.2l0,0c0.3,0.1,0.5,0.5,0.4,0.9c-0.1,0.3-0.5,0.5-0.8,0.4l0,0l-0.8-0.2
			c-0.3-0.2-0.5-0.5-0.3-0.9C182.8,137.5,183.1,137.3,183.5,137.4L183.5,137.4z"/>
		<path class="st4" d="M186,138.1l0.8,0.2l0,0c0.4,0.1,0.6,0.5,0.5,0.8c-0.1,0.4-0.5,0.6-0.8,0.5l0,0l0,0l-0.8-0.2
			c-0.4-0.1-0.6-0.5-0.5-0.8C185.3,138.2,185.6,138,186,138.1C186,138.1,186,138.1,186,138.1z"/>
		<path class="st4" d="M188.5,138.7l0.8,0.2l0,0c0.4,0.1,0.6,0.4,0.5,0.8c0,0,0,0,0,0c-0.1,0.4-0.4,0.6-0.8,0.5c0,0,0,0,0,0
			l-0.8-0.2c-0.4-0.1-0.6-0.4-0.5-0.8C187.7,138.9,188.1,138.6,188.5,138.7L188.5,138.7z"/>
		<path class="st4" d="M191,139.3l0.8,0.1l0,0c0.4,0.1,0.6,0.4,0.5,0.7c0,0,0,0,0,0c-0.1,0.4-0.4,0.6-0.8,0.5l-0.8-0.1
			c-0.4-0.1-0.6-0.4-0.5-0.8C190.3,139.4,190.6,139.2,191,139.3L191,139.3L191,139.3L191,139.3z"/>
		<path class="st4" d="M193.6,139.7l0.8,0.1l0,0c0.4,0.1,0.6,0.5,0.5,0.8c-0.1,0.3-0.3,0.5-0.7,0.5l-0.8-0.1c-0.4,0-0.6-0.4-0.6-0.7
			C192.9,139.9,193.2,139.6,193.6,139.7L193.6,139.7L193.6,139.7z"/>
		<path class="st4" d="M196.2,140l0.8,0.1l0,0c0.4,0,0.6,0.4,0.6,0.7s-0.4,0.6-0.7,0.6l0,0l-0.8-0.1c-0.4,0-0.6-0.3-0.6-0.7
			c0,0,0,0,0,0C195.5,140.2,195.8,140,196.2,140L196.2,140L196.2,140z"/>
		<path class="st4" d="M198.8,140.2h0.8l0,0c0.4,0,0.6,0.3,0.6,0.7c0,0.4-0.3,0.6-0.7,0.6h-0.8c-0.4,0-0.6-0.3-0.6-0.7c0,0,0,0,0,0
			C198.1,140.4,198.4,140.1,198.8,140.2L198.8,140.2L198.8,140.2z"/>
		<path class="st4" d="M201.3,140.2h0.8c0.4,0,0.6,0.3,0.6,0.7c0,0.4-0.3,0.6-0.6,0.6h-0.8c-0.4,0-0.6-0.3-0.7-0.6
			C200.7,140.5,200.9,140.3,201.3,140.2C201.3,140.2,201.3,140.2,201.3,140.2L201.3,140.2L201.3,140.2z"/>
		<path class="st4" d="M203.9,140.2h0.8l0,0c0.4,0,0.7,0.2,0.7,0.6c0,0,0,0,0,0c0,0.4-0.2,0.7-0.6,0.7c0,0,0,0,0,0l-0.8,0.1
			c-0.4,0.1-0.7-0.2-0.8-0.5c-0.1-0.4,0.2-0.7,0.5-0.8C203.8,140.2,203.9,140.2,203.9,140.2L203.9,140.2L203.9,140.2z"/>
		<path class="st4" d="M206.5,140l0.8-0.1l0,0c0.3,0,0.7,0.2,0.7,0.5c0,0,0,0,0,0c0,0.4-0.2,0.7-0.6,0.7l-0.8,0.1
			c-0.4,0-0.7-0.2-0.7-0.6S206.1,140,206.5,140L206.5,140L206.5,140z"/>
		<path class="st4" d="M209.1,139.6l0.8-0.1l0,0c0.3-0.1,0.7,0.2,0.7,0.5c0,0,0,0,0,0c0.1,0.3-0.2,0.7-0.5,0.7l-0.8,0.1
			c-0.4,0-0.7-0.2-0.7-0.5C208.5,140,208.7,139.7,209.1,139.6L209.1,139.6L209.1,139.6z"/>
		<path class="st4" d="M211.6,139.1l0.8-0.2l0,0c0.4,0,0.7,0.2,0.7,0.6c0,0.3-0.1,0.6-0.4,0.7l-0.8,0.2c-0.3,0.1-0.7-0.1-0.8-0.5
			C211.1,139.6,211.3,139.2,211.6,139.1C211.6,139.2,211.6,139.2,211.6,139.1L211.6,139.1L211.6,139.1z"/>
		<path class="st4" d="M214.1,138.5l0.7-0.2l0,0c0.3-0.1,0.7,0.1,0.8,0.4c0.1,0.3-0.1,0.7-0.4,0.8l-0.8,0.2
			c-0.3,0.1-0.7-0.1-0.8-0.4C213.6,139,213.8,138.6,214.1,138.5C214.1,138.5,214.1,138.5,214.1,138.5L214.1,138.5L214.1,138.5z"/>
		<path class="st4" d="M216.6,137.7l0.7-0.3l0,0c0.3-0.1,0.7,0,0.8,0.4c0.1,0.3,0,0.7-0.4,0.8l0,0l-0.8,0.3
			c-0.3,0.1-0.7-0.1-0.8-0.4C216.2,138.2,216.3,137.9,216.6,137.7L216.6,137.7L216.6,137.7z"/>
		<path class="st4" d="M219,136.8l0.7-0.3l0,0c0.3-0.1,0.7,0,0.8,0.3c0.1,0.3,0,0.7-0.3,0.8c0,0,0,0,0,0l-0.7,0.3
			c-0.3,0.1-0.7,0-0.8-0.3C218.5,137.3,218.7,137,219,136.8L219,136.8L219,136.8z"/>
		<path class="st4" d="M221.4,135.7l0.7-0.4l0,0c0.3-0.2,0.7,0,0.8,0.3c0,0,0,0,0,0c0.2,0.3,0,0.7-0.3,0.8c0,0,0,0,0,0l-0.7,0.4
			c-0.3,0.2-0.7,0-0.8-0.3c0,0,0,0,0,0C220.9,136.3,221,135.9,221.4,135.7C221.3,135.7,221.3,135.7,221.4,135.7L221.4,135.7
			L221.4,135.7z"/>
		<path class="st4" d="M223.6,134.5l0.7-0.4l0,0c0.3-0.2,0.7-0.1,0.8,0.2s0.1,0.7-0.2,0.8l0,0l-0.7,0.4c-0.3,0.2-0.7,0.1-0.9-0.2
			C223.2,135,223.3,134.7,223.6,134.5C223.6,134.5,223.6,134.5,223.6,134.5L223.6,134.5L223.6,134.5z"/>
		<path class="st4" d="M225.8,133.1l0.6-0.4l0,0c0.3-0.2,0.7-0.1,0.8,0.2c0.2,0.3,0.1,0.7-0.1,0.8l-0.7,0.5
			c-0.3,0.2-0.7,0.1-0.8-0.2C225.5,133.7,225.5,133.3,225.8,133.1L225.8,133.1L225.8,133.1z"/>
		<path class="st4" d="M227.9,131.6l0.6-0.5l0,0c0.3-0.2,0.6-0.1,0.8,0.2c0.2,0.2,0.1,0.6-0.1,0.8l-0.6,0.5
			c-0.3,0.2-0.6,0.2-0.8-0.1c0,0,0,0,0,0C227.6,132.2,227.6,131.8,227.9,131.6C227.9,131.6,227.9,131.6,227.9,131.6L227.9,131.6
			L227.9,131.6z"/>
		<path class="st4" d="M229.9,129.9l0.6-0.5l0,0c0.2-0.2,0.6-0.2,0.8,0c0.2,0.2,0.2,0.6,0,0.8c0,0,0,0,0,0l-0.6,0.6
			c-0.2,0.2-0.6,0.2-0.8,0C229.7,130.5,229.7,130.1,229.9,129.9L229.9,129.9L229.9,129.9z"/>
		<path class="st4" d="M231.8,128.1l0.5-0.6l0,0c0.2-0.2,0.6-0.2,0.8,0c0,0,0,0,0,0c0.2,0.2,0.2,0.6,0,0.8l-0.6,0.6
			c-0.2,0.2-0.6,0.2-0.8,0c0,0,0,0,0,0C231.5,128.7,231.5,128.4,231.8,128.1L231.8,128.1L231.8,128.1z"/>
		<path class="st4" d="M233.6,126.2l0.5-0.6l0,0c0.2-0.2,0.6-0.3,0.8-0.1c0.2,0.2,0.3,0.6,0.1,0.8l0,0l-0.5,0.6
			c-0.2,0.3-0.5,0.3-0.8,0.1S233.3,126.6,233.6,126.2C233.5,126.3,233.5,126.3,233.6,126.2L233.6,126.2L233.6,126.2z"/>
		<path class="st4" d="M235.2,124.2l0.5-0.6l0,0c0.2-0.2,0.5-0.3,0.8-0.1c0.2,0.2,0.3,0.5,0.1,0.8l0,0l-0.5,0.7
			c-0.2,0.2-0.6,0.2-0.8,0C235.1,124.7,235,124.5,235.2,124.2L235.2,124.2L235.2,124.2z"/>
		<path class="st4" d="M236.7,122.1l0.4-0.7l0,0c0.2-0.3,0.5-0.3,0.7-0.2c0,0,0,0,0,0c0.2,0.2,0.3,0.5,0.2,0.7l-0.4,0.7
			c-0.2,0.3-0.5,0.3-0.8,0.2C236.6,122.7,236.5,122.4,236.7,122.1L236.7,122.1L236.7,122.1z"/>
		<path class="st4" d="M238,119.9l0.4-0.7l0,0c0.1-0.3,0.5-0.4,0.7-0.2c0.3,0.1,0.4,0.4,0.2,0.7c0,0,0,0,0,0l-0.4,0.7
			c-0.1,0.3-0.4,0.4-0.7,0.2c0,0,0,0,0,0C238,120.5,237.9,120.2,238,119.9L238,119.9L238,119.9z"/>
		<path class="st4" d="M239.1,117.6l0.3-0.7l0,0c0.1-0.3,0.4-0.4,0.7-0.3c0,0,0,0,0,0c0.3,0.1,0.4,0.4,0.3,0.7c0,0,0,0,0,0l-0.3,0.7
			c-0.1,0.3-0.4,0.4-0.7,0.3c0,0,0,0,0,0C239.1,118.2,239,117.9,239.1,117.6L239.1,117.6L239.1,117.6z"/>
		<path class="st4" d="M240.1,115.2l0.3-0.7l0,0c0.1-0.3,0.4-0.4,0.6-0.3c0.3,0.1,0.4,0.4,0.3,0.6l-0.3,0.8
			c-0.1,0.3-0.4,0.4-0.6,0.3c0,0,0,0,0,0C240.2,115.7,240,115.5,240.1,115.2C240.1,115.2,240.1,115.2,240.1,115.2L240.1,115.2
			L240.1,115.2z"/>
		<path class="st4" d="M240.9,112.7l0.2-0.8l0,0c0.1-0.3,0.3-0.4,0.6-0.3c0.3,0.1,0.4,0.3,0.3,0.6l-0.2,0.8
			c-0.1,0.3-0.3,0.4-0.6,0.4C241,113.3,240.8,113,240.9,112.7L240.9,112.7L240.9,112.7z"/>
		<path class="st4" d="M241.5,110.2l0.1-0.8l0,0c0-0.3,0.2-0.5,0.5-0.5c0.3,0,0.5,0.2,0.5,0.5c0,0,0,0.1,0,0.1l-0.1,0.8
			c0,0.3-0.3,0.4-0.6,0.4C241.6,110.7,241.4,110.5,241.5,110.2L241.5,110.2L241.5,110.2L241.5,110.2z"/>
		<path class="st4" d="M241.8,107.6l0.1-0.8l0,0c0-0.3,0.2-0.4,0.5-0.4c0.3,0,0.4,0.2,0.4,0.5v0.8c0,0.3-0.2,0.5-0.5,0.4
			S241.8,107.9,241.8,107.6L241.8,107.6L241.8,107.6z"/>
		<path class="st4" d="M241.9,105v-0.8l0,0c0-0.2,0.2-0.4,0.4-0.5c0.2,0,0.4,0.2,0.5,0.4v0.8c0,0.2-0.2,0.4-0.5,0.4
			C242.1,105.4,241.9,105.2,241.9,105L241.9,105L241.9,105z"/>
		<path class="st4" d="M241.7,102.5l-0.1-0.8l0,0c0-0.2,0.1-0.4,0.4-0.5c0.2,0,0.4,0.1,0.5,0.4l0.1,0.8c0,0.2-0.1,0.5-0.4,0.5
			C242,102.9,241.8,102.7,241.7,102.5C241.8,102.5,241.8,102.5,241.7,102.5L241.7,102.5L241.7,102.5z"/>
		<path class="st4" d="M241.3,99.9l-0.2-0.8l0,0c-0.1-0.2,0.1-0.4,0.3-0.5c0,0,0,0,0,0c0.2-0.1,0.4,0.1,0.5,0.3c0,0,0,0,0,0l0.2,0.8
			c0.1,0.2-0.1,0.4-0.3,0.5C241.6,100.3,241.4,100.2,241.3,99.9C241.3,100,241.3,100,241.3,99.9L241.3,99.9L241.3,99.9z"/>
		<path class="st4" d="M240.6,97.4l-0.3-0.7l0,0c-0.1-0.2,0-0.4,0.2-0.5c0,0,0,0,0,0c0.2-0.1,0.4,0,0.5,0.2l0.3,0.8
			c0,0.2-0.1,0.4-0.3,0.5C240.9,97.7,240.7,97.6,240.6,97.4L240.6,97.4L240.6,97.4z"/>
		<path class="st4" d="M239.6,95.1l-0.4-0.7l0,0c-0.1-0.2,0-0.4,0.1-0.5c0.2-0.1,0.4,0,0.5,0.1l0,0l0.4,0.7c0.1,0.2,0,0.4-0.1,0.5
			c0,0,0,0,0,0C239.9,95.3,239.7,95.3,239.6,95.1L239.6,95.1L239.6,95.1z"/>
		<path class="st4" d="M238.3,92.8l-0.4-0.6l0,0c-0.1-0.2-0.1-0.4,0.1-0.5c0,0,0,0,0,0c0.2-0.1,0.4-0.1,0.5,0.1l0.5,0.6
			c0.1,0.2,0.1,0.4-0.1,0.5c0,0,0,0,0,0C238.6,93.1,238.4,93,238.3,92.8C238.3,92.9,238.3,92.9,238.3,92.8L238.3,92.8L238.3,92.8z"
			/>
		<path class="st4" d="M236.7,90.8l-0.6-0.5l0,0c-0.1-0.1-0.1-0.4,0.1-0.5c0.1-0.1,0.3-0.1,0.4,0l0.6,0.6c0.1,0.1,0.1,0.3,0,0.5
			C237,91,236.8,91,236.7,90.8L236.7,90.8L236.7,90.8z"/>
		<path class="st4" d="M234.7,89.2l-0.6-0.4l0,0c-0.1-0.1-0.2-0.3-0.1-0.4c0,0,0,0,0,0c0.1-0.1,0.3-0.2,0.4-0.1c0,0,0,0,0,0l0.7,0.4
			c0.1,0.1,0.2,0.3,0.1,0.4c0,0,0,0,0,0C235.1,89.2,234.9,89.3,234.7,89.2L234.7,89.2L234.7,89.2z"/>
		<path class="st4" d="M232.5,87.8l-0.7-0.3l0,0c-0.1-0.1-0.2-0.2-0.1-0.3c0-0.1,0.2-0.2,0.3-0.2l0.8,0.3c0.1,0.1,0.2,0.2,0.2,0.4
			C232.9,87.8,232.7,87.9,232.5,87.8C232.5,87.8,232.5,87.8,232.5,87.8L232.5,87.8L232.5,87.8z"/>
		<path class="st5" d="M108.7,91.9l0.2,0.9l0,0c0,0.2-0.1,0.3-0.3,0.3c-0.2,0-0.3-0.1-0.3-0.2c0,0,0,0,0,0l0,0l-0.1-0.9
			c0-0.2,0.1-0.3,0.2-0.3c0,0,0,0,0,0C108.6,91.6,108.7,91.7,108.7,91.9C108.7,91.8,108.7,91.8,108.7,91.9L108.7,91.9z"/>
		<path class="st5" d="M109.3,94.7l0.2,0.8l0,0c0,0.2,0,0.3-0.2,0.4c-0.2,0-0.3-0.1-0.4-0.2c0,0,0,0,0,0l0,0l-0.2-0.9
			c0-0.2,0.1-0.3,0.2-0.4C109.1,94.4,109.3,94.5,109.3,94.7L109.3,94.7z"/>
		<path class="st5" d="M110.2,97.5l0.3,0.8l0,0c0.1,0.2,0,0.4-0.2,0.4c-0.2,0.1-0.4,0-0.4-0.2l0,0l-0.3-0.8c-0.1-0.2,0-0.3,0.2-0.4
			c0,0,0,0,0,0C109.9,97.2,110.1,97.3,110.2,97.5L110.2,97.5z"/>
		<path class="st5" d="M111.3,100.2l0.4,0.8l0,0c0.1,0.2,0,0.4-0.1,0.4c0,0,0,0,0,0c-0.2,0.1-0.4,0-0.4-0.2l0,0l-0.4-0.8
			c-0.1-0.2,0-0.4,0.2-0.4c0,0,0,0,0,0C111,99.9,111.2,100,111.3,100.2C111.3,100.2,111.3,100.2,111.3,100.2L111.3,100.2z"/>
		<path class="st5" d="M112.6,102.8l0.4,0.8l0,0c0.1,0.2,0,0.4-0.1,0.5c-0.2,0.1-0.4,0-0.5-0.1l0,0l-0.4-0.8c-0.1-0.2,0-0.4,0.1-0.5
			C112.3,102.5,112.5,102.6,112.6,102.8L112.6,102.8z"/>
		<path class="st5" d="M114.2,105.2l0.5,0.7l0,0c0.1,0.1,0.1,0.4-0.1,0.5c0,0,0,0,0,0c-0.2,0.1-0.4,0.1-0.5-0.1c0,0,0,0,0,0l0,0
			l-0.5-0.7c-0.1-0.2-0.1-0.4,0.1-0.5c0,0,0,0,0,0C113.9,105,114.1,105.1,114.2,105.2L114.2,105.2z"/>
		<path class="st5" d="M115.9,107.6l0.6,0.7l0,0c0.1,0.1,0.1,0.4,0,0.5c0,0,0,0,0,0c-0.1,0.1-0.4,0.1-0.5,0c0,0,0,0,0,0l0,0
			l-0.6-0.7c-0.1-0.1-0.1-0.4,0-0.5c0,0,0,0,0,0C115.5,107.4,115.8,107.4,115.9,107.6L115.9,107.6z"/>
		<path class="st5" d="M117.8,109.8l0.6,0.6l0,0c0.1,0.2,0.1,0.4-0.1,0.5c-0.1,0.1-0.3,0.1-0.5,0l-0.6-0.7c-0.1-0.1-0.1-0.4,0-0.5
			S117.7,109.6,117.8,109.8L117.8,109.8L117.8,109.8z"/>
		<path class="st5" d="M119.8,111.9l0.6,0.6l0,0c0.1,0.1,0.2,0.4,0,0.5s-0.4,0.2-0.5,0l0,0l-0.7-0.6c-0.1-0.1-0.2-0.4,0-0.5
			S119.7,111.7,119.8,111.9L119.8,111.9L119.8,111.9z"/>
		<path class="st5" d="M122,113.8l0.7,0.6l0,0c0.1,0.1,0.1,0.4,0,0.5c0,0,0,0,0,0c-0.1,0.1-0.4,0.1-0.5,0l-0.7-0.6
			c-0.2-0.1-0.2-0.4,0-0.5S121.8,113.6,122,113.8L122,113.8z"/>
		<path class="st5" d="M124.3,115.6l0.7,0.5l0,0c0.2,0.1,0.2,0.3,0.1,0.5c0,0,0,0,0,0c-0.1,0.2-0.4,0.2-0.5,0.1l-0.7-0.5
			c-0.2-0.1-0.2-0.4-0.1-0.5C123.9,115.5,124.1,115.5,124.3,115.6L124.3,115.6z"/>
		<path class="st5" d="M126.7,117.3l0.7,0.5l0,0c0.2,0.1,0.2,0.4,0.1,0.5s-0.4,0.2-0.5,0.1l0,0l-0.7-0.5c-0.2-0.1-0.2-0.4-0.1-0.5
			S126.5,117.2,126.7,117.3L126.7,117.3L126.7,117.3z"/>
		<path class="st5" d="M129.2,118.9l0.8,0.4l0,0c0.2,0.1,0.2,0.4,0.1,0.5c-0.1,0.1-0.3,0.2-0.5,0.1l-0.8-0.5
			c-0.2-0.1-0.2-0.3-0.1-0.5C128.7,118.8,129,118.8,129.2,118.9L129.2,118.9z"/>
		<path class="st5" d="M131.7,120.4l0.8,0.4l0,0c0.2,0.1,0.3,0.3,0.2,0.5c0,0,0,0,0,0c-0.1,0.2-0.3,0.3-0.5,0.2l-0.8-0.4
			c-0.2-0.1-0.3-0.3-0.2-0.5c0,0,0,0,0,0C131.3,120.3,131.5,120.2,131.7,120.4C131.7,120.3,131.7,120.3,131.7,120.4L131.7,120.4z"/>
		<path class="st5" d="M134.3,121.7l0.8,0.4l0,0c0.2,0.1,0.3,0.3,0.2,0.5c0,0,0,0,0,0c-0.1,0.2-0.3,0.3-0.5,0.2c0,0,0,0,0,0
			l-0.8-0.4c-0.2-0.1-0.3-0.3-0.2-0.5c0,0,0,0,0,0C133.8,121.7,134.1,121.6,134.3,121.7L134.3,121.7z"/>
		<path class="st5" d="M136.9,123l0.8,0.4l0,0c0.2,0.1,0.3,0.3,0.2,0.5c-0.1,0.2-0.3,0.3-0.5,0.2c0,0,0,0,0,0l-0.8-0.4
			c-0.2-0.1-0.3-0.3-0.2-0.5c0,0,0,0,0,0C136.5,123,136.7,122.9,136.9,123C136.9,123,136.9,123,136.9,123L136.9,123z"/>
		<path class="st5" d="M139.6,124.2l0.8,0.3l0,0c0.2,0.1,0.3,0.3,0.2,0.5c-0.1,0.2-0.3,0.3-0.5,0.2l0,0l-0.8-0.3
			c-0.2-0.1-0.3-0.3-0.2-0.5c0,0,0,0,0,0C139.2,124.2,139.4,124.1,139.6,124.2C139.6,124.2,139.6,124.2,139.6,124.2z"/>
		<path class="st5" d="M142.3,125.3l0.8,0.3l0,0c0.2,0.1,0.3,0.3,0.2,0.5c0,0,0,0,0,0c-0.1,0.2-0.3,0.3-0.5,0.2l-0.8-0.3
			c-0.2-0.1-0.3-0.3-0.2-0.5c0,0,0,0,0,0C141.9,125.3,142.1,125.2,142.3,125.3"/>
		<path class="st5" d="M145,126.4l0.8,0.3l0,0c0.2,0.1,0.3,0.3,0.2,0.5c0,0,0,0,0,0c-0.1,0.2-0.3,0.3-0.5,0.2c0,0,0,0,0,0l-0.8-0.3
			c-0.2-0.1-0.3-0.3-0.2-0.5c0,0,0,0,0,0C144.5,126.4,144.8,126.3,145,126.4C145,126.4,145,126.4,145,126.4"/>
		<path class="st5" d="M147.8,127.4l0.8,0.3l0,0c0.2,0.1,0.3,0.3,0.3,0.5c-0.1,0.2-0.3,0.3-0.5,0.3c0,0,0,0,0,0l-0.8-0.3
			c-0.2-0.1-0.3-0.3-0.2-0.5c0,0,0,0,0,0C147.3,127.4,147.6,127.3,147.8,127.4C147.8,127.4,147.8,127.4,147.8,127.4"/>
		<path class="st5" d="M150.6,128.4l0.8,0.3l0,0c0.2,0.1,0.3,0.3,0.3,0.5c-0.1,0.2-0.3,0.3-0.5,0.3l-0.8-0.3
			c-0.2-0.1-0.3-0.3-0.3-0.5c0,0,0,0,0,0C150.1,128.4,150.3,128.3,150.6,128.4"/>
		<path class="st5" d="M153.3,129.3l0.8,0.3l0,0c0.2,0.1,0.3,0.3,0.3,0.5c0,0,0,0,0,0c-0.1,0.2-0.3,0.3-0.5,0.3c0,0,0,0,0,0
			l-0.8-0.3c-0.2,0-0.4-0.3-0.3-0.5c0-0.2,0.3-0.4,0.5-0.3C153.3,129.3,153.3,129.3,153.3,129.3"/>
		<path class="st5" d="M156.1,130.2l0.8,0.3l0,0c0.2,0.1,0.4,0.3,0.3,0.5c0,0,0,0,0,0c-0.1,0.2-0.3,0.4-0.5,0.3l-0.9-0.3
			c-0.2-0.1-0.3-0.3-0.3-0.5C155.7,130.3,155.9,130.1,156.1,130.2"/>
		<path class="st5" d="M159,131l0.9,0.2l0,0c0.2,0.1,0.3,0.3,0.3,0.5c-0.1,0.2-0.3,0.3-0.5,0.3l-0.9-0.2c-0.2-0.1-0.3-0.3-0.2-0.6
			C158.6,131.1,158.8,131,159,131z"/>
		<path class="st5" d="M161.8,131.8l0.9,0.2l0,0c0.2,0.1,0.4,0.3,0.3,0.5c-0.1,0.2-0.3,0.4-0.5,0.3l-0.9-0.2
			c-0.2-0.1-0.4-0.3-0.3-0.5C161.3,131.8,161.6,131.7,161.8,131.8L161.8,131.8z"/>
		<path class="st5" d="M164.6,132.4l0.9,0.2l0,0c0.2,0,0.4,0.3,0.3,0.5c0,0.2-0.3,0.4-0.5,0.3c0,0,0,0,0,0l-0.9-0.2
			c-0.2-0.1-0.4-0.3-0.3-0.5C164.2,132.5,164.4,132.4,164.6,132.4L164.6,132.4z"/>
		<path class="st5" d="M167.5,133l0.9,0.2l0,0c0.2,0,0.4,0.3,0.3,0.5c0,0.2-0.3,0.4-0.5,0.3l-0.9-0.2c-0.2,0-0.4-0.3-0.3-0.5
			c0,0,0,0,0,0C167,133.1,167.3,133,167.5,133C167.5,133,167.5,133,167.5,133L167.5,133z"/>
		<path class="st5" d="M170.4,133.5l0.9,0.1l0,0c0.2,0,0.4,0.2,0.4,0.5c0,0,0,0,0,0c0,0.2-0.2,0.4-0.5,0.4c0,0,0,0,0,0l-0.9-0.1
			c-0.2,0-0.4-0.2-0.4-0.5c0,0,0,0,0,0C169.9,133.7,170.1,133.5,170.4,133.5L170.4,133.5z"/>
		<path class="st5" d="M173.3,134l0.9,0.1l0,0c0.2,0,0.4,0.2,0.4,0.5s-0.2,0.4-0.5,0.4l-0.9-0.1c-0.2,0-0.4-0.2-0.4-0.5
			C172.8,134.1,173,134,173.3,134C173.3,134,173.3,134,173.3,134L173.3,134z"/>
		<path class="st5" d="M176.2,134.3l0.9,0.1l0,0c0.2,0,0.4,0.2,0.4,0.4c0,0.2-0.2,0.4-0.4,0.4c0,0,0,0,0,0l-0.9-0.1
			c-0.2,0-0.4-0.2-0.4-0.5C175.7,134.4,175.9,134.2,176.2,134.3C176.2,134.3,176.2,134.3,176.2,134.3L176.2,134.3z"/>
		<path class="st5" d="M179.1,134.5h0.9l0,0c0.2,0,0.4,0.2,0.4,0.4c0,0,0,0,0,0c0,0.2-0.2,0.4-0.4,0.4c0,0,0,0,0,0h-0.9
			c-0.2,0-0.4-0.2-0.4-0.4c0,0,0,0,0,0C178.7,134.6,178.9,134.5,179.1,134.5C179.1,134.5,179.1,134.5,179.1,134.5L179.1,134.5z"/>
		<path class="st5" d="M182,134.6h0.9c0.2,0,0.4,0.2,0.4,0.4c0,0.2-0.2,0.4-0.4,0.4c0,0,0,0,0,0H182c-0.2,0-0.4-0.2-0.4-0.4l0,0
			C181.6,134.7,181.8,134.6,182,134.6C182,134.6,182,134.6,182,134.6z"/>
		<path class="st5" d="M185,134.5h0.9l0,0c0.2,0,0.4,0.2,0.4,0.4s-0.2,0.4-0.4,0.4H185c-0.2,0-0.4-0.2-0.4-0.4c0,0,0,0,0,0
			C184.5,134.7,184.7,134.5,185,134.5C184.9,134.5,184.9,134.5,185,134.5L185,134.5z"/>
		<path class="st5" d="M187.9,134.3l0.9-0.1l0,0c0.2,0,0.4,0.1,0.4,0.4s-0.1,0.4-0.4,0.4l-0.9,0.1c-0.2,0-0.4-0.1-0.4-0.4
			C187.5,134.6,187.6,134.4,187.9,134.3L187.9,134.3z"/>
		<path class="st5" d="M190.8,134l0.9-0.1l0,0c0.2,0,0.4,0.1,0.5,0.3c0,0.2-0.1,0.4-0.4,0.5l-0.9,0.1c-0.2,0-0.4-0.1-0.5-0.4
			C190.4,134.2,190.5,134,190.8,134L190.8,134z"/>
		<path class="st5" d="M193.7,133.6l0.9-0.2l0,0c0.2,0,0.4,0.1,0.5,0.3c0,0.2-0.1,0.4-0.3,0.5c0,0,0,0,0,0l-0.9,0.2
			c-0.2,0-0.4-0.1-0.5-0.3C193.3,133.8,193.4,133.6,193.7,133.6C193.6,133.6,193.6,133.6,193.7,133.6L193.7,133.6z"/>
		<path class="st5" d="M196.5,133l0.9-0.2l0,0c0.2-0.1,0.4,0.1,0.5,0.3c0,0,0,0,0,0c0.1,0.2-0.1,0.4-0.3,0.5l-0.9,0.2
			c-0.2,0.1-0.4,0-0.5-0.2c-0.1-0.2,0-0.4,0.2-0.5C196.4,133,196.5,133,196.5,133L196.5,133z"/>
		<path class="st5" d="M199.3,132.2l0.8-0.3l0,0c0.2,0,0.4,0.1,0.5,0.3c0,0.2-0.1,0.4-0.2,0.5l-0.9,0.3c-0.2,0.1-0.4,0-0.5-0.3
			c0,0,0,0,0,0C199,132.5,199.1,132.3,199.3,132.2L199.3,132.2z"/>
		<path class="st5" d="M202.1,131.3l0.8-0.3l0,0c0.2-0.1,0.4,0,0.5,0.2c0.1,0.2,0,0.4-0.2,0.5l-0.8,0.3c-0.2,0.1-0.4,0-0.5-0.2
			C201.8,131.7,201.9,131.4,202.1,131.3L202.1,131.3z"/>
		<path class="st5" d="M204.8,130.3l0.8-0.4l0,0c0.2-0.1,0.4,0,0.5,0.2c0,0,0,0,0,0c0.1,0.2,0,0.4-0.2,0.5c0,0,0,0,0,0l-0.8,0.4
			c-0.2,0.1-0.4,0-0.5-0.3C204.6,130.6,204.6,130.4,204.8,130.3L204.8,130.3z"/>
		<path class="st5" d="M207.5,129.1l0.8-0.4l0,0c0.2-0.1,0.4,0,0.5,0.2c0.1,0.2,0,0.4-0.2,0.5c0,0,0,0,0,0l-0.8,0.4
			c-0.2,0.1-0.4,0-0.5-0.2C207.2,129.4,207.3,129.2,207.5,129.1C207.5,129.1,207.5,129.1,207.5,129.1L207.5,129.1z"/>
		<path class="st5" d="M210.1,127.7l0.8-0.4l0,0c0.2-0.1,0.4-0.1,0.5,0.1c0,0,0,0,0,0c0.1,0.2,0.1,0.4-0.1,0.5c0,0,0,0,0,0l-0.8,0.4
			c-0.2,0.1-0.4,0-0.5-0.1S209.9,127.8,210.1,127.7L210.1,127.7z"/>
		<path class="st5" d="M212.5,126.2l0.7-0.5l0,0c0.2-0.1,0.4,0,0.5,0.2c0.1,0.2,0.1,0.4-0.1,0.5l-0.7,0.5c-0.2,0.1-0.4,0.1-0.6-0.1
			C212.3,126.5,212.4,126.3,212.5,126.2L212.5,126.2z"/>
		<path class="st5" d="M214.9,124.5l0.7-0.6l0,0c0.2-0.1,0.4-0.1,0.6,0.1c0.1,0.2,0.1,0.4-0.1,0.6l-0.7,0.6
			c-0.2,0.1-0.4,0.1-0.5-0.1C214.7,124.8,214.8,124.6,214.9,124.5L214.9,124.5z"/>
		<path class="st5" d="M217.1,122.6l0.6-0.6l0,0c0.2-0.1,0.4-0.1,0.5,0c0.1,0.2,0.1,0.4,0,0.5l0,0l-0.6,0.6c-0.1,0.1-0.4,0.2-0.5,0
			c0,0,0,0,0,0C217,123,217,122.8,217.1,122.6C217.1,122.6,217.1,122.6,217.1,122.6L217.1,122.6z"/>
		<path class="st5" d="M219.2,120.6l0.6-0.7l0,0c0.2-0.1,0.4-0.1,0.5,0c0.1,0.1,0.2,0.4,0,0.5c0,0,0,0,0,0l-0.6,0.7
			c-0.1,0.2-0.4,0.2-0.5,0.1C219,121.1,219,120.8,219.2,120.6C219.1,120.6,219.1,120.6,219.2,120.6L219.2,120.6z"/>
		<path class="st5" d="M221,118.3l0.5-0.7l0,0c0.1-0.2,0.4-0.2,0.5-0.1c0.2,0.1,0.2,0.4,0.1,0.5c0,0,0,0,0,0l-0.5,0.7
			c-0.1,0.2-0.4,0.2-0.5,0.1C220.9,118.7,220.9,118.5,221,118.3L221,118.3L221,118.3z"/>
		<path class="st5" d="M222.6,115.9l0.4-0.8l0,0c0.1-0.2,0.3-0.3,0.5-0.2c0,0,0,0,0,0c0.2,0.1,0.3,0.3,0.2,0.5c0,0,0,0,0,0l-0.4,0.8
			c-0.1,0.2-0.3,0.3-0.5,0.2S222.4,116.1,222.6,115.9L222.6,115.9L222.6,115.9z"/>
		<path class="st5" d="M223.7,113.2l0.3-0.8l0,0c0.1-0.2,0.3-0.3,0.5-0.2c0.2,0.1,0.3,0.3,0.3,0.5c0,0,0,0,0,0l-0.3,0.9
			c-0.1,0.2-0.3,0.3-0.5,0.3C223.7,113.7,223.6,113.5,223.7,113.2L223.7,113.2z"/>
		<path class="st5" d="M224.4,110.4c0-0.3,0.1-0.6,0.1-0.9l0,0c0-0.2,0.2-0.4,0.4-0.3c0.2,0,0.4,0.2,0.3,0.4c0,0,0,0,0,0
			c0,0.3-0.1,0.6-0.1,0.9c0,0.2-0.3,0.3-0.5,0.3C224.5,110.8,224.4,110.6,224.4,110.4L224.4,110.4z"/>
		<path class="st5" d="M224.5,107.6l-0.1-0.9l0,0c0-0.2,0.1-0.4,0.3-0.4c0,0,0,0,0,0c0.2,0,0.4,0.1,0.4,0.3l0.1,0.9
			c0,0.2-0.1,0.4-0.3,0.4c0,0,0,0,0,0C224.7,108,224.5,107.8,224.5,107.6C224.5,107.6,224.5,107.6,224.5,107.6L224.5,107.6z"/>
		<path class="st5" d="M224.1,104.7l-0.2-0.8l0,0c-0.1-0.2,0.1-0.4,0.2-0.4c0,0,0,0,0,0c0.2-0.1,0.4,0.1,0.4,0.3l0.2,0.9
			c0.1,0.2-0.1,0.4-0.3,0.4C224.3,105.1,224.1,105,224.1,104.7C224.1,104.8,224.1,104.8,224.1,104.7L224.1,104.7z"/>
		<path class="st5" d="M223.2,102l-0.4-0.8l0,0c-0.1-0.2,0-0.4,0.2-0.5c0,0,0,0,0,0c0.2-0.1,0.4,0,0.5,0.2l0.4,0.8
			c0.1,0.2,0,0.4-0.2,0.5C223.5,102.3,223.3,102.2,223.2,102L223.2,102z"/>
		<path class="st5" d="M221.9,99.4l-0.4-0.7l0,0c-0.1-0.2,0-0.4,0.1-0.5c0,0,0,0,0,0c0.2-0.1,0.4-0.1,0.5,0.1c0,0,0,0,0,0l0.5,0.8
			c0.1,0.2,0.1,0.4-0.1,0.5c0,0,0,0,0,0C222.2,99.6,222,99.6,221.9,99.4C221.9,99.4,221.9,99.4,221.9,99.4L221.9,99.4z"/>
		<path class="st5" d="M220.3,97l-0.5-0.7l0,0c-0.1-0.2-0.1-0.4,0.1-0.5c0,0,0,0,0,0c0.1-0.1,0.4-0.1,0.5,0.1c0,0,0,0,0,0l0.6,0.7
			c0.1,0.1,0.1,0.4,0,0.5c0,0,0,0,0,0C220.7,97.2,220.5,97.2,220.3,97C220.4,97.1,220.4,97.1,220.3,97L220.3,97z"/>
		<path class="st5" d="M218.4,94.8l-0.6-0.6l0,0c-0.1-0.2-0.1-0.4,0.1-0.5c0.1-0.1,0.3-0.1,0.4,0l0.6,0.6c0.1,0.1,0.1,0.4,0,0.5
			C218.8,95,218.5,95,218.4,94.8L218.4,94.8L218.4,94.8z"/>
		<path class="st5" d="M216.2,92.9l-0.7-0.5l0,0c-0.2-0.1-0.2-0.3-0.1-0.5c0.1-0.2,0.3-0.2,0.5-0.1l0,0l0.7,0.5
			c0.2,0.1,0.2,0.3,0.1,0.5c0,0,0,0,0,0C216.6,93,216.4,93,216.2,92.9L216.2,92.9z"/>
		<path class="st5" d="M213.8,91.3l-0.8-0.4l0,0c-0.2-0.1-0.2-0.3-0.1-0.4c0,0,0,0,0,0c0.1-0.2,0.3-0.2,0.5-0.1l0.8,0.4
			c0.2,0.1,0.2,0.3,0.1,0.5C214.1,91.3,214,91.3,213.8,91.3L213.8,91.3z"/>
		<path class="st5" d="M211.2,89.9l-0.8-0.3l0,0c-0.2-0.1-0.2-0.3-0.2-0.4s0.3-0.2,0.4-0.2l0,0l0.8,0.3c0.2,0.1,0.2,0.3,0.2,0.4
			C211.6,89.9,211.4,90,211.2,89.9L211.2,89.9z"/>
		<path class="st5" d="M208.5,88.9l-0.8-0.2l0,0c-0.2,0-0.3-0.2-0.2-0.4c0-0.2,0.2-0.3,0.4-0.2l0.9,0.3c0.2,0,0.3,0.2,0.2,0.4
			c0,0,0,0,0,0C208.9,88.9,208.7,89,208.5,88.9L208.5,88.9z"/>
		<path class="st5" d="M205.7,88.2l-0.9-0.1l0,0c-0.2,0-0.3-0.2-0.2-0.4c0-0.2,0.2-0.3,0.3-0.2l0.9,0.1c0.2,0,0.3,0.2,0.3,0.4
			C206.1,88.1,205.9,88.2,205.7,88.2L205.7,88.2z"/>
		<path class="st5" d="M202.8,87.9H202l0,0c-0.2,0-0.3-0.2-0.3-0.3c0-0.2,0.1-0.3,0.3-0.3c0,0,0,0,0,0h0.9c0.2,0,0.3,0.1,0.4,0.3
			s-0.1,0.3-0.3,0.4C202.9,87.9,202.9,87.9,202.8,87.9L202.8,87.9z"/>
		<path class="st4" d="M228.1,161.6c0,0-7.2-12.1-4.3-21.9c0.2-0.6,0.8-1,1.5-0.8c0.2,0.1,0.4,0.2,0.5,0.4c3.3,4.2,5.8,8.9,7.5,14
			c0,0-4.8-19.7,0-29.2c0.2-0.4,0.7-0.5,1.1-0.3c0.1,0.1,0.2,0.2,0.3,0.3c1.7,2.9,6,11.7,5.6,26.3c0,0,0.6-11,3.1-16
			c0.1-0.3,0.5-0.4,0.7-0.2c0.1,0.1,0.2,0.2,0.3,0.3c1.1,4.2,4.4,19,0.7,27.1L228.1,161.6z"/>
		<g>
			<defs>
				<rect id="SVGID_6_" x="234" y="126.5" width="4.2" height="33.3"/>
			</defs>
			<clipPath id="SVGID_7_">
				<use xlink:href="#SVGID_6_"  style="overflow:visible;"/>
			</clipPath>
			<g class="st6">
				<path class="st7" d="M234.1,126.5c0.2,2.8,0.4,5.6,0.6,8.4c0.2,2.8,0.5,5.6,0.8,8.4c0.2,1.4,0.3,2.8,0.5,4.1s0.4,2.8,0.6,4.1
					s0.4,2.8,0.7,4.1s0.5,2.7,0.8,4.1h-0.1c-0.6-1.3-1.1-2.6-1.4-4c-0.4-1.4-0.7-2.7-0.9-4.1s-0.4-2.8-0.6-4.2s-0.3-2.8-0.4-4.2
					s-0.2-2.8-0.3-4.2s-0.2-2.8-0.2-4.2s-0.1-2.8-0.1-4.2s0-2.8,0-4.2L234.1,126.5z"/>
			</g>
		</g>
		<g>
			<defs>
				<rect id="SVGID_8_" x="243.1" y="137.3" width="1.4" height="21.4"/>
			</defs>
			<clipPath id="SVGID_9_">
				<use xlink:href="#SVGID_8_"  style="overflow:visible;"/>
			</clipPath>
			<g class="st8">
				<path class="st7" d="M243.7,137.3c0.2,0.9,0.3,1.8,0.5,2.6c0.1,0.4,0.1,0.9,0.1,1.3l0.1,0.7l0.1,0.7c0.1,1.8,0.1,3.6,0.1,5.4
					s-0.1,3.6-0.3,5.4c0,0.2,0,0.4-0.1,0.7l-0.1,0.7l-0.1,0.7l-0.1,0.7c-0.1,0.4-0.1,0.9-0.3,1.3s-0.2,0.9-0.3,1.3h-0.1
					c0.1-1.8,0.2-3.6,0.3-5.3s0-3.6,0-5.3v-2.7c0-0.9,0-1.8,0-2.7c0-1.8,0-3.6,0.2-5.4L243.7,137.3z"/>
			</g>
		</g>
	</g>
</g>
<g>
	<defs>
		<path id="SVGID_10_" d="M64.5,116.1H43.4c-0.5,0.2-0.8,0.7-0.6,1.3c0.1,0.3,0.3,0.5,0.6,0.6l0,0h21.2c0.5-0.2,0.8-0.7,0.6-1.3
			C65.1,116.4,64.8,116.2,64.5,116.1L64.5,116.1"/>
	</defs>
	<clipPath id="SVGID_11_">
		<use xlink:href="#SVGID_10_"  style="overflow:visible;"/>
	</clipPath>
	<g class="st9">
		
			<linearGradient id="SVGID_12_" gradientUnits="userSpaceOnUse" x1="-691.0718" y1="-27.1688" x2="-690.0718" y2="-27.1688" gradientTransform="matrix(-51.0431 31.7839 31.7839 51.0431 -34296.3164 23431.0352)">
			<stop  offset="0" style="stop-color:#1D2354"/>
			<stop  offset="1" style="stop-color:#293984"/>
		</linearGradient>
		<polygon class="st10" points="41.6,116.6 59,105.8 66.4,117.5 48.9,128.4 		"/>
	</g>
</g>
<g>
	<defs>
		<path id="SVGID_13_" d="M66,98.8c-1.3,0-2.4,0.8-3,1.9L54.8,118h21.9c0.8,0,1.6-0.5,1.9-1.3l6.3-16c0.3-0.7-0.1-1.5-0.8-1.8
			c-0.2-0.1-0.3-0.1-0.5-0.1L66,98.8z"/>
	</defs>
	<clipPath id="SVGID_14_">
		<use xlink:href="#SVGID_13_"  style="overflow:visible;"/>
	</clipPath>
	<g class="st11">
		
			<linearGradient id="SVGID_15_" gradientUnits="userSpaceOnUse" x1="-698.3273" y1="-18.8261" x2="-697.3273" y2="-18.8261" gradientTransform="matrix(-8.9883 -12.7748 12.7748 -8.9883 -5957.4658 -8969.2949)">
			<stop  offset="0" style="stop-color:#1D2354"/>
			<stop  offset="1" style="stop-color:#293984"/>
		</linearGradient>
		<polygon class="st12" points="45.7,105.2 75.2,84.4 94.3,111.7 64.9,132.4 		"/>
	</g>
</g>
<g>
	<defs>
		<rect id="SVGID_16_" x="-460.1" y="-5.4" width="728" height="243"/>
	</defs>
	<clipPath id="SVGID_17_">
		<use xlink:href="#SVGID_16_"  style="overflow:visible;"/>
	</clipPath>
	<g class="st13">
		<path class="st5" d="M71.2,107.7c-0.4,1.2-0.1,2.3,0.6,2.6s1.6-0.5,2-1.7s0.1-2.3-0.6-2.6S71.5,106.5,71.2,107.7"/>
	</g>
</g>
<g>
	<defs>
		<rect id="SVGID_18_" x="34.1" y="134.9" width="1.8" height="19.7"/>
	</defs>
	<clipPath id="SVGID_19_">
		<use xlink:href="#SVGID_18_"  style="overflow:visible;"/>
	</clipPath>
	<g class="st14">
		
			<linearGradient id="SVGID_20_" gradientUnits="userSpaceOnUse" x1="-562.7894" y1="-10.5165" x2="-561.7894" y2="-10.5165" gradientTransform="matrix(1.82 0 0 1.82 1057.3201 163.88)">
			<stop  offset="0" style="stop-color:#3C59A8"/>
			<stop  offset="1" style="stop-color:#445FAB"/>
		</linearGradient>
		<rect x="34.1" y="134.9" class="st15" width="1.8" height="19.7"/>
	</g>
</g>
<g>
	<defs>
		<path id="SVGID_21_" d="M28.2,153.8c-0.7,0-1.2,0.5-1.2,1.1c0,0,0,0.1,0,0.1h16c0-0.7-0.5-1.2-1.2-1.2c0,0,0,0,0,0L28.2,153.8z"/>
	</defs>
	<clipPath id="SVGID_22_">
		<use xlink:href="#SVGID_21_"  style="overflow:visible;"/>
	</clipPath>
	<g class="st16">
		
			<linearGradient id="SVGID_23_" gradientUnits="userSpaceOnUse" x1="-673.8267" y1="-27.5628" x2="-672.8267" y2="-27.5628" gradientTransform="matrix(15.92 0 0 15.92 10756.1602 593.1498)">
			<stop  offset="0" style="stop-color:#3C59A8"/>
			<stop  offset="1" style="stop-color:#445FAB"/>
		</linearGradient>
		<rect x="27" y="153.8" class="st17" width="15.9" height="1.2"/>
	</g>
</g>
<g>
	<defs>
		<path id="SVGID_24_" d="M26.6,130.5h16.1c1.1,0,2,0.9,2,2v1.8c0,1.1-0.9,2-2,2H26.6c-1.1,0-2-0.9-2-2v-1.8
			C24.6,131.4,25.5,130.5,26.6,130.5z"/>
	</defs>
	<clipPath id="SVGID_25_">
		<use xlink:href="#SVGID_24_"  style="overflow:visible;"/>
	</clipPath>
	<g class="st18">
		
			<linearGradient id="SVGID_26_" gradientUnits="userSpaceOnUse" x1="-676.7642" y1="-27.9291" x2="-675.7642" y2="-27.9291" gradientTransform="matrix(20.02 0 0 20.02 13573.4795 692.48)">
			<stop  offset="0" style="stop-color:#3C59A8"/>
			<stop  offset="1" style="stop-color:#445FAB"/>
		</linearGradient>
		<rect x="24.7" y="130.5" class="st19" width="20" height="5.7"/>
	</g>
</g>
<g>
	<defs>
		<path id="SVGID_27_" d="M41.9,130.1l6.5,0.3c-1.4,1.7-2.2,3.8-2.2,6l-0.1,7.9c0,0.9-0.6,1.8-1.5,2.1l-1.2,0.4l2.7,7.4h4.1
			l-1.6-1.5l-0.8-4c-0.1-0.5-0.1-1.1,0.2-1.6c3.5-6.7,5.8-13.9,6.8-21.3c0.1-0.6-0.2-1.1-0.7-1.4c-1.7-1.2-3.7-2-5.7-2.4L41.9,130.1
			z"/>
	</defs>
	<clipPath id="SVGID_28_">
		<use xlink:href="#SVGID_27_"  style="overflow:visible;"/>
	</clipPath>
	<g class="st20">
		
			<linearGradient id="SVGID_29_" gradientUnits="userSpaceOnUse" x1="-705.7806" y1="-26.894" x2="-704.7806" y2="-26.894" gradientTransform="matrix(-12.93 0 0 12.93 -9068.9199 485.6701)">
			<stop  offset="0" style="stop-color:#F58F8C"/>
			<stop  offset="1" style="stop-color:#F8ABAA"/>
		</linearGradient>
		<rect x="41.9" y="121.8" class="st21" width="13" height="32.3"/>
	</g>
</g>
<g>
	<defs>
		<path id="SVGID_30_" d="M42.5,146.8c0,2.8,3.1,8.1,3.1,8.1c2.2,1.1,6.6,0.4,6.2-0.1c-0.6-0.6-1.3-1-2.1-1.4c0,0-2,0.6-3-0.1
			s-2.1-7-2.1-7c-0.2,0-0.3,0-0.5,0C42.8,146.3,42.5,146.8,42.5,146.8"/>
	</defs>
	<clipPath id="SVGID_31_">
		<use xlink:href="#SVGID_30_"  style="overflow:visible;"/>
	</clipPath>
	<g class="st22">
		
			<linearGradient id="SVGID_32_" gradientUnits="userSpaceOnUse" x1="-686.48" y1="-21.8454" x2="-685.48" y2="-21.8454" gradientTransform="matrix(1.9009 29.1581 29.1581 -1.9009 1988.7871 20118.4004)">
			<stop  offset="0" style="stop-color:#3C59A8"/>
			<stop  offset="1" style="stop-color:#445FAB"/>
		</linearGradient>
		<polygon class="st23" points="41.9,146.3 52.2,145.7 52.8,155.9 42.6,156.5 		"/>
	</g>
</g>
<g>
	<defs>
		<path id="SVGID_33_" d="M42.7,130.5c0-0.1,7-0.8,7-0.8c-0.1,1.7,0.1,3.4,0.5,5.1c0.7,2.9,11,15.6,11,15.6l-1,3.4
			c3.1,1.1,6.4,1.2,9.5,0.3l-6.4-3.7c0,0-6.2-21.4-10-25.1l-7-2.4L42.7,130.5z"/>
	</defs>
	<clipPath id="SVGID_34_">
		<use xlink:href="#SVGID_33_"  style="overflow:visible;"/>
	</clipPath>
	<g class="st24">
		
			<linearGradient id="SVGID_35_" gradientUnits="userSpaceOnUse" x1="-696.5921" y1="-28.3434" x2="-695.5921" y2="-28.3434" gradientTransform="matrix(-27.01 0 0 27.01 -18744.4297 904.4202)">
			<stop  offset="0" style="stop-color:#F58F8C"/>
			<stop  offset="1" style="stop-color:#F8ABAA"/>
		</linearGradient>
		<rect x="42.7" y="122.8" class="st25" width="27" height="32.1"/>
	</g>
</g>
<g>
	<defs>
		<path id="SVGID_36_" d="M22.7,126.8c-0.3,2.7,1.2,4.8,5.3,4c13.8-0.1,17,5.1,18,11.8c0,0.1,0.1,0.2,0.2,0.2c4.8,0.2,9.7-0.9,14-3
			c0.2-0.1,0.3-0.3,0.2-0.5c0,0,0,0,0,0c-6.7-13.2-1.6-15.8-16.1-19.7c-2-0.2-17.3-1.5-17.3-1.5S23,124.1,22.7,126.8"/>
	</defs>
	<clipPath id="SVGID_37_">
		<use xlink:href="#SVGID_36_"  style="overflow:visible;"/>
	</clipPath>
	<g class="st26">
		
			<linearGradient id="SVGID_38_" gradientUnits="userSpaceOnUse" x1="-686.9291" y1="-36.5233" x2="-685.9291" y2="-36.5233" gradientTransform="matrix(0.9479 33.1064 -33.1064 0.9479 -518.1214 22854.4023)">
			<stop  offset="0" style="stop-color:#1D2354"/>
			<stop  offset="1" style="stop-color:#293984"/>
		</linearGradient>
		<polygon class="st27" points="21.6,118.1 60.5,117 61.2,143 22.4,144.1 		"/>
	</g>
</g>
<g>
	<defs>
		<path id="SVGID_39_" d="M60.2,155c0,0,9.2,1.6,11.7,0.9c0,0-0.6-1.2-3.4-2.6l0.3,0.2c0.1,0.1,0.2,0.3,0,0.5
			c-0.1,0.1-0.2,0.1-0.3,0.1c-1.8-0.1-5.7-0.4-8-1.5C59.9,153.2,59.8,154.2,60.2,155"/>
	</defs>
	<clipPath id="SVGID_40_">
		<use xlink:href="#SVGID_39_"  style="overflow:visible;"/>
	</clipPath>
	<g class="st28">
		
			<linearGradient id="SVGID_41_" gradientUnits="userSpaceOnUse" x1="-686.48" y1="-21.8642" x2="-685.48" y2="-21.8642" gradientTransform="matrix(1.9009 29.1581 29.1581 -1.9009 2007.2933 20117.0977)">
			<stop  offset="0" style="stop-color:#3C59A8"/>
			<stop  offset="1" style="stop-color:#445FAB"/>
		</linearGradient>
		<polygon class="st29" points="59.2,152.6 71.8,151.8 72.2,156.6 59.5,157.4 		"/>
	</g>
</g>
<g>
	<defs>
		<path id="SVGID_42_" d="M32.9,97.6c-3.2,2.2-5.6,5.3-6.8,8.9c-1.5,4.4-1.3,9.2,0.5,13.5l11.4-0.4c0.7-1.8,1.8-6.8,3.7-10
			c0.8-1.1,1.5-2.4,2-3.7c0.6-2,0.8-5-1.9-9.7l-4.4-0.8c-1.6,0.4-3.1,1.1-4.5,2"/>
	</defs>
	<clipPath id="SVGID_43_">
		<use xlink:href="#SVGID_42_"  style="overflow:visible;"/>
	</clipPath>
	<g class="st30">
		
			<linearGradient id="SVGID_44_" gradientUnits="userSpaceOnUse" x1="-686.3027" y1="-28.114" x2="-685.3027" y2="-28.114" gradientTransform="matrix(64.9304 71.6585 71.6585 -64.9304 46609.3828 47460.375)">
			<stop  offset="0" style="stop-color:#F37569"/>
			<stop  offset="1" style="stop-color:#F58F8C"/>
		</linearGradient>
		<polygon class="st31" points="11.7,106.6 35.1,85.3 56.6,109 33.1,130.3 		"/>
	</g>
</g>
<g>
	<defs>
		<path id="SVGID_45_" d="M38.9,95.9c0.9,1.4,3.6,2.4,3.7,2.4s3.2-3.7,3.4-3.8l-3-2.1L38.9,95.9z"/>
	</defs>
	<clipPath id="SVGID_46_">
		<use xlink:href="#SVGID_45_"  style="overflow:visible;"/>
	</clipPath>
	<g class="st32">
		
			<linearGradient id="SVGID_47_" gradientUnits="userSpaceOnUse" x1="-677.4971" y1="-53.3912" x2="-676.4971" y2="-53.3912" gradientTransform="matrix(4.7813 -7.4591 -7.4591 -4.7813 2880.4033 -5208.6191)">
			<stop  offset="0" style="stop-color:#F58F8C"/>
			<stop  offset="1" style="stop-color:#F8ABAA"/>
		</linearGradient>
		<polygon class="st33" points="36.2,96.6 40.9,89.2 48.7,94.1 43.9,101.5 		"/>
	</g>
</g>
<g>
	<defs>
		<path id="SVGID_48_" d="M41.4,90.7c0.8,2.2,2.7,3.9,5,4.6c1.5,0.4,3.4-0.6,3.3-4.5c0.1-2.1-0.6-4.2-1.9-5.9
			c-0.4-0.4-1-0.6-1.5-0.6C43.6,84.2,40.3,88.2,41.4,90.7"/>
	</defs>
	<clipPath id="SVGID_49_">
		<use xlink:href="#SVGID_48_"  style="overflow:visible;"/>
	</clipPath>
	<g class="st34">
		
			<linearGradient id="SVGID_50_" gradientUnits="userSpaceOnUse" x1="-701.6592" y1="-19.6941" x2="-700.6592" y2="-19.6941" gradientTransform="matrix(-12.0574 6.4624 6.4624 12.0574 -8286.0137 4860.8208)">
			<stop  offset="0" style="stop-color:#F58F8C"/>
			<stop  offset="1" style="stop-color:#F8ABAA"/>
		</linearGradient>
		<polygon class="st35" points="35.5,86.8 47.7,80.2 54.6,93.1 42.4,99.7 		"/>
	</g>
</g>
<g>
	<defs>
		<path id="SVGID_51_" d="M39.3,107.9c-0.5,0.6-0.5,1.4-0.1,2c0.3,0.5,0.7,1,1.1,1.4c0.6,0.6,18.8,6.6,18.8,6.6l3.7-0.1
			c0.9-0.6,1.3-1.2,1.3-1.6c-0.2-0.9-2.6-1.3-7.3-1.3c-2.9-0.9-5.7-2.1-8.3-3.8c-0.8-0.5-1.6-1.1-2.3-1.6l-5.1-3.9L39.3,107.9z"/>
	</defs>
	<clipPath id="SVGID_52_">
		<use xlink:href="#SVGID_51_"  style="overflow:visible;"/>
	</clipPath>
	<g class="st36">
		
			<linearGradient id="SVGID_53_" gradientUnits="userSpaceOnUse" x1="-696.7189" y1="-31.3836" x2="-695.7189" y2="-31.3836" gradientTransform="matrix(-24.7372 -9.077 -9.077 24.7372 -17469.6582 -5436.4941)">
			<stop  offset="0" style="stop-color:#F58F8C"/>
			<stop  offset="1" style="stop-color:#F8ABAA"/>
		</linearGradient>
		<polygon class="st37" points="34.8,116.5 41.8,97.4 68.1,107.1 61.2,126.2 		"/>
	</g>
</g>
<g>
	<defs>
		<rect id="SVGID_54_" x="-460.1" y="-5.4" width="728" height="243"/>
	</defs>
	<clipPath id="SVGID_55_">
		<use xlink:href="#SVGID_54_"  style="overflow:visible;"/>
	</clipPath>
	<g class="st38">
		<path class="st39" d="M40.6,85c2.1-0.7,3.9-3.7,3.2-5.5c-1.9-4.7-8.9-0.8-6.6,3.8c0.3,0.7,0.9,1.4,1.7,1.7
			C39.4,85.2,40,85.2,40.6,85"/>
		<path class="st39" d="M50.9,87.2c-0.1,0.5-0.7,0.9-1.2,0.7c-0.1,0-0.2-0.1-0.3-0.1c-0.6-0.5-1.3-0.9-2-1.2
			c-4.7-1.9-4.2,1.9-4.5,2.4c-0.4,1-0.8-0.9-1-0.6C41.5,89.1,42,92,42,92s-3.6-2.3-4-4.2s1.5-5,2.6-5.9c1.8-1,3.8-1.2,5.8-0.8
			C47.6,81.7,51.4,83.3,50.9,87.2"/>
	</g>
</g>
<g>
	<defs>
		<path id="SVGID_56_" d="M41.6,87.6c-1.6,0.5-0.1,2.7,0.6,3.5L43,90c0,0,0.2-2.4-1-2.4C41.9,87.6,41.8,87.6,41.6,87.6"/>
	</defs>
	<clipPath id="SVGID_57_">
		<use xlink:href="#SVGID_56_"  style="overflow:visible;"/>
	</clipPath>
	<g class="st40">
		
			<linearGradient id="SVGID_58_" gradientUnits="userSpaceOnUse" x1="-701.6592" y1="-19.6638" x2="-700.6592" y2="-19.6638" gradientTransform="matrix(-12.0574 6.4624 6.4624 12.0574 -8287.29 4858.564)">
			<stop  offset="0" style="stop-color:#F58F8C"/>
			<stop  offset="1" style="stop-color:#F8ABAA"/>
		</linearGradient>
		<polygon class="st41" points="38.6,88.3 42.5,86.2 44.7,90.3 40.7,92.4 		"/>
	</g>
</g>
<g>
	<defs>
		<rect id="SVGID_59_" x="-460.1" y="-5.4" width="728" height="243"/>
	</defs>
	<clipPath id="SVGID_60_">
		<use xlink:href="#SVGID_59_"  style="overflow:visible;"/>
	</clipPath>
	<g class="st42">
		<path class="st5" d="M122.6,168.1c0.1,0,0.3,0,0.4-0.1c0.5-0.2,0.7-0.8,0.5-1.3l-19.6-46.5c-0.2-0.5-0.7-0.7-1.2-0.5c0,0,0,0,0,0
			c-0.5,0.2-0.7,0.8-0.5,1.3l19.6,46.5C121.8,167.9,122.2,168.1,122.6,168.1"/>
		<path class="st5" d="M100.5,168.1c0.4,0,0.7-0.2,0.8-0.6l19.6-46.6c0.2-0.5,0-1-0.5-1.3c-0.5-0.2-1,0-1.2,0.5c0,0,0,0,0,0
			l-19.6,46.6c-0.2,0.5,0,1,0.5,1.3C100.3,168.1,100.4,168.1,100.5,168.1"/>
		<path class="st5" d="M45.5,168.1c0.1,0,0.3,0,0.4-0.1c0.5-0.2,0.7-0.8,0.5-1.3l-19.6-46.5c-0.2-0.5-0.7-0.7-1.2-0.5c0,0,0,0,0,0
			c-0.5,0.2-0.7,0.8-0.5,1.3l19.6,46.5C44.8,167.9,45.2,168.1,45.5,168.1"/>
		<path class="st5" d="M23.5,168.1c0.4,0,0.7-0.2,0.9-0.6L43.9,121c0.2-0.5,0-1-0.5-1.3c-0.5-0.2-1,0-1.2,0.5c0,0,0,0,0,0
			l-19.6,46.6c-0.2,0.5,0,1,0.5,1.3C23.3,168.1,23.4,168.1,23.5,168.1"/>
		<path class="st3" d="M21.2,118.9c-0.1-0.3,0-0.6,0.2-0.8c0.2-0.2,0.5-0.4,0.8-0.3h106.3c0.4,0,0.8,0.2,1,0.5
			c0.2,0.3,0.3,0.7,0.1,1.1l-1.1,2.3c-0.3,0.5-0.8,0.9-1.5,0.9H23c-0.6,0-1.1-0.4-1.2-0.9L21.2,118.9z"/>
	</g>
</g>
<g>
	<defs>
		<path id="SVGID_61_" d="M78,14.2C64.4,19.8,52.8,34.8,57.3,50c1.5,5,0.7,10.4,5.7,12.6c2.7,1.2,9.9,1.9,12.7,0.9
			c7.3-2.4,12.2-9.1,8.2-16.5c-1.3-2.4-2.9-4.5-4-7s-1.6-5.4-0.5-7.8c2.2-4.8,9.6-6.3,14.3-6.2c5.6,0.1,10.8,3,13.8,7.7
			c3.8,6,4.7,13.2,4.2,20.1c-0.6,7.4-3.7,13-8.4,18.7c-4,4.9-8.4,9.6-11.1,15.3c-2.5,5.3-3.3,11.1-3.4,16.8c0,1.1-5.6,11.6-5.6,14.8
			c0,0.5,6.3,2,6.8,2l11.5,0.1c0.5,0,0.9-0.4,0.9-0.9c0,0,0,0,0,0c0.2-15.6,5-30.5,17.2-41c4.4-3.8,9.2-6.9,12.6-11.7
			c4.9-6.9,7.3-13.6,6.6-22.1c-0.6-7.7-3.2-15.5-8.2-21.5c-5.4-6.5-13.4-10.5-21.6-12.2c-3.9-0.8-8-1.3-12-1.3h-0.5
			C90.2,10.7,83.9,11.9,78,14.2"/>
	</defs>
	<clipPath id="SVGID_62_">
		<use xlink:href="#SVGID_61_"  style="overflow:visible;"/>
	</clipPath>
	<g class="st43">
		
			<linearGradient id="SVGID_63_" gradientUnits="userSpaceOnUse" x1="-688.5852" y1="-31.031" x2="-687.5852" y2="-31.031" gradientTransform="matrix(-70.9503 143.9998 -143.9998 -70.9503 -53216.5703 96998.1172)">
			<stop  offset="0" style="stop-color:#3C59A8"/>
			<stop  offset="0.2" style="stop-color:#3E5AA9"/>
			<stop  offset="1" style="stop-color:#445FAB"/>
		</linearGradient>
		<polygon class="st44" points="8.9,99.9 69.8,-23.6 183.4,32.4 122.6,155.9 		"/>
	</g>
</g>
<g>
	<defs>
		<path id="SVGID_64_" d="M84.6,140.9c0,5.6,0,9.5,5,11.3c1.4,0.5,6.7,0.5,8.2,0.5c7.2,0,11.2-6.4,11.2-13.5s-7.6-12.5-14.8-12.5
			S84.6,133.7,84.6,140.9"/>
	</defs>
	<clipPath id="SVGID_65_">
		<use xlink:href="#SVGID_64_"  style="overflow:visible;"/>
	</clipPath>
	<g class="st45">
		
			<linearGradient id="SVGID_66_" gradientUnits="userSpaceOnUse" x1="-689.6194" y1="-31.4496" x2="-688.6194" y2="-31.4496" gradientTransform="matrix(-71.6548 66.679 -66.679 -71.6548 -51423.6758 43877.5742)">
			<stop  offset="0" style="stop-color:#3C59A8"/>
			<stop  offset="0.2" style="stop-color:#3E5AA9"/>
			<stop  offset="1" style="stop-color:#445FAB"/>
		</linearGradient>
		<polygon class="st46" points="71.6,138.7 97.7,114.4 122,140.6 96,164.8 		"/>
	</g>
</g>
<g>
	<defs>
		<path id="SVGID_67_" d="M71.7,12.5c-13.6,5.6-25.2,20.6-20.6,35.8c1.5,5,4.9,11.2,9.8,13.3c2.7,1.1,5.8,1.2,8.5,0.2
			c7.3-2.4,12.2-9.1,8.2-16.5c-1.3-2.4-2.9-4.5-4-7S72,33,73.1,30.5c2.2-4.8,9.6-6.3,14.3-6.2c5.6,0.1,10.7,3,13.8,7.7
			c3.8,6,4.7,13.2,4.2,20.1c-0.6,7.4-3.7,13-8.4,18.7c-4,4.9-8.4,9.6-11.1,15.3c-2.4,5.3-3.3,11.1-3.4,16.8c0,1.1,0.3,12.8,0.4,16
			c0,0.5,0.4,0.8,0.8,0.8l11.5,0.1c0.5,0,0.9-0.4,0.9-0.9c0,0,0,0,0,0c0.2-15.6,5-30.5,17.2-41c4.4-3.8,9.2-6.9,12.6-11.8
			c4.9-6.9,7.3-13.6,6.6-22.1c-0.6-7.7-3.2-15.5-8.2-21.5c-5.4-6.5-13.4-10.5-21.6-12.3c-3.9-0.8-8-1.3-12-1.3h-0.5
			C83.9,9,77.6,10.2,71.7,12.5"/>
	</defs>
	<clipPath id="SVGID_68_">
		<use xlink:href="#SVGID_67_"  style="overflow:visible;"/>
	</clipPath>
	<g class="st47">
		
			<linearGradient id="SVGID_69_" gradientUnits="userSpaceOnUse" x1="-687.5972" y1="-28.136" x2="-686.5972" y2="-28.136" gradientTransform="matrix(73.7835 -130.5182 130.5182 73.7835 54431.5664 -87490.2656)">
			<stop  offset="0" style="stop-color:#3C59A8"/>
			<stop  offset="1" style="stop-color:#445FAB"/>
		</linearGradient>
		<polygon class="st48" points="-0.9,93.1 67.6,-28 180.8,36 112.3,157.1 		"/>
	</g>
</g>
<g>
	<defs>
		<path id="SVGID_70_" d="M78.4,139.2c0,7.2,5.8,13,13,13s13-5.8,13-13s-5.8-13-13-13l0,0C84.2,126.2,78.4,132,78.4,139.2"/>
	</defs>
	<clipPath id="SVGID_71_">
		<use xlink:href="#SVGID_70_"  style="overflow:visible;"/>
	</clipPath>
	<g class="st49">
		
			<linearGradient id="SVGID_72_" gradientUnits="userSpaceOnUse" x1="-686.6927" y1="-27.8104" x2="-685.6927" y2="-27.8104" gradientTransform="matrix(73.0623 -67.3963 67.3963 73.0623 52053.2617 -44032.1563)">
			<stop  offset="0" style="stop-color:#3C59A8"/>
			<stop  offset="1" style="stop-color:#445FAB"/>
		</linearGradient>
		<polygon class="st50" points="65.4,138.2 92.5,113.2 117.4,140.3 90.4,165.2 		"/>
	</g>
</g>
<g>
	<defs>
		<rect id="SVGID_73_" x="-460.1" y="-5.4" width="728" height="243"/>
	</defs>
	<clipPath id="SVGID_74_">
		<use xlink:href="#SVGID_73_"  style="overflow:visible;"/>
	</clipPath>
	<g class="st51">
		<path class="st3" d="M55.4,46.8C55.4,46.8,55.3,46.8,55.4,46.8c-1-4.2-1.1-10.6,3.4-17.9c4.1-6.9,10.7-12,18.4-14.2
			c8.3-2.4,18.3-1.9,29.5,1.6c0.1,0,0.1,0.1,0.1,0.1c0,0.1-0.1,0.1-0.1,0.1c0,0,0,0,0,0c-11.2-3.5-21.1-4-29.4-1.6
			C69.6,17.1,63.1,22.1,59,29c-4.5,7.3-4.4,13.6-3.5,17.7C55.6,46.7,55.5,46.8,55.4,46.8L55.4,46.8"/>
		<path class="st3" d="M58.2,53.4C58.1,53.5,58.1,53.5,58.2,53.4c-0.8-1.1-1.5-2.3-1.9-3.6c0,0,0-0.1,0-0.1c0,0,0,0,0,0
			c0.1,0,0.1,0,0.1,0.1c0.5,1.3,1.1,2.5,1.8,3.6C58.3,53.4,58.3,53.4,58.2,53.4L58.2,53.4"/>
		<path class="st3" d="M95.8,130.7L95.8,130.7c-1.3-0.7-2.8-1-4.3-1c-0.1,0-0.1-0.1-0.1-0.1c0-0.1,0-0.1,0.1-0.1
			c1.5,0,3,0.4,4.4,1.1C95.9,130.6,95.9,130.7,95.8,130.7C95.9,130.7,95.8,130.8,95.8,130.7"/>
		<path class="st3" d="M86,147.3L86,147.3c-4.5-3-5.7-9.1-2.7-13.5c0.9-1.3,2.1-2.4,3.5-3.2c0,0,0.1,0,0.1,0c0,0,0,0.1,0,0.1
			c-4.6,2.5-6.4,8.2-3.9,12.9c0.7,1.4,1.8,2.5,3.1,3.4C86.1,147.1,86.1,147.2,86,147.3C86.1,147.3,86.1,147.3,86,147.3"/>
	</g>
</g>
<g>
	<defs>
		<polygon id="SVGID_75_" points="169,61.2 175,61 175.4,59.6 169,58.9 		"/>
	</defs>
	<clipPath id="SVGID_76_">
		<use xlink:href="#SVGID_75_"  style="overflow:visible;"/>
	</clipPath>
	<g class="st52">
		
			<linearGradient id="SVGID_77_" gradientUnits="userSpaceOnUse" x1="-689.5262" y1="-38.5484" x2="-688.5262" y2="-38.5484" gradientTransform="matrix(-7.569 24.3612 -24.3612 -7.569 -5984.7852 16562.4004)">
			<stop  offset="0" style="stop-color:#3C59A8"/>
			<stop  offset="1" style="stop-color:#445FAB"/>
		</linearGradient>
		<polygon class="st53" points="168.3,61 169.6,57 176.1,59.1 174.9,63.1 		"/>
	</g>
</g>
<g>
	<defs>
		<path id="SVGID_78_" d="M142.2,77.4c5.2,6.7,9.6,13.8,13.3,21.4c2.3,4.8,11.4,24.7,18,29.9c1.3,1,4.9,3.8,8.6,3l0.3-0.1
			c6-1.8,8.9-14.4,7.5-32.4c-1.6-0.6-3.7-1.2-11.7-1.2c-0.5,4.1-1.1,9.2-1.6,9.4c-1.8,0.4-2.1-16.6-13.2-24.9
			c-5.5-4.2-12.1-5.2-17.6-5.2C144.5,77.3,143.3,77.3,142.2,77.4"/>
	</defs>
	<clipPath id="SVGID_79_">
		<use xlink:href="#SVGID_78_"  style="overflow:visible;"/>
	</clipPath>
	<g class="st54">
		
			<linearGradient id="SVGID_80_" gradientUnits="userSpaceOnUse" x1="-687.325" y1="-28.8408" x2="-686.325" y2="-28.8408" gradientTransform="matrix(119.2761 159.9046 159.9046 -119.2761 86703.8906 106496.1953)">
			<stop  offset="0" style="stop-color:#1D2354"/>
			<stop  offset="1" style="stop-color:#293984"/>
		</linearGradient>
		<polygon class="st55" points="115.7,97 173.7,53.8 217.7,112.8 159.8,156 		"/>
	</g>
</g>
<g>
	<defs>
		<path id="SVGID_81_" d="M177.1,76.6c1.9,8.4,2.1,15.5,1.1,21.4c1.7,0.1,3.4,0.2,5.3,0.4c2.3,0.2,4.4,0.5,6.4,0.9
			c-1.1-8.6-6.8-22.8-6.8-22.8c-3.4-5-3.9-1.7-7.3-6.7L177.1,76.6z"/>
	</defs>
	<clipPath id="SVGID_82_">
		<use xlink:href="#SVGID_81_"  style="overflow:visible;"/>
	</clipPath>
	<g class="st56">
		
			<linearGradient id="SVGID_83_" gradientUnits="userSpaceOnUse" x1="-689.6895" y1="-29.41" x2="-688.6895" y2="-29.41" gradientTransform="matrix(-142.7303 -40.3348 40.3348 -142.7303 -96677.1563 -31820.5723)">
			<stop  offset="0" style="stop-color:#F58F8C"/>
			<stop  offset="1" style="stop-color:#F8ABAA"/>
		</linearGradient>
		<polygon class="st57" points="168.1,97 176.9,66 197.6,71.9 188.9,102.9 		"/>
	</g>
</g>
<g>
	<defs>
		<path id="SVGID_84_" d="M186.2,56.8l-8.7,10.3c0,0-1.6-0.3-1.7-3.4s-3.4-3.4-3.4-3.4s0.5,4.2,1.4,10.5c0.5,3,2,5.8,4.3,7.8l5-1.7
			c4.5-6.5,7.6-13.9,9.1-21.7l-2.4-0.1h-0.1C188.3,55.2,187,55.8,186.2,56.8"/>
	</defs>
	<clipPath id="SVGID_85_">
		<use xlink:href="#SVGID_84_"  style="overflow:visible;"/>
	</clipPath>
	<g class="st58">
		
			<linearGradient id="SVGID_86_" gradientUnits="userSpaceOnUse" x1="-689.6895" y1="-29.4294" x2="-688.6895" y2="-29.4294" gradientTransform="matrix(-142.7206 -40.3321 40.3321 -142.7206 -96666.8438 -31837.7617)">
			<stop  offset="0" style="stop-color:#F58F8C"/>
			<stop  offset="1" style="stop-color:#F8ABAA"/>
		</linearGradient>
		<polygon class="st59" points="166.2,76.9 173.8,50 198.3,56.9 190.7,83.8 		"/>
	</g>
</g>
<g>
	<defs>
		<path id="SVGID_87_" d="M112.9,78.9c-0.6,0.1-4.6,4.2-5.1,4.4c-0.6,8-0.9,16-0.6,24c0.8,27.8,1.2,43.6,11.7,51.2
			c11.5,8.4,33.2,5.5,38.7-4.4c6-10.6-9.7-23.3-5.3-44.4c1.5-7,4.7-13.5,9.3-18.9c0.4-0.3,3.6-3.6,2.6-6.2c-0.1-0.3-0.2-0.5-0.4-0.7
			c-0.1-0.2-0.2-0.3-0.3-0.4c0-0.2,0-0.5-0.1-0.8c-7.4-5.4-16.4-7.1-24.9-7.1C128.1,75.4,118.3,77.8,112.9,78.9"/>
	</defs>
	<clipPath id="SVGID_88_">
		<use xlink:href="#SVGID_87_"  style="overflow:visible;"/>
	</clipPath>
	<g class="st60">
		
			<linearGradient id="SVGID_89_" gradientUnits="userSpaceOnUse" x1="-687.2875" y1="-28.7856" x2="-686.2875" y2="-28.7856" gradientTransform="matrix(113.8949 152.6905 152.6905 -113.8949 82757.375 101714.5469)">
			<stop  offset="0" style="stop-color:#1D2354"/>
			<stop  offset="1" style="stop-color:#293984"/>
		</linearGradient>
		<polygon class="st61" points="63,108.1 144.3,47.5 208.9,134.1 127.7,194.8 		"/>
	</g>
</g>
<g>
	<defs>
		<path id="SVGID_90_" d="M134.2,80.1c0.6,0.6,6.9,10.8,15.7,7.4c0.5-4.8,3.5-11,6.6-17.4l-9.3-6.7
			C141.9,68.1,137.4,73.8,134.2,80.1"/>
	</defs>
	<clipPath id="SVGID_91_">
		<use xlink:href="#SVGID_90_"  style="overflow:visible;"/>
	</clipPath>
	<g class="st62">
		
			<linearGradient id="SVGID_92_" gradientUnits="userSpaceOnUse" x1="-690.3216" y1="-31.9623" x2="-689.3216" y2="-31.9623" gradientTransform="matrix(-56.6845 45.0082 -45.0082 -56.6845 -40411.418 29325.8633)">
			<stop  offset="0" style="stop-color:#F58F8C"/>
			<stop  offset="1" style="stop-color:#F8ABAA"/>
		</linearGradient>
		<polygon class="st63" points="120.8,74.1 148,52.6 170,80.4 142.9,101.9 		"/>
	</g>
</g>
<g>
	<defs>
		<path id="SVGID_93_" d="M154.3,51.9L153,74.8l13.4,3c0,0,4.8-23.5,4.7-23.8c-0.4-2.6-3.6-3.3-7.2-3.3
			C160.7,50.7,157.4,51.1,154.3,51.9"/>
	</defs>
	<clipPath id="SVGID_94_">
		<use xlink:href="#SVGID_93_"  style="overflow:visible;"/>
	</clipPath>
	<g class="st64">
		
			<linearGradient id="SVGID_95_" gradientUnits="userSpaceOnUse" x1="-684.9239" y1="-28.3265" x2="-683.9239" y2="-28.3265" gradientTransform="matrix(57.2139 33.5001 33.5001 -57.2139 40256.1172 21363.9648)">
			<stop  offset="0" style="stop-color:#F58F8C"/>
			<stop  offset="1" style="stop-color:#F8ABAA"/>
		</linearGradient>
		<polygon class="st65" points="141.2,70.9 157.7,42.7 183.1,57.6 166.6,85.8 		"/>
	</g>
</g>
<g>
	<defs>
		<rect id="SVGID_96_" x="-460.1" y="-5.4" width="728" height="243"/>
	</defs>
	<clipPath id="SVGID_97_">
		<use xlink:href="#SVGID_96_"  style="overflow:visible;"/>
	</clipPath>
	<g class="st66">
		<path class="st39" d="M158.2,55.7c-0.5,0.3-0.9,0.8-1,1.4L155.7,69c0,0.2,0,0.4,0,0.5c0.1,1,0.9,4.1,4.1,3.2
			c2.7-0.8,5.2-1.4,7.1-1.1c1.1,0.2,1.7,1.3,1.5,2.3c-0.7,3.5-1.7,7-2.9,10.4c-0.4,0.9-1.4,1.4-2.4,1.2c-4-1.1-7.8-2.7-11.4-4.7
			c-0.6-0.4-1-1-1-1.8c0.1-3.2,0.5-12.1,0.2-14.7c-0.3-2.4-3.1-3.8-4.4-4.4c-0.5-0.2-0.9-0.6-1.1-1.1c-0.6-1.6-1.2-4.8,2.8-6.2
			c1-0.4,1.5-1.5,1.2-2.5c-0.6-1.8-0.7-4.4,2.5-5.9c2.5-1.2,5.5-0.5,7.3,1.5c0.6,0.7,1.6,0.8,2.4,0.4c0.4-0.2,0.9-0.2,1.3,0
			c0.9,0.5,2.1,0.2,2.6-0.8c0,0,0,0,0,0c1-2.2,3.5-3.4,5.8-2.8c6,1,6.7,7.7,5.1,11.5s-8,2.4-11.2,0.5
			C162.7,53.4,159.7,54.9,158.2,55.7"/>
	</g>
</g>
<g>
	<defs>
		<path id="SVGID_98_" d="M144.8,64.4c1,6.2,6.2,4.8,6.2,4.8s1.8-7.3-0.7-9c-0.7-0.5-1.6-0.8-2.5-0.8
			C145.9,59.5,144.3,61,144.8,64.4"/>
	</defs>
	<clipPath id="SVGID_99_">
		<use xlink:href="#SVGID_98_"  style="overflow:visible;"/>
	</clipPath>
	<g class="st67">
		
			<linearGradient id="SVGID_100_" gradientUnits="userSpaceOnUse" x1="-684.9239" y1="-28.3325" x2="-683.9239" y2="-28.3325" gradientTransform="matrix(57.2139 33.5001 33.5001 -57.2139 40252.7461 21370.2988)">
			<stop  offset="0" style="stop-color:#F58F8C"/>
			<stop  offset="1" style="stop-color:#F8ABAA"/>
		</linearGradient>
		<polygon class="st68" points="139.4,67.8 146.4,55.8 157.7,62.3 150.6,74.4 		"/>
	</g>
</g>
<g>
	<defs>
		<path id="SVGID_101_" d="M149.7,42.7c-3.2,1.5-10.1,5.6-10.6,9.7l-0.5,4.5c-0.1,0.9,4.6,2.1,5.4,2c1.6-0.3,3.4-2,4.3-3.3
			c1.8-2.7,1.7-6.2,4.5-8.1c1.4-0.9,3.1-1.1,4.6-0.4c1.2,0.3,2.2,0.7,2.9-0.1c1-1.1-0.4-2.5-1.6-3.3c-0.5-0.3-1-0.6-1.5-0.8
			c-1.3-0.5-2.7-0.8-4.1-0.8C151.9,42,150.7,42.2,149.7,42.7"/>
	</defs>
	<clipPath id="SVGID_102_">
		<use xlink:href="#SVGID_101_"  style="overflow:visible;"/>
	</clipPath>
	<g class="st69">
		
			<linearGradient id="SVGID_103_" gradientUnits="userSpaceOnUse" x1="-691.5424" y1="-28.4145" x2="-690.5424" y2="-28.4145" gradientTransform="matrix(-63.0688 11.8372 11.8372 63.0688 -43116.8906 10026.2607)">
			<stop  offset="0" style="stop-color:#F58F8C"/>
			<stop  offset="1" style="stop-color:#F8ABAA"/>
		</linearGradient>
		<polygon class="st70" points="135.5,42.5 160.5,37.8 164.3,58.4 139.4,63.1 		"/>
	</g>
</g>
<g>
	<defs>
		<path id="SVGID_104_" d="M113.2,48.6c2.4,3.7,3.9,8,4.2,12.4c6.2-2.5,13.9-4,23.5-4l5.8-1.7c0,0,2.7-5.7-16.7-6.3
			c-3.8-0.5-7.5-0.7-11.3-0.6C117,48.4,115.2,48.4,113.2,48.6"/>
	</defs>
	<clipPath id="SVGID_105_">
		<use xlink:href="#SVGID_104_"  style="overflow:visible;"/>
	</clipPath>
	<g class="st71">
		
			<linearGradient id="SVGID_106_" gradientUnits="userSpaceOnUse" x1="-691.4095" y1="-28.4541" x2="-690.4095" y2="-28.4541" gradientTransform="matrix(-65.6045 12.3131 12.3131 65.6045 -44850.6953 10429.7627)">
			<stop  offset="0" style="stop-color:#F58F8C"/>
			<stop  offset="1" style="stop-color:#F8ABAA"/>
		</linearGradient>
		<polygon class="st72" points="111,48.9 148.2,41.9 151.7,60.6 114.5,67.6 		"/>
	</g>
</g>
<g>
	<defs>
		<path id="SVGID_107_" d="M87.9,57c-11.4,5.9-12.3,9.8-12.5,11.2c-0.7,4.9,3.5,9.3,5.6,11.4c10.4,10.7,26.5,10.5,32.3,10.2
			c4.5-4.6,15.6-8.2,20.1-12.8c-4.7-1-16.2-3-21.4-3.9c-6.3-1-12.3-1.8-18.1-2.3l23.6-9.8c-0.3-4.4-1.8-8.7-4.2-12.4
			C104.4,50.1,95.9,52.9,87.9,57"/>
	</defs>
	<clipPath id="SVGID_108_">
		<use xlink:href="#SVGID_107_"  style="overflow:visible;"/>
	</clipPath>
	<g class="st73">
		
			<linearGradient id="SVGID_109_" gradientUnits="userSpaceOnUse" x1="-687.7479" y1="-28.6222" x2="-686.7479" y2="-28.6222" gradientTransform="matrix(48.7183 207.5488 207.5488 -48.7183 39542.8242 141383.8281)">
			<stop  offset="0" style="stop-color:#1D2354"/>
			<stop  offset="1" style="stop-color:#293984"/>
		</linearGradient>
		<polygon class="st74" points="65.4,50.8 130.3,35.6 142.6,88.1 77.7,103.3 		"/>
	</g>
</g>
<g>
	<defs>
		<rect id="SVGID_110_" x="-460.1" y="-5.4" width="728" height="243"/>
	</defs>
	<clipPath id="SVGID_111_">
		<use xlink:href="#SVGID_110_"  style="overflow:visible;"/>
	</clipPath>
	<g class="st75">
		<path class="st4" d="M111.3,147.8c0.1-0.3,0.3-0.5,0.5-0.7c1.6-1.7,23-1.7,28.1-1.8c5.8-0.1,15.8-0.7,17.2-1.4
			c0.4-0.2,0.8-0.3,1.2-0.2c0.3,0.1,0.6,0.4,0.9,1.2c5.6,16.2,2.7,20,2.7,20c-2.9,3.8-7.6,1.5-23,2.3c-15,0.8-23.6,4.5-26.3,0.4
			c-0.5-0.9-0.6-2-0.6-3C111.7,158.1,111.5,152.8,111.3,147.8"/>
	</g>
</g>
<g>
	<defs>
		<path id="SVGID_112_" d="M159.2,69.4c-0.3-0.4,0-0.5,0-3.4c-0.1-0.7,0.1-1.3,0.4-1.9c0.2-0.2,0.4-0.4,0.6-0.6
			c1.6-0.7,3.4-1.1,5.1-1c0.4,0,1.5,0.2,1.7,0.7c0,0.1,0,0.2,0,0.3c-0.7,2.7-1.1,4-1.6,4.6c-0.8,0.8-1.7,1.3-2.8,1.5
			c-0.6,0.2-1.2,0.3-1.9,0.3C160.2,70,159.7,69.8,159.2,69.4 M169.7,67.8c-0.3-0.3-0.3-0.7-0.3-1.6c-0.1-0.7,0-1.5,0.3-2.2
			c0.2-0.8,0.7-1.6,1.4-2.1c0.4-0.2,0.8-0.4,1.3-0.5c0.5-0.1,1-0.2,1.5-0.3c0.3-0.1,0.7-0.1,1,0c0.5,0.3,0.3,1.6,0.2,2.2
			c-0.2,1.2-0.7,2.4-1.5,3.3c-0.3,0.5-0.8,1-1.4,1.2c-0.4,0.2-0.8,0.2-1.2,0.3C170.5,68.3,170,68.1,169.7,67.8 M144.3,59.4
			c-0.6,0.6,0.5,2.1,0.6,2.4c0.2-0.6,0.5-1.2,1-1.6c0.4-0.3,0.9-0.5,1.4-0.6c0.4-0.1,0.9,0,1.3,0.1c1.2,0.1,2.3,0.9,2.6,2.1
			c0.2,0.6,0.4,1.2,0.4,1.8l0.4,0.1c1.8,0.4,3.5,0.8,5.3,1.1c0,0,0.6,0.1,0.7,0.1s0.3,0.2,0.3,0.2c0.1,0.8,0.1,1.6,0.1,2.4
			c-0.1,1-0.3,1.3-0.1,1.9c0.4,0.7,1,1.1,1.8,1.3c0.9,0.2,1.6,0,3.1-0.4c0.9-0.2,1.7-0.6,2.5-1.2c0.4-0.4,0.7-0.8,1-1.3
			c1-1.8,1.1-4,1.7-4.2c0,0,0.2-0.1,0.3,0s0.1,0.3,0.1,0.3s0,3.5,0.6,4.2s1.2,0.7,2.2,0.6c0.9-0.1,1.7-0.5,2.3-1.1
			c0.8-1,1.4-2.1,1.7-3.3c0.2-0.5,0.3-1,0.4-1.6c0.2-0.2,0.3-0.4,0.4-0.6l0,0c0.1-0.3,0.1-0.7,0.1-1c-0.2-0.5-0.5-1-0.8-1.5
			c-0.1,0-0.2,0-0.3,0c-0.8,0-4.5,0-5.6,0.9c-0.2,0.1-0.4,0.2-0.6,0.3c-0.3,0.1-0.6,0-0.9,0c-6.9,0.7-9.3,1.1-9.6,1.2
			c-0.2,0.1-0.3,0.1-0.5,0.1c-0.2,0-0.4-0.1-0.5-0.2c-2.1-0.8-4.3-1.4-6.5-1.9c-1.8-0.4-3.6-0.6-5.4-0.8h-0.1
			C145,59,144.6,59.1,144.3,59.4"/>
	</defs>
	<clipPath id="SVGID_113_">
		<use xlink:href="#SVGID_112_"  style="overflow:visible;"/>
	</clipPath>
	<g class="st76">
		
			<linearGradient id="SVGID_114_" gradientUnits="userSpaceOnUse" x1="-693.8207" y1="-38.9258" x2="-692.8207" y2="-38.9258" gradientTransform="matrix(-13.7991 16.3175 -16.3175 -13.7991 -10041.0742 10839.6367)">
			<stop  offset="0" style="stop-color:#3C59A8"/>
			<stop  offset="1" style="stop-color:#445FAB"/>
		</linearGradient>
		<polygon class="st77" points="137.9,66 157.3,43 182.2,64 162.8,87 		"/>
	</g>
</g>
<g>
	<defs>
		<rect id="SVGID_115_" x="-460.1" y="-5.4" width="728" height="243"/>
	</defs>
	<clipPath id="SVGID_116_">
		<use xlink:href="#SVGID_115_"  style="overflow:visible;"/>
	</clipPath>
	<g class="st78">
		<path class="st7" d="M190.3,79c-0.2,0.1,5.8,2.2,5.8,2.2l3.2-6.9l7.9,2.1l3.3-8.1l1.4,4.3l-4.3,5.8l-7-1.9c0.1-0.2-3.6,9-3.9,8.7
			C196.6,85,190.3,79,190.3,79"/>
		<path class="st7" d="M237.8,61.9c-0.2,9.3-10.7,14.8-18.3,15.5c-1.4,0.1-10,0.9-14.3-5.1c-3.1-4.3-2-9.5-1.8-10.4
			c1.9-9,13.1-18.1,23.3-14.7C232.6,49.1,237.9,55.1,237.8,61.9"/>
	</g>
</g>
<g>
	<defs>
		<path id="SVGID_117_" d="M217,47.7c-0.6,0.1-1.1,0.7-1.1,1.3c-0.1,4.3-0.4,19.1-0.3,24.4c0,0.5,0.4,0.9,0.9,1
			c2.4,0.1,11,0.3,14.9,0.1c0.9-0.1,1.5-0.9,1.4-1.7c0.1-4.5,0.3-17.2-0.2-23c0-0.6-0.5-1.2-1.1-1.3c-2.2-0.3-8.9-0.8-12.9-0.8
			C218.1,47.7,217.5,47.7,217,47.7"/>
	</defs>
	<clipPath id="SVGID_118_">
		<use xlink:href="#SVGID_117_"  style="overflow:visible;"/>
	</clipPath>
	<g class="st79">
		
			<linearGradient id="SVGID_119_" gradientUnits="userSpaceOnUse" x1="-674.9867" y1="-27.6128" x2="-673.9867" y2="-27.6128" gradientTransform="matrix(17.33 0 0 17.33 11911.96 539.7901)">
			<stop  offset="0" style="stop-color:#1D2354"/>
			<stop  offset="1" style="stop-color:#293984"/>
		</linearGradient>
		<rect x="215.5" y="47.7" class="st80" width="17.6" height="27.1"/>
	</g>
</g>
<g>
	<defs>
		<path id="SVGID_120_" d="M217.9,49.3c-0.6,0.1-1,0.6-0.9,1.1c-0.1,3.5-0.5,15-0.4,19.3c0,0.6,0.4,1.1,1,1.2
			c4.3,0.3,8.6,0.4,12.9,0.2c0.6-0.1,1.1-0.7,1.1-1.3c0.2-3.5,0.6-14.3,0.5-18.5c0-0.6-0.4-1.2-1-1.3c-2.1-0.2-8.4-0.7-11.8-0.7
			C218.7,49.2,218.3,49.2,217.9,49.3"/>
	</defs>
	<clipPath id="SVGID_121_">
		<use xlink:href="#SVGID_120_"  style="overflow:visible;"/>
	</clipPath>
	<g class="st81">
		
			<linearGradient id="SVGID_122_" gradientUnits="userSpaceOnUse" x1="-685.2746" y1="-25.415" x2="-684.2746" y2="-25.415" gradientTransform="matrix(30.5076 -33.1072 33.1072 30.5076 21958.5039 -21837.4297)">
			<stop  offset="0" style="stop-color:#F37569"/>
			<stop  offset="1" style="stop-color:#F58F8C"/>
		</linearGradient>
		<polygon class="st82" points="205.4,61.2 223.6,41.4 243.1,59.4 224.9,79.2 		"/>
	</g>
</g>
<g>
	<defs>
		<rect id="SVGID_123_" x="221.7" y="48.2" width="3.3" height="0.7"/>
	</defs>
	<clipPath id="SVGID_124_">
		<use xlink:href="#SVGID_123_"  style="overflow:visible;"/>
	</clipPath>
	<g class="st83">
		<path class="st7" d="M221.7,48.5c0,0.1,0.1,0.2,0.2,0.2c0,0,0,0,0,0l2.8,0.2c0.1,0,0.2-0.1,0.2-0.2c0,0,0,0,0-0.1l0,0
			c0-0.1-0.1-0.2-0.2-0.2c-0.9-0.1-1.9-0.2-2.9-0.2C221.8,48.3,221.7,48.4,221.7,48.5"/>
	</g>
</g>
<path class="st4" d="M218.5,63.7C218.5,63.7,218.6,63.7,218.5,63.7l1-0.1c0.3,0.3,0.6,0.6,0.9,0.9v0.9c0,0,0,0.1,0.1,0.1l1,0.4
	c0,0,0.1,0,0.1,0l0.6-0.7c0.4,0.1,0.9,0.1,1.3,0l0.6,0.7c0,0,0.1,0,0.1,0l1-0.5c0,0,0,0,0-0.1l-0.1-0.9c0.3-0.3,0.6-0.6,0.9-0.9h0.9
	c0,0,0,0,0.1,0l0.4-1c0,0,0-0.1,0-0.1l-0.7-0.6c0.1-0.4,0.1-0.9,0-1.3l0.6-0.6c0,0,0-0.1,0-0.1l-0.5-1c0,0,0,0-0.1,0l-0.9,0.1
	c-0.3-0.3-0.6-0.6-0.9-0.9v-0.9c0,0,0-0.1-0.1-0.1l-1-0.4c0,0-0.1,0-0.1,0l-0.6,0.7c-0.4-0.1-0.9-0.1-1.3,0l-0.6-0.7
	c0,0-0.1,0-0.1,0l-1,0.5c0,0,0,0.1,0,0.1l0.1,0.9c-0.3,0.3-0.6,0.6-0.9,1h-0.9c0,0,0,0-0.1,0l-0.4,1c0,0,0,0.1,0,0.1l0.7,0.6
	c-0.1,0.4-0.1,0.9,0,1.3l-0.7,0.6c0,0,0,0.1,0,0.1L218.5,63.7z"/>
<path class="st3" d="M222.3,62.4c-0.6-0.2-1-0.7-0.9-1.3c0.1-0.7,0.7-1.2,1.3-1.1c0,0,0,0,0,0c0.3,0,0.6,0.2,0.8,0.5
	c0.2,0.3,0.3,0.6,0.3,0.9c-0.1,0.7-0.7,1.2-1.4,1.1L222.3,62.4 M222.8,60.6h-0.1c-0.4-0.1-0.8,0.2-0.8,0.6c-0.1,0.4,0.2,0.8,0.6,0.8
	c0,0,0.1,0,0.1,0c0.4,0,0.7-0.2,0.8-0.6c0-0.2,0-0.4-0.2-0.5C223.1,60.7,223,60.6,222.8,60.6"/>
<path class="st3" d="M222,63.8l-0.3-0.1l0,0c-0.2-0.1-0.3-0.1-0.5-0.2c0,0,0-0.1,0-0.1l0,0c0,0,0.1,0,0.1,0c0.2,0.1,0.3,0.2,0.5,0.3
	c0.9,0.3,1.8,0.1,2.5-0.5c0.3-0.3,0.6-0.6,0.7-1v-0.1c0-0.1,0.1-0.2,0.1-0.3c0.4-1.3-0.3-2.8-1.7-3.2c-1.3-0.4-2.8,0.3-3.2,1.7l0,0
	c0,0.1-0.1,0.2-0.1,0.3c-0.1,0.4-0.1,0.7,0,1.1l0,0c0,0,0,0.1-0.1,0.1c0,0-0.1,0-0.1-0.1c-0.1-0.4-0.1-0.8,0-1.2
	c0-0.1,0-0.2,0.1-0.3c0.5-1.4,2.1-2.1,3.5-1.6c1.3,0.5,2,1.9,1.7,3.2c0,0.1,0,0.2-0.1,0.3C224.8,63.5,223.4,64.2,222,63.8"/>
<path class="st4" d="M226.4,68.3L226.4,68.3l0.5-0.1c0.1,0.2,0.3,0.3,0.5,0.4v0.5l0,0l0.5,0.2l0,0l0.3-0.3c0.2,0,0.4,0,0.6,0
	l0.3,0.3l0,0l0.5-0.2l0,0v-0.4c0.2-0.1,0.3-0.3,0.4-0.5h0.4l0,0l0.2-0.5l0,0l-0.4-0.3c0-0.2,0-0.4,0-0.6l0.3-0.3l0,0l-0.2-0.5l0,0
	h-0.5c-0.1-0.2-0.3-0.3-0.5-0.4v-0.6l0,0l-0.5-0.2h-0.1l-0.3,0.4c-0.2,0-0.4,0-0.6,0l-0.3-0.3l0,0l-0.5,0.2l0,0v0.4
	c-0.2,0.1-0.3,0.3-0.4,0.5h-0.5l0,0l-0.2,0.5l0,0l0.4,0.3c0,0.2,0,0.4,0,0.6l-0.3,0.3l0,0L226.4,68.3z"/>
<path class="st3" d="M228.3,67.6c-0.3-0.1-0.5-0.4-0.4-0.7c0-0.1,0.1-0.2,0.2-0.3c0.1-0.1,0.3-0.2,0.4-0.1c0.2,0,0.3,0.1,0.4,0.2
	c0.2,0.3,0.2,0.7-0.1,0.9C228.7,67.6,228.5,67.6,228.3,67.6L228.3,67.6 M228.5,66.7L228.5,66.7c-0.2,0-0.4,0.1-0.4,0.3c0,0,0,0,0,0
	c0,0.2,0.1,0.4,0.3,0.4c0.1,0,0.2,0,0.3-0.1c0.2-0.1,0.2-0.3,0.1-0.5c0,0,0,0,0,0C228.6,66.8,228.6,66.7,228.5,66.7"/>
<path class="st3" d="M228.1,68.3h-0.1l0,0c-0.1,0-0.2-0.1-0.2-0.1l0,0l0,0 M227.8,68.2c0.1,0,0.2,0.1,0.2,0.1
	c0.4,0.2,0.9,0.1,1.3-0.2c0.2-0.1,0.3-0.3,0.4-0.5l0,0c0,0,0-0.1,0-0.1c0.1-0.7-0.3-1.4-1-1.5c-0.6-0.1-1.2,0.2-1.4,0.7
	c0,0,0,0.1,0,0.1c0,0.2,0,0.4,0,0.6l0,0l0,0l0,0c0-0.2,0-0.4,0-0.6v-0.1c0.2-0.7,1-1.1,1.7-0.9s1.1,1,0.9,1.7c0,0.1,0,0.1,0,0.1
	c-0.2,0.7-0.9,1-1.6,0.8"/>
<path class="st4" d="M224.8,56.1L224.8,56.1l0.6-0.1c0.2,0.2,0.4,0.4,0.6,0.5v0.6l0,0l0.6,0.2 M226.7,57.4L227,57c0.3,0,0.5,0,0.8,0
	l0.4,0.4 M228.3,57.4l0.6-0.3l0,0l-0.1-0.6c0.2-0.2,0.4-0.4,0.6-0.6h0.6l0,0l0.2-0.6c0,0,0,0,0-0.1l-0.4-0.4c0-0.3,0-0.5,0-0.8
	l0.4-0.4 M230.2,53.6L230,53c0,0,0,0-0.1,0l-0.6,0.1c-0.2-0.2-0.4-0.4-0.6-0.5v-0.6l0,0l-0.6-0.2l0,0l-0.4,0.4c-0.3,0-0.5,0-0.8,0
	l-0.4-0.4c0,0,0,0-0.1,0l-0.6,0.3c0,0,0,0,0,0l0.1,0.6c-0.2,0.2-0.4,0.4-0.6,0.6h-0.6c0,0,0,0-0.1,0l-0.2,0.7l0,0l0.4,0.4
	c0,0.3,0,0.5,0,0.8l-0.4,0.4l0,0L230.2,53.6z"/>
<path class="st3" d="M227.2,55.3c-0.4-0.1-0.6-0.4-0.6-0.8c0-0.2,0.1-0.4,0.3-0.5c0.2-0.1,0.4-0.2,0.6-0.2c0.2,0,0.4,0.1,0.5,0.3
	c0.3,0.3,0.2,0.8-0.1,1.1c-0.2,0.1-0.4,0.2-0.6,0.2L227.2,55.3 M227.5,54.1L227.5,54.1c-0.3,0-0.5,0.2-0.6,0.4
	c0,0.2,0.1,0.5,0.4,0.5c0,0,0,0,0,0c0.1,0,0.2,0,0.3-0.1c0.1-0.1,0.1-0.2,0.2-0.3c0-0.1,0-0.2-0.1-0.3
	C227.7,54.2,227.6,54.2,227.5,54.1"/>
<path class="st3" d="M227,56.2l-0.2,0l0,0l-0.3-0.2 M226.5,55.9L226.5,55.9 M226.6,55.9c0.1,0.1,0.2,0.1,0.3,0.2
	c0.8,0.3,1.7-0.1,2-0.9c0,0,0,0,0-0.1c0-0.1,0-0.1,0.1-0.2c0.3-0.8-0.2-1.8-1-2s-1.8,0.2-2,1c0,0.1,0,0.1,0,0.2c0,0.2,0,0.5,0,0.7
	l0,0l0,0 M225.8,54.8c-0.1-0.2-0.1-0.5,0-0.8c0,0,0-0.1,0.1-0.2c0.3-0.9,1.3-1.3,2.2-1c0.8,0.3,1.2,1.1,1,2c0,0.1,0,0.1-0.1,0.2
	c-0.3,0.8-1.2,1.3-2,1.1"/>
<path class="st7" d="M223.3,28.8c0.8,6.1-6.5,13.5-14.7,15c-8.7,1.6-18.6-3.6-20.6-11.8c-1.1-4.5,0.1-10.1,3.8-13.3
	C200.7,11,222.1,19.2,223.3,28.8"/>
<g>
	<defs>
		<path id="SVGID_125_" d="M202.5,38c0,0.6,0.5,1.1,1.1,1.1H229h0.1c0.6,0,1.1-0.5,1.1-1.1c0-0.6-0.5-1.1-1.1-1.1h-25.4l0,0
			C203,36.9,202.5,37.4,202.5,38"/>
	</defs>
	<clipPath id="SVGID_126_">
		<use xlink:href="#SVGID_125_"  style="overflow:visible;"/>
	</clipPath>
	<g class="st84">
		
			<linearGradient id="SVGID_127_" gradientUnits="userSpaceOnUse" x1="-685.2158" y1="-30.8757" x2="-684.2158" y2="-30.8757" gradientTransform="matrix(61.1278 38.0635 -38.0635 61.1278 40849.2109 27958.7852)">
			<stop  offset="0" style="stop-color:#1D2354"/>
			<stop  offset="1" style="stop-color:#293984"/>
		</linearGradient>
		<polygon class="st85" points="201.5,38.5 210.2,24.5 231.2,37.5 222.4,51.6 		"/>
	</g>
</g>
<g>
	<defs>
		<path id="SVGID_128_" d="M180.8,16.1c-0.9,0-1.7,0.7-1.7,1.7c0,0.2,0,0.4,0.1,0.6l7.6,19.2c0.4,0.9,1.3,1.6,2.3,1.5h26.3
			l-9.8-20.7c-0.7-1.4-2-2.3-3.6-2.3H180.8z"/>
	</defs>
	<clipPath id="SVGID_129_">
		<use xlink:href="#SVGID_128_"  style="overflow:visible;"/>
	</clipPath>
	<g class="st86">
		
			<linearGradient id="SVGID_130_" gradientUnits="userSpaceOnUse" x1="-685.2744" y1="-31.0764" x2="-684.2744" y2="-31.0764" gradientTransform="matrix(59.1657 41.0294 -41.0294 59.1657 39446.9688 29968.9844)">
			<stop  offset="0" style="stop-color:#1D2354"/>
			<stop  offset="1" style="stop-color:#293984"/>
		</linearGradient>
		<polygon class="st87" points="168,31.7 190.7,-1 226.1,23.6 203.5,56.3 		"/>
	</g>
</g>
<g>
	<defs>
		<path id="SVGID_131_" d="M193.3,24.7c-0.9,0.3-1.2,1.7-0.8,3.1s1.5,2.4,2.4,2.1s1.2-1.7,0.8-3.1c-0.4-1.3-1.3-2.1-2.1-2.1
			C193.5,24.6,193.4,24.7,193.3,24.7"/>
	</defs>
	<clipPath id="SVGID_132_">
		<use xlink:href="#SVGID_131_"  style="overflow:visible;"/>
	</clipPath>
	<g class="st88">
		
			<linearGradient id="SVGID_133_" gradientUnits="userSpaceOnUse" x1="-690.3728" y1="-35.4181" x2="-689.3728" y2="-35.4181" gradientTransform="matrix(-18.0849 32.1873 -32.1873 -18.0849 -13426.4424 21599.6875)">
			<stop  offset="0" style="stop-color:#3C59A8"/>
			<stop  offset="1" style="stop-color:#445FAB"/>
		</linearGradient>
		<polygon class="st89" points="189.7,28.8 193.1,22.9 198.5,26 195.2,31.9 		"/>
	</g>
</g>
<path class="st7" d="M180.3,51.8c0.3-0.2,8.1-9.8,8.1-9.8l5.3,6.6c0,0,12-9.8,11.8-9.3s-11.3,13.3-11.3,13.3l-5.9-8.9L180.3,51.8z"
	/>
<path class="st7" d="M232.8,106.4c0.3,4.9-2,9.5-6,12.3c-10.1,6.6-29.9-3.3-30.2-12.3c-0.2-6.8,10.7-15.7,21.3-14
	C224.6,93.4,232.2,98.8,232.8,106.4"/>
<path class="st7" d="M187.8,90.5c0.3,0.1,10.2-0.3,10.2-0.3l-1.2,6.7c0,0,12.3,2,11.9,2.1s-14.1,0.3-14.1,0.3l2.2-8.3L187.8,90.5z"
	/>
<path class="st4" d="M206.6,111.2c0,0.1,0.1,0.1,0.2,0.1l1.9-0.2c0.6,0.7,1.2,1.3,2,1.8v1.9c0,0.1,0,0.1,0.1,0.2l2.2,0.8
	c0.1,0,0.1,0,0.2,0l1.2-1.5c0.9,0.1,1.8,0.1,2.7-0.1l1.3,1.4c0.1,0,0.1,0,0.2,0l2.1-1c0.1,0,0.1-0.1,0.1-0.2l-0.2-1.9
	c0.7-0.6,1.3-1.2,1.9-2h1.9c0.1,0,0.1,0,0.2-0.1l0.8-2.2c0-0.1,0-0.1,0-0.2l-1.6-1.1c0.1-0.9,0.1-1.8-0.1-2.7l1.4-1.3
	c0-0.1,0-0.1,0-0.2l-1-2.1c0-0.1-0.1-0.1-0.2-0.1l-1.9,0.2c-0.6-0.7-1.2-1.4-2-1.9V97c0-0.1,0-0.1-0.1-0.2l-2.2-0.8
	c-0.1,0-0.1,0-0.2,0l-1.2,1.5c-0.9-0.1-1.8-0.1-2.7,0.1l-1.3-1.4c-0.1,0-0.1,0-0.2,0l-2.1,1c-0.1,0-0.1,0.1-0.1,0.2l0.2,1.9
	c-0.7,0.6-1.3,1.2-1.9,2h-1.9c-0.1,0-0.1,0-0.1,0.1l-0.8,2.2c0,0.1,0,0.1,0.1,0.2l1.5,1.2c-0.1,0.9-0.1,1.8,0.1,2.7l-1.4,1.3
	c0,0.1,0,0.1,0,0.2L206.6,111.2z"/>
<path class="st3" d="M214.7,108.4c-1.4-0.3-2.2-1.8-1.9-3.2c0.1-0.6,0.5-1,0.9-1.4c0.5-0.4,1.2-0.6,1.9-0.6c0.7,0.1,1.3,0.4,1.8,1
	c0.4,0.5,0.6,1.2,0.6,1.9c-0.2,1.4-1.4,2.5-2.9,2.3L214.7,108.4 M215.7,104.5h-0.2c-0.8-0.1-1.6,0.5-1.7,1.3s0.5,1.6,1.3,1.7
	c0.8,0.1,1.6-0.5,1.7-1.3c0,0,0,0,0,0c0-0.4-0.1-0.8-0.3-1.1C216.3,104.8,216,104.6,215.7,104.5"/>
<path class="st3" d="M214,111.5c-0.2,0-0.4-0.1-0.6-0.2h-0.1c-0.3-0.1-0.7-0.3-1-0.5c-0.1,0-0.1-0.1-0.1-0.2l0,0
	c0.1-0.1,0.2-0.1,0.2-0.1c0,0,0,0,0,0c0.3,0.2,0.7,0.4,1,0.5c2.7,1,5.8-0.3,6.9-3c0-0.1,0.1-0.1,0.1-0.2c1.1-2.8-0.3-5.9-3.1-7
	c-2.8-1.1-5.9,0.3-7,3.1c-0.1,0.2-0.1,0.3-0.2,0.5c-0.2,0.8-0.2,1.6-0.1,2.3c0,0,0,0.1,0,0.1c0,0.1-0.1,0.1-0.1,0.1
	c-0.1,0-0.2,0-0.2-0.2c-0.2-0.8-0.1-1.7,0.1-2.5c0-0.2,0.1-0.4,0.2-0.6c1.1-3,4.4-4.5,7.4-3.4c2.8,1,4.3,4,3.6,6.9
	c0,0.2-0.1,0.4-0.2,0.6C219.8,110.6,216.9,112.2,214,111.5"/>
<g>
	<defs>
		<path id="SVGID_134_" d="M226.4,92.8l-4.5,0.3c-0.5,0-0.8,0.3-0.9,0.8l-0.7,3.1l8.1-0.5l-1-3C227.3,93.1,226.9,92.8,226.4,92.8
			L226.4,92.8"/>
	</defs>
	<clipPath id="SVGID_135_">
		<use xlink:href="#SVGID_134_"  style="overflow:visible;"/>
	</clipPath>
	<g class="st90">
		
			<linearGradient id="SVGID_136_" gradientUnits="userSpaceOnUse" x1="-678.4505" y1="-9.7022" x2="-677.4505" y2="-9.7022" gradientTransform="matrix(6.06 -8.22 8.56 5.75 4414.29 -5420)">
			<stop  offset="0" style="stop-color:#3C59A8"/>
			<stop  offset="1" style="stop-color:#445FAB"/>
		</linearGradient>
		<polygon class="st91" points="218.3,95.6 223,89.2 230.5,94.2 225.8,100.6 		"/>
	</g>
</g>
<g>
	<defs>
		<path id="SVGID_137_" d="M221,110.2c0.1,0.5,0.5,0.8,1,0.8l4.5,0.2c0.4,0,0.9-0.3,1-0.7l1-3l-8.1-0.3L221,110.2z"/>
	</defs>
	<clipPath id="SVGID_138_">
		<use xlink:href="#SVGID_137_"  style="overflow:visible;"/>
	</clipPath>
	<g class="st92">
		
			<linearGradient id="SVGID_139_" gradientUnits="userSpaceOnUse" x1="-672.5548" y1="-14.2991" x2="-671.5548" y2="-14.2991" gradientTransform="matrix(6.23 8.09 8.43 -5.94 4532.46 5462.0503)">
			<stop  offset="0" style="stop-color:#3C59A8"/>
			<stop  offset="1" style="stop-color:#445FAB"/>
		</linearGradient>
		<polygon class="st93" points="218.3,108.6 223.1,114.9 230.4,109.8 225.6,103.5 		"/>
	</g>
</g>
<g>
	<defs>
		<path id="SVGID_140_" d="M228,96.1l-7.7,0.3c-0.6,0-1,0.5-1,1.1l0.1,9.8c0,0.6,0.5,1,1.1,1l7.4-0.1c0.5,0,1-0.5,1-1l0.2-10
			C229.1,96.6,228.6,96.1,228,96.1C228,96.1,228,96.1,228,96.1L228,96.1"/>
	</defs>
	<clipPath id="SVGID_141_">
		<use xlink:href="#SVGID_140_"  style="overflow:visible;"/>
	</clipPath>
	<g class="st94">
		
			<linearGradient id="SVGID_142_" gradientUnits="userSpaceOnUse" x1="-664.9098" y1="-26.0972" x2="-663.9098" y2="-26.0972" gradientTransform="matrix(9.7894 -0.1059 0.1059 9.7894 6734.1221 287.2629)">
			<stop  offset="0" style="stop-color:#CFDAEF"/>
			<stop  offset="1" style="stop-color:#E1E8F6"/>
		</linearGradient>
		<polygon class="st95" points="219.2,96.1 229.1,96 229.3,108.3 219.3,108.4 		"/>
	</g>
</g>
<g>
	<defs>
		<path id="SVGID_143_" d="M228.1,96.3L228.1,96.3l-7.7,0.3c-0.5,0-0.8,0.4-0.8,0.8l0.1,9.8c0,0.5,0.4,0.8,0.8,0.8l7.4-0.1
			c0.5,0,0.8-0.4,0.8-0.8l0.2-10c0-0.2-0.1-0.4-0.2-0.6C228.5,96.4,228.3,96.3,228.1,96.3L228.1,96.3"/>
	</defs>
	<clipPath id="SVGID_144_">
		<use xlink:href="#SVGID_143_"  style="overflow:visible;"/>
	</clipPath>
	<g class="st96">
		
			<linearGradient id="SVGID_145_" gradientUnits="userSpaceOnUse" x1="-690.2171" y1="-38.2909" x2="-689.2171" y2="-38.2909" gradientTransform="matrix(-9.5358 23.8654 -23.8654 -9.5358 -7268.1025 16201.1826)">
			<stop  offset="0" style="stop-color:#F37569"/>
			<stop  offset="1" style="stop-color:#F58F8C"/>
		</linearGradient>
		<polygon class="st97" points="215.5,106.5 220.8,93.1 233,97.9 227.6,111.3 		"/>
	</g>
</g>
<g>
	<defs>
		<rect id="SVGID_146_" x="-460.1" y="-5.4" width="728" height="243"/>
	</defs>
	<clipPath id="SVGID_147_">
		<use xlink:href="#SVGID_146_"  style="overflow:visible;"/>
	</clipPath>
	<g class="st98">
		<g>
			<defs>
				<rect id="SVGID_148_" x="220.3" y="97" width="8" height="10.4"/>
			</defs>
			<clipPath id="SVGID_149_">
				<use xlink:href="#SVGID_148_"  style="overflow:visible;"/>
			</clipPath>
			<g class="st99">
				<path class="st7" d="M220.5,107.4c-0.1,0-0.2-0.1-0.2-0.2l-0.1-9.8c0-0.1,0.1-0.2,0.1-0.2c0,0,0,0,0,0l7.7-0.3c0,0,0.1,0,0.1,0
					c0,0,0,0.1,0.1,0.1l-0.2,10c0,0.1-0.1,0.2-0.1,0.2c0,0,0,0,0,0L220.5,107.4z"/>
			</g>
		</g>
	</g>
</g>
<g>
	<defs>
		<path id="SVGID_150_" d="M221.9,106.6c-0.1,0.2-0.1,0.4,0.1,0.6c0.2,0.1,0.4,0.1,0.6-0.1c0.1-0.2,0.1-0.4-0.1-0.5c0,0,0,0,0,0
			c-0.1,0-0.1-0.1-0.2-0.1C222,106.4,221.9,106.5,221.9,106.6"/>
	</defs>
	<clipPath id="SVGID_151_">
		<use xlink:href="#SVGID_150_"  style="overflow:visible;"/>
	</clipPath>
	<g class="st100">
		
			<linearGradient id="SVGID_152_" gradientUnits="userSpaceOnUse" x1="-643.8251" y1="-49.8685" x2="-642.8251" y2="-49.8685" gradientTransform="matrix(3.9651 2.5789 -2.5789 3.9651 2915.3296 2139.8523)">
			<stop  offset="0" style="stop-color:#F37569"/>
			<stop  offset="1" style="stop-color:#F58F8C"/>
		</linearGradient>
		<polygon class="st101" points="221.4,107 222,106 223,106.7 222.4,107.7 		"/>
	</g>
</g>
<g>
	<defs>
		<path id="SVGID_153_" d="M223.3,106.6c-0.1,0.2-0.1,0.4,0.1,0.5c0.2,0.1,0.4,0.1,0.5-0.1c0.1-0.2,0.1-0.4-0.1-0.5c0,0,0,0,0,0
			c-0.1,0-0.1-0.1-0.2-0.1C223.5,106.4,223.4,106.5,223.3,106.6"/>
	</defs>
	<clipPath id="SVGID_154_">
		<use xlink:href="#SVGID_153_"  style="overflow:visible;"/>
	</clipPath>
	<g class="st102">
		
			<linearGradient id="SVGID_155_" gradientUnits="userSpaceOnUse" x1="-643.8251" y1="-49.8844" x2="-642.8251" y2="-49.8844" gradientTransform="matrix(3.9651 2.5789 -2.5789 3.9651 2915.6665 2139.2197)">
			<stop  offset="0" style="stop-color:#F37569"/>
			<stop  offset="1" style="stop-color:#F58F8C"/>
		</linearGradient>
		<polygon class="st103" points="222.8,107 223.4,106 224.5,106.7 223.8,107.7 		"/>
	</g>
</g>
<g>
	<defs>
		<path id="SVGID_156_" d="M224.7,106.6c-0.1,0.2-0.1,0.4,0.1,0.5c0.2,0.1,0.4,0.1,0.5-0.1c0.1-0.2,0.1-0.4-0.1-0.5c0,0,0,0,0,0
			c-0.1,0-0.1-0.1-0.2-0.1C224.9,106.4,224.8,106.5,224.7,106.6"/>
	</defs>
	<clipPath id="SVGID_157_">
		<use xlink:href="#SVGID_156_"  style="overflow:visible;"/>
	</clipPath>
	<g class="st104">
		
			<linearGradient id="SVGID_158_" gradientUnits="userSpaceOnUse" x1="-693.1" y1="8.4751" x2="-692.1" y2="8.4751" gradientTransform="matrix(0.1177 -5.9688 5.9688 0.1177 256.1154 -4035.1614)">
			<stop  offset="0" style="stop-color:#F37569"/>
			<stop  offset="1" style="stop-color:#F58F8C"/>
		</linearGradient>
		<polygon class="st105" points="224.6,107.2 224.6,106.4 225.5,106.4 225.5,107.2 		"/>
	</g>
</g>
<g>
	<defs>
		<path id="SVGID_159_" d="M226.1,106.6c-0.1,0.2-0.1,0.4,0.1,0.5c0.2,0.1,0.4,0.1,0.5-0.1c0.1-0.2,0.1-0.4-0.1-0.5c0,0,0,0,0,0
			c-0.1,0-0.1-0.1-0.2-0.1C226.3,106.4,226.2,106.5,226.1,106.6"/>
	</defs>
	<clipPath id="SVGID_160_">
		<use xlink:href="#SVGID_159_"  style="overflow:visible;"/>
	</clipPath>
	<g class="st106">
		
			<linearGradient id="SVGID_161_" gradientUnits="userSpaceOnUse" x1="-690.6107" y1="16.0864" x2="-689.6107" y2="16.0864" gradientTransform="matrix(0.4726 -5.0278 5.0278 0.4726 471.9693 -3373.1394)">
			<stop  offset="0" style="stop-color:#F37569"/>
			<stop  offset="1" style="stop-color:#F58F8C"/>
		</linearGradient>
		<polygon class="st107" points="225.9,107.2 226,106.3 227,106.4 226.9,107.3 		"/>
	</g>
</g>
<path class="st4" d="M223.3,93.7C223.3,93.7,223.3,93.7,223.3,93.7c-0.1-0.1,0-0.1,0-0.1h0.4c0,0,0.1,0,0.1,0.1c0,0,0,0.1-0.1,0.1
	H223.3L223.3,93.7"/>
<path class="st4" d="M221.2,95.9L221.2,95.9C221.2,95.9,221.2,95.9,221.2,95.9l0.2-1.5c0.1-0.4,0.4-0.6,0.7-0.7l0.8-0.1
	c0,0,0.1,0,0.1,0.1c0,0,0,0,0,0.1l-0.8,0.1c-0.3,0-0.6,0.3-0.6,0.6l-0.2,1.5C221.3,95.9,221.3,95.9,221.2,95.9"/>
<path class="st3" d="M70.5,74.4c-1-0.1-2,0.1-2.9,0.4c-2.1,0.8-4,3-3.4,5.3c0.2,0.8,0,1.6,0.8,2c0.6,0.2,1.3,0.3,1.9,0.2
	c1-0.1,1.6-1,1.5-2c0-0.2-0.1-0.3-0.1-0.5c-0.2-0.4-0.4-0.7-0.6-1.1c-0.2-0.4-0.2-0.8,0-1.2c0.4-0.7,1.5-0.9,2.2-0.8
	c0.8,0.1,1.6,0.5,2,1.3c1,2,0.6,4.3-0.9,5.9c-0.6,0.7-1.3,1.5-1.8,2.3c-1.3,1.9-2,4.4-1.3,5c0,0,0,0,0.7,0.1
	c0.6,0.1,1.2,0.1,1.8,0.1c0.1,0,0.1-0.1,0.1-0.1c0,0,0,0,0,0c0-2.4,1.1-4.6,2.9-6.2c0.7-0.5,1.4-1.1,2-1.7c0.8-0.9,1.3-2.2,1.2-3.4
	c0-1.2-0.4-2.4-1.1-3.3c-0.8-1-2-1.7-3.2-2C71.7,74.5,71.1,74.4,70.5,74.4"/>
<path class="st3" d="M63.4,77.6c-0.1-0.2-0.2-0.4-0.3-0.6L63.4,77.6z"/>
<path class="st3" d="M71.5,94.3c0,0.9-0.8,1.7-1.7,1.7s-1.7-0.8-1.7-1.7c0-0.9,0.8-1.7,1.7-1.7h0C70.8,92.6,71.5,93.3,71.5,94.3"/>
</svg>
